<svg width="1000" height="700" viewBox="0 0 1000 700" fill="none" xmlns="http://www.w3.org/2000/svg">
<rect width="1000" height="700" fill="#FCFCFF"/>
<rect x="273" y="291" width="453.457" height="118" rx="8.42857" fill="#F2F2F2"/>
<g clip-path="url(#clip0_5_963)">
<line x1="481.403" y1="442.15" x2="698.86" y2="201.093" stroke="#E8E8E8" stroke-width="1.68571"/>
<line x1="649.974" y1="442.15" x2="867.431" y2="201.093" stroke="#E8E8E8" stroke-width="1.68571"/>
<line x1="565.688" y1="442.15" x2="783.146" y2="201.093" stroke="#E8E8E8" stroke-width="1.68571"/>
<line x1="523.546" y1="442.15" x2="741.003" y2="201.093" stroke="#E8E8E8" stroke-width="1.68571"/>
<line x1="692.117" y1="442.15" x2="909.574" y2="201.093" stroke="#E8E8E8" stroke-width="1.68571"/>
<line x1="607.831" y1="442.15" x2="825.288" y2="201.093" stroke="#E8E8E8" stroke-width="1.68571"/>
<line x1="489.831" y1="442.15" x2="707.288" y2="201.093" stroke="#E8E8E8" stroke-width="1.68571"/>
<line x1="658.403" y1="442.15" x2="875.86" y2="201.093" stroke="#E8E8E8" stroke-width="1.68571"/>
<line x1="574.117" y1="442.15" x2="791.574" y2="201.093" stroke="#E8E8E8" stroke-width="1.68571"/>
<line x1="531.974" y1="442.15" x2="749.431" y2="201.093" stroke="#E8E8E8" stroke-width="1.68571"/>
<line x1="700.546" y1="442.15" x2="918.003" y2="201.093" stroke="#E8E8E8" stroke-width="1.68571"/>
<line x1="616.26" y1="442.15" x2="833.717" y2="201.093" stroke="#E8E8E8" stroke-width="1.68571"/>
<line x1="498.26" y1="442.15" x2="715.717" y2="201.093" stroke="#E8E8E8" stroke-width="1.68571"/>
<line x1="666.831" y1="442.15" x2="884.288" y2="201.093" stroke="#E8E8E8" stroke-width="1.68571"/>
<line x1="582.546" y1="442.15" x2="800.003" y2="201.093" stroke="#E8E8E8" stroke-width="1.68571"/>
<line x1="540.403" y1="442.15" x2="757.86" y2="201.093" stroke="#E8E8E8" stroke-width="1.68571"/>
<line x1="708.974" y1="442.15" x2="926.431" y2="201.093" stroke="#E8E8E8" stroke-width="1.68571"/>
<line x1="624.688" y1="442.15" x2="842.146" y2="201.093" stroke="#E8E8E8" stroke-width="1.68571"/>
<line x1="506.688" y1="442.15" x2="724.146" y2="201.093" stroke="#E8E8E8" stroke-width="1.68571"/>
<line x1="675.26" y1="442.15" x2="892.717" y2="201.093" stroke="#E8E8E8" stroke-width="1.68571"/>
<line x1="590.974" y1="442.15" x2="808.431" y2="201.093" stroke="#E8E8E8" stroke-width="1.68571"/>
<line x1="548.831" y1="442.15" x2="766.288" y2="201.093" stroke="#E8E8E8" stroke-width="1.68571"/>
<line x1="717.403" y1="442.15" x2="934.86" y2="201.093" stroke="#E8E8E8" stroke-width="1.68571"/>
<line x1="633.117" y1="442.15" x2="850.574" y2="201.093" stroke="#E8E8E8" stroke-width="1.68571"/>
<line x1="515.117" y1="442.15" x2="732.574" y2="201.093" stroke="#E8E8E8" stroke-width="1.68571"/>
<line x1="683.688" y1="442.15" x2="901.146" y2="201.093" stroke="#E8E8E8" stroke-width="1.68571"/>
<line x1="599.403" y1="442.15" x2="816.86" y2="201.093" stroke="#E8E8E8" stroke-width="1.68571"/>
<line x1="557.26" y1="442.15" x2="774.717" y2="201.093" stroke="#E8E8E8" stroke-width="1.68571"/>
<line x1="725.831" y1="442.15" x2="943.288" y2="201.093" stroke="#E8E8E8" stroke-width="1.68571"/>
<line x1="641.546" y1="442.15" x2="859.003" y2="201.093" stroke="#E8E8E8" stroke-width="1.68571"/>
</g>
<mask id="mask0_5_963" style="mask-type:alpha" maskUnits="userSpaceOnUse" x="273" y="291" width="454" height="118">
<rect x="273" y="291" width="453.457" height="118" rx="8.42857" fill="#8072FC"/>
</mask>
<g mask="url(#mask0_5_963)">
<path d="M148.299 349.348L157.402 363.971H152.007L145.391 353.351L139.196 363.971H133.844L142.947 349.348L133.802 334.682H139.196L145.855 345.386L152.092 334.682H157.444L148.299 349.348ZM164.699 357.439C167.396 355.107 169.517 353.197 171.063 351.708C172.636 350.191 173.942 348.617 174.982 346.988C176.021 345.358 176.541 343.729 176.541 342.099C176.541 340.414 176.134 339.093 175.319 338.138C174.532 337.183 173.282 336.705 171.568 336.705C169.911 336.705 168.618 337.239 167.691 338.306C166.792 339.346 166.314 340.751 166.258 342.521H161.623C161.707 339.318 162.662 336.874 164.488 335.188C166.343 333.474 168.688 332.617 171.526 332.617C174.588 332.617 176.977 333.46 178.69 335.146C180.432 336.831 181.303 339.079 181.303 341.889C181.303 343.911 180.783 345.864 179.744 347.746C178.733 349.601 177.51 351.272 176.078 352.761C174.673 354.222 172.875 355.922 170.683 357.861L168.787 359.546H182.146V363.55H161.665V360.052L164.699 357.439ZM185.777 357.566V353.941L199.937 333.629H205.752V353.394H209.672V357.566H205.752V363.971H201.032V357.566H185.777ZM201.243 338.517L191.297 353.394H201.243V338.517ZM230.172 340.371C229.863 339.079 229.302 338.11 228.487 337.464C227.672 336.817 226.534 336.494 225.073 336.494C222.854 336.494 221.196 337.351 220.1 339.065C219.005 340.751 218.429 343.56 218.372 347.494C219.103 346.257 220.171 345.302 221.575 344.628C222.98 343.954 224.497 343.616 226.127 343.616C227.981 343.616 229.611 344.024 231.015 344.839C232.448 345.625 233.558 346.777 234.345 348.294C235.159 349.811 235.567 351.624 235.567 353.731C235.567 355.697 235.173 357.453 234.387 358.999C233.628 360.544 232.49 361.766 230.973 362.665C229.456 363.536 227.63 363.971 225.495 363.971C222.601 363.971 220.325 363.339 218.667 362.075C217.038 360.783 215.886 358.97 215.212 356.639C214.566 354.307 214.242 351.399 214.242 347.915C214.242 337.632 217.867 332.491 225.115 332.491C227.925 332.491 230.13 333.249 231.732 334.766C233.361 336.284 234.317 338.152 234.597 340.371H230.172ZM225.073 347.662C223.359 347.662 221.898 348.182 220.69 349.221C219.51 350.233 218.92 351.708 218.92 353.646C218.92 355.585 219.468 357.13 220.564 358.282C221.688 359.406 223.247 359.968 225.242 359.968C227.012 359.968 228.402 359.42 229.414 358.324C230.453 357.229 230.973 355.768 230.973 353.941C230.973 352.031 230.467 350.514 229.456 349.39C228.473 348.238 227.012 347.662 225.073 347.662ZM259.15 346.693V350.739H241.829V346.693H259.15ZM264.711 337.632V333.249H273.477V363.971H268.63V337.632H264.711ZM299.547 336.958L287.831 363.971H282.985L294.827 337.464H279.234V333.376H299.547V336.958ZM325.489 343.111C324.73 341.65 323.677 340.554 322.328 339.824C320.979 339.065 319.42 338.686 317.65 338.686C315.712 338.686 313.984 339.121 312.467 339.992C310.949 340.863 309.755 342.099 308.884 343.701C308.042 345.302 307.62 347.156 307.62 349.264C307.62 351.371 308.042 353.239 308.884 354.869C309.755 356.47 310.949 357.706 312.467 358.577C313.984 359.448 315.712 359.884 317.65 359.884C320.263 359.884 322.384 359.153 324.014 357.692C325.643 356.231 326.641 354.25 327.006 351.75H316.007V347.915H332.147V351.666C331.838 353.941 331.024 356.035 329.703 357.945C328.411 359.855 326.711 361.387 324.604 362.539C322.525 363.662 320.207 364.224 317.65 364.224C314.897 364.224 312.382 363.592 310.107 362.328C307.831 361.035 306.019 359.251 304.67 356.976C303.35 354.7 302.689 352.129 302.689 349.264C302.689 346.398 303.35 343.827 304.67 341.551C306.019 339.276 307.831 337.506 310.107 336.241C312.41 334.949 314.925 334.303 317.65 334.303C320.769 334.303 323.536 335.075 325.952 336.621C328.397 338.138 330.167 340.301 331.262 343.111H325.489ZM355.808 334.682V338.601H348.011V363.971H343.207V338.601H335.369V334.682H355.808ZM378.5 346.693V350.739H361.179V346.693H378.5ZM398.685 364.266C395.959 364.266 393.445 363.634 391.141 362.37C388.865 361.078 387.053 359.294 385.705 357.018C384.384 354.714 383.724 352.129 383.724 349.264C383.724 346.398 384.384 343.827 385.705 341.551C387.053 339.276 388.865 337.506 391.141 336.241C393.445 334.949 395.959 334.303 398.685 334.303C401.438 334.303 403.953 334.949 406.228 336.241C408.532 337.506 410.344 339.276 411.665 341.551C412.985 343.827 413.645 346.398 413.645 349.264C413.645 352.129 412.985 354.714 411.665 357.018C410.344 359.294 408.532 361.078 406.228 362.37C403.953 363.634 401.438 364.266 398.685 364.266ZM398.685 360.094C400.623 360.094 402.351 359.659 403.868 358.788C405.385 357.889 406.565 356.625 407.408 354.995C408.279 353.337 408.715 351.427 408.715 349.264C408.715 347.1 408.279 345.204 407.408 343.574C406.565 341.945 405.385 340.695 403.868 339.824C402.351 338.953 400.623 338.517 398.685 338.517C396.746 338.517 395.018 338.953 393.501 339.824C391.984 340.695 390.79 341.945 389.919 343.574C389.076 345.204 388.655 347.1 388.655 349.264C388.655 351.427 389.076 353.337 389.919 354.995C390.79 356.625 391.984 357.889 393.501 358.788C395.018 359.659 396.746 360.094 398.685 360.094ZM426.801 364.351C424.975 364.351 423.332 364.028 421.871 363.381C420.438 362.707 419.3 361.808 418.457 360.684C417.614 359.532 417.165 358.254 417.109 356.849H422.081C422.166 357.833 422.629 358.661 423.472 359.336C424.343 359.982 425.425 360.305 426.717 360.305C428.066 360.305 429.105 360.052 429.836 359.546C430.594 359.013 430.974 358.338 430.974 357.524C430.974 356.653 430.552 356.006 429.709 355.585C428.895 355.164 427.588 354.7 425.79 354.194C424.048 353.717 422.629 353.253 421.534 352.804C420.438 352.354 419.483 351.666 418.668 350.739C417.881 349.811 417.488 348.589 417.488 347.072C417.488 345.836 417.853 344.712 418.584 343.701C419.314 342.661 420.354 341.846 421.702 341.256C423.079 340.666 424.652 340.371 426.422 340.371C429.063 340.371 431.184 341.046 432.786 342.394C434.415 343.715 435.286 345.527 435.399 347.831H430.594C430.51 346.791 430.089 345.962 429.33 345.344C428.571 344.726 427.546 344.417 426.254 344.417C424.989 344.417 424.02 344.656 423.346 345.134C422.671 345.611 422.334 346.243 422.334 347.03C422.334 347.648 422.559 348.168 423.009 348.589C423.458 349.011 424.006 349.348 424.652 349.601C425.298 349.825 426.254 350.12 427.518 350.486C429.204 350.935 430.58 351.399 431.648 351.876C432.744 352.326 433.685 353 434.471 353.899C435.258 354.798 435.666 355.992 435.694 357.481C435.694 358.802 435.328 359.982 434.598 361.021C433.867 362.061 432.828 362.876 431.479 363.466C430.159 364.056 428.6 364.351 426.801 364.351ZM449.313 364.351C447.487 364.351 445.844 364.028 444.383 363.381C442.95 362.707 441.812 361.808 440.969 360.684C440.126 359.532 439.677 358.254 439.621 356.849H444.593C444.678 357.833 445.141 358.661 445.984 359.336C446.855 359.982 447.937 360.305 449.229 360.305C450.578 360.305 451.617 360.052 452.348 359.546C453.106 359.013 453.486 358.338 453.486 357.524C453.486 356.653 453.064 356.006 452.221 355.585C451.406 355.164 450.1 354.7 448.302 354.194C446.56 353.717 445.141 353.253 444.046 352.804C442.95 352.354 441.995 351.666 441.18 350.739C440.393 349.811 440 348.589 440 347.072C440 345.836 440.365 344.712 441.096 343.701C441.826 342.661 442.866 341.846 444.214 341.256C445.591 340.666 447.164 340.371 448.934 340.371C451.575 340.371 453.696 341.046 455.298 342.394C456.927 343.715 457.798 345.527 457.911 347.831H453.106C453.022 346.791 452.601 345.962 451.842 345.344C451.083 344.726 450.058 344.417 448.766 344.417C447.501 344.417 446.532 344.656 445.858 345.134C445.183 345.611 444.846 346.243 444.846 347.03C444.846 347.648 445.071 348.168 445.521 348.589C445.97 349.011 446.518 349.348 447.164 349.601C447.81 349.825 448.766 350.12 450.03 350.486C451.716 350.935 453.092 351.399 454.16 351.876C455.256 352.326 456.197 353 456.983 353.899C457.77 354.798 458.177 355.992 458.206 357.481C458.206 358.802 457.84 359.982 457.11 361.021C456.379 362.061 455.34 362.876 453.991 363.466C452.671 364.056 451.111 364.351 449.313 364.351ZM471.825 364.351C469.999 364.351 468.355 364.028 466.895 363.381C465.462 362.707 464.324 361.808 463.481 360.684C462.638 359.532 462.189 358.254 462.132 356.849H467.105C467.19 357.833 467.653 358.661 468.496 359.336C469.367 359.982 470.449 360.305 471.741 360.305C473.09 360.305 474.129 360.052 474.86 359.546C475.618 359.013 475.997 358.338 475.997 357.524C475.997 356.653 475.576 356.006 474.733 355.585C473.918 355.164 472.612 354.7 470.814 354.194C469.072 353.717 467.653 353.253 466.557 352.804C465.462 352.354 464.506 351.666 463.692 350.739C462.905 349.811 462.512 348.589 462.512 347.072C462.512 345.836 462.877 344.712 463.607 343.701C464.338 342.661 465.377 341.846 466.726 341.256C468.103 340.666 469.676 340.371 471.446 340.371C474.087 340.371 476.208 341.046 477.81 342.394C479.439 343.715 480.31 345.527 480.422 347.831H475.618C475.534 346.791 475.112 345.962 474.354 345.344C473.595 344.726 472.57 344.417 471.277 344.417C470.013 344.417 469.044 344.656 468.37 345.134C467.695 345.611 467.358 346.243 467.358 347.03C467.358 347.648 467.583 348.168 468.032 348.589C468.482 349.011 469.03 349.348 469.676 349.601C470.322 349.825 471.277 350.12 472.542 350.486C474.227 350.935 475.604 351.399 476.672 351.876C477.767 352.326 478.709 353 479.495 353.899C480.282 354.798 480.689 355.992 480.717 357.481C480.717 358.802 480.352 359.982 479.622 361.021C478.891 362.061 477.852 362.876 476.503 363.466C475.183 364.056 473.623 364.351 471.825 364.351ZM494.337 364.351C492.511 364.351 490.867 364.028 489.406 363.381C487.974 362.707 486.836 361.808 485.993 360.684C485.15 359.532 484.7 358.254 484.644 356.849H489.617C489.701 357.833 490.165 358.661 491.008 359.336C491.879 359.982 492.96 360.305 494.253 360.305C495.601 360.305 496.641 360.052 497.371 359.546C498.13 359.013 498.509 358.338 498.509 357.524C498.509 356.653 498.088 356.006 497.245 355.585C496.43 355.164 495.124 354.7 493.326 354.194C491.584 353.717 490.165 353.253 489.069 352.804C487.974 352.354 487.018 351.666 486.204 350.739C485.417 349.811 485.024 348.589 485.024 347.072C485.024 345.836 485.389 344.712 486.119 343.701C486.85 342.661 487.889 341.846 489.238 341.256C490.614 340.666 492.188 340.371 493.958 340.371C496.599 340.371 498.72 341.046 500.321 342.394C501.951 343.715 502.822 345.527 502.934 347.831H498.13C498.046 346.791 497.624 345.962 496.866 345.344C496.107 344.726 495.082 344.417 493.789 344.417C492.525 344.417 491.556 344.656 490.881 345.134C490.207 345.611 489.87 346.243 489.87 347.03C489.87 347.648 490.095 348.168 490.544 348.589C490.994 349.011 491.542 349.348 492.188 349.601C492.834 349.825 493.789 350.12 495.054 350.486C496.739 350.935 498.116 351.399 499.184 351.876C500.279 352.326 501.22 353 502.007 353.899C502.794 354.798 503.201 355.992 503.229 357.481C503.229 358.802 502.864 359.982 502.134 361.021C501.403 362.061 500.364 362.876 499.015 363.466C497.694 364.056 496.135 364.351 494.337 364.351ZM513.225 360.094H523.128V363.971H508.42V334.682H513.225V360.094ZM546.321 337.379H532.203V345.766C532.793 344.979 533.664 344.319 534.816 343.785C535.996 343.251 537.246 342.984 538.567 342.984C540.927 342.984 542.837 343.49 544.298 344.501C545.787 345.513 546.841 346.791 547.459 348.336C548.105 349.882 548.428 351.511 548.428 353.225C548.428 355.304 548.021 357.158 547.206 358.788C546.419 360.389 545.225 361.654 543.624 362.581C542.05 363.508 540.112 363.971 537.808 363.971C534.746 363.971 532.287 363.213 530.433 361.696C528.579 360.179 527.469 358.17 527.104 355.669H531.782C532.091 356.99 532.779 358.043 533.847 358.83C534.914 359.589 536.249 359.968 537.85 359.968C539.845 359.968 541.334 359.364 542.317 358.156C543.329 356.948 543.835 355.346 543.835 353.351C543.835 351.329 543.329 349.783 542.317 348.716C541.306 347.62 539.817 347.072 537.85 347.072C536.474 347.072 535.308 347.423 534.352 348.126C533.425 348.8 532.751 349.727 532.33 350.907H527.778V333.165H546.321V337.379ZM572.899 336.958L561.184 363.971H556.337L568.179 337.464H552.586V333.376H572.899V336.958ZM593.784 363.971L582.448 350.865V363.971H577.643V334.682H582.448V348.041L593.826 334.682H599.853L587.125 349.348L600.063 363.971H593.784ZM623.487 337.379H609.369V345.766C609.959 344.979 610.83 344.319 611.982 343.785C613.162 343.251 614.412 342.984 615.733 342.984C618.093 342.984 620.003 343.49 621.464 344.501C622.953 345.513 624.007 346.791 624.625 348.336C625.271 349.882 625.594 351.511 625.594 353.225C625.594 355.304 625.187 357.158 624.372 358.788C623.585 360.389 622.391 361.654 620.79 362.581C619.216 363.508 617.278 363.971 614.974 363.971C611.912 363.971 609.453 363.213 607.599 361.696C605.745 360.179 604.635 358.17 604.27 355.669H608.948C609.257 356.99 609.945 358.043 611.013 358.83C612.08 359.589 613.415 359.968 615.016 359.968C617.011 359.968 618.5 359.364 619.483 358.156C620.495 356.948 621 355.346 621 353.351C621 351.329 620.495 349.783 619.483 348.716C618.472 347.62 616.983 347.072 615.016 347.072C613.639 347.072 612.473 347.423 611.518 348.126C610.591 348.8 609.917 349.727 609.495 350.907H604.944V333.165H623.487V337.379ZM647.115 340.371C646.806 339.079 646.244 338.11 645.429 337.464C644.615 336.817 643.477 336.494 642.016 336.494C639.796 336.494 638.139 337.351 637.043 339.065C635.947 340.751 635.371 343.56 635.315 347.494C636.046 346.257 637.113 345.302 638.518 344.628C639.923 343.954 641.44 343.616 643.069 343.616C644.924 343.616 646.553 344.024 647.958 344.839C649.391 345.625 650.501 346.777 651.287 348.294C652.102 349.811 652.509 351.624 652.509 353.731C652.509 355.697 652.116 357.453 651.329 358.999C650.571 360.544 649.433 361.766 647.916 362.665C646.399 363.536 644.573 363.971 642.437 363.971C639.543 363.971 637.268 363.339 635.61 362.075C633.981 360.783 632.829 358.97 632.154 356.639C631.508 354.307 631.185 351.399 631.185 347.915C631.185 337.632 634.809 332.491 642.058 332.491C644.868 332.491 647.073 333.249 648.674 334.766C650.304 336.284 651.259 338.152 651.54 340.371H647.115ZM642.016 347.662C640.302 347.662 638.841 348.182 637.633 349.221C636.453 350.233 635.863 351.708 635.863 353.646C635.863 355.585 636.411 357.13 637.507 358.282C638.63 359.406 640.19 359.968 642.184 359.968C643.954 359.968 645.345 359.42 646.357 358.324C647.396 357.229 647.916 355.768 647.916 353.941C647.916 352.031 647.41 350.514 646.399 349.39C645.415 348.238 643.954 347.662 642.016 347.662Z" fill="#13234A"/>
<path d="M107.8 291H606.868L637.114 409H107.8V291Z" fill="#888888"/>
<path d="M336.879 364.266C334.912 364.266 333.142 363.929 331.569 363.255C329.995 362.553 328.759 361.569 327.86 360.305C326.961 359.041 326.511 357.566 326.511 355.88H331.653C331.765 357.144 332.257 358.184 333.128 358.999C334.027 359.813 335.277 360.221 336.879 360.221C338.536 360.221 339.829 359.827 340.756 359.041C341.683 358.226 342.146 357.186 342.146 355.922C342.146 354.939 341.851 354.138 341.261 353.52C340.699 352.902 339.983 352.424 339.112 352.087C338.269 351.75 337.089 351.385 335.572 350.991C333.662 350.486 332.102 349.98 330.894 349.474C329.714 348.94 328.703 348.126 327.86 347.03C327.017 345.934 326.596 344.473 326.596 342.647C326.596 340.961 327.017 339.486 327.86 338.222C328.703 336.958 329.883 335.989 331.4 335.314C332.917 334.64 334.673 334.303 336.668 334.303C339.505 334.303 341.823 335.019 343.621 336.452C345.448 337.857 346.459 339.795 346.656 342.268H341.346C341.261 341.2 340.756 340.287 339.829 339.529C338.901 338.77 337.679 338.391 336.162 338.391C334.785 338.391 333.662 338.742 332.791 339.444C331.92 340.147 331.484 341.158 331.484 342.479C331.484 343.378 331.751 344.122 332.285 344.712C332.847 345.274 333.549 345.724 334.392 346.061C335.235 346.398 336.387 346.763 337.848 347.156C339.786 347.69 341.36 348.224 342.568 348.758C343.804 349.292 344.844 350.12 345.686 351.244C346.557 352.34 346.993 353.815 346.993 355.669C346.993 357.158 346.585 358.563 345.771 359.884C344.984 361.204 343.818 362.272 342.273 363.086C340.756 363.873 338.958 364.266 336.879 364.266ZM376.051 334.682V363.971H371.247V351.16H357.466V363.971H352.662V334.682H357.466V347.241H371.247V334.682H376.051ZM395.735 364.266C393.01 364.266 390.495 363.634 388.191 362.37C385.916 361.078 384.104 359.294 382.755 357.018C381.435 354.714 380.774 352.129 380.774 349.264C380.774 346.398 381.435 343.827 382.755 341.551C384.104 339.276 385.916 337.506 388.191 336.241C390.495 334.949 393.01 334.303 395.735 334.303C398.488 334.303 401.003 334.949 403.279 336.241C405.582 337.506 407.395 339.276 408.715 341.551C410.035 343.827 410.696 346.398 410.696 349.264C410.696 352.129 410.035 354.714 408.715 357.018C407.395 359.294 405.582 361.078 403.279 362.37C401.003 363.634 398.488 364.266 395.735 364.266ZM395.735 360.094C397.674 360.094 399.401 359.659 400.919 358.788C402.436 357.889 403.616 356.625 404.459 354.995C405.33 353.337 405.765 351.427 405.765 349.264C405.765 347.1 405.33 345.204 404.459 343.574C403.616 341.945 402.436 340.695 400.919 339.824C399.401 338.953 397.674 338.517 395.735 338.517C393.796 338.517 392.069 338.953 390.551 339.824C389.034 340.695 387.84 341.945 386.969 343.574C386.126 345.204 385.705 347.1 385.705 349.264C385.705 351.427 386.126 353.337 386.969 354.995C387.84 356.625 389.034 357.889 390.551 358.788C392.069 359.659 393.796 360.094 395.735 360.094ZM453.563 334.682L444.881 363.971H439.445L433.292 341.804L426.76 363.971L421.365 364.014L413.063 334.682H418.163L424.231 358.535L430.805 334.682H436.2L442.31 358.409L448.421 334.682H453.563ZM466.871 349.264C466.871 346.398 467.531 343.827 468.852 341.551C470.2 339.276 472.012 337.506 474.288 336.241C476.592 334.949 479.106 334.303 481.832 334.303C484.95 334.303 487.717 335.075 490.134 336.621C492.578 338.138 494.348 340.301 495.444 343.111H489.67C488.912 341.565 487.858 340.414 486.509 339.655C485.161 338.896 483.602 338.517 481.832 338.517C479.893 338.517 478.165 338.953 476.648 339.824C475.131 340.695 473.937 341.945 473.066 343.574C472.223 345.204 471.802 347.1 471.802 349.264C471.802 351.427 472.223 353.323 473.066 354.953C473.937 356.582 475.131 357.847 476.648 358.746C478.165 359.617 479.893 360.052 481.832 360.052C483.602 360.052 485.161 359.673 486.509 358.914C487.858 358.156 488.912 357.004 489.67 355.459H495.444C494.348 358.268 492.578 360.431 490.134 361.949C487.717 363.466 484.95 364.224 481.832 364.224C479.078 364.224 476.564 363.592 474.288 362.328C472.012 361.035 470.2 359.251 468.852 356.976C467.531 354.7 466.871 352.129 466.871 349.264ZM514.426 364.266C511.701 364.266 509.187 363.634 506.883 362.37C504.607 361.078 502.795 359.294 501.446 357.018C500.126 354.714 499.466 352.129 499.466 349.264C499.466 346.398 500.126 343.827 501.446 341.551C502.795 339.276 504.607 337.506 506.883 336.241C509.187 334.949 511.701 334.303 514.426 334.303C517.18 334.303 519.694 334.949 521.97 336.241C524.274 337.506 526.086 339.276 527.406 341.551C528.727 343.827 529.387 346.398 529.387 349.264C529.387 352.129 528.727 354.714 527.406 357.018C526.086 359.294 524.274 361.078 521.97 362.37C519.694 363.634 517.18 364.266 514.426 364.266ZM514.426 360.094C516.365 360.094 518.093 359.659 519.61 358.788C521.127 357.889 522.307 356.625 523.15 354.995C524.021 353.337 524.456 351.427 524.456 349.264C524.456 347.1 524.021 345.204 523.15 343.574C522.307 341.945 521.127 340.695 519.61 339.824C518.093 338.953 516.365 338.517 514.426 338.517C512.488 338.517 510.76 338.953 509.243 339.824C507.726 340.695 506.532 341.945 505.661 343.574C504.818 345.204 504.396 347.1 504.396 349.264C504.396 351.427 504.818 353.337 505.661 354.995C506.532 356.625 507.726 357.889 509.243 358.788C510.76 359.659 512.488 360.094 514.426 360.094ZM543.681 334.682C546.8 334.682 549.525 335.286 551.857 336.494C554.217 337.674 556.029 339.388 557.293 341.636C558.586 343.855 559.232 346.454 559.232 349.432C559.232 352.41 558.586 354.995 557.293 357.186C556.029 359.378 554.217 361.064 551.857 362.244C549.525 363.395 546.8 363.971 543.681 363.971H534.115V334.682H543.681ZM543.681 360.052C547.109 360.052 549.736 359.125 551.562 357.271C553.388 355.416 554.301 352.804 554.301 349.432C554.301 346.033 553.388 343.378 551.562 341.467C549.736 339.557 547.109 338.601 543.681 338.601H538.919V360.052H543.681ZM568.798 338.559V347.156H578.912V351.076H568.798V360.052H580.176V363.971H563.993V334.64H580.176V338.559H568.798Z" fill="white"/>
</g>
<defs>
<clipPath id="clip0_5_963">
<rect x="482.029" y="291" width="244.429" height="118" rx="8.42857" fill="white"/>
</clipPath>
</defs>
</svg>
