<svg xmlns="http://www.w3.org/2000/svg" xmlns:xlink="http://www.w3.org/1999/xlink" width="1000" height="700" viewBox="0 0 1000 700">
  <defs>
    <clipPath>
      <rect width="1000" height="700"/>
    </clipPath>
  </defs>
  <g clip-path="url(#clip-Flip_Box_-_Horizontal)">
    <rect width="1000" height="700" fill="#fcfcff"/>
    <rect width="800" height="309" rx="5" transform="translate(100 196)" fill="#d5d5d5"/>
    <g transform="translate(422 272)">
      <path d="M109.853,117.922H40.235A28.266,28.266,0,0,1,12,89.683V40.235A28.265,28.265,0,0,1,40.235,12h69.618a28.269,28.269,0,0,1,28.24,28.235V89.688a28.269,28.269,0,0,1-28.24,28.235ZM40.245,17.049a23.225,23.225,0,0,0-23.2,23.191V89.693a23.22,23.22,0,0,0,23.2,23.191h69.618a23.225,23.225,0,0,0,23.2-23.191V40.24a23.222,23.222,0,0,0-23.2-23.191H40.245Z" transform="translate(3.131 3.131)" fill="#fff"/>
      <path d="M108.794,90.379H30.35a2.525,2.525,0,0,1-1.841-4.247L55.82,56.909a2.528,2.528,0,0,1,3.248-.378L73.65,66.255l14.41-24.764a2.518,2.518,0,0,1,4.5.308l18.576,45.1a2.53,2.53,0,0,1-2.345,3.485ZM36.15,85.336h68.877L89.835,48.446l-13.2,22.671a2.5,2.5,0,0,1-1.6,1.19,2.551,2.551,0,0,1-1.972-.353L58.039,61.928,36.15,85.336Z" transform="translate(7.261 10.499)" fill="#fff"/>
      <path d="M39.866,40.1a8.826,8.826,0,1,1,8.826-8.826A8.836,8.836,0,0,1,39.866,40.1Zm0-12.609a3.783,3.783,0,1,0,3.783,3.783A3.784,3.784,0,0,0,39.866,27.488Z" transform="translate(8.099 5.856)" fill="#fff"/>
    </g>
    <g transform="translate(636.88 152.251) rotate(129)" fill="#888" stroke-linecap="round" stroke-linejoin="round">
      <path d="M 47.24607849121094 22.5 L 46 22.5 L -3.552713678800501e-15 22.5 L -1.246080040931702 22.5 L -0.3456099927425385 21.63867950439453 L 22.65439033508301 -0.3613199889659882 L 23 -0.6919100284576416 L 23.34560966491699 -0.3613199889659882 L 46.34561157226563 21.63867950439453 L 47.24607849121094 22.5 Z" stroke="none"/>
      <path d="M 23 0 L 0 22 L 46 22 L 23 0 M 23 -0.9999980926513672 C 23.24895477294922 -0.9999980926513672 23.49790954589844 -0.9075450897216797 23.69121932983398 -0.7226390838623047 L 46.69121932983398 21.2773609161377 C 46.98643112182617 21.55973052978516 47.0802001953125 21.99327087402344 46.92807006835938 22.37240028381348 C 46.77595138549805 22.75152015686035 46.40850830078125 23 46 23 L 0 23 C -0.40850830078125 23 -0.7759513854980469 22.75152015686035 -0.928070068359375 22.37240028381348 C -1.0802001953125 21.99327087402344 -0.9864311218261719 21.55973052978516 -0.6912193298339844 21.2773609161377 L 22.30878067016602 -0.7226390838623047 C 22.50209045410156 -0.9075450897216797 22.75104522705078 -0.9999980926513672 23 -0.9999980926513672 Z" stroke="none" fill="#888"/>
    </g>
    <g transform="translate(362.501 548.975) rotate(-51)" fill="#888" stroke-linecap="round" stroke-linejoin="round">
      <path d="M 47.24607849121094 22.5 L 46 22.5 L -3.552713678800501e-15 22.5 L -1.246080040931702 22.5 L -0.3456099927425385 21.63867950439453 L 22.65439033508301 -0.3613199889659882 L 23 -0.6919100284576416 L 23.34560966491699 -0.3613199889659882 L 46.34561157226563 21.63867950439453 L 47.24607849121094 22.5 Z" stroke="none"/>
      <path d="M 23 0 L 0 22 L 46 22 L 23 0 M 23 -0.9999980926513672 C 23.24895477294922 -0.9999980926513672 23.49790954589844 -0.9075450897216797 23.69121932983398 -0.7226390838623047 L 46.69121932983398 21.2773609161377 C 46.98643112182617 21.55973052978516 47.0802001953125 21.99327087402344 46.92807006835938 22.37240028381348 C 46.77595138549805 22.75152015686035 46.40850830078125 23 46 23 L 0 23 C -0.40850830078125 23 -0.7759513854980469 22.75152015686035 -0.928070068359375 22.37240028381348 C -1.0802001953125 21.99327087402344 -0.9864311218261719 21.55973052978516 -0.6912193298339844 21.2773609161377 L 22.30878067016602 -0.7226390838623047 C 22.50209045410156 -0.9075450897216797 22.75104522705078 -0.9999980926513672 23 -0.9999980926513672 Z" stroke="none" fill="#888"/>
    </g>
    <path d="M0,0S41.9-50.569,127.824-50.777,248,0,248,0" transform="translate(362.5 161.003)" fill="none" stroke="#888" stroke-width="8"/>
    <path d="M0,0S41.9-50.569,127.824-50.777,248,0,248,0" transform="translate(636.879 540.223) rotate(180)" fill="none" stroke="#888" stroke-width="8"/>
  </g>
</svg>
