<svg xmlns="http://www.w3.org/2000/svg" xmlns:xlink="http://www.w3.org/1999/xlink" width="1000" height="700" viewBox="0 0 1000 700">
  <defs>
    <clipPath>
      <rect width="1000" height="700"/>
    </clipPath>
  </defs>
  <g clip-path="url(#clip-Scroll_Navigation_Style_2)">
    <rect width="1000" height="700" fill="#fcfcff"/>
    <g transform="translate(584 100)" fill="#fff">
      <path d="M 54 115.2800674438477 L 3.376075983047485 59.5 L 54 3.719935417175293 L 104.6239242553711 59.5 L 54 115.2800674438477 Z" stroke="none"/>
      <path d="M 54 7.439888000488281 L 6.752166748046875 59.5 L 54 111.5601119995117 L 101.2478332519531 59.5 L 54 7.439888000488281 M 54 0 L 108 59.5 L 54 119 L 0 59.5 L 54 0 Z" stroke="none" fill="#888"/>
    </g>
    <g transform="translate(584 481)" fill="#fff">
      <path d="M 54 115.2800674438477 L 3.376075983047485 59.5 L 54 3.719935417175293 L 104.6239242553711 59.5 L 54 115.2800674438477 Z" stroke="none"/>
      <path d="M 54 7.439888000488281 L 6.752166748046875 59.5 L 54 111.5601119995117 L 101.2478332519531 59.5 L 54 7.439888000488281 M 54 0 L 108 59.5 L 54 119 L 0 59.5 L 54 0 Z" stroke="none" fill="#888"/>
    </g>
    <g transform="translate(584 291)" fill="#888">
      <path d="M 54 115.2800674438477 L 3.376075983047485 59.5 L 54 3.719935417175293 L 104.6239242553711 59.5 L 54 115.2800674438477 Z" stroke="none"/>
      <path d="M 54 7.439888000488281 L 6.752166748046875 59.5 L 54 111.5601119995117 L 101.2478332519531 59.5 L 54 7.439888000488281 M 54 0 L 108 59.5 L 54 119 L 0 59.5 L 54 0 Z" stroke="none" fill="#888"/>
    </g>
    <g transform="translate(263.232 312)">
      <path d="M21.6,76.5a5,5,0,0,1-5-5V50.365L0,37.356,16.6,25.362V5a5,5,0,0,1,5-5H241.578a5,5,0,0,1,5,5V71.5a5,5,0,0,1-5,5Z" transform="translate(290.578 76.501) rotate(180)" fill="#888"/>
      <text transform="translate(133.768 52)" fill="#fff" font-size="35" font-family="Roboto-Medium, Roboto" font-weight="500"><tspan x="0" y="0">Home</tspan></text>
      <g transform="translate(89.669 24.48)">
        <path d="M24.6,26.615H16.612a.445.445,0,0,1-.444-.444V18.63H11.732v7.541a.444.444,0,0,1-.444.444H3.3a.444.444,0,0,1-.444-.444V12.42H.943a.443.443,0,0,1-.295-.775L13.362.334a.445.445,0,0,1,.576-.012l3.117,2.559V.444A.444.444,0,0,1,17.5,0h4.436a.444.444,0,0,1,.444.444V7.462l4.378,4.194a.443.443,0,0,1-.307.764H25.04V26.171A.444.444,0,0,1,24.6,26.615Z" transform="translate(-0.499 0)" fill="#fff"/>
      </g>
    </g>
  </g>
</svg>