<svg xmlns="http://www.w3.org/2000/svg" xmlns:xlink="http://www.w3.org/1999/xlink" width="1000" height="700" viewBox="0 0 1000 700">
  <defs>
    <clipPath id="clip-Social_Sharing_-_Toggle_-_Style_1">
      <rect width="1000" height="700"/>
    </clipPath>
  </defs>
  <g id="Social_Sharing_-_Toggle_-_Style_1" data-name="Social Sharing - Toggle - Style 1" clip-path="url(#clip-Social_Sharing_-_Toggle_-_Style_1)">
    <rect width="1000" height="700" fill="#fcfcff"/>
    <rect id="Rectangle_550" data-name="Rectangle 550" width="106" height="106" rx="10" transform="translate(299 395)" fill="#888"/>
    <rect id="Rectangle_618" data-name="Rectangle 618" width="106" height="106" rx="10" transform="translate(447 395)" fill="#888"/>
    <rect id="Rectangle_619" data-name="Rectangle 619" width="106" height="106" rx="10" transform="translate(595 395)" fill="#888"/>
    <g id="Facebook" transform="translate(338.697 422.437)">
      <path id="Path_1" data-name="Path 1" d="M97.335,51.154V27.85h7.957l1.137-9.094H97.335V13.073c0-2.558.853-4.547,4.547-4.547h4.831V.284c-1.137,0-3.979-.284-7.1-.284-6.82,0-11.652,4.263-11.652,11.936v6.82H80V27.85h7.957v23.3Z" transform="translate(-80 0)" fill="#fff" fill-rule="evenodd"/>
    </g>
    <rect id="Rectangle_617" data-name="Rectangle 617" width="398" height="136" rx="68" transform="translate(301 199)" fill="#888"/>
    <text id="Share" transform="translate(365 292)" fill="#fff" font-size="64" font-family="Roboto-Bold, Roboto" font-weight="700"><tspan x="0" y="0">Share</tspan></text>
    <g id="Add" transform="translate(566 232)">
      <circle id="Ellipse_226" data-name="Ellipse 226" cx="35" cy="35" r="35" fill="#f2f2f2"/>
      <g id="_" data-name="+" transform="translate(17.961 17.962)">
        <path id="Union_1" data-name="Union 1" d="M14.874,34V19.125H0v-4.25H14.874V0h4.251V14.875H34v4.25H19.126V34Z" transform="translate(0.039 0.038)" fill="#888"/>
      </g>
    </g>
    <path id="pinterest-p" d="M20.908,6.5C10.392,6.5,0,13.51,0,24.856c0,7.215,4.059,11.315,6.518,11.315,1.015,0,1.6-2.829,1.6-3.628,0-.953-2.429-2.982-2.429-6.949,0-8.24,6.272-14.082,14.39-14.082,6.98,0,12.145,3.966,12.145,11.253,0,5.442-2.183,15.65-9.255,15.65a4.551,4.551,0,0,1-4.735-4.489c0-3.874,2.706-7.625,2.706-11.622,0-6.785-9.624-5.555-9.624,2.644a12.041,12.041,0,0,0,.984,5.2c-1.414,6.088-4.3,15.158-4.3,21.431,0,1.937.277,3.843.461,5.78.348.389.174.348.707.154,5.165-7.072,4.981-8.455,7.318-17.71,1.261,2.4,4.52,3.69,7.1,3.69,10.884,0,15.773-10.608,15.773-20.17C39.356,13.141,30.562,6.5,20.908,6.5Z" transform="translate(480.077 415.938)" fill="#fff"/>
    <g id="Symbol_13_4" data-name="Symbol 13 – 4" transform="translate(622.357 422.438)">
      <path id="Path_3" data-name="Path 3" d="M25.577,4.547c6.82,0,7.673,0,10.231.284a13.181,13.181,0,0,1,4.831.853,9.98,9.98,0,0,1,4.831,4.831,13.181,13.181,0,0,1,.853,4.831c0,2.558.284,3.41.284,10.231s0,7.673-.284,10.231a13.181,13.181,0,0,1-.853,4.831,9.98,9.98,0,0,1-4.831,4.831,13.181,13.181,0,0,1-4.831.853c-2.558,0-3.41.284-10.231.284s-7.673,0-10.231-.284a13.181,13.181,0,0,1-4.831-.853,9.98,9.98,0,0,1-4.831-4.831,13.181,13.181,0,0,1-.853-4.831c0-2.558-.284-3.41-.284-10.231s0-7.673.284-10.231a13.181,13.181,0,0,1,.853-4.831A10.207,10.207,0,0,1,7.673,7.673a4.8,4.8,0,0,1,2.842-1.989,13.181,13.181,0,0,1,4.831-.853c2.558-.284,3.41-.284,10.231-.284m0-4.547c-6.82,0-7.957,0-10.515.284A17.545,17.545,0,0,0,8.81,1.421,11.125,11.125,0,0,0,4.263,4.263,11.125,11.125,0,0,0,1.421,8.81,12.948,12.948,0,0,0,.284,15.062C0,17.619,0,18.756,0,25.577s0,7.957.284,10.515a17.545,17.545,0,0,0,1.137,6.252,11.125,11.125,0,0,0,2.842,4.547A11.125,11.125,0,0,0,8.81,49.732a17.544,17.544,0,0,0,6.252,1.137c2.558.284,3.694.284,10.515.284s7.957,0,10.515-.284a17.544,17.544,0,0,0,6.252-1.137,11.923,11.923,0,0,0,7.389-7.389,17.544,17.544,0,0,0,1.137-6.252c0-2.842.284-3.694.284-10.515s0-7.957-.284-10.515A17.545,17.545,0,0,0,49.732,8.81a11.125,11.125,0,0,0-2.842-4.547,11.125,11.125,0,0,0-4.547-2.842A17.545,17.545,0,0,0,36.092.284C33.534,0,32.4,0,25.577,0m0,12.5A12.862,12.862,0,0,0,12.5,25.577,13.073,13.073,0,1,0,25.577,12.5m0,21.6a8.373,8.373,0,0,1-8.526-8.526,8.373,8.373,0,0,1,8.526-8.526A8.373,8.373,0,0,1,34.1,25.577,8.373,8.373,0,0,1,25.577,34.1M39.218,8.81a3.126,3.126,0,1,0,3.126,3.126A3.154,3.154,0,0,0,39.218,8.81" fill="#fff" fill-rule="evenodd"/>
    </g>
  </g>
</svg>
