<svg xmlns="http://www.w3.org/2000/svg" xmlns:xlink="http://www.w3.org/1999/xlink" width="1000" height="700" viewBox="0 0 1000 700">
  <defs>
    <clipPath id="clip-Advanced_Chart_-_Line_Chart">
      <rect width="1000" height="700"/>
    </clipPath>
  </defs>
  <g id="Advanced_Chart_-_Line_Chart" data-name="Advanced Chart - Line Chart" clip-path="url(#clip-Advanced_Chart_-_Line_Chart)">
    <rect width="1000" height="700" fill="#fcfcff"/>
    <line id="Line_160" data-name="Line 160" y2="482" transform="translate(155.5 100.5)" fill="none" stroke="#707070" stroke-width="2"/>
    <line id="Line_166" data-name="Line 166" y2="482.5" transform="translate(341.5 100)" fill="none" stroke="#d5d5d5" stroke-width="1"/>
    <line id="Line_167" data-name="Line 167" y2="482.5" transform="translate(527.5 100)" fill="none" stroke="#d5d5d5" stroke-width="1"/>
    <line id="Line_168" data-name="Line 168" y2="482.5" transform="translate(713.5 100)" fill="none" stroke="#d5d5d5" stroke-width="1"/>
    <line id="Line_169" data-name="Line 169" y2="483" transform="translate(900 100)" fill="none" stroke="#d5d5d5" stroke-width="1"/>
    <line id="Line_161" data-name="Line 161" x2="763.5" transform="translate(136.5 562.5)" fill="none" stroke="#888" stroke-width="2"/>
    <line id="Line_162" data-name="Line 162" x2="763.007" transform="translate(136.5 471.5)" fill="none" stroke="#d5d5d5" stroke-width="1"/>
    <line id="Line_163" data-name="Line 163" x2="763.007" transform="translate(136.5 380.5)" fill="none" stroke="#d5d5d5" stroke-width="1"/>
    <line id="Line_164" data-name="Line 164" x2="763.007" transform="translate(136.5 289.5)" fill="none" stroke="#d5d5d5" stroke-width="1"/>
    <line id="Line_165" data-name="Line 165" x2="763.007" transform="translate(136.5 198.5)" fill="none" stroke="#d5d5d5" stroke-width="1"/>
    <text id="_0" data-name="0" transform="translate(121 570)" fill="#888" font-size="18" font-family="Roboto-Medium, Roboto" font-weight="500"><tspan x="0" y="0">0</tspan></text>
    <text id="_1990" data-name="1990" transform="translate(135 602)" fill="#888" font-size="18" font-family="Roboto-Medium, Roboto" font-weight="500"><tspan x="0" y="0">1990</tspan></text>
    <text id="_1995" data-name="1995" transform="translate(321 602)" fill="#888" font-size="18" font-family="Roboto-Medium, Roboto" font-weight="500"><tspan x="0" y="0">1995</tspan></text>
    <text id="_2000" data-name="2000" transform="translate(507 602)" fill="#888" font-size="18" font-family="Roboto-Medium, Roboto" font-weight="500"><tspan x="0" y="0">2000</tspan></text>
    <text id="_2005" data-name="2005" transform="translate(693 602)" fill="#888" font-size="18" font-family="Roboto-Medium, Roboto" font-weight="500"><tspan x="0" y="0">2005</tspan></text>
    <text id="_2010" data-name="2010" transform="translate(879 602)" fill="#888" font-size="18" font-family="Roboto-Medium, Roboto" font-weight="500"><tspan x="0" y="0">2010</tspan></text>
    <text id="_50" data-name="50" transform="translate(111 479)" fill="#888" font-size="18" font-family="Roboto-Medium, Roboto" font-weight="500"><tspan x="0" y="0">50</tspan></text>
    <text id="_100" data-name="100" transform="translate(100 388)" fill="#888" font-size="18" font-family="Roboto-Medium, Roboto" font-weight="500"><tspan x="0" y="0">100</tspan></text>
    <text id="_150" data-name="150" transform="translate(100 297)" fill="#888" font-size="18" font-family="Roboto-Medium, Roboto" font-weight="500"><tspan x="0" y="0">150</tspan></text>
    <text id="_200" data-name="200" transform="translate(100 206)" fill="#888" font-size="18" font-family="Roboto-Medium, Roboto" font-weight="500"><tspan x="0" y="0">200</tspan></text>
    <path id="Path_7108" data-name="Path 7108" d="M0,5S14.132-34.428,200.382-35.678c67.05-.45,152.157,41,238.726,46.914C593.963,21.822,745,0,745,0" transform="translate(155.5 512.5)" fill="none" stroke="#888" stroke-width="2" stroke-dasharray="5"/>
    <path id="Path_7110" data-name="Path 7110" d="M0,5S24.8-109.306,211.051-110.556C278.1-111.006,379.941-45.2,432.8-27.845,462.771-20.716,563.638,9.4,616.016,14.219,695.4,21.519,745,0,745,0" transform="translate(155 300.774)" fill="none" stroke="#888" stroke-width="2" stroke-dasharray="5"/>
    <path id="Path_7109" data-name="Path 7109" d="M-1.364-35.985s31.85,27.16,218.1,25.91c67.05-.45,185.472,27.11,272.041,33.028C655.287,55.874,745,38.277,745,38.277" transform="translate(155 404.682)" fill="none" stroke="#888" stroke-width="2" stroke-dasharray="5"/>
    <path id="Path_7111" data-name="Path 7111" d="M2.516-72.037S128.813.133,222.257,27.425c90.3,19.052,185.247,44.086,271.816,50C660.584,110.35,745,142.521,745,142.521" transform="translate(155 241.207)" fill="none" stroke="#888" stroke-width="2" stroke-dasharray="5"/>
    <g id="Ellipse_303" data-name="Ellipse 303" transform="translate(149 163)" fill="#888" stroke="#888" stroke-width="1">
      <circle cx="5" cy="5" r="5" stroke="none"/>
      <circle cx="5" cy="5" r="4.5" fill="none"/>
    </g>
    <g id="Ellipse_304" data-name="Ellipse 304" transform="translate(151 296)" fill="#888" stroke="#888" stroke-width="1">
      <circle cx="5" cy="5" r="5" stroke="none"/>
      <circle cx="5" cy="5" r="4.5" fill="none"/>
    </g>
    <g id="Ellipse_305" data-name="Ellipse 305" transform="translate(149 362)" fill="#888" stroke="#888" stroke-width="1">
      <circle cx="5" cy="5" r="5" stroke="none"/>
      <circle cx="5" cy="5" r="4.5" fill="none"/>
    </g>
    <g id="Ellipse_306" data-name="Ellipse 306" transform="translate(149 508)" fill="#888" stroke="#888" stroke-width="1">
      <circle cx="5" cy="5" r="5" stroke="none"/>
      <circle cx="5" cy="5" r="4.5" fill="none"/>
    </g>
    <g id="Ellipse_307" data-name="Ellipse 307" transform="translate(335 472)" fill="#888" stroke="#888" stroke-width="1">
      <circle cx="5" cy="5" r="5" stroke="none"/>
      <circle cx="5" cy="5" r="4.5" fill="none"/>
    </g>
    <g id="Ellipse_308" data-name="Ellipse 308" transform="translate(522 508)" fill="#888" stroke="#888" stroke-width="1">
      <circle cx="5" cy="5" r="5" stroke="none"/>
      <circle cx="5" cy="5" r="4.5" fill="none"/>
    </g>
    <g id="Ellipse_309" data-name="Ellipse 309" transform="translate(708 520)" fill="#888" stroke="#888" stroke-width="1">
      <circle cx="5" cy="5" r="5" stroke="none"/>
      <circle cx="5" cy="5" r="4.5" fill="none"/>
    </g>
    <g id="Ellipse_310" data-name="Ellipse 310" transform="translate(707 435)" fill="#888" stroke="#888" stroke-width="1">
      <circle cx="5" cy="5" r="5" stroke="none"/>
      <circle cx="5" cy="5" r="4.5" fill="none"/>
    </g>
    <g id="Ellipse_311" data-name="Ellipse 311" transform="translate(522 408)" fill="#888" stroke="#888" stroke-width="1">
      <circle cx="5" cy="5" r="5" stroke="none"/>
      <circle cx="5" cy="5" r="4.5" fill="none"/>
    </g>
    <g id="Ellipse_312" data-name="Ellipse 312" transform="translate(335 387)" fill="#888" stroke="#888" stroke-width="1">
      <circle cx="5" cy="5" r="5" stroke="none"/>
      <circle cx="5" cy="5" r="4.5" fill="none"/>
    </g>
    <g id="Ellipse_313" data-name="Ellipse 313" transform="translate(335 250)" fill="#888" stroke="#888" stroke-width="1">
      <circle cx="5" cy="5" r="5" stroke="none"/>
      <circle cx="5" cy="5" r="4.5" fill="none"/>
    </g>
    <g id="Ellipse_314" data-name="Ellipse 314" transform="translate(335 185)" fill="#888" stroke="#888" stroke-width="1">
      <circle cx="5" cy="5" r="5" stroke="none"/>
      <circle cx="5" cy="5" r="4.5" fill="none"/>
    </g>
    <g id="Ellipse_315" data-name="Ellipse 315" transform="translate(521 240)" fill="#888" stroke="#888" stroke-width="1">
      <circle cx="5" cy="5" r="5" stroke="none"/>
      <circle cx="5" cy="5" r="4.5" fill="none"/>
    </g>
    <g id="Ellipse_316" data-name="Ellipse 316" transform="translate(522 296)" fill="#888" stroke="#888" stroke-width="1">
      <circle cx="5" cy="5" r="5" stroke="none"/>
      <circle cx="5" cy="5" r="4.5" fill="none"/>
    </g>
    <g id="Ellipse_317" data-name="Ellipse 317" transform="translate(708 296)" fill="#888" stroke="#888" stroke-width="1">
      <circle cx="5" cy="5" r="5" stroke="none"/>
      <circle cx="5" cy="5" r="4.5" fill="none"/>
    </g>
    <g id="Ellipse_318" data-name="Ellipse 318" transform="translate(708 326)" fill="#888" stroke="#888" stroke-width="1">
      <circle cx="5" cy="5" r="5" stroke="none"/>
      <circle cx="5" cy="5" r="4.5" fill="none"/>
    </g>
    <g id="Ellipse_319" data-name="Ellipse 319" transform="translate(893 296)" fill="#888" stroke="#888" stroke-width="1">
      <circle cx="5" cy="5" r="5" stroke="none"/>
      <circle cx="5" cy="5" r="4.5" fill="none"/>
    </g>
    <g id="Ellipse_320" data-name="Ellipse 320" transform="translate(893 377)" fill="#888" stroke="#888" stroke-width="1">
      <circle cx="5" cy="5" r="5" stroke="none"/>
      <circle cx="5" cy="5" r="4.5" fill="none"/>
    </g>
    <g id="Ellipse_321" data-name="Ellipse 321" transform="translate(893 437)" fill="#888" stroke="#888" stroke-width="1">
      <circle cx="5" cy="5" r="5" stroke="none"/>
      <circle cx="5" cy="5" r="4.5" fill="none"/>
    </g>
    <g id="Ellipse_322" data-name="Ellipse 322" transform="translate(894 506)" fill="#888" stroke="#888" stroke-width="1">
      <circle cx="5" cy="5" r="5" stroke="none"/>
      <circle cx="5" cy="5" r="4.5" fill="none"/>
    </g>
  </g>
</svg>
