<svg xmlns="http://www.w3.org/2000/svg" xmlns:xlink="http://www.w3.org/1999/xlink" width="1000" height="700" viewBox="0 0 1000 700">
  <defs>
    <clipPath id="clip-Advanced_Chart_-_Polar_Area_Chart">
      <rect width="1000" height="700"/>
    </clipPath>
  </defs>
  <g id="Advanced_Chart_-_Polar_Area_Chart" data-name="Advanced Chart - Polar Area Chart" clip-path="url(#clip-Advanced_Chart_-_Polar_Area_Chart)">
    <rect width="1000" height="700" fill="#fcfcff"/>
    <g id="Ellipse_323" data-name="Ellipse 323" transform="translate(304 154)" fill="none" stroke="#b9b5b5" stroke-width="1">
      <circle cx="196" cy="196" r="196" stroke="none"/>
      <circle cx="196" cy="196" r="195.5" fill="none"/>
    </g>
    <g id="Ellipse_324" data-name="Ellipse 324" transform="translate(361 211)" fill="none" stroke="#b9b5b5" stroke-width="1">
      <circle cx="139.5" cy="139.5" r="139.5" stroke="none"/>
      <circle cx="139.5" cy="139.5" r="139" fill="none"/>
    </g>
    <g id="Ellipse_325" data-name="Ellipse 325" transform="translate(413 263)" fill="none" stroke="#b9b5b5" stroke-width="1">
      <circle cx="87" cy="87" r="87" stroke="none"/>
      <circle cx="87" cy="87" r="86.5" fill="none"/>
    </g>
    <g id="Ellipse_326" data-name="Ellipse 326" transform="translate(460 310)" fill="none" stroke="#b9b5b5" stroke-width="1">
      <circle cx="40.5" cy="40.5" r="40.5" stroke="none"/>
      <circle cx="40.5" cy="40.5" r="40" fill="none"/>
    </g>
    <rect id="Rectangle_670" data-name="Rectangle 670" width="29" height="24" transform="translate(486 141)" fill="#eaeaea"/>
    <rect id="Rectangle_671" data-name="Rectangle 671" width="29" height="24" transform="translate(486 199)" fill="#eaeaea"/>
    <rect id="Rectangle_672" data-name="Rectangle 672" width="29" height="24" transform="translate(486 251)" fill="#eaeaea"/>
    <rect id="Rectangle_673" data-name="Rectangle 673" width="29" height="24" transform="translate(486 298)" fill="#eaeaea"/>
    <text id="_50" data-name="50" transform="translate(492.5 158.5)" fill="#888" font-size="14" font-family="Roboto-Medium, Roboto" font-weight="500"><tspan x="0" y="0">50</tspan></text>
    <text id="_40" data-name="40" transform="translate(492.5 216.5)" fill="#888" font-size="14" font-family="Roboto-Medium, Roboto" font-weight="500"><tspan x="0" y="0">40</tspan></text>
    <text id="_30" data-name="30" transform="translate(492.5 268.5)" fill="#888" font-size="14" font-family="Roboto-Medium, Roboto" font-weight="500"><tspan x="0" y="0">30</tspan></text>
    <text id="_20" data-name="20" transform="translate(492.5 315.5)" fill="#888" font-size="14" font-family="Roboto-Medium, Roboto" font-weight="500"><tspan x="0" y="0">20</tspan></text>
    <g id="Path_7114" data-name="Path 7114" transform="translate(294 249)" fill="#f2f2f2" opacity="0.795">
      <path d="M 36.38080215454102 198.7685241699219 C 35.31262969970703 197.0018463134766 30.99040222167969 189.6212768554688 26.1718578338623 178.1909790039062 C 22.9228572845459 170.4839324951172 20.08724212646484 162.4708251953125 17.74374198913574 154.3743286132812 C 14.81508827209473 144.2560882568359 12.65116500854492 133.9783172607422 11.31208801269531 123.8264770507812 C 10.09478092193604 114.5977096557617 9.565511703491211 105.1197052001953 9.739011764526367 95.65574645996094 C 9.926319122314453 85.43813323974609 10.93662643432617 75.1624755859375 12.74189567565918 65.11420440673828 C 16.80120468139648 42.51966857910156 24.84155082702637 20.96955490112305 36.63958740234375 1.062438726425171 C 43.16670227050781 -9.950830459594727 50.66166687011719 -20.23360061645508 58.91632080078125 -29.50013732910156 C 66.53466796875 -38.05240631103516 74.96958923339844 -45.93025207519531 83.98674011230469 -52.91482925415039 C 99.75043487548828 -65.12509918212891 117.5256652832031 -74.84725189208984 136.8187103271484 -81.81118011474609 L 136.8338928222656 -81.81667327880859 L 136.8487091064453 -81.82313537597656 C 148.1694793701172 -86.75721740722656 160.3799743652344 -90.33971405029297 173.1410064697266 -92.47113800048828 C 184.0238952636719 -94.28887176513672 193.1045837402344 -94.67041015625 198.8059387207031 -94.67041015625 C 202.2245178222656 -94.67041015625 204.5654144287109 -94.53311157226562 205.5000152587891 -94.46648406982422 L 205.5000152587891 100.7119598388672 L 36.38080215454102 198.7685241699219 Z" stroke="none"/>
      <path d="M 198.8058624267578 -94.17044067382812 C 193.1233978271484 -94.17044067382812 184.0723571777344 -93.79005432128906 173.2233276367188 -91.97798156738281 C 160.5027008056641 -89.85328674316406 148.3316955566406 -86.28248596191406 137.0484619140625 -81.36474609375 L 136.9884338378906 -81.34086608886719 C 117.74462890625 -74.39471435546875 100.0152816772461 -64.69783020019531 84.29293823242188 -52.51956176757812 C 75.29994201660156 -45.55375671386719 66.88763427734375 -37.697021484375 59.28962707519531 -29.1676025390625 C 51.05632019042969 -19.92498779296875 43.58047485351562 -9.668365478515625 37.06974792480469 1.31732177734375 C 25.30220031738281 21.17289733886719 17.28269958496094 42.66701507568359 13.2340087890625 65.20263671875 C 11.43344116210938 75.22478485107422 10.42573547363281 85.47378540039062 10.23893737792969 95.66490173339844 C 10.06585693359375 105.1040191650391 10.59373474121094 114.5569381713867 11.80781555175781 123.7610931396484 C 13.14289855957031 133.8827056884766 15.300048828125 144.1302795410156 18.2193603515625 154.2191314697266 C 20.55593872070312 162.2941741943359 23.38323974609375 170.2862548828125 26.62271118164062 177.9733276367188 C 31.11605834960938 188.6358032226562 35.17686462402344 195.766357421875 36.55641174316406 198.0886840820312 L 205.0000152587891 100.4238891601562 L 205.0000152587891 -93.99868774414062 C 203.8741912841797 -94.06893920898438 201.7395477294922 -94.17044067382812 198.8058624267578 -94.17044067382812 M 198.8058471679688 -95.17042541503906 C 203.3777313232422 -95.17042541503906 206.0000152587891 -94.92893981933594 206.0000152587891 -94.92893981933594 L 206.0000152587891 101.0000152587891 L 36.20947265625 199.4457855224609 C 36.20947265625 199.4457855224609 16.70458984375 168.5314788818359 10.81639099121094 123.8918609619141 C 6.11846923828125 88.27620697021484 10.87228393554688 43.55944061279297 36.20947265625 0.8074798583984375 C 63.48251342773438 -45.21090698242188 102.0461654663086 -69.79144287109375 136.64892578125 -82.28147888183594 C 162.5809173583984 -93.58378601074219 187.0903167724609 -95.17042541503906 198.8058471679688 -95.17042541503906 Z" stroke="none" fill="#b9b9b9"/>
    </g>
    <g id="Path_7115" data-name="Path 7115" transform="matrix(-0.485, -0.875, 0.875, -0.485, 513.324, 578.123)" fill="#d5d5d5" opacity="0.795">
      <path d="M 82.56780242919922 170.1569213867188 C 81.89620208740234 168.8534240722656 79.87055969238281 164.7709350585938 77.49972534179688 158.5492248535156 C 75.79795074462891 154.0832824707031 74.25386047363281 149.4051666259766 72.91041564941406 144.6448364257812 C 71.23142242431641 138.6956634521484 69.86280822753906 132.6005554199219 68.84261322021484 126.5288314819336 C 66.24664306640625 111.0793075561523 65.86302947998047 95.68569183349609 67.70244598388672 80.77558135986328 C 68.79428100585938 71.92507934570312 70.69183349609375 63.14836120605469 73.34236145019531 54.68925094604492 C 76.25791931152344 45.38427734375 80.1572265625 36.23310852050781 84.93197631835938 27.48999977111816 C 89.11903381347656 19.82299995422363 93.95294952392578 12.66266536712646 99.29941558837891 6.207943439483643 C 104.225944519043 0.2602213323116302 109.7051162719727 -5.230473041534424 115.5846939086914 -10.11163997650146 C 125.7782821655273 -18.57419586181641 137.4216156005859 -25.43297386169434 150.1912841796875 -30.49750137329102 C 160.0490570068359 -34.40713882446289 170.5140075683594 -37.23416900634766 181.2954254150391 -38.90008544921875 C 190.0615844726562 -40.25461196899414 197.0683898925781 -40.53891754150391 201.4027557373047 -40.53891754150391 C 202.9347381591797 -40.53891754150391 204.0291595458984 -40.50165557861328 204.6038818359375 -40.47580718994141 L 205.4981384277344 100.7092437744141 L 82.56780242919922 170.1569213867188 Z" stroke="none"/>
      <path d="M 201.4027557373047 -40.03892517089844 C 197.0859222412109 -40.03892517089844 190.1065826416016 -39.755615234375 181.3717803955078 -38.40594482421875 C 170.6272888183594 -36.74575805664062 160.1986694335938 -33.9285888671875 150.3756103515625 -30.03269958496094 C 137.6549682617188 -24.98764038085938 126.0570831298828 -18.15577697753906 115.904052734375 -9.726913452148438 C 110.0483093261719 -4.865554809570312 104.5912475585938 0.602996826171875 99.68447875976562 6.526885986328125 C 94.3583984375 12.95702362060547 89.54255676269531 20.09066772460938 85.37077331542969 27.72966766357422 C 80.61381530761719 36.44024658203125 76.72869873046875 45.556884765625 73.8233642578125 54.82636260986328 C 71.18211364746094 63.25325012207031 69.29066467285156 71.99655151367188 68.20155334472656 80.81341552734375 C 66.36628723144531 95.67082977294922 66.74575805664062 111.0114135742188 69.3294677734375 126.4090270996094 C 70.34527587890625 132.4625854492188 71.70841979980469 138.5397491455078 73.38108825683594 144.4716644287109 C 74.71975708007812 149.2191925048828 76.25856018066406 153.8848571777344 77.95475769042969 158.339111328125 C 80.08975219726562 163.9457092285156 81.94429016113281 167.8112030029297 82.77653503417969 169.4647369384766 L 204.9963073730469 100.4184875488281 L 204.10693359375 -39.99520874023438 C 203.4892883300781 -40.0169677734375 202.5754699707031 -40.03892517089844 201.4027557373047 -40.03892517089844 M 201.4027404785156 -41.03892517089844 C 203.7844085693359 -41.03892517089844 205.1008911132812 -40.95046997070312 205.1008911132812 -40.95046997070312 L 206 101 L 82.36459350585938 170.8460083007812 C 82.36459350585938 170.8460083007812 44.29817199707031 100.8519744873047 84.49314880371094 27.25035858154297 C 119.5435333251953 -36.93095397949219 185.1763610839844 -41.03892517089844 201.4027404785156 -41.03892517089844 Z" stroke="none" fill="#b9b9b9"/>
    </g>
    <g id="Path_7116" data-name="Path 7116" transform="translate(688.223 224.647) rotate(120)" fill="#888" opacity="0.795">
      <path d="M 127.0189514160156 143.4871063232422 C 125.9199066162109 140.99169921875 121.0178451538086 129.6063385009766 117.4287414550781 117.1237335205078 C 114.8692245483398 108.2232513427734 114.5234298706055 97.72703552246094 116.4286956787109 86.76979827880859 C 118.3311462402344 75.82880401611328 122.4094314575195 64.81206512451172 128.2226409912109 54.91060256958008 C 133.0501708984375 46.68803405761719 139.1899566650391 39.49098587036133 146.471435546875 33.51933288574219 C 153.4397430419922 27.80450057983398 161.4191284179688 23.23440170288086 170.1879272460938 19.93598365783691 C 183.0290832519531 15.10545063018799 194.2192687988281 14.38418388366699 199.7466888427734 14.38418388366699 C 201.2197113037109 14.38418388366699 202.2830505371094 14.43627166748047 202.8438110351562 14.47244548797607 L 202.5088043212891 99.90302276611328 L 127.0189514160156 143.4871063232422 Z" stroke="none"/>
      <path d="M 199.7467193603516 14.88417053222656 C 194.2532653808594 14.88417053222656 183.1311187744141 15.60127258300781 170.3639526367188 20.40399169921875 C 161.6464080810547 23.68310546875 153.7144775390625 28.22581481933594 146.7884979248047 33.90594482421875 C 139.5527954101562 39.84005737304688 133.4514007568359 46.99221801757812 128.6538238525391 55.16374969482422 C 122.8706207275391 65.01407623291016 118.8135833740234 75.97289276123047 116.9212951660156 86.85545349121094 C 115.0289154052734 97.73854827880859 115.3705596923828 108.1573638916016 117.9092559814453 116.9855651855469 C 121.2858428955078 128.7290191650391 125.8285369873047 139.5015411376953 127.2529144287109 142.7746734619141 L 202.0099334716797 99.61370849609375 L 202.3419494628906 14.94456481933594 C 201.7441101074219 14.91444396972656 200.8651275634766 14.88417053222656 199.7467193603516 14.88417053222656 M 199.7467193603516 13.88417053222656 C 202.0477600097656 13.88417053222656 203.3456420898438 14.00868225097656 203.3456420898438 14.00868225097656 L 203.0076904296875 100.1923522949219 L 126.7877044677734 144.1979675292969 C 126.7877044677734 144.1979675292969 121.0508422851562 131.530517578125 116.9482116699219 117.2618942260742 C 111.6804809570312 98.94377136230469 115.9025268554688 74.90749359130859 127.7914581298828 54.65745544433594 C 137.7648773193359 37.67012786865234 152.7122955322266 25.97529602050781 170.0118865966797 19.46800231933594 C 182.95068359375 14.60072326660156 194.2293548583984 13.88417053222656 199.7467193603516 13.88417053222656 Z" stroke="none" fill="#696969"/>
    </g>
  </g>
</svg>
