<svg xmlns="http://www.w3.org/2000/svg" xmlns:xlink="http://www.w3.org/1999/xlink" width="1000" height="700" viewBox="0 0 1000 700"><defs><filter id="a" x="91" y="282" width="818" height="142" filterUnits="userSpaceOnUse"><feOffset dy="3" input="SourceAlpha"/><feGaussianBlur stdDeviation="3" result="b"/><feFlood flood-opacity="0.102"/><feComposite operator="in" in2="b"/><feComposite in="SourceGraphic"/></filter><clipPath id="d"><rect width="1000" height="700"/></clipPath></defs><g id="c" clip-path="url(#d)"><rect width="1000" height="700" fill="#fcfcff"/><g transform="matrix(1, 0, 0, 1, 0, 0)" filter="url(#a)"><g transform="translate(100 288)" fill="#f2f2f2" stroke="#d5d5d5" stroke-width="0.5"><rect width="800" height="124" rx="5" stroke="none"/><rect x="0.25" y="0.25" width="799.5" height="123.5" rx="4.75" fill="none"/></g></g><rect width="166" height="103" rx="5" transform="translate(725 299)" fill="#888"/><line x2="300.256" transform="translate(180.158 350.446)" fill="none" stroke="#d5d5d5" stroke-width="15"/><g transform="translate(786.579 326)"><line stroke="#449fdb" stroke-width="1"/><path d="M25.669,47.73H14.122a1.538,1.538,0,0,1-1.045-2.67L35,24.778,13.027,2.624A1.54,1.54,0,0,1,14.12,0H25.667A1.541,1.541,0,0,1,26.76.455L49.855,23.742a1.538,1.538,0,0,1-.048,2.215L26.714,47.319a1.528,1.528,0,0,1-1.045.41Zm-7.615-3.079h7.013l21.482-19.87L25.028,3.082h-7.21L38.311,23.744a1.539,1.539,0,0,1-.048,2.216L18.055,44.651Z" transform="translate(-7.576 0)" fill="#fff"/></g><g transform="translate(799.579 326)"><line stroke="#449fdb" stroke-width="1"/></g></g></svg>