<svg xmlns="http://www.w3.org/2000/svg" xmlns:xlink="http://www.w3.org/1999/xlink" width="1000" height="700" viewBox="0 0 1000 700"><defs><filter id="a" x="164" y="94" width="672" height="142" filterUnits="userSpaceOnUse"><feOffset dy="3" input="SourceAlpha"/><feGaussianBlur stdDeviation="3" result="b"/><feFlood flood-opacity="0.102"/><feComposite operator="in" in2="b"/><feComposite in="SourceGraphic"/></filter><filter id="c" x="164" y="254" width="672" height="141" filterUnits="userSpaceOnUse"><feOffset dy="3" input="SourceAlpha"/><feGaussianBlur stdDeviation="3" result="d"/><feFlood flood-opacity="0.102"/><feComposite operator="in" in2="d"/><feComposite in="SourceGraphic"/></filter><filter id="e" x="164" y="474" width="672" height="138" filterUnits="userSpaceOnUse"><feOffset dy="3" input="SourceAlpha"/><feGaussianBlur stdDeviation="3" result="f"/><feFlood flood-opacity="0.102"/><feComposite operator="in" in2="f"/><feComposite in="SourceGraphic"/></filter><clipPath id="h"><rect width="1000" height="700"/></clipPath></defs><g id="g" clip-path="url(#h)"><rect width="1000" height="700" fill="#fcfcff"/><g transform="matrix(1, 0, 0, 1, 0, 0)" filter="url(#a)"><g transform="translate(173 100)" fill="#f2f2f2" stroke="#d5d5d5" stroke-width="0.5"><rect width="654" height="124" rx="5" stroke="none"/><rect x="0.25" y="0.25" width="653.5" height="123.5" rx="4.75" fill="none"/></g></g><g transform="matrix(1, 0, 0, 1, 0, 0)" filter="url(#c)"><g transform="translate(173 260)" fill="#f2f2f2" stroke="#d5d5d5" stroke-width="0.5"><rect width="654" height="123" rx="5" stroke="none"/><rect x="0.25" y="0.25" width="653.5" height="122.5" rx="4.75" fill="none"/></g></g><g transform="matrix(1, 0, 0, 1, 0, 0)" filter="url(#e)"><g transform="translate(173 480)" fill="#888" stroke="#888" stroke-width="1"><rect width="654" height="120" rx="5" stroke="none"/><rect x="0.5" y="0.5" width="653" height="119" rx="4.5" fill="none"/></g></g><line x2="376.077" transform="translate(311.5 162.446)" fill="none" stroke="#d5d5d5" stroke-width="15"/><line x2="376.077" transform="translate(311.5 322.63)" fill="none" stroke="#d5d5d5" stroke-width="15"/><line x2="376.077" transform="translate(311.5 539.63)" fill="none" stroke="#fff" stroke-width="20"/></g></svg>