<svg xmlns="http://www.w3.org/2000/svg" xmlns:xlink="http://www.w3.org/1999/xlink" width="1000" height="700" viewBox="0 0 1000 700">
  <defs>
    <clipPath id="clip-Advanced_Button_-_Download_Style_3">
      <rect width="1000" height="700"/>
    </clipPath>
  </defs>
  <g id="Advanced_Button_-_Download_Style_3" data-name="Advanced Button - Download Style – 3" clip-path="url(#clip-Advanced_Button_-_Download_Style_3)">
    <rect width="1000" height="700" fill="#fcfcff"/>
    <g transform="translate(536 238)" fill="#f2f2f2" stroke="#d5d5d5" stroke-width="2">
      <rect width="272" height="234" rx="5" stroke="none"/>
      <rect x="1" y="1" width="270" height="232" rx="4" fill="none"/>
    </g>
    <path d="M94.766,14.4,83.435,3.07A10.482,10.482,0,0,0,76.023,0H38.436A10.482,10.482,0,0,0,27.953,10.482V20.965H10.482A10.482,10.482,0,0,0,0,31.447V101.33a10.482,10.482,0,0,0,10.482,10.482H59.4A10.482,10.482,0,0,0,69.883,101.33V90.848H87.354A10.482,10.482,0,0,0,97.836,80.365V21.813a10.482,10.482,0,0,0-3.07-7.412ZM76.871,7.1a3.468,3.468,0,0,1,1.623.916l11.33,11.33a3.469,3.469,0,0,1,.916,1.623H76.871ZM62.895,101.33a3.5,3.5,0,0,1-3.494,3.494H10.482a3.5,3.5,0,0,1-3.494-3.494V31.447a3.5,3.5,0,0,1,3.494-3.494H27.953V80.365A10.482,10.482,0,0,0,38.436,90.848H62.895ZM90.848,80.365a3.5,3.5,0,0,1-3.494,3.494H38.436a3.5,3.5,0,0,1-3.494-3.494V10.482a3.5,3.5,0,0,1,3.494-3.494H69.883V22.712a5.257,5.257,0,0,0,5.241,5.241H90.848Z" transform="translate(623.082 299.094)" fill="#888"/>
    <path d="M94.766,14.4,83.435,3.07A10.482,10.482,0,0,0,76.023,0H38.436A10.482,10.482,0,0,0,27.953,10.482V20.965H10.482A10.482,10.482,0,0,0,0,31.447V101.33a10.482,10.482,0,0,0,10.482,10.482H59.4A10.482,10.482,0,0,0,69.883,101.33V90.848H87.354A10.482,10.482,0,0,0,97.836,80.365V21.813a10.482,10.482,0,0,0-3.07-7.412ZM76.871,7.1a3.468,3.468,0,0,1,1.623.916l11.33,11.33a3.469,3.469,0,0,1,.916,1.623H76.871ZM62.895,101.33a3.5,3.5,0,0,1-3.494,3.494H10.482a3.5,3.5,0,0,1-3.494-3.494V31.447a3.5,3.5,0,0,1,3.494-3.494H27.953V80.365A10.482,10.482,0,0,0,38.436,90.848H62.895ZM90.848,80.365a3.5,3.5,0,0,1-3.494,3.494H38.436a3.5,3.5,0,0,1-3.494-3.494V10.482a3.5,3.5,0,0,1,3.494-3.494H69.883V22.712a5.257,5.257,0,0,0,5.241,5.241H90.848Z" transform="translate(266.082 299.094)" fill="#888"/>
    <g transform="translate(179 238)" fill="none" stroke="#d5d5d5" stroke-width="2">
      <rect width="272" height="234" rx="5" stroke="none"/>
      <rect x="1" y="1" width="270" height="232" rx="4" fill="none"/>
    </g>
    <g transform="translate(228 322)" fill="#d5d5d5" stroke="#d5d5d5" stroke-width="1">
      <rect width="174" height="56" rx="5" stroke="none"/>
      <rect x="0.5" y="0.5" width="173" height="55" rx="4.5" fill="none"/>
    </g>
    <g transform="translate(585 322)" fill="#d5d5d5" stroke="#d5d5d5" stroke-width="1">
      <rect width="174" height="56" rx="5" stroke="none"/>
      <rect x="0.5" y="0.5" width="173" height="55" rx="4.5" fill="none"/>
    </g>
    <rect width="87.713" height="16" rx="2" transform="translate(271.143 342)" fill="#888"/>
    <rect width="125.713" height="16" rx="2" transform="translate(609.143 342)" fill="#888"/>
  </g>
</svg>
