<svg xmlns="http://www.w3.org/2000/svg" width="1000" height="100" viewBox="0 0 1000 100" preserveAspectRatio="none">
  <path class="shape-fill" d="M994.888,94h0L1.061,93.976H994.776c-.069-.053-7.914-6.078-24.548-14.972-9.785-5.233-20.662-10.427-32.327-15.44C923.318,57.3,907.453,51.3,890.746,45.731c-42.526-14.167-90.7-25.641-143.171-34.1C716.418,6.6,683.377,2.6,649.37-.278,611.963-3.44,572.46-5.312,531.959-5.841L995-5.7,994.888,94ZM-5,93.977V-6l489.308.145c-40.071.507-79.616,2.36-117.536,5.51-34.465,2.863-68.355,6.861-100.731,11.882C211.515,19.994,160.226,31.473,113.6,45.655,95.281,51.226,77.647,57.234,61.188,63.51c-13.167,5.021-25.617,10.224-37,15.465C4.85,87.875-4.9,93.916-5,93.976Z" transform="translate(5 6)" fill="#000"/>
</svg>
