<svg xmlns="http://www.w3.org/2000/svg" width="1000" height="100" viewBox="0 0 1000 100" preserveAspectRatio="none">
  <path class="shape-fill" d="M1000,92H0l1000,0c-.512-.1-30.456-5.877-78.149-14.356-44.209-7.86-113.175-19.719-190.677-31.584C644.063,32.721,564.139,22.095,493.623,14.474,405.479,4.947,331.873.117,274.849.117S167.892,4.947,126.435,14.474C93.27,22.095,65.426,32.721,43.675,46.058A146.66,146.66,0,0,0,21.046,62.927,99.571,99.571,0,0,0,7.79,77.642C1.7,86.052.068,91.757,0,92V-8H1000V92h0Z" transform="translate(-0.001 7.998)" fill="#000"/>
</svg>
