<svg xmlns="http://www.w3.org/2000/svg" width="1000" height="65.424" viewBox="0 0 1000 65.424" preserveAspectRatio="none">
  <path class="shape-fill" d="M680.6,57.425c-18.854,0-37.112-.206-54.267-.611a88.152,88.152,0,0,1-21.44-3.119,98.192,98.192,0,0,1-18.59-7.252c-11.612-5.874-21.816-13.48-31.685-20.836-8.84-6.589-17.186-12.81-26.051-17.477a70.735,70.735,0,0,0-13.7-5.6A53.683,53.683,0,0,0,500,.425a72.439,72.439,0,0,0-32.518,7.443c-9.528,4.585-18.43,11-27.855,17.8-14.266,10.288-30.435,21.949-53.743,31.144-3.37.226-9.115.34-17.074.34-13.436,0-28.556-.326-29.193-.34-.359,0-36.314.448-74.11.448-22.1,0-40.406-.151-54.4-.448-30.185-.642-63.9-.967-100.223-.967C49.432,55.846.489,56.8,0,56.813V-8H1000V56.813H735.926C735.7,56.819,712.743,57.424,680.6,57.425Z" transform="translate(-0.001 7.999)" fill="#000"/>
</svg>
