<svg xmlns="http://www.w3.org/2000/svg" width="1000.37" height="96.465" viewBox="0 0 1000.37 96.465" preserveAspectRatio="none">
  <g transform="translate(0.37 -3.535)">
    <path class="shape-fill" d="M0,100S-9.154,19.886,63.643,23.34C115.364,54.15,180.437,3.072,221.049,5.586c53.356-6.94,59.29,44.868,184.663,46.2,64.9-.048,88.414-44.025,147.425-46.2C657.6,1.742,714.689,94.676,793.3,58.5c32.631-.361,81.62-67.4,151.993-52.91C994.354,17.023,1000,100,1000,100H0Z" fill="#000" opacity="0.25"/>
    <path class="shape-fill" d="M0,100S33.141,25.148,105.937,28.6c56.246,6.38,54.891,16.755,95.5,19.269,26.379,4.216,44.016-12.566,87.8-19.269S356.5,54.935,406.223,64.032C567.43,103.287,696.329,34.685,726.553,28.6c20.529-4.827,34.012-8.314,61.441,0s85.023,55.751,85.717,57.02S988.939,90.887,993.83,99.9s6.17,11.545,6.17,11.545L0,111.836Z" transform="translate(0 -12)" fill="#000" opacity="0.25"/>
    <path class="shape-fill" d="M0,100S39.655,25.889,112.451,29.343c56.246,6.38,74.831,42.827,115.443,45.341,53.356-6.94,52.946-64.261,178.32-62.933,64.9-.048,155.2,65.1,214.213,62.933C724.886,70.84,849.062,11.81,906.6,11.751,980.257,10.935,1000,100,1000,100H0Z" fill="#000"/>
  </g>
</svg>
