<svg xmlns="http://www.w3.org/2000/svg" xmlns:xlink="http://www.w3.org/1999/xlink" width="1000" height="700" viewBox="0 0 1000 700">
  <defs>
    <clipPath>
      <rect width="1000" height="700"/>
    </clipPath>
  </defs>
  <g clip-path="url(#clip-Number_Counter_-_Style_1_1)">
    <rect width="1000" height="700" fill="#fcfcff"/>
    <rect width="229" height="208" transform="translate(385 100)" fill="#d5d5d5"/>
    <line x2="429" transform="translate(285.5 600.5)" fill="none" stroke="#888" stroke-width="30"/>
    <text transform="translate(358 499)" fill="#888" font-size="154" font-family="Poppins-Bold, Poppins" font-weight="700"><tspan x="0" y="0">245</tspan></text>
    <g transform="translate(442 146)">
      <g>
        <line stroke="#449fdb" stroke-width="1"/>
      </g>
      <path d="M60,32.5A27.5,27.5,0,1,0,87.5,60,27.528,27.528,0,0,0,60,32.5Zm0,45A17.5,17.5,0,1,1,77.5,60,17.519,17.519,0,0,1,60,77.5Z" fill="#fff"/>
      <path d="M113.272,72.316a12.425,12.425,0,0,1,0-24.628,2.5,2.5,0,0,0,2.072-3.144,57.746,57.746,0,0,0-5.256-12.752,2.515,2.515,0,0,0-3.7-.764,12.772,12.772,0,0,1-16.336-1.08A12.521,12.521,0,0,1,88.976,13.6a2.521,2.521,0,0,0,.444-2.016A2.453,2.453,0,0,0,88.2,9.916a57.033,57.033,0,0,0-12.744-5.26,2.538,2.538,0,0,0-2.048.32,2.494,2.494,0,0,0-1.1,1.744,12.421,12.421,0,0,1-24.624,0,2.5,2.5,0,0,0-3.148-2.064A57.158,57.158,0,0,0,31.8,9.916a2.483,2.483,0,0,0-1.224,1.672A2.539,2.539,0,0,0,31.02,13.6a12.516,12.516,0,0,1-1.076,16.344,12.783,12.783,0,0,1-16.336,1.08,2.51,2.51,0,0,0-3.692.764A57.386,57.386,0,0,0,4.652,44.544a2.519,2.519,0,0,0,.324,2.04,2.494,2.494,0,0,0,1.748,1.1,12.424,12.424,0,0,1,0,24.628A2.5,2.5,0,0,0,4.66,75.46,57.727,57.727,0,0,0,9.916,88.208a2.5,2.5,0,0,0,3.692.772,12.758,12.758,0,0,1,16.336,1.08A12.51,12.51,0,0,1,31.02,106.4a2.542,2.542,0,0,0-.448,2.016,2.481,2.481,0,0,0,1.216,1.672,56.9,56.9,0,0,0,12.748,5.256,2.492,2.492,0,0,0,3.148-2.064,12.424,12.424,0,0,1,24.628,0,2.494,2.494,0,0,0,1.1,1.748,2.5,2.5,0,0,0,2.048.32,57.2,57.2,0,0,0,12.752-5.256,2.505,2.505,0,0,0,1.216-1.672,2.542,2.542,0,0,0-.448-2.016,12.51,12.51,0,0,1,1.08-16.336,12.763,12.763,0,0,1,16.336-1.08,2.509,2.509,0,0,0,3.7-.772,57.143,57.143,0,0,0,5.256-12.748,2.47,2.47,0,0,0-.32-2.04,2.5,2.5,0,0,0-1.756-1.108ZM60,92.5A32.5,32.5,0,1,1,92.5,60,32.535,32.535,0,0,1,60,92.5Z" fill="#fff"/>
      <path d="M72.5,60A12.5,12.5,0,1,1,60,47.5,12.5,12.5,0,0,1,72.5,60Z" fill="#fff"/>
    </g>
  </g>
</svg>