<svg xmlns="http://www.w3.org/2000/svg" xmlns:xlink="http://www.w3.org/1999/xlink" width="1000" height="700" viewBox="0 0 1000 700">
  <defs>
    <clipPath id="clip-Animated_Service_Boxes_-_Info_Banner">
      <rect width="1000" height="700"/>
    </clipPath>
  </defs>
  <g id="Animated_Service_Boxes_-_Info_Banner" data-name="Animated Service Boxes - Info Banner" clip-path="url(#clip-Animated_Service_Boxes_-_Info_Banner)">
    <rect width="1000" height="700" fill="#fcfcff"/>
    <rect id="Rectangle_648" data-name="Rectangle 648" width="380" height="380" rx="5" transform="translate(100 160)" fill="#f2f2f2"/>
    <rect id="Rectangle_649" data-name="Rectangle 649" width="380" height="380" rx="5" transform="translate(520 160)" fill="#888"/>
    <rect id="Rectangle_2" data-name="Rectangle 2" width="74" height="67" transform="translate(252.783 271.375)" fill="#888"/>
    <line id="Line_1" data-name="Line 1" x2="151" transform="translate(214.5 428.625)" fill="none" stroke="#888" stroke-width="8" opacity="0.6"/>
    <line id="Line_6" data-name="Line 6" x2="199" transform="translate(190.5 388.625)" fill="none" stroke="#888" stroke-width="15"/>
    <g id="Flash" transform="translate(273.412 286.293)">
      <g id="icomoon-ignore" transform="translate(0)">
        <line id="Line_13" data-name="Line 13" stroke="#449fdb" stroke-width="1"/>
      </g>
      <path id="Path_217" data-name="Path 217" d="M44.068,16.338a.8.8,0,0,0-.7-.412H30.252V2.831c0-.361-.081-.676-.43-.773A.7.7,0,0,0,29,2.424L16.148,24.316a1.507,1.507,0,0,0,.015,1.125c.141.248.426.72.714.72h12.1V38.316a.8.8,0,0,0,.577.769.742.742,0,0,0,.223.031.8.8,0,0,0,.677-.374l13.6-21.592A.8.8,0,0,0,44.068,16.338Z" transform="translate(-10.914 -1.381)" fill="#fff"/>
    </g>
    <line id="Line_1-2" data-name="Line 1" x2="203" transform="translate(608.5 277.563)" fill="none" stroke="#fff" stroke-width="8" opacity="0.5"/>
    <line id="Line_2" data-name="Line 2" x2="247" transform="translate(586.5 300.563)" fill="none" stroke="#fff" stroke-width="8" opacity="0.5"/>
    <line id="Line_3" data-name="Line 3" x2="266.071" transform="translate(576.964 323.589)" fill="none" stroke="#fff" stroke-width="8" opacity="0.5"/>
    <rect id="Rectangle_650" data-name="Rectangle 650" width="198.875" height="48.375" rx="5" transform="translate(610.563 374.063)" fill="#fff"/>
    <line id="Line_143" data-name="Line 143" x2="127.506" transform="translate(645.981 398.147)" fill="none" stroke="#888" stroke-width="10"/>
  </g>
</svg>
