<svg xmlns="http://www.w3.org/2000/svg" xmlns:xlink="http://www.w3.org/1999/xlink" width="1000" height="700" viewBox="0 0 1000 700"><defs><clipPath id="b"><rect width="1000" height="700"/></clipPath></defs><g id="a" clip-path="url(#b)"><rect width="1000" height="700" fill="#fcfcff"/><g transform="translate(223 251)" fill="#d5d5d5" stroke="#d5d5d5" stroke-width="1"><rect width="166" height="30" stroke="none"/><rect x="0.5" y="0.5" width="165" height="29" fill="none"/></g><g transform="translate(303 141)" fill="#888" stroke="#888" stroke-width="1"><rect width="326" height="30" stroke="none"/><rect x="0.5" y="0.5" width="325" height="29" fill="none"/></g><g transform="translate(276 411)" fill="#d5d5d5" stroke="#d5d5d5" stroke-width="1"><rect width="166" height="30" stroke="none"/><rect x="0.5" y="0.5" width="165" height="29" fill="none"/></g><g transform="translate(223 334)" fill="#d5d5d5" stroke="#d5d5d5" stroke-width="1"><rect width="166" height="30" stroke="none"/><rect x="0.5" y="0.5" width="165" height="29" fill="none"/></g><g transform="translate(276 488)" fill="#888" stroke="#888" stroke-width="1"><rect width="166" height="30" stroke="none"/><rect x="0.5" y="0.5" width="165" height="29" fill="none"/></g><g transform="translate(223 570)" fill="#d5d5d5" stroke="#d5d5d5" stroke-width="1"><rect width="166" height="30" stroke="none"/><rect x="0.5" y="0.5" width="165" height="29" fill="none"/></g><g transform="translate(158 100)"><g transform="translate(64)"><path d="M71.359,0H69.888A5.893,5.893,0,0,0,64,5.888V64.764a5.893,5.893,0,0,0,5.888,5.888H71.36a1.471,1.471,0,0,0,1.472-1.472V1.472A1.471,1.471,0,0,0,71.359,0Z" transform="translate(-64)" fill="#888"/><path d="M184.659,0H150.8a1.471,1.471,0,0,0-1.472,1.472V69.179a1.471,1.471,0,0,0,1.472,1.472h33.854a5.894,5.894,0,0,0,5.888-5.888V5.888A5.893,5.893,0,0,0,184.659,0Zm-8.831,22.079a1.467,1.467,0,0,1-.907,1.36,1.492,1.492,0,0,1-1.605-.319l-3.806-3.806a1.471,1.471,0,0,0-2.081,0l-3.806,3.806a1.486,1.486,0,0,1-1.6.319,1.467,1.467,0,0,1-.908-1.36V2.944h14.719V22.079Z" transform="translate(-137.558)" fill="#888"/></g></g><line x2="556" transform="translate(222.5 210.5)" fill="none" stroke="#707070" stroke-width="5"/><path d="M0,0,22.9,19.623,43.975,0" transform="translate(732.378 144.35)" fill="none" stroke="#707070" stroke-width="10"/><g transform="translate(223 399)" fill="#d5d5d5" stroke="#d5d5d5" stroke-width="1"><rect width="9" height="131" rx="4.5" stroke="none"/><rect x="0.5" y="0.5" width="8" height="130" rx="4" fill="none"/></g><g transform="translate(221 476)" fill="#888" stroke="#888" stroke-width="1"><rect width="13" height="54" rx="6.5" stroke="none"/><rect x="0.5" y="0.5" width="12" height="53" rx="6" fill="none"/></g></g></svg>