<svg xmlns="http://www.w3.org/2000/svg" xmlns:xlink="http://www.w3.org/1999/xlink" width="1000" height="700" viewBox="0 0 1000 700">
  <defs>
    <clipPath id="clip-Column_3_Style_2">
      <rect width="1000" height="700"/>
    </clipPath>
  </defs>
  <g id="Column_3_Style_2" data-name="Column 3 Style 2" clip-path="url(#clip-Column_3_Style_2)">
    <rect width="1000" height="700" fill="#fcfcff"/>
    <g id="Group_51" data-name="Group 51">
      <g id="Group_16" data-name="Group 16" transform="translate(-343.33 -343.326)">
        <rect id="Rectangle_703" data-name="Rectangle 703" width="156.67" height="156.673" transform="translate(593.33 443.326)" fill="#d5d5d5"/>
        <path id="image" d="M43.123,99.688H4.461A4.461,4.461,0,0,1,0,95.227V68.461A4.461,4.461,0,0,1,4.461,64H43.123a4.461,4.461,0,0,1,4.461,4.461V95.227A4.461,4.461,0,0,1,43.123,99.688ZM10.409,69.2a5.2,5.2,0,1,0,5.2,5.2A5.2,5.2,0,0,0,10.409,69.2ZM5.948,93.74H41.636V83.331L33.5,75.2a1.115,1.115,0,0,0-1.577,0L19.331,87.792l-5.159-5.159a1.115,1.115,0,0,0-1.577,0L5.948,89.279Z" transform="translate(648.33 439.326)" fill="#888" opacity="0.207"/>
      </g>
      <g id="Group_18" data-name="Group 18" transform="translate(-343.33 -171.326)">
        <rect id="Rectangle_703-2" data-name="Rectangle 703" width="156.67" height="156.673" transform="translate(593.33 443.326)" fill="#d5d5d5"/>
        <path id="image-2" data-name="image" d="M43.123,99.688H4.461A4.461,4.461,0,0,1,0,95.227V68.461A4.461,4.461,0,0,1,4.461,64H43.123a4.461,4.461,0,0,1,4.461,4.461V95.227A4.461,4.461,0,0,1,43.123,99.688ZM10.409,69.2a5.2,5.2,0,1,0,5.2,5.2A5.2,5.2,0,0,0,10.409,69.2ZM5.948,93.74H41.636V83.331L33.5,75.2a1.115,1.115,0,0,0-1.577,0L19.331,87.792l-5.159-5.159a1.115,1.115,0,0,0-1.577,0L5.948,89.279Z" transform="translate(648.33 439.326)" fill="#888" opacity="0.207"/>
      </g>
      <g id="Group_19" data-name="Group 19" transform="translate(-343.33)">
        <rect id="Rectangle_703-3" data-name="Rectangle 703" width="156.67" height="156.673" transform="translate(593.33 443.326)" fill="#d5d5d5"/>
        <path id="image-3" data-name="image" d="M43.123,99.688H4.461A4.461,4.461,0,0,1,0,95.227V68.461A4.461,4.461,0,0,1,4.461,64H43.123a4.461,4.461,0,0,1,4.461,4.461V95.227A4.461,4.461,0,0,1,43.123,99.688ZM10.409,69.2a5.2,5.2,0,1,0,5.2,5.2A5.2,5.2,0,0,0,10.409,69.2ZM5.948,93.74H41.636V83.331L33.5,75.2a1.115,1.115,0,0,0-1.577,0L19.331,87.792l-5.159-5.159a1.115,1.115,0,0,0-1.577,0L5.948,89.279Z" transform="translate(648.33 439.326)" fill="#888" opacity="0.207"/>
      </g>
      <g id="Group_21" data-name="Group 21" transform="translate(0 -171.664)">
        <rect id="Rectangle_703-4" data-name="Rectangle 703" width="156.67" height="156.673" transform="translate(593.33 443.326)" fill="#d5d5d5"/>
        <path id="image-4" data-name="image" d="M43.123,99.688H4.461A4.461,4.461,0,0,1,0,95.227V68.461A4.461,4.461,0,0,1,4.461,64H43.123a4.461,4.461,0,0,1,4.461,4.461V95.227A4.461,4.461,0,0,1,43.123,99.688ZM10.409,69.2a5.2,5.2,0,1,0,5.2,5.2A5.2,5.2,0,0,0,10.409,69.2ZM5.948,93.74H41.636V83.331L33.5,75.2a1.115,1.115,0,0,0-1.577,0L19.331,87.792l-5.159-5.159a1.115,1.115,0,0,0-1.577,0L5.948,89.279Z" transform="translate(648.33 439.326)" fill="#888" opacity="0.207"/>
      </g>
      <g id="Group_50" data-name="Group 50">
        <rect id="Rectangle_703-5" data-name="Rectangle 703" width="156.67" height="156.673" transform="translate(593.33 443.326)" fill="#d5d5d5"/>
        <path id="image-5" data-name="image" d="M43.123,99.688H4.461A4.461,4.461,0,0,1,0,95.227V68.461A4.461,4.461,0,0,1,4.461,64H43.123a4.461,4.461,0,0,1,4.461,4.461V95.227A4.461,4.461,0,0,1,43.123,99.688ZM10.409,69.2a5.2,5.2,0,1,0,5.2,5.2A5.2,5.2,0,0,0,10.409,69.2ZM5.948,93.74H41.636V83.331L33.5,75.2a1.115,1.115,0,0,0-1.577,0L19.331,87.792l-5.159-5.159a1.115,1.115,0,0,0-1.577,0L5.948,89.279Z" transform="translate(648.33 439.326)" fill="#888" opacity="0.207"/>
      </g>
      <rect id="Rectangle_703-6" data-name="Rectangle 703" width="156.67" height="328.338" transform="translate(421.665 271.662)" fill="#888"/>
      <g id="Group_17" data-name="Group 17">
        <rect id="Rectangle_703-7" data-name="Rectangle 703" width="328.335" height="156.673" transform="translate(422 100)" fill="#d5d5d5"/>
        <path id="image-6" data-name="image" d="M43.123,99.688H4.461A4.461,4.461,0,0,1,0,95.227V68.461A4.461,4.461,0,0,1,4.461,64H43.123a4.461,4.461,0,0,1,4.461,4.461V95.227A4.461,4.461,0,0,1,43.123,99.688ZM10.409,69.2a5.2,5.2,0,1,0,5.2,5.2A5.2,5.2,0,0,0,10.409,69.2ZM5.948,93.74H41.636V83.331L33.5,75.2a1.115,1.115,0,0,0-1.577,0L19.331,87.792l-5.159-5.159a1.115,1.115,0,0,0-1.577,0L5.948,89.279Z" transform="translate(562 96)" fill="#888" opacity="0.207"/>
      </g>
    </g>
  </g>
</svg>
