<svg xmlns="http://www.w3.org/2000/svg" xmlns:xlink="http://www.w3.org/1999/xlink" width="1000" height="700" viewBox="0 0 1000 700">
  <defs>
    <clipPath id="clip-Column_4_Style_1_2">
      <rect width="1000" height="700"/>
    </clipPath>
  </defs>
  <g id="Column_4_Style_1_2" data-name="Column 4 Style 1 – 2" clip-path="url(#clip-Column_4_Style_1_2)">
    <rect width="1000" height="700" fill="#fcfcff"/>
    <g id="Group_49" data-name="Group 49">
      <rect id="Rectangle_701" data-name="Rectangle 701" width="242.5" height="242.5" transform="translate(750 342.5) rotate(180)" fill="#888"/>
      <g id="Group_29" data-name="Group 29" transform="translate(492.5 471.25) rotate(180)">
        <rect id="Rectangle_706" data-name="Rectangle 706" width="242.5" height="113.75" fill="#d5d5d5"/>
        <path id="image" d="M43.123,0H4.461A4.461,4.461,0,0,0,0,4.461V31.227a4.461,4.461,0,0,0,4.461,4.461H43.123a4.461,4.461,0,0,0,4.461-4.461V4.461A4.461,4.461,0,0,0,43.123,0ZM10.409,30.484a5.2,5.2,0,1,1,5.2-5.2A5.2,5.2,0,0,1,10.409,30.484ZM5.948,5.948H41.636V16.357L33.5,24.491a1.115,1.115,0,0,1-1.577,0L19.331,11.9l-5.159,5.159a1.115,1.115,0,0,1-1.577,0L5.948,10.409Z" transform="translate(97.458 39.031)" fill="#888" opacity="0.207"/>
      </g>
      <g id="Group_28" data-name="Group 28" transform="translate(363.75 600) rotate(180)">
        <rect id="Rectangle_708" data-name="Rectangle 708" width="113.75" height="113.75" fill="#d5d5d5"/>
        <path id="image-2" data-name="image" d="M43.123,0H4.461A4.461,4.461,0,0,0,0,4.461V31.227a4.461,4.461,0,0,0,4.461,4.461H43.123a4.461,4.461,0,0,0,4.461-4.461V4.461A4.461,4.461,0,0,0,43.123,0ZM10.409,30.484a5.2,5.2,0,1,1,5.2-5.2A5.2,5.2,0,0,1,10.409,30.484ZM5.948,5.948H41.636V16.357L33.5,24.491a1.115,1.115,0,0,1-1.577,0L19.331,11.9l-5.159,5.159a1.115,1.115,0,0,1-1.577,0L5.948,10.409Z" transform="translate(33.083 39.031)" fill="#888" opacity="0.207"/>
      </g>
      <g id="Group_30" data-name="Group 30" transform="translate(492.5 600) rotate(180)">
        <rect id="Rectangle_707" data-name="Rectangle 707" width="113.75" height="113.75" fill="#d5d5d5"/>
        <path id="image-3" data-name="image" d="M43.123,0H4.461A4.461,4.461,0,0,0,0,4.461V31.227a4.461,4.461,0,0,0,4.461,4.461H43.123a4.461,4.461,0,0,0,4.461-4.461V4.461A4.461,4.461,0,0,0,43.123,0ZM10.409,30.484a5.2,5.2,0,1,1,5.2-5.2A5.2,5.2,0,0,1,10.409,30.484ZM5.948,5.948H41.636V16.357L33.5,24.491a1.115,1.115,0,0,1-1.577,0L19.331,11.9l-5.159,5.159a1.115,1.115,0,0,1-1.577,0L5.948,10.409Z" transform="translate(33.083 39.031)" fill="#888" opacity="0.207"/>
      </g>
      <g id="Group_26" data-name="Group 26" transform="translate(492.5 342.5) rotate(180)">
        <rect id="Rectangle_710" data-name="Rectangle 710" width="113.75" height="113.75" transform="translate(113.75 113.75) rotate(180)" fill="#d5d5d5"/>
        <path id="image-4" data-name="image" d="M43.123,0H4.461A4.461,4.461,0,0,0,0,4.461V31.227a4.461,4.461,0,0,0,4.461,4.461H43.123a4.461,4.461,0,0,0,4.461-4.461V4.461A4.461,4.461,0,0,0,43.123,0ZM10.409,30.484a5.2,5.2,0,1,1,5.2-5.2A5.2,5.2,0,0,1,10.409,30.484ZM5.948,5.948H41.636V16.357L33.5,24.491a1.115,1.115,0,0,1-1.577,0L19.331,11.9l-5.159,5.159a1.115,1.115,0,0,1-1.577,0L5.948,10.409Z" transform="translate(33.083 39.031)" fill="#888" opacity="0.207"/>
      </g>
      <g id="Group_46" data-name="Group 46" transform="translate(492.5 213.75) rotate(180)">
        <rect id="Rectangle_710-2" data-name="Rectangle 710" width="113.75" height="113.75" transform="translate(113.75 113.75) rotate(180)" fill="#d5d5d5"/>
        <path id="image-5" data-name="image" d="M43.123,0H4.461A4.461,4.461,0,0,0,0,4.461V31.227a4.461,4.461,0,0,0,4.461,4.461H43.123a4.461,4.461,0,0,0,4.461-4.461V4.461A4.461,4.461,0,0,0,43.123,0ZM10.409,30.484a5.2,5.2,0,1,1,5.2-5.2A5.2,5.2,0,0,1,10.409,30.484ZM5.948,5.948H41.636V16.357L33.5,24.491a1.115,1.115,0,0,1-1.577,0L19.331,11.9l-5.159,5.159a1.115,1.115,0,0,1-1.577,0L5.948,10.409Z" transform="translate(33.083 39.031)" fill="#888" opacity="0.207"/>
      </g>
      <rect id="Rectangle_711" data-name="Rectangle 711" width="113.75" height="242.5" transform="translate(250 100)" fill="#d5d5d5"/>
      <path id="image-6" data-name="image" d="M43.123,0H4.461A4.461,4.461,0,0,0,0,4.461V31.227a4.461,4.461,0,0,0,4.461,4.461H43.123a4.461,4.461,0,0,0,4.461-4.461V4.461A4.461,4.461,0,0,0,43.123,0ZM10.409,30.484a5.2,5.2,0,1,1,5.2-5.2A5.2,5.2,0,0,1,10.409,30.484ZM5.948,5.948H41.636V16.357L33.5,24.491a1.115,1.115,0,0,1-1.577,0L19.331,11.9l-5.159,5.159a1.115,1.115,0,0,1-1.577,0L5.948,10.409Z" transform="translate(330.667 238.688) rotate(180)" fill="#888" opacity="0.207"/>
      <g id="Group_48" data-name="Group 48">
        <rect id="Rectangle_712" data-name="Rectangle 712" width="242.5" height="242.5" transform="translate(750 600) rotate(180)" fill="#d5d5d5"/>
        <path id="image-7" data-name="image" d="M43.123,0H4.461A4.461,4.461,0,0,0,0,4.461V31.227a4.461,4.461,0,0,0,4.461,4.461H43.123a4.461,4.461,0,0,0,4.461-4.461V4.461A4.461,4.461,0,0,0,43.123,0ZM10.409,30.484a5.2,5.2,0,1,1,5.2-5.2A5.2,5.2,0,0,1,10.409,30.484ZM5.948,5.948H41.636V16.357L33.5,24.491a1.115,1.115,0,0,1-1.577,0L19.331,11.9l-5.159,5.159a1.115,1.115,0,0,1-1.577,0L5.948,10.409Z" transform="translate(652.542 496.594) rotate(180)" fill="#888" opacity="0.207"/>
      </g>
    </g>
  </g>
</svg>
