<svg xmlns="http://www.w3.org/2000/svg" xmlns:xlink="http://www.w3.org/1999/xlink" width="1000" height="700" viewBox="0 0 1000 700">
  <defs>
    <clipPath id="clip-Column_3_Style_4">
      <rect width="1000" height="700"/>
    </clipPath>
  </defs>
  <g id="Column_3_Style_4" data-name="Column 3 Style 4" clip-path="url(#clip-Column_3_Style_4)">
    <rect width="1000" height="700" fill="#fcfcff"/>
    <rect id="Rectangle_701" data-name="Rectangle 701" width="328.3" height="328.3" transform="translate(250 100)" fill="#888"/>
    <g id="Group_10" data-name="Group 10">
      <rect id="Rectangle_703" data-name="Rectangle 703" width="156.67" height="156.673" transform="translate(593.33 443.326)" fill="#d5d5d5"/>
      <path id="image" d="M43.123,99.688H4.461A4.461,4.461,0,0,1,0,95.227V68.461A4.461,4.461,0,0,1,4.461,64H43.123a4.461,4.461,0,0,1,4.461,4.461V95.227A4.461,4.461,0,0,1,43.123,99.688ZM10.409,69.2a5.2,5.2,0,1,0,5.2,5.2A5.2,5.2,0,0,0,10.409,69.2ZM5.948,93.74H41.636V83.331L33.5,75.2a1.115,1.115,0,0,0-1.577,0L19.331,87.792l-5.159-5.159a1.115,1.115,0,0,0-1.577,0L5.948,89.279Z" transform="translate(648.33 439.326)" fill="#888" opacity="0.207"/>
    </g>
    <g id="Group_14" data-name="Group 14">
      <rect id="Rectangle_703-2" data-name="Rectangle 703" width="156.67" height="156.673" transform="translate(250 443.326)" fill="#d5d5d5"/>
      <path id="image-2" data-name="image" d="M43.123,99.688H4.461A4.461,4.461,0,0,1,0,95.227V68.461A4.461,4.461,0,0,1,4.461,64H43.123a4.461,4.461,0,0,1,4.461,4.461V95.227A4.461,4.461,0,0,1,43.123,99.688ZM10.409,69.2a5.2,5.2,0,1,0,5.2,5.2A5.2,5.2,0,0,0,10.409,69.2ZM5.948,93.74H41.636V83.331L33.5,75.2a1.115,1.115,0,0,0-1.577,0L19.331,87.792l-5.159-5.159a1.115,1.115,0,0,0-1.577,0L5.948,89.279Z" transform="translate(305 439.326)" fill="#888" opacity="0.207"/>
    </g>
    <g id="Group_13" data-name="Group 13">
      <rect id="Rectangle_703-3" data-name="Rectangle 703" width="156.67" height="156.673" transform="translate(421.665 443.326)" fill="#d5d5d5"/>
      <path id="image-3" data-name="image" d="M43.123,99.688H4.461A4.461,4.461,0,0,1,0,95.227V68.461A4.461,4.461,0,0,1,4.461,64H43.123a4.461,4.461,0,0,1,4.461,4.461V95.227A4.461,4.461,0,0,1,43.123,99.688ZM10.409,69.2a5.2,5.2,0,1,0,5.2,5.2A5.2,5.2,0,0,0,10.409,69.2ZM5.948,93.74H41.636V83.331L33.5,75.2a1.115,1.115,0,0,0-1.577,0L19.331,87.792l-5.159-5.159a1.115,1.115,0,0,0-1.577,0L5.948,89.279Z" transform="translate(476.665 439.326)" fill="#888" opacity="0.207"/>
    </g>
    <g id="Group_12" data-name="Group 12">
      <rect id="Rectangle_703-4" data-name="Rectangle 703" width="156.67" height="156.673" transform="translate(593.3 100)" fill="#d5d5d5"/>
      <path id="image-4" data-name="image" d="M43.123,99.688H4.461A4.461,4.461,0,0,1,0,95.227V68.461A4.461,4.461,0,0,1,4.461,64H43.123a4.461,4.461,0,0,1,4.461,4.461V95.227A4.461,4.461,0,0,1,43.123,99.688ZM10.409,69.2a5.2,5.2,0,1,0,5.2,5.2A5.2,5.2,0,0,0,10.409,69.2ZM5.948,93.74H41.636V83.331L33.5,75.2a1.115,1.115,0,0,0-1.577,0L19.331,87.792l-5.159-5.159a1.115,1.115,0,0,0-1.577,0L5.948,89.279Z" transform="translate(648.3 96)" fill="#888" opacity="0.207"/>
    </g>
    <g id="Group_11" data-name="Group 11">
      <rect id="Rectangle_703-5" data-name="Rectangle 703" width="156.67" height="156.673" transform="translate(593.33 271.664)" fill="#d5d5d5"/>
      <path id="image-5" data-name="image" d="M43.123,99.688H4.461A4.461,4.461,0,0,1,0,95.227V68.461A4.461,4.461,0,0,1,4.461,64H43.123a4.461,4.461,0,0,1,4.461,4.461V95.227A4.461,4.461,0,0,1,43.123,99.688ZM10.409,69.2a5.2,5.2,0,1,0,5.2,5.2A5.2,5.2,0,0,0,10.409,69.2ZM5.948,93.74H41.636V83.331L33.5,75.2a1.115,1.115,0,0,0-1.577,0L19.331,87.792l-5.159-5.159a1.115,1.115,0,0,0-1.577,0L5.948,89.279Z" transform="translate(648.33 267.664)" fill="#888" opacity="0.207"/>
    </g>
  </g>
</svg>
