<svg xmlns="http://www.w3.org/2000/svg" xmlns:xlink="http://www.w3.org/1999/xlink" width="1000" height="700" viewBox="0 0 1000 700">
  <defs>
    <clipPath id="clip-Column_4_Style_1_1">
      <rect width="1000" height="700"/>
    </clipPath>
  </defs>
  <g id="Column_4_Style_1_1" data-name="Column 4 Style 1 – 1" clip-path="url(#clip-Column_4_Style_1_1)">
    <rect width="1000" height="700" fill="#fcfcff"/>
    <g id="Group_45" data-name="Group 45" transform="translate(0.16)">
      <g id="Group_20" data-name="Group 20" transform="translate(-429.33 -343.326)">
        <rect id="Rectangle_703" data-name="Rectangle 703" width="156.67" height="156.673" transform="translate(593.33 443.326)" fill="#d5d5d5"/>
        <path id="image" d="M43.123,99.688H4.461A4.461,4.461,0,0,1,0,95.227V68.461A4.461,4.461,0,0,1,4.461,64H43.123a4.461,4.461,0,0,1,4.461,4.461V95.227A4.461,4.461,0,0,1,43.123,99.688ZM10.409,69.2a5.2,5.2,0,1,0,5.2,5.2A5.2,5.2,0,0,0,10.409,69.2ZM5.948,93.74H41.636V83.331L33.5,75.2a1.115,1.115,0,0,0-1.577,0L19.331,87.792l-5.159-5.159a1.115,1.115,0,0,0-1.577,0L5.948,89.279Z" transform="translate(648.33 439.326)" fill="#888" opacity="0.207"/>
      </g>
      <g id="Group_36" data-name="Group 36" transform="translate(-257.66 -343.326)">
        <rect id="Rectangle_703-2" data-name="Rectangle 703" width="156.67" height="156.673" transform="translate(593.33 443.326)" fill="#d5d5d5"/>
        <path id="image-2" data-name="image" d="M43.123,99.688H4.461A4.461,4.461,0,0,1,0,95.227V68.461A4.461,4.461,0,0,1,4.461,64H43.123a4.461,4.461,0,0,1,4.461,4.461V95.227A4.461,4.461,0,0,1,43.123,99.688ZM10.409,69.2a5.2,5.2,0,1,0,5.2,5.2A5.2,5.2,0,0,0,10.409,69.2ZM5.948,93.74H41.636V83.331L33.5,75.2a1.115,1.115,0,0,0-1.577,0L19.331,87.792l-5.159-5.159a1.115,1.115,0,0,0-1.577,0L5.948,89.279Z" transform="translate(648.33 439.326)" fill="#888" opacity="0.207"/>
      </g>
      <g id="Group_38" data-name="Group 38" transform="translate(-257.66)">
        <rect id="Rectangle_703-3" data-name="Rectangle 703" width="156.67" height="156.673" transform="translate(593.33 443.326)" fill="#d5d5d5"/>
        <path id="image-3" data-name="image" d="M43.123,99.688H4.461A4.461,4.461,0,0,1,0,95.227V68.461A4.461,4.461,0,0,1,4.461,64H43.123a4.461,4.461,0,0,1,4.461,4.461V95.227A4.461,4.461,0,0,1,43.123,99.688ZM10.409,69.2a5.2,5.2,0,1,0,5.2,5.2A5.2,5.2,0,0,0,10.409,69.2ZM5.948,93.74H41.636V83.331L33.5,75.2a1.115,1.115,0,0,0-1.577,0L19.331,87.792l-5.159-5.159a1.115,1.115,0,0,0-1.577,0L5.948,89.279Z" transform="translate(648.33 439.326)" fill="#888" opacity="0.207"/>
      </g>
      <g id="Group_39" data-name="Group 39" transform="translate(-85.99)">
        <rect id="Rectangle_703-4" data-name="Rectangle 703" width="156.67" height="156.673" transform="translate(593.33 443.326)" fill="#d5d5d5"/>
        <path id="image-4" data-name="image" d="M43.123,99.688H4.461A4.461,4.461,0,0,1,0,95.227V68.461A4.461,4.461,0,0,1,4.461,64H43.123a4.461,4.461,0,0,1,4.461,4.461V95.227A4.461,4.461,0,0,1,43.123,99.688ZM10.409,69.2a5.2,5.2,0,1,0,5.2,5.2A5.2,5.2,0,0,0,10.409,69.2ZM5.948,93.74H41.636V83.331L33.5,75.2a1.115,1.115,0,0,0-1.577,0L19.331,87.792l-5.159-5.159a1.115,1.115,0,0,0-1.577,0L5.948,89.279Z" transform="translate(648.33 439.326)" fill="#888" opacity="0.207"/>
      </g>
      <g id="Group_44" data-name="Group 44" transform="translate(85.68)">
        <rect id="Rectangle_703-5" data-name="Rectangle 703" width="156.67" height="156.673" transform="translate(593.33 443.326)" fill="#d5d5d5"/>
        <path id="image-5" data-name="image" d="M43.123,99.688H4.461A4.461,4.461,0,0,1,0,95.227V68.461A4.461,4.461,0,0,1,4.461,64H43.123a4.461,4.461,0,0,1,4.461,4.461V95.227A4.461,4.461,0,0,1,43.123,99.688ZM10.409,69.2a5.2,5.2,0,1,0,5.2,5.2A5.2,5.2,0,0,0,10.409,69.2ZM5.948,93.74H41.636V83.331L33.5,75.2a1.115,1.115,0,0,0-1.577,0L19.331,87.792l-5.159-5.159a1.115,1.115,0,0,0-1.577,0L5.948,89.279Z" transform="translate(648.33 439.326)" fill="#888" opacity="0.207"/>
      </g>
      <g id="Group_42" data-name="Group 42" transform="translate(-85.98 -343.326)">
        <rect id="Rectangle_703-6" data-name="Rectangle 703" width="328.329" height="328.336" transform="translate(593.33 443.326)" fill="#888"/>
      </g>
      <g id="Group_34" data-name="Group 34" transform="translate(-429.33)">
        <rect id="Rectangle_703-7" data-name="Rectangle 703" width="156.67" height="156.673" transform="translate(593.33 443.326)" fill="#d5d5d5"/>
        <path id="image-6" data-name="image" d="M43.123,99.688H4.461A4.461,4.461,0,0,1,0,95.227V68.461A4.461,4.461,0,0,1,4.461,64H43.123a4.461,4.461,0,0,1,4.461,4.461V95.227A4.461,4.461,0,0,1,43.123,99.688ZM10.409,69.2a5.2,5.2,0,1,0,5.2,5.2A5.2,5.2,0,0,0,10.409,69.2ZM5.948,93.74H41.636V83.331L33.5,75.2a1.115,1.115,0,0,0-1.577,0L19.331,87.792l-5.159-5.159a1.115,1.115,0,0,0-1.577,0L5.948,89.279Z" transform="translate(648.33 439.326)" fill="#888" opacity="0.207"/>
      </g>
      <rect id="Rectangle_703-8" data-name="Rectangle 703" width="328.34" height="156.673" transform="translate(164 271.662)" fill="#d5d5d5"/>
      <path id="image-7" data-name="image" d="M43.123,99.688H4.461A4.461,4.461,0,0,1,0,95.227V68.461A4.461,4.461,0,0,1,4.461,64H43.123a4.461,4.461,0,0,1,4.461,4.461V95.227A4.461,4.461,0,0,1,43.123,99.688ZM10.409,69.2a5.2,5.2,0,1,0,5.2,5.2A5.2,5.2,0,0,0,10.409,69.2ZM5.948,93.74H41.636V83.331L33.5,75.2a1.115,1.115,0,0,0-1.577,0L19.331,87.792l-5.159-5.159a1.115,1.115,0,0,0-1.577,0L5.948,89.279Z" transform="translate(304 267.662)" fill="#888" opacity="0.207"/>
    </g>
  </g>
</svg>
