<svg xmlns="http://www.w3.org/2000/svg" xmlns:xlink="http://www.w3.org/1999/xlink" width="1000" height="700" viewBox="0 0 1000 700"><defs><clipPath id="b"><rect width="1000" height="700"/></clipPath></defs><g id="a" clip-path="url(#b)"><rect width="1000" height="700" fill="#fcfcff"/><g transform="translate(100 371)" fill="#d5d5d5" stroke="#d5d5d5" stroke-width="1"><rect width="800" height="5" stroke="none"/><rect x="0.5" y="0.5" width="799" height="4" fill="none"/></g><g transform="translate(100 371)" fill="#888"><path d="M 354.5 4.5 L 0.5 4.5 L 0.5 0.5 L 354.5 0.5 L 354.5 4.5 Z" stroke="none"/><path d="M 1 1 L 1 4 L 354 4 L 354 1 L 1 1 M 0 0 L 355 0 L 355 5 L 0 5 L 0 0 Z" stroke="none" fill="#888"/></g><g transform="translate(100 316)" fill="#888" stroke="#888" stroke-width="1"><rect width="166" height="25" stroke="none"/><rect x="0.5" y="0.5" width="165" height="24" fill="none"/></g><g transform="translate(852 312)" fill="#888" stroke="#888" stroke-width="1"><rect width="48" height="34" stroke="none"/><rect x="0.5" y="0.5" width="47" height="33" fill="none"/></g><g transform="translate(450 376)" fill="#888" stroke="#888" stroke-width="1"><rect width="5" height="13" stroke="none"/><rect x="0.5" y="0.5" width="4" height="12" fill="none"/></g></g></svg>