<svg xmlns="http://www.w3.org/2000/svg" xmlns:xlink="http://www.w3.org/1999/xlink" width="1000" height="700" viewBox="0 0 1000 700"><defs><clipPath id="b"><rect width="1000" height="700"/></clipPath></defs><g id="a" clip-path="url(#b)"><rect width="1000" height="700" fill="#fcfcff"/><g transform="translate(250 100)" fill="#fff" stroke="#707070" stroke-width="50"><circle cx="250" cy="250" r="250" stroke="none"/><circle cx="250" cy="250" r="225" fill="none"/></g><path d="M1515.143,14951.437l-29.911-40.983s19.388-10.572,55.578-21.9,68.171-8.148,77.794-8.555c4.687-.2,19.069,1.54,32.627,4.312,13.691,2.8,26.462,6.647,26.462,6.647a68.045,68.045,0,0,1,10.1,2.712c5.741,1.992,12.864,5.257,12.864,5.257l10.433,4.484,12.741,6.513,15.541,8.906,18.053,12.531,11.122,8.83,7.668,7.154,9.05,8.57,8.512,9.437,9.73,12.067,18.19,24.594,15.6,32.013,8.679,26.71,6.169,26.449s1.138,7.354,2.016,15.714,1.5,17.728,1.5,17.728l-.147,13.129-.317,9.869s-.3,7.3-1.277,15.236-2.613,16.5-2.613,16.5l-47.42-13.39s1.052-6.987,1.807-14.238.68-15.093.68-15.093v-9.741l-1.221-12.605-1.008-9.682-2.753-13.432-4.573-18.006-6.927-17.258-8.268-17.9-13.833-22.127-11.538-14.586-19.287-19.055-15.146-11.876-20.089-12.529-24.345-11.152s-10.6-3.865-20.571-6.645c-1.269-.354-2.354-.614-3.848-.968-2.489-.591-5.12-1.173-7.691-1.7-4.234-.862-7.792-1.4-7.792-1.4s-5.879-.69-13.332-1.649c-1.387-.179-3.689-.186-5.349-.387-.558-.067-1.112-.058-1.9-.108-1.743-.118-3.247-.082-4.151-.2-.592-.082-4.56-.046-6.121-.153-.507-.036,1.542.05.124,0-.58-.021-1.391.016-2.885,0-.385,0-.915,0-1.971,0a7.4,7.4,0,0,1-1.247,0,1.087,1.087,0,0,1-.578,0c-16.111.949-12.954.713-24.71,2.555-11.827,1.853-21.691,4.542-21.691,4.542l-20.369,6.719Z" transform="translate(-1106 -14780)" fill="#d5d5d5" stroke="#d5d5d5" stroke-width="1"/><g transform="translate(417 329)" fill="#888" stroke="#888" stroke-width="1"><rect width="166" height="43" stroke="none"/><rect x="0.5" y="0.5" width="165" height="42" fill="none"/></g></g></svg>