<svg xmlns="http://www.w3.org/2000/svg" xmlns:xlink="http://www.w3.org/1999/xlink" width="1000" height="700" viewBox="0 0 1000 700">
  <defs>
    <clipPath id="clip-Team_Member_-_Style_3">
      <rect width="1000" height="700"/>
    </clipPath>
  </defs>
  <g id="Team_Member_-_Style_3" data-name="Team Member - Style 3" clip-path="url(#clip-Team_Member_-_Style_3)">
    <rect width="1000" height="700" fill="#fcfcff"/>
    <rect id="Rectangle_2" data-name="Rectangle 2" width="439" height="500" rx="5" transform="translate(281 100)" fill="#d5d5d5"/>
    <rect id="Rectangle_620" data-name="Rectangle 620" width="360" height="298" rx="5" transform="translate(320 143)" fill="#f2f2f2"/>
    <path id="Union_38" data-name="Union 38" d="M0,117V102.377C0,86.286,26.325,73.123,58.5,73.123S117,86.286,117,102.377V117ZM29.247,29.253A29.25,29.25,0,1,1,58.5,58.5,29.253,29.253,0,0,1,29.247,29.253Z" transform="translate(442 234)" fill="#888"/>
    <line id="Line_6" data-name="Line 6" x2="208" transform="translate(320.5 493.102)" fill="none" stroke="#888" stroke-width="20"/>
    <line id="Line_7" data-name="Line 7" x2="165" transform="translate(320.5 529.078)" fill="none" stroke="#f2f2f2" stroke-width="12"/>
    <g id="Rectangle_621" data-name="Rectangle 621" transform="translate(281 593)" fill="#888" stroke="#888" stroke-width="1">
      <path d="M0,0H439a0,0,0,0,1,0,0V2a5,5,0,0,1-5,5H5A5,5,0,0,1,0,2V0A0,0,0,0,1,0,0Z" stroke="none"/>
      <path d="M1,.5H438a.5.5,0,0,1,.5.5V2A4.5,4.5,0,0,1,434,6.5H5A4.5,4.5,0,0,1,.5,2V1A.5.5,0,0,1,1,.5Z" fill="none"/>
    </g>
    <g id="Facebook" transform="translate(624.214 480.438)">
      <path id="Path_1" data-name="Path 1" d="M88.76,25.85V14.074h4.021l.574-4.6h-4.6V6.606c0-1.292.431-2.3,2.3-2.3H93.5V.144C92.925.144,91.489,0,89.909,0c-3.447,0-5.888,2.154-5.888,6.032V9.478H80v4.6h4.021V25.85Z" transform="translate(-80 0)" fill="#888" fill-rule="evenodd"/>
    </g>
    <g id="Symbol_13_4" data-name="Symbol 13 – 4" transform="translate(653.661 480.438)">
      <path id="Path_3" data-name="Path 3" d="M12.925,2.3a39.63,39.63,0,0,1,5.17.144,6.661,6.661,0,0,1,2.441.431,5.043,5.043,0,0,1,2.441,2.441,6.661,6.661,0,0,1,.431,2.441c0,1.292.144,1.723.144,5.17a39.629,39.629,0,0,1-.144,5.17,6.661,6.661,0,0,1-.431,2.441,5.043,5.043,0,0,1-2.441,2.441,6.661,6.661,0,0,1-2.441.431c-1.292,0-1.723.144-5.17.144a39.629,39.629,0,0,1-5.17-.144,6.661,6.661,0,0,1-2.441-.431,5.043,5.043,0,0,1-2.441-2.441,6.661,6.661,0,0,1-.431-2.441c0-1.292-.144-1.723-.144-5.17a39.63,39.63,0,0,1,.144-5.17,6.661,6.661,0,0,1,.431-2.441A5.158,5.158,0,0,1,3.877,3.877,2.428,2.428,0,0,1,5.313,2.872a6.661,6.661,0,0,1,2.441-.431,39.63,39.63,0,0,1,5.17-.144m0-2.3A42.432,42.432,0,0,0,7.611.144,8.866,8.866,0,0,0,4.452.718a5.622,5.622,0,0,0-2.3,1.436,5.622,5.622,0,0,0-1.436,2.3A6.543,6.543,0,0,0,.144,7.611,42.432,42.432,0,0,0,0,12.925a42.432,42.432,0,0,0,.144,5.313A8.866,8.866,0,0,0,.718,21.4a5.622,5.622,0,0,0,1.436,2.3,5.622,5.622,0,0,0,2.3,1.436,8.866,8.866,0,0,0,3.159.574,42.432,42.432,0,0,0,5.313.144,42.432,42.432,0,0,0,5.313-.144,8.866,8.866,0,0,0,3.159-.574A6.025,6.025,0,0,0,25.131,21.4a8.866,8.866,0,0,0,.574-3.159c0-1.436.144-1.867.144-5.313a42.432,42.432,0,0,0-.144-5.313,8.866,8.866,0,0,0-.574-3.159,5.622,5.622,0,0,0-1.436-2.3A5.622,5.622,0,0,0,21.4.718,8.866,8.866,0,0,0,18.238.144,42.432,42.432,0,0,0,12.925,0m0,6.319a6.5,6.5,0,0,0-6.606,6.606,6.606,6.606,0,1,0,6.606-6.606m0,10.914a4.231,4.231,0,0,1-4.308-4.308,4.231,4.231,0,0,1,4.308-4.308,4.231,4.231,0,0,1,4.308,4.308,4.231,4.231,0,0,1-4.308,4.308M19.818,4.452a1.58,1.58,0,1,0,1.58,1.58,1.594,1.594,0,0,0-1.58-1.58" fill="#888" fill-rule="evenodd"/>
    </g>
  </g>
</svg>
