<svg xmlns="http://www.w3.org/2000/svg" xmlns:xlink="http://www.w3.org/1999/xlink" width="1000" height="700" viewBox="0 0 1000 700">
  <defs>
    <clipPath id="clip-Team_Member_-_Style_4">
      <rect width="1000" height="700"/>
    </clipPath>
  </defs>
  <g id="Team_Member_-_Style_4" data-name="Team Member - Style 4" clip-path="url(#clip-Team_Member_-_Style_4)">
    <rect width="1000" height="700" fill="#fcfcff"/>
    <path id="blob" d="M208.4-40.419c26.132,19.776,44.26,49.91,63.565,85.224,19.54,35.314,40.022,76.042,33.195,111.356-6.592,35.078-40.493,64.977-76.984,82.4s-75.336,22.13-116.064,24.72c-40.493,2.354-82.87,2.354-116.064-16.009-33.195-18.6-56.973-55.325-70.157-95.582C-87.056,111.43-89.174,67.641-70.576,36.8c18.6-30.605,58.15-48.5,92.287-65.448,34.372-17.186,63.329-33.9,94.876-37.433S182.27-60.2,208.4-40.419Z" transform="translate(388.763 166.81)" fill="#f2f2f2"/>
    <line id="Line_6" data-name="Line 6" x2="297.41" transform="translate(351.5 516.102)" fill="none" stroke="#888" stroke-width="20"/>
    <line id="Line_7" data-name="Line 7" x2="208.33" transform="translate(396.5 552.078)" fill="none" stroke="#d5d5d5" stroke-width="12"/>
    <path id="blob_copy" data-name="blob copy" d="M139.091-28.961c18.507,15.628,33.929,31.873,51,50.791s36.191,40.3,41.743,64.774c5.346,24.676-2.673,52.436-17.067,76.083-14.189,23.853-34.752,43.8-58.81,51-24.059,7.4-51.408,2.056-80.4,4.318-28.788,2.468-59.016,12.543-86.159,6.991-26.938-5.346-50.791-26.526-58.81-52.847-8.02-26.115-.206-57.371,4.113-86.159s5.141-54.9,11.721-83.9C-47.21-26.7-35.077-58.366-12.458-71.321c22.825-13.16,56.137-7.608,83.692,2.262C98.788-58.983,120.585-44.383,139.091-28.961Z" transform="translate(419.907 191.798)" fill="#d5d5d5"/>
    <path id="Union_38" data-name="Union 38" d="M0,124V108.5c0-17.054,27.9-31,62-31s62,13.95,62,31V124ZM31,31A31,31,0,1,1,62,62,31,31,0,0,1,31,31Z" transform="translate(438 204)" fill="#888"/>
  </g>
</svg>
