<svg xmlns="http://www.w3.org/2000/svg" xmlns:xlink="http://www.w3.org/1999/xlink" width="1000" height="700" viewBox="0 0 1000 700"><defs><clipPath id="b"><rect width="1000" height="700"/></clipPath></defs><g id="a" clip-path="url(#b)"><rect width="1000" height="700" fill="#fcfcff"/><rect width="722" height="251" rx="5" transform="translate(139 100)" fill="#f2f2f2"/><path d="M18,0,36,24H0Z" transform="translate(518 375) rotate(180)" fill="#f2f2f2"/><rect width="111" height="112" transform="translate(445 395)" fill="#d5d5d5"/><path d="M0,54V47.251c0-7.427,12.15-13.5,27-13.5s27,6.075,27,13.5V54ZM13.5,13.5A13.5,13.5,0,1,1,27,27,13.5,13.5,0,0,1,13.5,13.5Z" transform="translate(475 425)" fill="#f2f2f2"/><line x2="578.033" transform="translate(211.118 153.703)" fill="none" stroke="#d5d5d5" stroke-width="8"/><line x2="611.821" transform="translate(194.291 185.504)" fill="none" stroke="#d5d5d5" stroke-width="8"/><line x2="611.821" transform="translate(194.291 217.305)" fill="none" stroke="#d5d5d5" stroke-width="8"/><line x2="556.17" transform="translate(222.055 249.106)" fill="none" stroke="#d5d5d5" stroke-width="8"/><line x2="140.122" transform="translate(429.87 296.807)" fill="none" stroke="#888" stroke-width="15"/><line x2="243.763" transform="translate(378.547 562.317)" fill="none" stroke="#888" stroke-width="20"/><line x2="170.752" transform="translate(414.726 600)" fill="none" stroke="#d5d5d5" stroke-width="12"/></g></svg>