<svg xmlns="http://www.w3.org/2000/svg" xmlns:xlink="http://www.w3.org/1999/xlink" width="1000" height="700" viewBox="0 0 1000 700"><defs><clipPath id="b"><rect width="1000" height="700"/></clipPath></defs><g id="a" clip-path="url(#b)"><rect width="1000" height="700" fill="#fcfcff"/><rect width="140" height="141" transform="translate(431 342)" fill="#d5d5d5"/><path d="M0,65V56.876c0-8.939,14.625-16.252,32.5-16.252S65,47.937,65,56.876V65ZM16.248,16.252A16.25,16.25,0,1,1,32.5,32.5,16.251,16.251,0,0,1,16.248,16.252Z" transform="translate(467 379)" fill="#f2f2f2"/><line x2="725.617" transform="translate(137.38 100)" fill="none" stroke="#d5d5d5" stroke-width="8"/><line x2="768.032" transform="translate(116.257 139.92)" fill="none" stroke="#d5d5d5" stroke-width="8"/><line x2="768.032" transform="translate(116.257 179.84)" fill="none" stroke="#d5d5d5" stroke-width="8"/><line x2="698.172" transform="translate(151.11 219.761)" fill="none" stroke="#d5d5d5" stroke-width="8"/><line x2="175.898" transform="translate(411.984 283.866)" fill="none" stroke="#888" stroke-width="15"/><line x2="306.001" transform="translate(347.558 552.696)" fill="none" stroke="#888" stroke-width="20"/><line x2="214.348" transform="translate(392.973 600)" fill="none" stroke="#d5d5d5" stroke-width="12"/></g></svg>