<svg xmlns="http://www.w3.org/2000/svg" xmlns:xlink="http://www.w3.org/1999/xlink" width="1000" height="700" viewBox="0 0 1000 700"><defs><clipPath id="b"><rect width="1000" height="700"/></clipPath></defs><g id="a" clip-path="url(#b)"><rect width="1000" height="700" fill="#fcfcff"/><rect width="137" height="137" transform="translate(185 463)" fill="#d5d5d5"/><path d="M0,65V56.876c0-8.939,14.625-16.252,32.5-16.252S65,47.937,65,56.876V65ZM16.248,16.252A16.25,16.25,0,1,1,32.5,32.5,16.251,16.251,0,0,1,16.248,16.252Z" transform="translate(220 500)" fill="#f2f2f2"/><line x2="565.453" transform="translate(184.5 163.555)" fill="none" stroke="#d5d5d5" stroke-width="8"/><line x2="606.442" transform="translate(184.5 197.43)" fill="none" stroke="#d5d5d5" stroke-width="8"/><line x2="606.442" transform="translate(184.5 231.305)" fill="none" stroke="#d5d5d5" stroke-width="8"/><line x2="587.811" transform="translate(184.5 265.18)" fill="none" stroke="#d5d5d5" stroke-width="8"/><line x2="606.442" transform="translate(184.5 299.055)" fill="none" stroke="#d5d5d5" stroke-width="8"/><line x2="630.662" transform="translate(184.5 332.93)" fill="none" stroke="#d5d5d5" stroke-width="8"/><line x2="616.689" transform="translate(184.5 366.806)" fill="none" stroke="#d5d5d5" stroke-width="8"/><line x2="587.811" transform="translate(184.5 400.681)" fill="none" stroke="#d5d5d5" stroke-width="8"/><line x2="170.96" transform="translate(184.5 100)" fill="none" stroke="#888" stroke-width="15"/><line x2="297.41" transform="translate(409.307 509.101)" fill="none" stroke="#888" stroke-width="20"/><line x2="208.33" transform="translate(409.308 555.078)" fill="none" stroke="#d5d5d5" stroke-width="12"/></g></svg>