<svg xmlns="http://www.w3.org/2000/svg" xmlns:xlink="http://www.w3.org/1999/xlink" width="1000" height="700" viewBox="0 0 1000 700"><defs><clipPath id="b"><rect width="1000" height="700"/></clipPath></defs><g id="a" clip-path="url(#b)"><rect width="1000" height="700" fill="#fcfcff"/><rect width="149" height="149" rx="74.5" transform="translate(425 341)" fill="#d5d5d5"/><path d="M0,70V61.251c0-9.627,15.75-17.5,35-17.5s35,7.875,35,17.5V70ZM17.5,17.5A17.5,17.5,0,1,1,35,35,17.5,17.5,0,0,1,17.5,17.5Z" transform="translate(465 380)" fill="#f2f2f2"/><line x2="686.7" transform="translate(156.5 159.801)" fill="none" stroke="#d5d5d5" stroke-width="8"/><line x2="726.84" transform="translate(136.5 197.58)" fill="none" stroke="#d5d5d5" stroke-width="8"/><line x2="726.84" transform="translate(136.5 235.36)" fill="none" stroke="#d5d5d5" stroke-width="8"/><line x2="660.727" transform="translate(169.5 273.139)" fill="none" stroke="#d5d5d5" stroke-width="8"/><line x2="166.464" transform="translate(416.5 99.917)" fill="none" stroke="#888" stroke-width="15"/><line x2="289.589" transform="translate(355.5 556.233)" fill="none" stroke="#888" stroke-width="20"/><line x2="202.852" transform="translate(398.5 601)" fill="none" stroke="#d5d5d5" stroke-width="12"/></g></svg>