<svg xmlns="http://www.w3.org/2000/svg" xmlns:xlink="http://www.w3.org/1999/xlink" width="1000" height="700" viewBox="0 0 1000 700"><defs><clipPath id="b"><rect width="1000" height="700"/></clipPath></defs><g id="a" clip-path="url(#b)"><rect width="1000" height="700" fill="#fcfcff"/><rect width="270" height="270" transform="translate(100 215)" fill="#d5d5d5"/><path d="M0,128V112C0,94.4,28.8,80,64,80s64,14.4,64,32v16ZM32,32A32,32,0,1,1,64,64,32,32,0,0,1,32,32Z" transform="translate(171 286)" fill="#f2f2f2"/><line x2="432.365" transform="translate(442.362 277.651)" fill="none" stroke="#d5d5d5" stroke-width="8"/><line x2="457.638" transform="translate(442.362 309.693)" fill="none" stroke="#d5d5d5" stroke-width="8"/><line x2="457.638" transform="translate(442.362 341.736)" fill="none" stroke="#d5d5d5" stroke-width="8"/><line x2="416.011" transform="translate(442.362 373.778)" fill="none" stroke="#d5d5d5" stroke-width="8"/><line x2="141.187" transform="translate(442.362 228.555)" fill="none" stroke="#888" stroke-width="15"/><line x2="196.079" transform="translate(442.362 433.315)" fill="none" stroke="#888" stroke-width="20"/><line x2="137.35" transform="translate(442.362 471.284)" fill="none" stroke="#d5d5d5" stroke-width="12"/></g></svg>