<svg width="1000" height="700" viewBox="0 0 1000 700" fill="none" xmlns="http://www.w3.org/2000/svg">
<rect width="1000" height="700" fill="white"/>
<rect width="800" height="500" transform="translate(100 100)" fill="white"/>
<rect x="100" y="455" width="326" height="72" fill="#888888"/>
<path d="M142.818 502V478.727H156.864V481.227H145.636V489.091H156.136V491.591H145.636V499.5H157.045V502H142.818ZM161.58 502V484.545H164.17V487.273H164.398C164.761 486.341 165.348 485.617 166.159 485.102C166.97 484.58 167.943 484.318 169.08 484.318C170.231 484.318 171.189 484.58 171.955 485.102C172.727 485.617 173.33 486.341 173.761 487.273H173.943C174.39 486.371 175.061 485.655 175.955 485.125C176.848 484.587 177.92 484.318 179.17 484.318C180.731 484.318 182.008 484.807 183 485.784C183.992 486.754 184.489 488.265 184.489 490.318V502H181.807V490.318C181.807 489.03 181.455 488.11 180.75 487.557C180.045 487.004 179.216 486.727 178.261 486.727C177.034 486.727 176.083 487.098 175.409 487.841C174.735 488.576 174.398 489.508 174.398 490.636V502H171.67V490.045C171.67 489.053 171.348 488.254 170.705 487.648C170.061 487.034 169.231 486.727 168.216 486.727C167.519 486.727 166.867 486.913 166.261 487.284C165.663 487.655 165.178 488.17 164.807 488.83C164.443 489.481 164.261 490.235 164.261 491.091V502H161.58ZM194.528 502.409C193.422 502.409 192.419 502.201 191.517 501.784C190.616 501.36 189.9 500.75 189.369 499.955C188.839 499.152 188.574 498.182 188.574 497.045C188.574 496.045 188.771 495.235 189.165 494.614C189.559 493.985 190.085 493.492 190.744 493.136C191.403 492.78 192.131 492.515 192.926 492.341C193.729 492.159 194.536 492.015 195.347 491.909C196.407 491.773 197.267 491.67 197.926 491.602C198.593 491.527 199.078 491.402 199.381 491.227C199.691 491.053 199.847 490.75 199.847 490.318V490.227C199.847 489.106 199.54 488.235 198.926 487.614C198.32 486.992 197.4 486.682 196.165 486.682C194.884 486.682 193.881 486.962 193.153 487.523C192.426 488.083 191.915 488.682 191.619 489.318L189.074 488.409C189.528 487.348 190.134 486.523 190.892 485.932C191.657 485.333 192.491 484.917 193.392 484.682C194.301 484.439 195.195 484.318 196.074 484.318C196.634 484.318 197.278 484.386 198.006 484.523C198.741 484.652 199.449 484.92 200.131 485.33C200.82 485.739 201.392 486.356 201.847 487.182C202.301 488.008 202.528 489.114 202.528 490.5V502H199.847V499.636H199.71C199.528 500.015 199.225 500.42 198.801 500.852C198.377 501.284 197.813 501.652 197.108 501.955C196.403 502.258 195.544 502.409 194.528 502.409ZM194.938 500C195.998 500 196.892 499.792 197.619 499.375C198.354 498.958 198.907 498.42 199.278 497.761C199.657 497.102 199.847 496.409 199.847 495.682V493.227C199.733 493.364 199.483 493.489 199.097 493.602C198.718 493.708 198.278 493.803 197.778 493.886C197.286 493.962 196.805 494.03 196.335 494.091C195.873 494.144 195.498 494.189 195.21 494.227C194.513 494.318 193.862 494.466 193.256 494.67C192.657 494.867 192.172 495.167 191.801 495.568C191.438 495.962 191.256 496.5 191.256 497.182C191.256 498.114 191.6 498.818 192.29 499.295C192.987 499.765 193.869 500 194.938 500ZM207.423 502V484.545H210.105V502H207.423ZM208.787 481.636C208.264 481.636 207.813 481.458 207.435 481.102C207.063 480.746 206.878 480.318 206.878 479.818C206.878 479.318 207.063 478.89 207.435 478.534C207.813 478.178 208.264 478 208.787 478C209.31 478 209.757 478.178 210.128 478.534C210.507 478.89 210.696 479.318 210.696 479.818C210.696 480.318 210.507 480.746 210.128 481.102C209.757 481.458 209.31 481.636 208.787 481.636ZM217.699 478.727V502H215.017V478.727H217.699ZM231.974 502V478.727H239.838C241.656 478.727 243.149 479.038 244.315 479.659C245.482 480.273 246.346 481.117 246.906 482.193C247.467 483.269 247.747 484.492 247.747 485.864C247.747 487.235 247.467 488.451 246.906 489.511C246.346 490.572 245.486 491.405 244.327 492.011C243.168 492.61 241.687 492.909 239.884 492.909H233.52V490.364H239.793C241.035 490.364 242.035 490.182 242.793 489.818C243.558 489.455 244.111 488.939 244.452 488.273C244.8 487.598 244.974 486.795 244.974 485.864C244.974 484.932 244.8 484.117 244.452 483.42C244.103 482.723 243.546 482.186 242.781 481.807C242.016 481.42 241.005 481.227 239.747 481.227H234.793V502H231.974ZM242.929 491.545L248.656 502H245.384L239.747 491.545H242.929ZM259.21 502.364C257.528 502.364 256.078 501.992 254.858 501.25C253.646 500.5 252.71 499.455 252.051 498.114C251.4 496.765 251.074 495.197 251.074 493.409C251.074 491.621 251.4 490.045 252.051 488.682C252.71 487.311 253.627 486.242 254.801 485.477C255.983 484.705 257.362 484.318 258.938 484.318C259.847 484.318 260.744 484.47 261.631 484.773C262.517 485.076 263.324 485.568 264.051 486.25C264.778 486.924 265.358 487.818 265.79 488.932C266.222 490.045 266.438 491.417 266.438 493.045V494.182H252.983V491.864H263.71C263.71 490.879 263.513 490 263.119 489.227C262.733 488.455 262.18 487.845 261.46 487.398C260.748 486.951 259.907 486.727 258.938 486.727C257.869 486.727 256.945 486.992 256.165 487.523C255.392 488.045 254.797 488.727 254.381 489.568C253.964 490.409 253.756 491.311 253.756 492.273V493.818C253.756 495.136 253.983 496.254 254.438 497.17C254.9 498.08 255.54 498.773 256.358 499.25C257.176 499.72 258.127 499.955 259.21 499.955C259.915 499.955 260.551 499.856 261.119 499.659C261.695 499.455 262.191 499.152 262.608 498.75C263.025 498.341 263.347 497.833 263.574 497.227L266.165 497.955C265.892 498.833 265.434 499.606 264.79 500.273C264.146 500.932 263.35 501.447 262.403 501.818C261.456 502.182 260.392 502.364 259.21 502.364ZM282.881 488.455L280.472 489.136C280.32 488.735 280.097 488.345 279.801 487.966C279.513 487.58 279.119 487.261 278.619 487.011C278.119 486.761 277.479 486.636 276.699 486.636C275.631 486.636 274.741 486.883 274.028 487.375C273.324 487.86 272.972 488.477 272.972 489.227C272.972 489.894 273.214 490.42 273.699 490.807C274.184 491.193 274.941 491.515 275.972 491.773L278.562 492.409C280.123 492.788 281.286 493.367 282.051 494.148C282.816 494.92 283.199 495.917 283.199 497.136C283.199 498.136 282.911 499.03 282.335 499.818C281.767 500.606 280.972 501.227 279.949 501.682C278.926 502.136 277.737 502.364 276.381 502.364C274.6 502.364 273.127 501.977 271.96 501.205C270.794 500.432 270.055 499.303 269.744 497.818L272.29 497.182C272.532 498.121 272.991 498.826 273.665 499.295C274.347 499.765 275.237 500 276.335 500C277.585 500 278.578 499.735 279.312 499.205C280.055 498.667 280.426 498.023 280.426 497.273C280.426 496.667 280.214 496.159 279.79 495.75C279.366 495.333 278.714 495.023 277.835 494.818L274.926 494.136C273.328 493.758 272.153 493.17 271.403 492.375C270.661 491.572 270.29 490.568 270.29 489.364C270.29 488.379 270.566 487.508 271.119 486.75C271.68 485.992 272.441 485.398 273.403 484.966C274.373 484.534 275.472 484.318 276.699 484.318C278.426 484.318 279.782 484.697 280.767 485.455C281.759 486.212 282.464 487.212 282.881 488.455ZM294.554 502.364C292.872 502.364 291.421 501.992 290.202 501.25C288.99 500.5 288.054 499.455 287.395 498.114C286.743 496.765 286.418 495.197 286.418 493.409C286.418 491.621 286.743 490.045 287.395 488.682C288.054 487.311 288.971 486.242 290.145 485.477C291.327 484.705 292.705 484.318 294.281 484.318C295.19 484.318 296.088 484.47 296.974 484.773C297.861 485.076 298.668 485.568 299.395 486.25C300.122 486.924 300.702 487.818 301.134 488.932C301.565 490.045 301.781 491.417 301.781 493.045V494.182H288.327V491.864H299.054C299.054 490.879 298.857 490 298.463 489.227C298.077 488.455 297.524 487.845 296.804 487.398C296.092 486.951 295.251 486.727 294.281 486.727C293.213 486.727 292.289 486.992 291.509 487.523C290.736 488.045 290.141 488.727 289.724 489.568C289.308 490.409 289.099 491.311 289.099 492.273V493.818C289.099 495.136 289.327 496.254 289.781 497.17C290.243 498.08 290.884 498.773 291.702 499.25C292.52 499.72 293.471 499.955 294.554 499.955C295.259 499.955 295.895 499.856 296.463 499.659C297.039 499.455 297.535 499.152 297.952 498.75C298.368 498.341 298.69 497.833 298.918 497.227L301.509 497.955C301.236 498.833 300.777 499.606 300.134 500.273C299.49 500.932 298.694 501.447 297.747 501.818C296.8 502.182 295.736 502.364 294.554 502.364ZM313.452 484.545V486.818H304.406V484.545H313.452ZM307.043 480.364H309.724V497C309.724 497.758 309.834 498.326 310.054 498.705C310.281 499.076 310.569 499.326 310.918 499.455C311.274 499.576 311.649 499.636 312.043 499.636C312.338 499.636 312.58 499.621 312.77 499.591C312.959 499.553 313.111 499.523 313.224 499.5L313.77 501.909C313.588 501.977 313.334 502.045 313.009 502.114C312.683 502.189 312.27 502.227 311.77 502.227C311.012 502.227 310.27 502.064 309.543 501.739C308.823 501.413 308.224 500.917 307.747 500.25C307.277 499.583 307.043 498.742 307.043 497.727V480.364ZM326.849 502V478.727H329.668V499.5H340.486V502H326.849ZM344.486 502V484.545H347.168V502H344.486ZM345.849 481.636C345.327 481.636 344.876 481.458 344.497 481.102C344.126 480.746 343.94 480.318 343.94 479.818C343.94 479.318 344.126 478.89 344.497 478.534C344.876 478.178 345.327 478 345.849 478C346.372 478 346.819 478.178 347.19 478.534C347.569 478.89 347.759 479.318 347.759 479.818C347.759 480.318 347.569 480.746 347.19 481.102C346.819 481.458 346.372 481.636 345.849 481.636ZM354.761 491.5V502H352.08V484.545H354.67V487.273H354.898C355.307 486.386 355.928 485.674 356.761 485.136C357.595 484.591 358.67 484.318 359.989 484.318C361.17 484.318 362.205 484.561 363.091 485.045C363.977 485.523 364.667 486.25 365.159 487.227C365.652 488.197 365.898 489.424 365.898 490.909V502H363.216V491.091C363.216 489.72 362.86 488.652 362.148 487.886C361.436 487.114 360.458 486.727 359.216 486.727C358.36 486.727 357.595 486.913 356.92 487.284C356.254 487.655 355.727 488.197 355.341 488.909C354.955 489.621 354.761 490.485 354.761 491.5ZM373.298 495.636L373.253 492.318H373.798L381.435 484.545H384.753L376.616 492.773H376.389L373.298 495.636ZM370.798 502V478.727H373.48V502H370.798ZM381.889 502L375.071 493.364L376.98 491.5L385.298 502H381.889Z" fill="white"/>
<rect x="100" y="333" width="800" height="72" fill="#D5D5D5"/>
<path d="M118.091 281.727H120.909V297.136C120.909 298.727 120.534 300.148 119.784 301.398C119.042 302.64 117.992 303.621 116.636 304.341C115.28 305.053 113.689 305.409 111.864 305.409C110.038 305.409 108.447 305.053 107.091 304.341C105.735 303.621 104.682 302.64 103.932 301.398C103.189 300.148 102.818 298.727 102.818 297.136V281.727H105.636V296.909C105.636 298.045 105.886 299.057 106.386 299.943C106.886 300.822 107.598 301.515 108.523 302.023C109.455 302.523 110.568 302.773 111.864 302.773C113.159 302.773 114.273 302.523 115.205 302.023C116.136 301.515 116.848 300.822 117.341 299.943C117.841 299.057 118.091 298.045 118.091 296.909V281.727ZM138.537 291.455L136.128 292.136C135.976 291.735 135.753 291.345 135.457 290.966C135.17 290.58 134.776 290.261 134.276 290.011C133.776 289.761 133.135 289.636 132.355 289.636C131.287 289.636 130.397 289.883 129.685 290.375C128.98 290.86 128.628 291.477 128.628 292.227C128.628 292.894 128.87 293.42 129.355 293.807C129.84 294.193 130.598 294.515 131.628 294.773L134.219 295.409C135.779 295.788 136.942 296.367 137.707 297.148C138.473 297.92 138.855 298.917 138.855 300.136C138.855 301.136 138.567 302.03 137.991 302.818C137.423 303.606 136.628 304.227 135.605 304.682C134.582 305.136 133.393 305.364 132.037 305.364C130.257 305.364 128.783 304.977 127.616 304.205C126.45 303.432 125.711 302.303 125.401 300.818L127.946 300.182C128.188 301.121 128.647 301.826 129.321 302.295C130.003 302.765 130.893 303 131.991 303C133.241 303 134.234 302.735 134.969 302.205C135.711 301.667 136.082 301.023 136.082 300.273C136.082 299.667 135.87 299.159 135.446 298.75C135.022 298.333 134.37 298.023 133.491 297.818L130.582 297.136C128.984 296.758 127.81 296.17 127.06 295.375C126.317 294.572 125.946 293.568 125.946 292.364C125.946 291.379 126.223 290.508 126.776 289.75C127.336 288.992 128.098 288.398 129.06 287.966C130.029 287.534 131.128 287.318 132.355 287.318C134.082 287.318 135.438 287.697 136.423 288.455C137.416 289.212 138.12 290.212 138.537 291.455ZM150.21 305.364C148.528 305.364 147.078 304.992 145.858 304.25C144.646 303.5 143.71 302.455 143.051 301.114C142.4 299.765 142.074 298.197 142.074 296.409C142.074 294.621 142.4 293.045 143.051 291.682C143.71 290.311 144.627 289.242 145.801 288.477C146.983 287.705 148.362 287.318 149.938 287.318C150.847 287.318 151.744 287.47 152.631 287.773C153.517 288.076 154.324 288.568 155.051 289.25C155.778 289.924 156.358 290.818 156.79 291.932C157.222 293.045 157.438 294.417 157.438 296.045V297.182H143.983V294.864H154.71C154.71 293.879 154.513 293 154.119 292.227C153.733 291.455 153.18 290.845 152.46 290.398C151.748 289.951 150.907 289.727 149.938 289.727C148.869 289.727 147.945 289.992 147.165 290.523C146.392 291.045 145.797 291.727 145.381 292.568C144.964 293.409 144.756 294.311 144.756 295.273V296.818C144.756 298.136 144.983 299.254 145.438 300.17C145.9 301.08 146.54 301.773 147.358 302.25C148.176 302.72 149.127 302.955 150.21 302.955C150.915 302.955 151.551 302.856 152.119 302.659C152.695 302.455 153.191 302.152 153.608 301.75C154.025 301.341 154.347 300.833 154.574 300.227L157.165 300.955C156.892 301.833 156.434 302.606 155.79 303.273C155.146 303.932 154.35 304.447 153.403 304.818C152.456 305.182 151.392 305.364 150.21 305.364ZM161.517 305V287.545H164.108V290.182H164.29C164.608 289.318 165.184 288.617 166.017 288.08C166.85 287.542 167.79 287.273 168.835 287.273C169.032 287.273 169.278 287.277 169.574 287.284C169.869 287.292 170.093 287.303 170.244 287.318V290.045C170.153 290.023 169.945 289.989 169.619 289.943C169.301 289.89 168.964 289.864 168.608 289.864C167.759 289.864 167.002 290.042 166.335 290.398C165.676 290.746 165.153 291.231 164.767 291.852C164.388 292.466 164.199 293.167 164.199 293.955V305H161.517ZM176.105 294.5V305H173.423V287.545H176.014V290.273H176.241C176.651 289.386 177.272 288.674 178.105 288.136C178.938 287.591 180.014 287.318 181.332 287.318C182.514 287.318 183.548 287.561 184.435 288.045C185.321 288.523 186.01 289.25 186.503 290.227C186.995 291.197 187.241 292.424 187.241 293.909V305H184.56V294.091C184.56 292.72 184.204 291.652 183.491 290.886C182.779 290.114 181.802 289.727 180.56 289.727C179.704 289.727 178.938 289.913 178.264 290.284C177.598 290.655 177.071 291.197 176.685 291.909C176.298 292.621 176.105 293.485 176.105 294.5ZM197.278 305.409C196.172 305.409 195.169 305.201 194.267 304.784C193.366 304.36 192.65 303.75 192.119 302.955C191.589 302.152 191.324 301.182 191.324 300.045C191.324 299.045 191.521 298.235 191.915 297.614C192.309 296.985 192.835 296.492 193.494 296.136C194.153 295.78 194.881 295.515 195.676 295.341C196.479 295.159 197.286 295.015 198.097 294.909C199.157 294.773 200.017 294.67 200.676 294.602C201.343 294.527 201.828 294.402 202.131 294.227C202.441 294.053 202.597 293.75 202.597 293.318V293.227C202.597 292.106 202.29 291.235 201.676 290.614C201.07 289.992 200.15 289.682 198.915 289.682C197.634 289.682 196.631 289.962 195.903 290.523C195.176 291.083 194.665 291.682 194.369 292.318L191.824 291.409C192.278 290.348 192.884 289.523 193.642 288.932C194.407 288.333 195.241 287.917 196.142 287.682C197.051 287.439 197.945 287.318 198.824 287.318C199.384 287.318 200.028 287.386 200.756 287.523C201.491 287.652 202.199 287.92 202.881 288.33C203.57 288.739 204.142 289.356 204.597 290.182C205.051 291.008 205.278 292.114 205.278 293.5V305H202.597V302.636H202.46C202.278 303.015 201.975 303.42 201.551 303.852C201.127 304.284 200.563 304.652 199.858 304.955C199.153 305.258 198.294 305.409 197.278 305.409ZM197.688 303C198.748 303 199.642 302.792 200.369 302.375C201.104 301.958 201.657 301.42 202.028 300.761C202.407 300.102 202.597 299.409 202.597 298.682V296.227C202.483 296.364 202.233 296.489 201.847 296.602C201.468 296.708 201.028 296.803 200.528 296.886C200.036 296.962 199.555 297.03 199.085 297.091C198.623 297.144 198.248 297.189 197.96 297.227C197.263 297.318 196.612 297.466 196.006 297.67C195.407 297.867 194.922 298.167 194.551 298.568C194.188 298.962 194.006 299.5 194.006 300.182C194.006 301.114 194.35 301.818 195.04 302.295C195.737 302.765 196.619 303 197.688 303ZM210.173 305V287.545H212.764V290.273H212.991C213.355 289.341 213.942 288.617 214.753 288.102C215.563 287.58 216.537 287.318 217.673 287.318C218.825 287.318 219.783 287.58 220.548 288.102C221.321 288.617 221.923 289.341 222.355 290.273H222.537C222.984 289.371 223.654 288.655 224.548 288.125C225.442 287.587 226.514 287.318 227.764 287.318C229.325 287.318 230.601 287.807 231.594 288.784C232.586 289.754 233.082 291.265 233.082 293.318V305H230.401V293.318C230.401 292.03 230.048 291.11 229.344 290.557C228.639 290.004 227.81 289.727 226.855 289.727C225.628 289.727 224.677 290.098 224.003 290.841C223.329 291.576 222.991 292.508 222.991 293.636V305H220.264V293.045C220.264 292.053 219.942 291.254 219.298 290.648C218.654 290.034 217.825 289.727 216.81 289.727C216.113 289.727 215.461 289.913 214.855 290.284C214.257 290.655 213.772 291.17 213.401 291.83C213.037 292.481 212.855 293.235 212.855 294.091V305H210.173ZM245.304 305.364C243.622 305.364 242.171 304.992 240.952 304.25C239.74 303.5 238.804 302.455 238.145 301.114C237.493 299.765 237.168 298.197 237.168 296.409C237.168 294.621 237.493 293.045 238.145 291.682C238.804 290.311 239.721 289.242 240.895 288.477C242.077 287.705 243.455 287.318 245.031 287.318C245.94 287.318 246.838 287.47 247.724 287.773C248.611 288.076 249.418 288.568 250.145 289.25C250.872 289.924 251.452 290.818 251.884 291.932C252.315 293.045 252.531 294.417 252.531 296.045V297.182H239.077V294.864H249.804C249.804 293.879 249.607 293 249.213 292.227C248.827 291.455 248.274 290.845 247.554 290.398C246.842 289.951 246.001 289.727 245.031 289.727C243.963 289.727 243.039 289.992 242.259 290.523C241.486 291.045 240.891 291.727 240.474 292.568C240.058 293.409 239.849 294.311 239.849 295.273V296.818C239.849 298.136 240.077 299.254 240.531 300.17C240.993 301.08 241.634 301.773 242.452 302.25C243.27 302.72 244.221 302.955 245.304 302.955C246.009 302.955 246.645 302.856 247.213 302.659C247.789 302.455 248.285 302.152 248.702 301.75C249.118 301.341 249.44 300.833 249.668 300.227L252.259 300.955C251.986 301.833 251.527 302.606 250.884 303.273C250.24 303.932 249.444 304.447 248.497 304.818C247.55 305.182 246.486 305.364 245.304 305.364ZM264.838 280.636L257.338 308.5H254.884L262.384 280.636H264.838ZM268.381 305V281.727H282.426V284.227H271.199V292.091H281.699V294.591H271.199V302.5H282.608V305H268.381ZM287.142 305V287.545H289.733V290.273H289.96C290.324 289.341 290.911 288.617 291.722 288.102C292.532 287.58 293.506 287.318 294.642 287.318C295.794 287.318 296.752 287.58 297.517 288.102C298.29 288.617 298.892 289.341 299.324 290.273H299.506C299.953 289.371 300.623 288.655 301.517 288.125C302.411 287.587 303.483 287.318 304.733 287.318C306.294 287.318 307.57 287.807 308.562 288.784C309.555 289.754 310.051 291.265 310.051 293.318V305H307.369V293.318C307.369 292.03 307.017 291.11 306.312 290.557C305.608 290.004 304.778 289.727 303.824 289.727C302.597 289.727 301.646 290.098 300.972 290.841C300.297 291.576 299.96 292.508 299.96 293.636V305H297.233V293.045C297.233 292.053 296.911 291.254 296.267 290.648C295.623 290.034 294.794 289.727 293.778 289.727C293.081 289.727 292.43 289.913 291.824 290.284C291.225 290.655 290.741 291.17 290.369 291.83C290.006 292.481 289.824 293.235 289.824 294.091V305H287.142ZM320.091 305.409C318.985 305.409 317.981 305.201 317.08 304.784C316.178 304.36 315.462 303.75 314.932 302.955C314.402 302.152 314.136 301.182 314.136 300.045C314.136 299.045 314.333 298.235 314.727 297.614C315.121 296.985 315.648 296.492 316.307 296.136C316.966 295.78 317.693 295.515 318.489 295.341C319.292 295.159 320.098 295.015 320.909 294.909C321.97 294.773 322.83 294.67 323.489 294.602C324.155 294.527 324.64 294.402 324.943 294.227C325.254 294.053 325.409 293.75 325.409 293.318V293.227C325.409 292.106 325.102 291.235 324.489 290.614C323.883 289.992 322.962 289.682 321.727 289.682C320.447 289.682 319.443 289.962 318.716 290.523C317.989 291.083 317.477 291.682 317.182 292.318L314.636 291.409C315.091 290.348 315.697 289.523 316.455 288.932C317.22 288.333 318.053 287.917 318.955 287.682C319.864 287.439 320.758 287.318 321.636 287.318C322.197 287.318 322.841 287.386 323.568 287.523C324.303 287.652 325.011 287.92 325.693 288.33C326.383 288.739 326.955 289.356 327.409 290.182C327.864 291.008 328.091 292.114 328.091 293.5V305H325.409V302.636H325.273C325.091 303.015 324.788 303.42 324.364 303.852C323.939 304.284 323.375 304.652 322.67 304.955C321.966 305.258 321.106 305.409 320.091 305.409ZM320.5 303C321.561 303 322.455 302.792 323.182 302.375C323.917 301.958 324.47 301.42 324.841 300.761C325.22 300.102 325.409 299.409 325.409 298.682V296.227C325.295 296.364 325.045 296.489 324.659 296.602C324.28 296.708 323.841 296.803 323.341 296.886C322.848 296.962 322.367 297.03 321.898 297.091C321.436 297.144 321.061 297.189 320.773 297.227C320.076 297.318 319.424 297.466 318.818 297.67C318.22 297.867 317.735 298.167 317.364 298.568C317 298.962 316.818 299.5 316.818 300.182C316.818 301.114 317.163 301.818 317.852 302.295C318.549 302.765 319.432 303 320.5 303ZM332.986 305V287.545H335.668V305H332.986ZM334.349 284.636C333.827 284.636 333.376 284.458 332.997 284.102C332.626 283.746 332.44 283.318 332.44 282.818C332.44 282.318 332.626 281.89 332.997 281.534C333.376 281.178 333.827 281 334.349 281C334.872 281 335.319 281.178 335.69 281.534C336.069 281.89 336.259 282.318 336.259 282.818C336.259 283.318 336.069 283.746 335.69 284.102C335.319 284.458 334.872 284.636 334.349 284.636ZM343.261 281.727V305H340.58V281.727H343.261Z" fill="#888888"/>
<path d="M102.655 214V183.455H109.113V208.675H122.208V214H102.655ZM136.716 214.447C134.4 214.447 132.396 213.955 130.706 212.971C129.025 211.977 127.728 210.594 126.813 208.825C125.898 207.045 125.441 204.982 125.441 202.635C125.441 200.268 125.898 198.2 126.813 196.43C127.728 194.651 129.025 193.268 130.706 192.284C132.396 191.29 134.4 190.793 136.716 190.793C139.033 190.793 141.032 191.29 142.712 192.284C144.403 193.268 145.705 194.651 146.62 196.43C147.535 198.2 147.992 200.268 147.992 202.635C147.992 204.982 147.535 207.045 146.62 208.825C145.705 210.594 144.403 211.977 142.712 212.971C141.032 213.955 139.033 214.447 136.716 214.447ZM136.746 209.526C137.8 209.526 138.68 209.227 139.386 208.631C140.092 208.024 140.624 207.199 140.982 206.155C141.35 205.111 141.534 203.923 141.534 202.59C141.534 201.258 141.35 200.07 140.982 199.026C140.624 197.982 140.092 197.156 139.386 196.55C138.68 195.943 137.8 195.64 136.746 195.64C135.682 195.64 134.787 195.943 134.062 196.55C133.346 197.156 132.804 197.982 132.436 199.026C132.078 200.07 131.899 201.258 131.899 202.59C131.899 203.923 132.078 205.111 132.436 206.155C132.804 207.199 133.346 208.024 134.062 208.631C134.787 209.227 135.682 209.526 136.746 209.526ZM171.184 197.624L165.368 197.982C165.268 197.484 165.055 197.037 164.726 196.639C164.398 196.232 163.966 195.908 163.429 195.67C162.902 195.421 162.27 195.297 161.535 195.297C160.55 195.297 159.72 195.506 159.044 195.923C158.368 196.331 158.03 196.878 158.03 197.564C158.03 198.111 158.248 198.573 158.686 198.951C159.123 199.329 159.874 199.632 160.938 199.861L165.084 200.696C167.312 201.153 168.972 201.889 170.066 202.903C171.16 203.918 171.707 205.25 171.707 206.901C171.707 208.402 171.264 209.719 170.379 210.853C169.504 211.987 168.301 212.871 166.77 213.508C165.248 214.134 163.493 214.447 161.505 214.447C158.472 214.447 156.056 213.816 154.256 212.553C152.466 211.281 151.417 209.55 151.109 207.363L157.358 207.035C157.547 207.96 158.005 208.665 158.731 209.153C159.456 209.63 160.386 209.869 161.52 209.869C162.633 209.869 163.528 209.655 164.204 209.227C164.89 208.79 165.238 208.228 165.248 207.542C165.238 206.965 164.995 206.493 164.518 206.125C164.04 205.747 163.305 205.459 162.31 205.26L158.343 204.469C156.106 204.022 154.44 203.246 153.346 202.143C152.263 201.039 151.721 199.632 151.721 197.922C151.721 196.45 152.118 195.183 152.914 194.119C153.719 193.055 154.848 192.234 156.3 191.658C157.761 191.081 159.471 190.793 161.43 190.793C164.324 190.793 166.601 191.404 168.261 192.627C169.932 193.85 170.906 195.516 171.184 197.624ZM187.893 191.091V195.864H174.097V191.091H187.893ZM177.229 185.602H183.582V206.96C183.582 207.547 183.672 208.004 183.851 208.332C184.03 208.651 184.278 208.874 184.597 209.004C184.925 209.133 185.303 209.197 185.73 209.197C186.028 209.197 186.327 209.173 186.625 209.123C186.923 209.063 187.152 209.018 187.311 208.989L188.31 213.717C187.992 213.816 187.545 213.93 186.968 214.06C186.391 214.199 185.69 214.283 184.865 214.313C183.334 214.373 181.991 214.169 180.838 213.702C179.695 213.234 178.805 212.509 178.168 211.524C177.532 210.54 177.219 209.297 177.229 207.795V185.602ZM200.082 183.455H207.316L214.281 196.609H214.579L221.544 183.455H228.778L217.637 203.202V214H211.223V203.202L200.082 183.455ZM237.738 214.447C235.421 214.447 233.418 213.955 231.727 212.971C230.047 211.977 228.749 210.594 227.835 208.825C226.92 207.045 226.462 204.982 226.462 202.635C226.462 200.268 226.92 198.2 227.835 196.43C228.749 194.651 230.047 193.268 231.727 192.284C233.418 191.29 235.421 190.793 237.738 190.793C240.055 190.793 242.053 191.29 243.734 192.284C245.424 193.268 246.727 194.651 247.641 196.43C248.556 198.2 249.013 200.268 249.013 202.635C249.013 204.982 248.556 207.045 247.641 208.825C246.727 210.594 245.424 211.977 243.734 212.971C242.053 213.955 240.055 214.447 237.738 214.447ZM237.768 209.526C238.822 209.526 239.702 209.227 240.408 208.631C241.114 208.024 241.646 207.199 242.004 206.155C242.371 205.111 242.555 203.923 242.555 202.59C242.555 201.258 242.371 200.07 242.004 199.026C241.646 197.982 241.114 197.156 240.408 196.55C239.702 195.943 238.822 195.64 237.768 195.64C236.704 195.64 235.809 195.943 235.083 196.55C234.367 197.156 233.825 197.982 233.457 199.026C233.099 200.07 232.92 201.258 232.92 202.59C232.92 203.923 233.099 205.111 233.457 206.155C233.825 207.199 234.367 208.024 235.083 208.631C235.809 209.227 236.704 209.526 237.768 209.526ZM267.836 204.246V191.091H274.19V214H268.089V209.839H267.851C267.334 211.181 266.474 212.26 265.271 213.075C264.077 213.891 262.621 214.298 260.901 214.298C259.369 214.298 258.022 213.95 256.859 213.254C255.695 212.558 254.786 211.569 254.129 210.286C253.483 209.004 253.155 207.467 253.145 205.678V191.091H259.499V204.544C259.509 205.896 259.871 206.965 260.587 207.751C261.303 208.536 262.263 208.929 263.466 208.929C264.232 208.929 264.947 208.755 265.614 208.407C266.28 208.049 266.817 207.522 267.224 206.826C267.642 206.13 267.846 205.27 267.836 204.246ZM279.272 214V191.091H285.432V195.088H285.67C286.088 193.666 286.789 192.592 287.773 191.866C288.758 191.131 289.891 190.763 291.174 190.763C291.492 190.763 291.835 190.783 292.203 190.822C292.571 190.862 292.894 190.917 293.172 190.987V196.624C292.874 196.535 292.461 196.455 291.934 196.386C291.407 196.316 290.925 196.281 290.488 196.281C289.553 196.281 288.718 196.485 287.982 196.893C287.256 197.29 286.68 197.847 286.252 198.563C285.834 199.279 285.626 200.104 285.626 201.039V214H279.272ZM306.297 214V183.455H318.349C320.665 183.455 322.639 183.897 324.27 184.782C325.9 185.657 327.143 186.875 327.998 188.436C328.863 189.987 329.296 191.777 329.296 193.805C329.296 195.834 328.858 197.624 327.983 199.175C327.108 200.726 325.841 201.934 324.18 202.799C322.53 203.664 320.531 204.097 318.184 204.097H310.503V198.921H317.14C318.383 198.921 319.407 198.707 320.213 198.28C321.028 197.842 321.635 197.241 322.032 196.475C322.44 195.7 322.644 194.81 322.644 193.805C322.644 192.791 322.44 191.906 322.032 191.151C321.635 190.385 321.028 189.793 320.213 189.376C319.398 188.948 318.363 188.734 317.111 188.734H312.756V214H306.297ZM339.289 214.433C337.827 214.433 336.525 214.179 335.381 213.672C334.238 213.155 333.333 212.394 332.667 211.39C332.01 210.376 331.682 209.113 331.682 207.602C331.682 206.329 331.916 205.26 332.383 204.395C332.851 203.53 333.487 202.834 334.292 202.307C335.098 201.78 336.013 201.382 337.037 201.114C338.071 200.845 339.155 200.656 340.288 200.547C341.621 200.408 342.694 200.278 343.51 200.159C344.325 200.03 344.917 199.841 345.285 199.592C345.653 199.344 345.836 198.976 345.836 198.489V198.399C345.836 197.455 345.538 196.724 344.942 196.207C344.355 195.69 343.52 195.431 342.436 195.431C341.292 195.431 340.383 195.685 339.706 196.192C339.03 196.689 338.583 197.315 338.364 198.071L332.488 197.594C332.786 196.202 333.373 194.999 334.248 193.984C335.123 192.96 336.251 192.175 337.633 191.628C339.025 191.071 340.636 190.793 342.466 190.793C343.738 190.793 344.956 190.942 346.12 191.24C347.293 191.538 348.332 192.001 349.237 192.627C350.152 193.254 350.873 194.059 351.4 195.043C351.927 196.018 352.19 197.186 352.19 198.548V214H346.165V210.823H345.986C345.618 211.539 345.126 212.17 344.509 212.717C343.893 213.254 343.152 213.677 342.287 213.985C341.422 214.283 340.422 214.433 339.289 214.433ZM341.108 210.048C342.043 210.048 342.868 209.864 343.584 209.496C344.3 209.118 344.862 208.611 345.27 207.974C345.677 207.338 345.881 206.617 345.881 205.812V203.381C345.682 203.51 345.409 203.629 345.061 203.739C344.723 203.838 344.34 203.933 343.912 204.022C343.485 204.102 343.057 204.176 342.63 204.246C342.202 204.305 341.814 204.36 341.466 204.41C340.721 204.519 340.069 204.693 339.513 204.932C338.956 205.17 338.523 205.494 338.215 205.901C337.907 206.299 337.753 206.796 337.753 207.393C337.753 208.258 338.066 208.919 338.692 209.376C339.329 209.824 340.134 210.048 341.108 210.048ZM376.181 197.624L370.364 197.982C370.264 197.484 370.051 197.037 369.722 196.639C369.394 196.232 368.962 195.908 368.425 195.67C367.898 195.421 367.267 195.297 366.531 195.297C365.546 195.297 364.716 195.506 364.04 195.923C363.364 196.331 363.026 196.878 363.026 197.564C363.026 198.111 363.244 198.573 363.682 198.951C364.119 199.329 364.87 199.632 365.934 199.861L370.08 200.696C372.308 201.153 373.968 201.889 375.062 202.903C376.156 203.918 376.703 205.25 376.703 206.901C376.703 208.402 376.26 209.719 375.375 210.853C374.5 211.987 373.297 212.871 371.766 213.508C370.244 214.134 368.49 214.447 366.501 214.447C363.468 214.447 361.052 213.816 359.252 212.553C357.463 211.281 356.414 209.55 356.105 207.363L362.355 207.035C362.544 207.96 363.001 208.665 363.727 209.153C364.453 209.63 365.382 209.869 366.516 209.869C367.629 209.869 368.524 209.655 369.2 209.227C369.887 208.79 370.235 208.228 370.244 207.542C370.235 206.965 369.991 206.493 369.514 206.125C369.036 205.747 368.301 205.459 367.306 205.26L363.339 204.469C361.102 204.022 359.436 203.246 358.343 202.143C357.259 201.039 356.717 199.632 356.717 197.922C356.717 196.45 357.115 195.183 357.91 194.119C358.715 193.055 359.844 192.234 361.296 191.658C362.757 191.081 364.468 190.793 366.426 190.793C369.32 190.793 371.597 191.404 373.257 192.627C374.928 193.85 375.902 195.516 376.181 197.624ZM399.765 197.624L393.948 197.982C393.848 197.484 393.635 197.037 393.306 196.639C392.978 196.232 392.546 195.908 392.009 195.67C391.482 195.421 390.85 195.297 390.115 195.297C389.13 195.297 388.3 195.506 387.624 195.923C386.948 196.331 386.61 196.878 386.61 197.564C386.61 198.111 386.828 198.573 387.266 198.951C387.703 199.329 388.454 199.632 389.518 199.861L393.664 200.696C395.892 201.153 397.552 201.889 398.646 202.903C399.74 203.918 400.287 205.25 400.287 206.901C400.287 208.402 399.844 209.719 398.959 210.853C398.084 211.987 396.881 212.871 395.35 213.508C393.828 214.134 392.074 214.447 390.085 214.447C387.052 214.447 384.636 213.816 382.836 212.553C381.047 211.281 379.998 209.55 379.689 207.363L385.939 207.035C386.127 207.96 386.585 208.665 387.311 209.153C388.037 209.63 388.966 209.869 390.1 209.869C391.213 209.869 392.108 209.655 392.784 209.227C393.471 208.79 393.819 208.228 393.828 207.542C393.819 206.965 393.575 206.493 393.098 206.125C392.62 205.747 391.885 205.459 390.89 205.26L386.923 204.469C384.686 204.022 383.02 203.246 381.926 202.143C380.843 201.039 380.301 199.632 380.301 197.922C380.301 196.45 380.699 195.183 381.494 194.119C382.299 193.055 383.428 192.234 384.88 191.658C386.341 191.081 388.051 190.793 390.01 190.793C392.904 190.793 395.181 191.404 396.841 192.627C398.512 193.85 399.486 195.516 399.765 197.624ZM408.807 214L402.572 191.091H409.001L412.55 206.483H412.759L416.458 191.091H422.767L426.525 206.393H426.719L430.209 191.091H436.623L430.403 214H423.677L419.739 199.592H419.456L415.518 214H408.807ZM449.789 214.447C447.472 214.447 445.468 213.955 443.778 212.971C442.098 211.977 440.8 210.594 439.885 208.825C438.971 207.045 438.513 204.982 438.513 202.635C438.513 200.268 438.971 198.2 439.885 196.43C440.8 194.651 442.098 193.268 443.778 192.284C445.468 191.29 447.472 190.793 449.789 190.793C452.105 190.793 454.104 191.29 455.784 192.284C457.475 193.268 458.777 194.651 459.692 196.43C460.607 198.2 461.064 200.268 461.064 202.635C461.064 204.982 460.607 207.045 459.692 208.825C458.777 210.594 457.475 211.977 455.784 212.971C454.104 213.955 452.105 214.447 449.789 214.447ZM449.819 209.526C450.873 209.526 451.752 209.227 452.458 208.631C453.164 208.024 453.696 207.199 454.054 206.155C454.422 205.111 454.606 203.923 454.606 202.59C454.606 201.258 454.422 200.07 454.054 199.026C453.696 197.982 453.164 197.156 452.458 196.55C451.752 195.943 450.873 195.64 449.819 195.64C448.755 195.64 447.86 195.943 447.134 196.55C446.418 197.156 445.876 197.982 445.508 199.026C445.15 200.07 444.971 201.258 444.971 202.59C444.971 203.923 445.15 205.111 445.508 206.155C445.876 207.199 446.418 208.024 447.134 208.631C447.86 209.227 448.755 209.526 449.819 209.526ZM465.196 214V191.091H471.355V195.088H471.594C472.012 193.666 472.713 192.592 473.697 191.866C474.681 191.131 475.815 190.763 477.098 190.763C477.416 190.763 477.759 190.783 478.127 190.822C478.495 190.862 478.818 190.917 479.096 190.987V196.624C478.798 196.535 478.385 196.455 477.858 196.386C477.331 196.316 476.849 196.281 476.412 196.281C475.477 196.281 474.642 196.485 473.906 196.893C473.18 197.29 472.603 197.847 472.176 198.563C471.758 199.279 471.549 200.104 471.549 201.039V214H465.196ZM489.757 214.373C488.017 214.373 486.441 213.925 485.029 213.031C483.627 212.126 482.513 210.798 481.688 209.048C480.872 207.288 480.465 205.131 480.465 202.575C480.465 199.95 480.887 197.768 481.732 196.028C482.578 194.278 483.701 192.97 485.103 192.105C486.515 191.23 488.061 190.793 489.742 190.793C491.024 190.793 492.093 191.011 492.948 191.449C493.813 191.876 494.509 192.413 495.036 193.06C495.573 193.696 495.981 194.322 496.259 194.939H496.453V183.455H502.792V214H496.528V210.331H496.259C495.961 210.967 495.539 211.599 494.992 212.225C494.455 212.842 493.754 213.354 492.889 213.761C492.034 214.169 490.99 214.373 489.757 214.373ZM491.77 209.317C492.794 209.317 493.659 209.038 494.365 208.482C495.081 207.915 495.628 207.124 496.006 206.11C496.394 205.096 496.588 203.908 496.588 202.545C496.588 201.183 496.399 200 496.021 198.996C495.643 197.991 495.096 197.216 494.38 196.669C493.664 196.122 492.794 195.849 491.77 195.849C490.726 195.849 489.846 196.132 489.13 196.699C488.414 197.266 487.872 198.051 487.504 199.055C487.137 200.06 486.953 201.223 486.953 202.545C486.953 203.878 487.137 205.056 487.504 206.08C487.882 207.094 488.424 207.89 489.13 208.467C489.846 209.033 490.726 209.317 491.77 209.317ZM513.475 204.842V204.335C513.485 202.595 513.639 201.208 513.937 200.174C514.245 199.14 514.693 198.305 515.279 197.668C515.866 197.032 516.572 196.455 517.397 195.938C518.014 195.54 518.566 195.128 519.053 194.7C519.54 194.273 519.928 193.8 520.216 193.283C520.505 192.756 520.649 192.17 520.649 191.523C520.649 190.837 520.485 190.236 520.157 189.719C519.828 189.202 519.386 188.804 518.829 188.526C518.282 188.247 517.676 188.108 517.01 188.108C516.363 188.108 515.752 188.252 515.175 188.54C514.598 188.819 514.126 189.237 513.758 189.793C513.39 190.34 513.191 191.021 513.162 191.837H507.076C507.126 189.848 507.603 188.207 508.508 186.915C509.413 185.612 510.611 184.643 512.103 184.006C513.594 183.36 515.24 183.037 517.039 183.037C519.018 183.037 520.768 183.365 522.289 184.021C523.811 184.668 525.004 185.607 525.869 186.84C526.734 188.073 527.167 189.56 527.167 191.3C527.167 192.463 526.973 193.497 526.585 194.402C526.207 195.297 525.675 196.092 524.989 196.788C524.303 197.474 523.493 198.096 522.558 198.653C521.772 199.12 521.126 199.607 520.619 200.114C520.122 200.621 519.749 201.208 519.5 201.874C519.262 202.54 519.137 203.361 519.127 204.335V204.842H513.475ZM516.428 214.388C515.434 214.388 514.583 214.04 513.877 213.344C513.181 212.638 512.838 211.793 512.848 210.808C512.838 209.834 513.181 208.999 513.877 208.303C514.583 207.607 515.434 207.259 516.428 207.259C517.373 207.259 518.203 207.607 518.919 208.303C519.635 208.999 519.998 209.834 520.007 210.808C519.998 211.464 519.824 212.066 519.485 212.613C519.157 213.15 518.725 213.582 518.188 213.911C517.651 214.229 517.064 214.388 516.428 214.388Z" fill="#888888"/>
</svg>
