<svg width="1000" height="700" viewBox="0 0 1000 700" fill="none" xmlns="http://www.w3.org/2000/svg">
<rect width="1000" height="700" fill="white"/>
<g clip-path="url(#clip0_522_475)">
<rect width="800" height="500" transform="translate(100 100)" fill="white"/>
<path d="M119.225 119.239C119.106 118.036 118.594 117.102 117.689 116.435C116.784 115.769 115.556 115.436 114.005 115.436C112.951 115.436 112.061 115.585 111.335 115.884C110.609 116.172 110.053 116.575 109.665 117.092C109.287 117.609 109.098 118.195 109.098 118.852C109.078 119.398 109.192 119.876 109.441 120.283C109.7 120.691 110.053 121.044 110.5 121.342C110.947 121.631 111.464 121.884 112.051 122.103C112.638 122.312 113.264 122.491 113.93 122.64L116.675 123.296C118.007 123.594 119.23 123.992 120.344 124.489C121.457 124.987 122.422 125.598 123.237 126.324C124.053 127.05 124.684 127.905 125.131 128.889C125.589 129.874 125.822 131.002 125.832 132.275C125.822 134.144 125.345 135.765 124.401 137.137C123.466 138.499 122.114 139.558 120.344 140.314C118.584 141.06 116.461 141.433 113.975 141.433C111.509 141.433 109.362 141.055 107.532 140.299C105.712 139.543 104.29 138.425 103.266 136.943C102.252 135.452 101.72 133.607 101.67 131.41H107.92C107.989 132.434 108.283 133.289 108.8 133.975C109.327 134.651 110.028 135.163 110.903 135.511C111.788 135.849 112.787 136.018 113.901 136.018C114.994 136.018 115.944 135.859 116.749 135.541C117.565 135.223 118.196 134.781 118.643 134.214C119.091 133.647 119.315 132.996 119.315 132.26C119.315 131.574 119.111 130.997 118.703 130.53C118.305 130.062 117.719 129.665 116.943 129.337C116.178 129.009 115.238 128.71 114.124 128.442L110.798 127.607C108.223 126.98 106.19 126.001 104.698 124.668C103.207 123.336 102.466 121.541 102.476 119.284C102.466 117.435 102.958 115.819 103.952 114.437C104.957 113.055 106.334 111.976 108.084 111.2C109.834 110.425 111.822 110.037 114.05 110.037C116.317 110.037 118.295 110.425 119.986 111.2C121.686 111.976 123.009 113.055 123.953 114.437C124.898 115.819 125.385 117.42 125.415 119.239H119.225ZM130.057 141V118.091H136.411V141H130.057ZM133.249 115.138C132.304 115.138 131.494 114.825 130.818 114.198C130.151 113.562 129.818 112.801 129.818 111.916C129.818 111.041 130.151 110.29 130.818 109.664C131.494 109.028 132.304 108.71 133.249 108.71C134.193 108.71 134.999 109.028 135.665 109.664C136.341 110.29 136.679 111.041 136.679 111.916C136.679 112.801 136.341 113.562 135.665 114.198C134.999 114.825 134.193 115.138 133.249 115.138ZM151.821 150.068C149.763 150.068 147.998 149.785 146.527 149.218C145.065 148.661 143.902 147.901 143.037 146.936C142.172 145.972 141.61 144.888 141.351 143.685L147.228 142.894C147.407 143.352 147.69 143.779 148.078 144.177C148.466 144.575 148.978 144.893 149.614 145.131C150.26 145.38 151.046 145.504 151.971 145.504C153.353 145.504 154.491 145.166 155.386 144.49C156.291 143.824 156.743 142.705 156.743 141.134V136.943H156.475C156.196 137.58 155.779 138.181 155.222 138.748C154.665 139.315 153.949 139.777 153.074 140.135C152.199 140.493 151.155 140.672 149.942 140.672C148.222 140.672 146.656 140.274 145.244 139.479C143.842 138.673 142.723 137.445 141.888 135.795C141.063 134.134 140.65 132.036 140.65 129.501C140.65 126.906 141.073 124.738 141.918 122.998C142.763 121.258 143.887 119.955 145.289 119.09C146.701 118.225 148.247 117.793 149.927 117.793C151.21 117.793 152.284 118.011 153.149 118.449C154.014 118.876 154.71 119.413 155.237 120.06C155.774 120.696 156.186 121.322 156.475 121.939H156.713V118.091H163.022V141.224C163.022 143.173 162.545 144.803 161.591 146.116C160.636 147.428 159.314 148.413 157.623 149.069C155.943 149.735 154.009 150.068 151.821 150.068ZM151.956 135.899C152.98 135.899 153.845 135.646 154.551 135.138C155.267 134.621 155.814 133.886 156.191 132.931C156.579 131.967 156.773 130.813 156.773 129.471C156.773 128.129 156.584 126.965 156.206 125.981C155.828 124.987 155.282 124.216 154.566 123.669C153.85 123.122 152.98 122.849 151.956 122.849C150.912 122.849 150.032 123.132 149.316 123.699C148.6 124.256 148.058 125.031 147.69 126.026C147.322 127.02 147.138 128.168 147.138 129.471C147.138 130.793 147.322 131.937 147.69 132.901C148.068 133.856 148.61 134.597 149.316 135.124C150.032 135.641 150.912 135.899 151.956 135.899ZM174.432 127.756V141H168.078V118.091H174.134V122.133H174.402C174.909 120.8 175.76 119.746 176.953 118.971C178.146 118.185 179.593 117.793 181.293 117.793C182.884 117.793 184.271 118.141 185.454 118.837C186.637 119.533 187.557 120.527 188.213 121.82C188.87 123.102 189.198 124.634 189.198 126.413V141H182.844V127.547C182.854 126.145 182.496 125.051 181.77 124.266C181.044 123.47 180.045 123.072 178.772 123.072C177.917 123.072 177.162 123.256 176.505 123.624C175.859 123.992 175.352 124.529 174.984 125.235C174.626 125.931 174.442 126.771 174.432 127.756ZM210.504 110.455V141H204.045V110.455H210.504ZM222.051 127.756V141H215.698V118.091H221.753V122.133H222.021C222.529 120.8 223.379 119.746 224.572 118.971C225.765 118.185 227.212 117.793 228.912 117.793C230.503 117.793 231.89 118.141 233.073 118.837C234.257 119.533 235.176 120.527 235.833 121.82C236.489 123.102 236.817 124.634 236.817 126.413V141H230.463V127.547C230.473 126.145 230.115 125.051 229.389 124.266C228.664 123.47 227.664 123.072 226.392 123.072C225.536 123.072 224.781 123.256 224.124 123.624C223.478 123.992 222.971 124.529 222.603 125.235C222.245 125.931 222.061 126.771 222.051 127.756Z" fill="#888888"/>
<rect x="100" y="253" width="801" height="72" fill="#D5D5D5"/>
<path d="M118.091 201.727H120.909V217.136C120.909 218.727 120.534 220.148 119.784 221.398C119.042 222.64 117.992 223.621 116.636 224.341C115.28 225.053 113.689 225.409 111.864 225.409C110.038 225.409 108.447 225.053 107.091 224.341C105.735 223.621 104.682 222.64 103.932 221.398C103.189 220.148 102.818 218.727 102.818 217.136V201.727H105.636V216.909C105.636 218.045 105.886 219.057 106.386 219.943C106.886 220.822 107.598 221.515 108.523 222.023C109.455 222.523 110.568 222.773 111.864 222.773C113.159 222.773 114.273 222.523 115.205 222.023C116.136 221.515 116.848 220.822 117.341 219.943C117.841 219.057 118.091 218.045 118.091 216.909V201.727ZM138.537 211.455L136.128 212.136C135.976 211.735 135.753 211.345 135.457 210.966C135.17 210.58 134.776 210.261 134.276 210.011C133.776 209.761 133.135 209.636 132.355 209.636C131.287 209.636 130.397 209.883 129.685 210.375C128.98 210.86 128.628 211.477 128.628 212.227C128.628 212.894 128.87 213.42 129.355 213.807C129.84 214.193 130.598 214.515 131.628 214.773L134.219 215.409C135.779 215.788 136.942 216.367 137.707 217.148C138.473 217.92 138.855 218.917 138.855 220.136C138.855 221.136 138.567 222.03 137.991 222.818C137.423 223.606 136.628 224.227 135.605 224.682C134.582 225.136 133.393 225.364 132.037 225.364C130.257 225.364 128.783 224.977 127.616 224.205C126.45 223.432 125.711 222.303 125.401 220.818L127.946 220.182C128.188 221.121 128.647 221.826 129.321 222.295C130.003 222.765 130.893 223 131.991 223C133.241 223 134.234 222.735 134.969 222.205C135.711 221.667 136.082 221.023 136.082 220.273C136.082 219.667 135.87 219.159 135.446 218.75C135.022 218.333 134.37 218.023 133.491 217.818L130.582 217.136C128.984 216.758 127.81 216.17 127.06 215.375C126.317 214.572 125.946 213.568 125.946 212.364C125.946 211.379 126.223 210.508 126.776 209.75C127.336 208.992 128.098 208.398 129.06 207.966C130.029 207.534 131.128 207.318 132.355 207.318C134.082 207.318 135.438 207.697 136.423 208.455C137.416 209.212 138.12 210.212 138.537 211.455ZM150.21 225.364C148.528 225.364 147.078 224.992 145.858 224.25C144.646 223.5 143.71 222.455 143.051 221.114C142.4 219.765 142.074 218.197 142.074 216.409C142.074 214.621 142.4 213.045 143.051 211.682C143.71 210.311 144.627 209.242 145.801 208.477C146.983 207.705 148.362 207.318 149.938 207.318C150.847 207.318 151.744 207.47 152.631 207.773C153.517 208.076 154.324 208.568 155.051 209.25C155.778 209.924 156.358 210.818 156.79 211.932C157.222 213.045 157.438 214.417 157.438 216.045V217.182H143.983V214.864H154.71C154.71 213.879 154.513 213 154.119 212.227C153.733 211.455 153.18 210.845 152.46 210.398C151.748 209.951 150.907 209.727 149.938 209.727C148.869 209.727 147.945 209.992 147.165 210.523C146.392 211.045 145.797 211.727 145.381 212.568C144.964 213.409 144.756 214.311 144.756 215.273V216.818C144.756 218.136 144.983 219.254 145.438 220.17C145.9 221.08 146.54 221.773 147.358 222.25C148.176 222.72 149.127 222.955 150.21 222.955C150.915 222.955 151.551 222.856 152.119 222.659C152.695 222.455 153.191 222.152 153.608 221.75C154.025 221.341 154.347 220.833 154.574 220.227L157.165 220.955C156.892 221.833 156.434 222.606 155.79 223.273C155.146 223.932 154.35 224.447 153.403 224.818C152.456 225.182 151.392 225.364 150.21 225.364ZM161.517 225V207.545H164.108V210.182H164.29C164.608 209.318 165.184 208.617 166.017 208.08C166.85 207.542 167.79 207.273 168.835 207.273C169.032 207.273 169.278 207.277 169.574 207.284C169.869 207.292 170.093 207.303 170.244 207.318V210.045C170.153 210.023 169.945 209.989 169.619 209.943C169.301 209.89 168.964 209.864 168.608 209.864C167.759 209.864 167.002 210.042 166.335 210.398C165.676 210.746 165.153 211.231 164.767 211.852C164.388 212.466 164.199 213.167 164.199 213.955V225H161.517ZM176.105 214.5V225H173.423V207.545H176.014V210.273H176.241C176.651 209.386 177.272 208.674 178.105 208.136C178.938 207.591 180.014 207.318 181.332 207.318C182.514 207.318 183.548 207.561 184.435 208.045C185.321 208.523 186.01 209.25 186.503 210.227C186.995 211.197 187.241 212.424 187.241 213.909V225H184.56V214.091C184.56 212.72 184.204 211.652 183.491 210.886C182.779 210.114 181.802 209.727 180.56 209.727C179.704 209.727 178.938 209.913 178.264 210.284C177.598 210.655 177.071 211.197 176.685 211.909C176.298 212.621 176.105 213.485 176.105 214.5ZM197.278 225.409C196.172 225.409 195.169 225.201 194.267 224.784C193.366 224.36 192.65 223.75 192.119 222.955C191.589 222.152 191.324 221.182 191.324 220.045C191.324 219.045 191.521 218.235 191.915 217.614C192.309 216.985 192.835 216.492 193.494 216.136C194.153 215.78 194.881 215.515 195.676 215.341C196.479 215.159 197.286 215.015 198.097 214.909C199.157 214.773 200.017 214.67 200.676 214.602C201.343 214.527 201.828 214.402 202.131 214.227C202.441 214.053 202.597 213.75 202.597 213.318V213.227C202.597 212.106 202.29 211.235 201.676 210.614C201.07 209.992 200.15 209.682 198.915 209.682C197.634 209.682 196.631 209.962 195.903 210.523C195.176 211.083 194.665 211.682 194.369 212.318L191.824 211.409C192.278 210.348 192.884 209.523 193.642 208.932C194.407 208.333 195.241 207.917 196.142 207.682C197.051 207.439 197.945 207.318 198.824 207.318C199.384 207.318 200.028 207.386 200.756 207.523C201.491 207.652 202.199 207.92 202.881 208.33C203.57 208.739 204.142 209.356 204.597 210.182C205.051 211.008 205.278 212.114 205.278 213.5V225H202.597V222.636H202.46C202.278 223.015 201.975 223.42 201.551 223.852C201.127 224.284 200.563 224.652 199.858 224.955C199.153 225.258 198.294 225.409 197.278 225.409ZM197.688 223C198.748 223 199.642 222.792 200.369 222.375C201.104 221.958 201.657 221.42 202.028 220.761C202.407 220.102 202.597 219.409 202.597 218.682V216.227C202.483 216.364 202.233 216.489 201.847 216.602C201.468 216.708 201.028 216.803 200.528 216.886C200.036 216.962 199.555 217.03 199.085 217.091C198.623 217.144 198.248 217.189 197.96 217.227C197.263 217.318 196.612 217.466 196.006 217.67C195.407 217.867 194.922 218.167 194.551 218.568C194.188 218.962 194.006 219.5 194.006 220.182C194.006 221.114 194.35 221.818 195.04 222.295C195.737 222.765 196.619 223 197.688 223ZM210.173 225V207.545H212.764V210.273H212.991C213.355 209.341 213.942 208.617 214.753 208.102C215.563 207.58 216.537 207.318 217.673 207.318C218.825 207.318 219.783 207.58 220.548 208.102C221.321 208.617 221.923 209.341 222.355 210.273H222.537C222.984 209.371 223.654 208.655 224.548 208.125C225.442 207.587 226.514 207.318 227.764 207.318C229.325 207.318 230.601 207.807 231.594 208.784C232.586 209.754 233.082 211.265 233.082 213.318V225H230.401V213.318C230.401 212.03 230.048 211.11 229.344 210.557C228.639 210.004 227.81 209.727 226.855 209.727C225.628 209.727 224.677 210.098 224.003 210.841C223.329 211.576 222.991 212.508 222.991 213.636V225H220.264V213.045C220.264 212.053 219.942 211.254 219.298 210.648C218.654 210.034 217.825 209.727 216.81 209.727C216.113 209.727 215.461 209.913 214.855 210.284C214.257 210.655 213.772 211.17 213.401 211.83C213.037 212.481 212.855 213.235 212.855 214.091V225H210.173ZM245.304 225.364C243.622 225.364 242.171 224.992 240.952 224.25C239.74 223.5 238.804 222.455 238.145 221.114C237.493 219.765 237.168 218.197 237.168 216.409C237.168 214.621 237.493 213.045 238.145 211.682C238.804 210.311 239.721 209.242 240.895 208.477C242.077 207.705 243.455 207.318 245.031 207.318C245.94 207.318 246.838 207.47 247.724 207.773C248.611 208.076 249.418 208.568 250.145 209.25C250.872 209.924 251.452 210.818 251.884 211.932C252.315 213.045 252.531 214.417 252.531 216.045V217.182H239.077V214.864H249.804C249.804 213.879 249.607 213 249.213 212.227C248.827 211.455 248.274 210.845 247.554 210.398C246.842 209.951 246.001 209.727 245.031 209.727C243.963 209.727 243.039 209.992 242.259 210.523C241.486 211.045 240.891 211.727 240.474 212.568C240.058 213.409 239.849 214.311 239.849 215.273V216.818C239.849 218.136 240.077 219.254 240.531 220.17C240.993 221.08 241.634 221.773 242.452 222.25C243.27 222.72 244.221 222.955 245.304 222.955C246.009 222.955 246.645 222.856 247.213 222.659C247.789 222.455 248.285 222.152 248.702 221.75C249.118 221.341 249.44 220.833 249.668 220.227L252.259 220.955C251.986 221.833 251.527 222.606 250.884 223.273C250.24 223.932 249.444 224.447 248.497 224.818C247.55 225.182 246.486 225.364 245.304 225.364Z" fill="#888888"/>
<rect x="100" y="414" width="801" height="72" fill="#D5D5D5"/>
<path d="M102.818 386V362.727H110.682C112.508 362.727 114 363.057 115.159 363.716C116.326 364.367 117.189 365.25 117.75 366.364C118.311 367.477 118.591 368.72 118.591 370.091C118.591 371.462 118.311 372.708 117.75 373.83C117.197 374.951 116.341 375.845 115.182 376.511C114.023 377.17 112.538 377.5 110.727 377.5H105.091V375H110.636C111.886 375 112.89 374.784 113.648 374.352C114.405 373.92 114.955 373.337 115.295 372.602C115.644 371.86 115.818 371.023 115.818 370.091C115.818 369.159 115.644 368.326 115.295 367.591C114.955 366.856 114.402 366.28 113.636 365.864C112.871 365.439 111.856 365.227 110.591 365.227H105.636V386H102.818ZM127.903 386.409C126.797 386.409 125.794 386.201 124.892 385.784C123.991 385.36 123.275 384.75 122.744 383.955C122.214 383.152 121.949 382.182 121.949 381.045C121.949 380.045 122.146 379.235 122.54 378.614C122.934 377.985 123.46 377.492 124.119 377.136C124.778 376.78 125.506 376.515 126.301 376.341C127.104 376.159 127.911 376.015 128.722 375.909C129.782 375.773 130.642 375.67 131.301 375.602C131.968 375.527 132.453 375.402 132.756 375.227C133.066 375.053 133.222 374.75 133.222 374.318V374.227C133.222 373.106 132.915 372.235 132.301 371.614C131.695 370.992 130.775 370.682 129.54 370.682C128.259 370.682 127.256 370.962 126.528 371.523C125.801 372.083 125.29 372.682 124.994 373.318L122.449 372.409C122.903 371.348 123.509 370.523 124.267 369.932C125.032 369.333 125.866 368.917 126.767 368.682C127.676 368.439 128.57 368.318 129.449 368.318C130.009 368.318 130.653 368.386 131.381 368.523C132.116 368.652 132.824 368.92 133.506 369.33C134.195 369.739 134.767 370.356 135.222 371.182C135.676 372.008 135.903 373.114 135.903 374.5V386H133.222V383.636H133.085C132.903 384.015 132.6 384.42 132.176 384.852C131.752 385.284 131.188 385.652 130.483 385.955C129.778 386.258 128.919 386.409 127.903 386.409ZM128.312 384C129.373 384 130.267 383.792 130.994 383.375C131.729 382.958 132.282 382.42 132.653 381.761C133.032 381.102 133.222 380.409 133.222 379.682V377.227C133.108 377.364 132.858 377.489 132.472 377.602C132.093 377.708 131.653 377.803 131.153 377.886C130.661 377.962 130.18 378.03 129.71 378.091C129.248 378.144 128.873 378.189 128.585 378.227C127.888 378.318 127.237 378.466 126.631 378.67C126.032 378.867 125.547 379.167 125.176 379.568C124.813 379.962 124.631 380.5 124.631 381.182C124.631 382.114 124.975 382.818 125.665 383.295C126.362 383.765 127.244 384 128.312 384ZM153.162 372.455L150.753 373.136C150.601 372.735 150.378 372.345 150.082 371.966C149.795 371.58 149.401 371.261 148.901 371.011C148.401 370.761 147.76 370.636 146.98 370.636C145.912 370.636 145.022 370.883 144.31 371.375C143.605 371.86 143.253 372.477 143.253 373.227C143.253 373.894 143.495 374.42 143.98 374.807C144.465 375.193 145.223 375.515 146.253 375.773L148.844 376.409C150.404 376.788 151.567 377.367 152.332 378.148C153.098 378.92 153.48 379.917 153.48 381.136C153.48 382.136 153.192 383.03 152.616 383.818C152.048 384.606 151.253 385.227 150.23 385.682C149.207 386.136 148.018 386.364 146.662 386.364C144.882 386.364 143.408 385.977 142.241 385.205C141.075 384.432 140.336 383.303 140.026 381.818L142.571 381.182C142.813 382.121 143.272 382.826 143.946 383.295C144.628 383.765 145.518 384 146.616 384C147.866 384 148.859 383.735 149.594 383.205C150.336 382.667 150.707 382.023 150.707 381.273C150.707 380.667 150.495 380.159 150.071 379.75C149.647 379.333 148.995 379.023 148.116 378.818L145.207 378.136C143.609 377.758 142.435 377.17 141.685 376.375C140.942 375.572 140.571 374.568 140.571 373.364C140.571 372.379 140.848 371.508 141.401 370.75C141.961 369.992 142.723 369.398 143.685 368.966C144.654 368.534 145.753 368.318 146.98 368.318C148.707 368.318 150.063 368.697 151.048 369.455C152.041 370.212 152.745 371.212 153.162 372.455ZM169.881 372.455L167.472 373.136C167.32 372.735 167.097 372.345 166.801 371.966C166.513 371.58 166.119 371.261 165.619 371.011C165.119 370.761 164.479 370.636 163.699 370.636C162.631 370.636 161.741 370.883 161.028 371.375C160.324 371.86 159.972 372.477 159.972 373.227C159.972 373.894 160.214 374.42 160.699 374.807C161.184 375.193 161.941 375.515 162.972 375.773L165.562 376.409C167.123 376.788 168.286 377.367 169.051 378.148C169.816 378.92 170.199 379.917 170.199 381.136C170.199 382.136 169.911 383.03 169.335 383.818C168.767 384.606 167.972 385.227 166.949 385.682C165.926 386.136 164.737 386.364 163.381 386.364C161.6 386.364 160.127 385.977 158.96 385.205C157.794 384.432 157.055 383.303 156.744 381.818L159.29 381.182C159.532 382.121 159.991 382.826 160.665 383.295C161.347 383.765 162.237 384 163.335 384C164.585 384 165.578 383.735 166.312 383.205C167.055 382.667 167.426 382.023 167.426 381.273C167.426 380.667 167.214 380.159 166.79 379.75C166.366 379.333 165.714 379.023 164.835 378.818L161.926 378.136C160.328 377.758 159.153 377.17 158.403 376.375C157.661 375.572 157.29 374.568 157.29 373.364C157.29 372.379 157.566 371.508 158.119 370.75C158.68 369.992 159.441 369.398 160.403 368.966C161.373 368.534 162.472 368.318 163.699 368.318C165.426 368.318 166.782 368.697 167.767 369.455C168.759 370.212 169.464 371.212 169.881 372.455ZM178.19 386L172.872 368.545H175.69L179.463 381.909H179.645L183.372 368.545H186.236L189.918 381.864H190.099L193.872 368.545H196.69L191.372 386H188.736L184.918 372.591H184.645L180.827 386H178.19ZM206.733 386.364C205.157 386.364 203.775 385.989 202.585 385.239C201.403 384.489 200.479 383.439 199.812 382.091C199.153 380.742 198.824 379.167 198.824 377.364C198.824 375.545 199.153 373.958 199.812 372.602C200.479 371.246 201.403 370.193 202.585 369.443C203.775 368.693 205.157 368.318 206.733 368.318C208.309 368.318 209.688 368.693 210.869 369.443C212.059 370.193 212.983 371.246 213.642 372.602C214.309 373.958 214.642 375.545 214.642 377.364C214.642 379.167 214.309 380.742 213.642 382.091C212.983 383.439 212.059 384.489 210.869 385.239C209.688 385.989 208.309 386.364 206.733 386.364ZM206.733 383.955C207.93 383.955 208.915 383.648 209.688 383.034C210.46 382.42 211.032 381.614 211.403 380.614C211.775 379.614 211.96 378.53 211.96 377.364C211.96 376.197 211.775 375.11 211.403 374.102C211.032 373.095 210.46 372.28 209.688 371.659C208.915 371.038 207.93 370.727 206.733 370.727C205.536 370.727 204.551 371.038 203.778 371.659C203.006 372.28 202.434 373.095 202.062 374.102C201.691 375.11 201.506 376.197 201.506 377.364C201.506 378.53 201.691 379.614 202.062 380.614C202.434 381.614 203.006 382.42 203.778 383.034C204.551 383.648 205.536 383.955 206.733 383.955ZM218.736 386V368.545H221.327V371.182H221.509C221.827 370.318 222.402 369.617 223.236 369.08C224.069 368.542 225.009 368.273 226.054 368.273C226.251 368.273 226.497 368.277 226.793 368.284C227.088 368.292 227.312 368.303 227.463 368.318V371.045C227.372 371.023 227.164 370.989 226.838 370.943C226.52 370.89 226.183 370.864 225.827 370.864C224.978 370.864 224.221 371.042 223.554 371.398C222.895 371.746 222.372 372.231 221.986 372.852C221.607 373.466 221.418 374.167 221.418 374.955V386H218.736ZM236.702 386.364C235.247 386.364 233.963 385.996 232.849 385.261C231.736 384.519 230.865 383.473 230.236 382.125C229.607 380.769 229.293 379.167 229.293 377.318C229.293 375.485 229.607 373.894 230.236 372.545C230.865 371.197 231.74 370.155 232.861 369.42C233.982 368.686 235.277 368.318 236.747 368.318C237.884 368.318 238.781 368.508 239.44 368.886C240.107 369.258 240.615 369.682 240.963 370.159C241.319 370.629 241.596 371.015 241.793 371.318H242.02V362.727H244.702V386H242.111V383.318H241.793C241.596 383.636 241.315 384.038 240.952 384.523C240.588 385 240.069 385.428 239.395 385.807C238.721 386.178 237.823 386.364 236.702 386.364ZM237.065 383.955C238.141 383.955 239.05 383.674 239.793 383.114C240.535 382.545 241.099 381.761 241.486 380.761C241.872 379.754 242.065 378.591 242.065 377.273C242.065 375.97 241.876 374.83 241.497 373.852C241.118 372.867 240.558 372.102 239.815 371.557C239.073 371.004 238.156 370.727 237.065 370.727C235.929 370.727 234.982 371.019 234.224 371.602C233.474 372.178 232.91 372.962 232.531 373.955C232.16 374.939 231.974 376.045 231.974 377.273C231.974 378.515 232.164 379.644 232.543 380.659C232.929 381.667 233.497 382.47 234.247 383.068C235.005 383.659 235.944 383.955 237.065 383.955Z" fill="#888888"/>
<rect x="100" y="528" width="173" height="72" fill="#888888"/>
<path d="M142.818 575V551.727H145.636V572.5H156.455V575H142.818ZM167.545 575.364C165.97 575.364 164.587 574.989 163.398 574.239C162.216 573.489 161.292 572.439 160.625 571.091C159.966 569.742 159.636 568.167 159.636 566.364C159.636 564.545 159.966 562.958 160.625 561.602C161.292 560.246 162.216 559.193 163.398 558.443C164.587 557.693 165.97 557.318 167.545 557.318C169.121 557.318 170.5 557.693 171.682 558.443C172.871 559.193 173.795 560.246 174.455 561.602C175.121 562.958 175.455 564.545 175.455 566.364C175.455 568.167 175.121 569.742 174.455 571.091C173.795 572.439 172.871 573.489 171.682 574.239C170.5 574.989 169.121 575.364 167.545 575.364ZM167.545 572.955C168.742 572.955 169.727 572.648 170.5 572.034C171.273 571.42 171.845 570.614 172.216 569.614C172.587 568.614 172.773 567.53 172.773 566.364C172.773 565.197 172.587 564.11 172.216 563.102C171.845 562.095 171.273 561.28 170.5 560.659C169.727 560.038 168.742 559.727 167.545 559.727C166.348 559.727 165.364 560.038 164.591 560.659C163.818 561.28 163.246 562.095 162.875 563.102C162.504 564.11 162.318 565.197 162.318 566.364C162.318 567.53 162.504 568.614 162.875 569.614C163.246 570.614 163.818 571.42 164.591 572.034C165.364 572.648 166.348 572.955 167.545 572.955ZM186.594 581.909C185.298 581.909 184.185 581.742 183.253 581.409C182.321 581.083 181.545 580.652 180.923 580.114C180.31 579.583 179.821 579.015 179.457 578.409L181.594 576.909C181.836 577.227 182.143 577.591 182.514 578C182.885 578.417 183.393 578.777 184.037 579.08C184.688 579.39 185.541 579.545 186.594 579.545C188.003 579.545 189.166 579.205 190.082 578.523C190.999 577.841 191.457 576.773 191.457 575.318V571.773H191.23C191.033 572.091 190.753 572.485 190.389 572.955C190.033 573.417 189.518 573.83 188.844 574.193C188.177 574.549 187.276 574.727 186.139 574.727C184.73 574.727 183.465 574.394 182.344 573.727C181.23 573.061 180.348 572.091 179.696 570.818C179.052 569.545 178.73 568 178.73 566.182C178.73 564.394 179.045 562.837 179.673 561.511C180.302 560.178 181.177 559.148 182.298 558.42C183.42 557.686 184.715 557.318 186.185 557.318C187.321 557.318 188.223 557.508 188.889 557.886C189.563 558.258 190.079 558.682 190.435 559.159C190.798 559.629 191.079 560.015 191.276 560.318H191.548V557.545H194.139V575.5C194.139 577 193.798 578.22 193.116 579.159C192.442 580.106 191.533 580.799 190.389 581.239C189.253 581.686 187.988 581.909 186.594 581.909ZM186.503 572.318C187.579 572.318 188.488 572.072 189.23 571.58C189.973 571.087 190.537 570.379 190.923 569.455C191.31 568.53 191.503 567.424 191.503 566.136C191.503 564.879 191.313 563.769 190.935 562.807C190.556 561.845 189.995 561.091 189.253 560.545C188.51 560 187.594 559.727 186.503 559.727C185.366 559.727 184.42 560.015 183.662 560.591C182.912 561.167 182.348 561.939 181.969 562.909C181.598 563.879 181.412 564.955 181.412 566.136C181.412 567.348 181.601 568.42 181.98 569.352C182.366 570.277 182.935 571.004 183.685 571.534C184.442 572.057 185.382 572.318 186.503 572.318ZM211.23 551.727V575H208.412V551.727H211.23ZM219.199 564.5V575H216.517V557.545H219.108V560.273H219.335C219.744 559.386 220.366 558.674 221.199 558.136C222.032 557.591 223.108 557.318 224.426 557.318C225.608 557.318 226.642 557.561 227.528 558.045C228.415 558.523 229.104 559.25 229.597 560.227C230.089 561.197 230.335 562.424 230.335 563.909V575H227.653V564.091C227.653 562.72 227.297 561.652 226.585 560.886C225.873 560.114 224.896 559.727 223.653 559.727C222.797 559.727 222.032 559.913 221.358 560.284C220.691 560.655 220.165 561.197 219.778 561.909C219.392 562.621 219.199 563.485 219.199 564.5Z" fill="white"/>
</g>
<defs>
<clipPath id="clip0_522_475">
<rect width="800" height="500" fill="white" transform="translate(100 100)"/>
</clipPath>
</defs>
</svg>
