<svg width="1000" height="700" viewBox="0 0 1000 700" fill="none" xmlns="http://www.w3.org/2000/svg">
<rect width="1000" height="700" fill="white"/>
<g clip-path="url(#clip0_522_385)">
<rect width="800" height="500" transform="translate(100 100)" fill="white"/>
<rect x="100" y="528" width="173" height="72" fill="#888888"/>
<path d="M142.818 575V551.727H145.636V572.5H156.455V575H142.818ZM167.545 575.364C165.97 575.364 164.587 574.989 163.398 574.239C162.216 573.489 161.292 572.439 160.625 571.091C159.966 569.742 159.636 568.167 159.636 566.364C159.636 564.545 159.966 562.958 160.625 561.602C161.292 560.246 162.216 559.193 163.398 558.443C164.587 557.693 165.97 557.318 167.545 557.318C169.121 557.318 170.5 557.693 171.682 558.443C172.871 559.193 173.795 560.246 174.455 561.602C175.121 562.958 175.455 564.545 175.455 566.364C175.455 568.167 175.121 569.742 174.455 571.091C173.795 572.439 172.871 573.489 171.682 574.239C170.5 574.989 169.121 575.364 167.545 575.364ZM167.545 572.955C168.742 572.955 169.727 572.648 170.5 572.034C171.273 571.42 171.845 570.614 172.216 569.614C172.587 568.614 172.773 567.53 172.773 566.364C172.773 565.197 172.587 564.11 172.216 563.102C171.845 562.095 171.273 561.28 170.5 560.659C169.727 560.038 168.742 559.727 167.545 559.727C166.348 559.727 165.364 560.038 164.591 560.659C163.818 561.28 163.246 562.095 162.875 563.102C162.504 564.11 162.318 565.197 162.318 566.364C162.318 567.53 162.504 568.614 162.875 569.614C163.246 570.614 163.818 571.42 164.591 572.034C165.364 572.648 166.348 572.955 167.545 572.955ZM186.594 581.909C185.298 581.909 184.185 581.742 183.253 581.409C182.321 581.083 181.545 580.652 180.923 580.114C180.31 579.583 179.821 579.015 179.457 578.409L181.594 576.909C181.836 577.227 182.143 577.591 182.514 578C182.885 578.417 183.393 578.777 184.037 579.08C184.688 579.39 185.541 579.545 186.594 579.545C188.003 579.545 189.166 579.205 190.082 578.523C190.999 577.841 191.457 576.773 191.457 575.318V571.773H191.23C191.033 572.091 190.753 572.485 190.389 572.955C190.033 573.417 189.518 573.83 188.844 574.193C188.177 574.549 187.276 574.727 186.139 574.727C184.73 574.727 183.465 574.394 182.344 573.727C181.23 573.061 180.348 572.091 179.696 570.818C179.052 569.545 178.73 568 178.73 566.182C178.73 564.394 179.045 562.837 179.673 561.511C180.302 560.178 181.177 559.148 182.298 558.42C183.42 557.686 184.715 557.318 186.185 557.318C187.321 557.318 188.223 557.508 188.889 557.886C189.563 558.258 190.079 558.682 190.435 559.159C190.798 559.629 191.079 560.015 191.276 560.318H191.548V557.545H194.139V575.5C194.139 577 193.798 578.22 193.116 579.159C192.442 580.106 191.533 580.799 190.389 581.239C189.253 581.686 187.988 581.909 186.594 581.909ZM186.503 572.318C187.579 572.318 188.488 572.072 189.23 571.58C189.973 571.087 190.537 570.379 190.923 569.455C191.31 568.53 191.503 567.424 191.503 566.136C191.503 564.879 191.313 563.769 190.935 562.807C190.556 561.845 189.995 561.091 189.253 560.545C188.51 560 187.594 559.727 186.503 559.727C185.366 559.727 184.42 560.015 183.662 560.591C182.912 561.167 182.348 561.939 181.969 562.909C181.598 563.879 181.412 564.955 181.412 566.136C181.412 567.348 181.601 568.42 181.98 569.352C182.366 570.277 182.935 571.004 183.685 571.534C184.442 572.057 185.382 572.318 186.503 572.318ZM211.23 551.727V575H208.412V551.727H211.23ZM219.199 564.5V575H216.517V557.545H219.108V560.273H219.335C219.744 559.386 220.366 558.674 221.199 558.136C222.032 557.591 223.108 557.318 224.426 557.318C225.608 557.318 226.642 557.561 227.528 558.045C228.415 558.523 229.104 559.25 229.597 560.227C230.089 561.197 230.335 562.424 230.335 563.909V575H227.653V564.091C227.653 562.72 227.297 561.652 226.585 560.886C225.873 560.114 224.896 559.727 223.653 559.727C222.797 559.727 222.032 559.913 221.358 560.284C220.691 560.655 220.165 561.197 219.778 561.909C219.392 562.621 219.199 563.485 219.199 564.5Z" fill="white"/>
<rect x="500.5" y="100.5" width="172" height="71" stroke="#888888"/>
<path d="M526.818 147V123.727H534.682C536.5 123.727 537.992 124.038 539.159 124.659C540.326 125.273 541.189 126.117 541.75 127.193C542.311 128.269 542.591 129.492 542.591 130.864C542.591 132.235 542.311 133.451 541.75 134.511C541.189 135.572 540.33 136.405 539.17 137.011C538.011 137.61 536.53 137.909 534.727 137.909H528.364V135.364H534.636C535.879 135.364 536.879 135.182 537.636 134.818C538.402 134.455 538.955 133.939 539.295 133.273C539.644 132.598 539.818 131.795 539.818 130.864C539.818 129.932 539.644 129.117 539.295 128.42C538.947 127.723 538.39 127.186 537.625 126.807C536.86 126.42 535.848 126.227 534.591 126.227H529.636V147H526.818ZM537.773 136.545L543.5 147H540.227L534.591 136.545H537.773ZM554.054 147.364C552.372 147.364 550.921 146.992 549.702 146.25C548.49 145.5 547.554 144.455 546.895 143.114C546.243 141.765 545.918 140.197 545.918 138.409C545.918 136.621 546.243 135.045 546.895 133.682C547.554 132.311 548.471 131.242 549.645 130.477C550.827 129.705 552.205 129.318 553.781 129.318C554.69 129.318 555.588 129.47 556.474 129.773C557.361 130.076 558.168 130.568 558.895 131.25C559.622 131.924 560.202 132.818 560.634 133.932C561.065 135.045 561.281 136.417 561.281 138.045V139.182H547.827V136.864H558.554C558.554 135.879 558.357 135 557.963 134.227C557.577 133.455 557.024 132.845 556.304 132.398C555.592 131.951 554.751 131.727 553.781 131.727C552.713 131.727 551.789 131.992 551.009 132.523C550.236 133.045 549.641 133.727 549.224 134.568C548.808 135.409 548.599 136.311 548.599 137.273V138.818C548.599 140.136 548.827 141.254 549.281 142.17C549.743 143.08 550.384 143.773 551.202 144.25C552.02 144.72 552.971 144.955 554.054 144.955C554.759 144.955 555.395 144.856 555.963 144.659C556.539 144.455 557.035 144.152 557.452 143.75C557.868 143.341 558.19 142.833 558.418 142.227L561.009 142.955C560.736 143.833 560.277 144.606 559.634 145.273C558.99 145.932 558.194 146.447 557.247 146.818C556.3 147.182 555.236 147.364 554.054 147.364ZM572.406 153.909C571.111 153.909 569.997 153.742 569.065 153.409C568.134 153.083 567.357 152.652 566.736 152.114C566.122 151.583 565.634 151.015 565.27 150.409L567.406 148.909C567.649 149.227 567.955 149.591 568.327 150C568.698 150.417 569.205 150.777 569.849 151.08C570.501 151.39 571.353 151.545 572.406 151.545C573.815 151.545 574.978 151.205 575.895 150.523C576.812 149.841 577.27 148.773 577.27 147.318V143.773H577.043C576.846 144.091 576.565 144.485 576.202 144.955C575.846 145.417 575.33 145.83 574.656 146.193C573.99 146.549 573.088 146.727 571.952 146.727C570.543 146.727 569.277 146.394 568.156 145.727C567.043 145.061 566.16 144.091 565.509 142.818C564.865 141.545 564.543 140 564.543 138.182C564.543 136.394 564.857 134.837 565.486 133.511C566.115 132.178 566.99 131.148 568.111 130.42C569.232 129.686 570.527 129.318 571.997 129.318C573.134 129.318 574.035 129.508 574.702 129.886C575.376 130.258 575.891 130.682 576.247 131.159C576.611 131.629 576.891 132.015 577.088 132.318H577.361V129.545H579.952V147.5C579.952 149 579.611 150.22 578.929 151.159C578.255 152.106 577.346 152.799 576.202 153.239C575.065 153.686 573.8 153.909 572.406 153.909ZM572.315 144.318C573.391 144.318 574.3 144.072 575.043 143.58C575.785 143.087 576.349 142.379 576.736 141.455C577.122 140.53 577.315 139.424 577.315 138.136C577.315 136.879 577.126 135.769 576.747 134.807C576.368 133.845 575.808 133.091 575.065 132.545C574.323 132 573.406 131.727 572.315 131.727C571.179 131.727 570.232 132.015 569.474 132.591C568.724 133.167 568.16 133.939 567.781 134.909C567.41 135.879 567.224 136.955 567.224 138.136C567.224 139.348 567.414 140.42 567.793 141.352C568.179 142.277 568.747 143.004 569.497 143.534C570.255 144.057 571.194 144.318 572.315 144.318ZM584.861 147V129.545H587.543V147H584.861ZM586.224 126.636C585.702 126.636 585.251 126.458 584.872 126.102C584.501 125.746 584.315 125.318 584.315 124.818C584.315 124.318 584.501 123.89 584.872 123.534C585.251 123.178 585.702 123 586.224 123C586.747 123 587.194 123.178 587.565 123.534C587.944 123.89 588.134 124.318 588.134 124.818C588.134 125.318 587.944 125.746 587.565 126.102C587.194 126.458 586.747 126.636 586.224 126.636ZM604.818 133.455L602.409 134.136C602.258 133.735 602.034 133.345 601.739 132.966C601.451 132.58 601.057 132.261 600.557 132.011C600.057 131.761 599.417 131.636 598.636 131.636C597.568 131.636 596.678 131.883 595.966 132.375C595.261 132.86 594.909 133.477 594.909 134.227C594.909 134.894 595.152 135.42 595.636 135.807C596.121 136.193 596.879 136.515 597.909 136.773L600.5 137.409C602.061 137.788 603.223 138.367 603.989 139.148C604.754 139.92 605.136 140.917 605.136 142.136C605.136 143.136 604.848 144.03 604.273 144.818C603.705 145.606 602.909 146.227 601.886 146.682C600.864 147.136 599.674 147.364 598.318 147.364C596.538 147.364 595.064 146.977 593.898 146.205C592.731 145.432 591.992 144.303 591.682 142.818L594.227 142.182C594.47 143.121 594.928 143.826 595.602 144.295C596.284 144.765 597.174 145 598.273 145C599.523 145 600.515 144.735 601.25 144.205C601.992 143.667 602.364 143.023 602.364 142.273C602.364 141.667 602.152 141.159 601.727 140.75C601.303 140.333 600.652 140.023 599.773 139.818L596.864 139.136C595.265 138.758 594.091 138.17 593.341 137.375C592.598 136.572 592.227 135.568 592.227 134.364C592.227 133.379 592.504 132.508 593.057 131.75C593.617 130.992 594.379 130.398 595.341 129.966C596.311 129.534 597.409 129.318 598.636 129.318C600.364 129.318 601.72 129.697 602.705 130.455C603.697 131.212 604.402 132.212 604.818 133.455ZM616.764 129.545V131.818H607.719V129.545H616.764ZM610.355 125.364H613.037V142C613.037 142.758 613.147 143.326 613.366 143.705C613.594 144.076 613.882 144.326 614.23 144.455C614.586 144.576 614.961 144.636 615.355 144.636C615.651 144.636 615.893 144.621 616.082 144.591C616.272 144.553 616.423 144.523 616.537 144.5L617.082 146.909C616.901 146.977 616.647 147.045 616.321 147.114C615.995 147.189 615.582 147.227 615.082 147.227C614.325 147.227 613.582 147.064 612.855 146.739C612.135 146.413 611.537 145.917 611.06 145.25C610.59 144.583 610.355 143.742 610.355 142.727V125.364ZM627.929 147.364C626.247 147.364 624.796 146.992 623.577 146.25C622.365 145.5 621.429 144.455 620.77 143.114C620.118 141.765 619.793 140.197 619.793 138.409C619.793 136.621 620.118 135.045 620.77 133.682C621.429 132.311 622.346 131.242 623.52 130.477C624.702 129.705 626.08 129.318 627.656 129.318C628.565 129.318 629.463 129.47 630.349 129.773C631.236 130.076 632.043 130.568 632.77 131.25C633.497 131.924 634.077 132.818 634.509 133.932C634.94 135.045 635.156 136.417 635.156 138.045V139.182H621.702V136.864H632.429C632.429 135.879 632.232 135 631.838 134.227C631.452 133.455 630.899 132.845 630.179 132.398C629.467 131.951 628.626 131.727 627.656 131.727C626.588 131.727 625.664 131.992 624.884 132.523C624.111 133.045 623.516 133.727 623.099 134.568C622.683 135.409 622.474 136.311 622.474 137.273V138.818C622.474 140.136 622.702 141.254 623.156 142.17C623.618 143.08 624.259 143.773 625.077 144.25C625.895 144.72 626.846 144.955 627.929 144.955C628.634 144.955 629.27 144.856 629.838 144.659C630.414 144.455 630.91 144.152 631.327 143.75C631.743 143.341 632.065 142.833 632.293 142.227L634.884 142.955C634.611 143.833 634.152 144.606 633.509 145.273C632.865 145.932 632.069 146.447 631.122 146.818C630.175 147.182 629.111 147.364 627.929 147.364ZM639.236 147V129.545H641.827V132.182H642.009C642.327 131.318 642.902 130.617 643.736 130.08C644.569 129.542 645.509 129.273 646.554 129.273C646.751 129.273 646.997 129.277 647.293 129.284C647.588 129.292 647.812 129.303 647.963 129.318V132.045C647.872 132.023 647.664 131.989 647.338 131.943C647.02 131.89 646.683 131.864 646.327 131.864C645.478 131.864 644.721 132.042 644.054 132.398C643.395 132.746 642.872 133.231 642.486 133.852C642.107 134.466 641.918 135.167 641.918 135.955V147H639.236Z" fill="#888888"/>
<rect x="327" y="100" width="173" height="72" fill="#888888"/>
<path d="M369.818 147V123.727H372.636V144.5H383.455V147H369.818ZM394.545 147.364C392.97 147.364 391.587 146.989 390.398 146.239C389.216 145.489 388.292 144.439 387.625 143.091C386.966 141.742 386.636 140.167 386.636 138.364C386.636 136.545 386.966 134.958 387.625 133.602C388.292 132.246 389.216 131.193 390.398 130.443C391.587 129.693 392.97 129.318 394.545 129.318C396.121 129.318 397.5 129.693 398.682 130.443C399.871 131.193 400.795 132.246 401.455 133.602C402.121 134.958 402.455 136.545 402.455 138.364C402.455 140.167 402.121 141.742 401.455 143.091C400.795 144.439 399.871 145.489 398.682 146.239C397.5 146.989 396.121 147.364 394.545 147.364ZM394.545 144.955C395.742 144.955 396.727 144.648 397.5 144.034C398.273 143.42 398.845 142.614 399.216 141.614C399.587 140.614 399.773 139.53 399.773 138.364C399.773 137.197 399.587 136.11 399.216 135.102C398.845 134.095 398.273 133.28 397.5 132.659C396.727 132.038 395.742 131.727 394.545 131.727C393.348 131.727 392.364 132.038 391.591 132.659C390.818 133.28 390.246 134.095 389.875 135.102C389.504 136.11 389.318 137.197 389.318 138.364C389.318 139.53 389.504 140.614 389.875 141.614C390.246 142.614 390.818 143.42 391.591 144.034C392.364 144.648 393.348 144.955 394.545 144.955ZM413.594 153.909C412.298 153.909 411.185 153.742 410.253 153.409C409.321 153.083 408.545 152.652 407.923 152.114C407.31 151.583 406.821 151.015 406.457 150.409L408.594 148.909C408.836 149.227 409.143 149.591 409.514 150C409.885 150.417 410.393 150.777 411.037 151.08C411.688 151.39 412.541 151.545 413.594 151.545C415.003 151.545 416.166 151.205 417.082 150.523C417.999 149.841 418.457 148.773 418.457 147.318V143.773H418.23C418.033 144.091 417.753 144.485 417.389 144.955C417.033 145.417 416.518 145.83 415.844 146.193C415.177 146.549 414.276 146.727 413.139 146.727C411.73 146.727 410.465 146.394 409.344 145.727C408.23 145.061 407.348 144.091 406.696 142.818C406.052 141.545 405.73 140 405.73 138.182C405.73 136.394 406.045 134.837 406.673 133.511C407.302 132.178 408.177 131.148 409.298 130.42C410.42 129.686 411.715 129.318 413.185 129.318C414.321 129.318 415.223 129.508 415.889 129.886C416.563 130.258 417.079 130.682 417.435 131.159C417.798 131.629 418.079 132.015 418.276 132.318H418.548V129.545H421.139V147.5C421.139 149 420.798 150.22 420.116 151.159C419.442 152.106 418.533 152.799 417.389 153.239C416.253 153.686 414.988 153.909 413.594 153.909ZM413.503 144.318C414.579 144.318 415.488 144.072 416.23 143.58C416.973 143.087 417.537 142.379 417.923 141.455C418.31 140.53 418.503 139.424 418.503 138.136C418.503 136.879 418.313 135.769 417.935 134.807C417.556 133.845 416.995 133.091 416.253 132.545C415.51 132 414.594 131.727 413.503 131.727C412.366 131.727 411.42 132.015 410.662 132.591C409.912 133.167 409.348 133.939 408.969 134.909C408.598 135.879 408.412 136.955 408.412 138.136C408.412 139.348 408.601 140.42 408.98 141.352C409.366 142.277 409.935 143.004 410.685 143.534C411.442 144.057 412.382 144.318 413.503 144.318ZM438.23 123.727V147H435.412V123.727H438.23ZM446.199 136.5V147H443.517V129.545H446.108V132.273H446.335C446.744 131.386 447.366 130.674 448.199 130.136C449.032 129.591 450.108 129.318 451.426 129.318C452.608 129.318 453.642 129.561 454.528 130.045C455.415 130.523 456.104 131.25 456.597 132.227C457.089 133.197 457.335 134.424 457.335 135.909V147H454.653V136.091C454.653 134.72 454.297 133.652 453.585 132.886C452.873 132.114 451.896 131.727 450.653 131.727C449.797 131.727 449.032 131.913 448.358 132.284C447.691 132.655 447.165 133.197 446.778 133.909C446.392 134.621 446.199 135.485 446.199 136.5Z" fill="white"/>
<rect x="100" y="263" width="801" height="72" fill="#D5D5D5"/>
<path d="M118.091 211.727H120.909V227.136C120.909 228.727 120.534 230.148 119.784 231.398C119.042 232.64 117.992 233.621 116.636 234.341C115.28 235.053 113.689 235.409 111.864 235.409C110.038 235.409 108.447 235.053 107.091 234.341C105.735 233.621 104.682 232.64 103.932 231.398C103.189 230.148 102.818 228.727 102.818 227.136V211.727H105.636V226.909C105.636 228.045 105.886 229.057 106.386 229.943C106.886 230.822 107.598 231.515 108.523 232.023C109.455 232.523 110.568 232.773 111.864 232.773C113.159 232.773 114.273 232.523 115.205 232.023C116.136 231.515 116.848 230.822 117.341 229.943C117.841 229.057 118.091 228.045 118.091 226.909V211.727ZM138.537 221.455L136.128 222.136C135.976 221.735 135.753 221.345 135.457 220.966C135.17 220.58 134.776 220.261 134.276 220.011C133.776 219.761 133.135 219.636 132.355 219.636C131.287 219.636 130.397 219.883 129.685 220.375C128.98 220.86 128.628 221.477 128.628 222.227C128.628 222.894 128.87 223.42 129.355 223.807C129.84 224.193 130.598 224.515 131.628 224.773L134.219 225.409C135.779 225.788 136.942 226.367 137.707 227.148C138.473 227.92 138.855 228.917 138.855 230.136C138.855 231.136 138.567 232.03 137.991 232.818C137.423 233.606 136.628 234.227 135.605 234.682C134.582 235.136 133.393 235.364 132.037 235.364C130.257 235.364 128.783 234.977 127.616 234.205C126.45 233.432 125.711 232.303 125.401 230.818L127.946 230.182C128.188 231.121 128.647 231.826 129.321 232.295C130.003 232.765 130.893 233 131.991 233C133.241 233 134.234 232.735 134.969 232.205C135.711 231.667 136.082 231.023 136.082 230.273C136.082 229.667 135.87 229.159 135.446 228.75C135.022 228.333 134.37 228.023 133.491 227.818L130.582 227.136C128.984 226.758 127.81 226.17 127.06 225.375C126.317 224.572 125.946 223.568 125.946 222.364C125.946 221.379 126.223 220.508 126.776 219.75C127.336 218.992 128.098 218.398 129.06 217.966C130.029 217.534 131.128 217.318 132.355 217.318C134.082 217.318 135.438 217.697 136.423 218.455C137.416 219.212 138.12 220.212 138.537 221.455ZM150.21 235.364C148.528 235.364 147.078 234.992 145.858 234.25C144.646 233.5 143.71 232.455 143.051 231.114C142.4 229.765 142.074 228.197 142.074 226.409C142.074 224.621 142.4 223.045 143.051 221.682C143.71 220.311 144.627 219.242 145.801 218.477C146.983 217.705 148.362 217.318 149.938 217.318C150.847 217.318 151.744 217.47 152.631 217.773C153.517 218.076 154.324 218.568 155.051 219.25C155.778 219.924 156.358 220.818 156.79 221.932C157.222 223.045 157.438 224.417 157.438 226.045V227.182H143.983V224.864H154.71C154.71 223.879 154.513 223 154.119 222.227C153.733 221.455 153.18 220.845 152.46 220.398C151.748 219.951 150.907 219.727 149.938 219.727C148.869 219.727 147.945 219.992 147.165 220.523C146.392 221.045 145.797 221.727 145.381 222.568C144.964 223.409 144.756 224.311 144.756 225.273V226.818C144.756 228.136 144.983 229.254 145.438 230.17C145.9 231.08 146.54 231.773 147.358 232.25C148.176 232.72 149.127 232.955 150.21 232.955C150.915 232.955 151.551 232.856 152.119 232.659C152.695 232.455 153.191 232.152 153.608 231.75C154.025 231.341 154.347 230.833 154.574 230.227L157.165 230.955C156.892 231.833 156.434 232.606 155.79 233.273C155.146 233.932 154.35 234.447 153.403 234.818C152.456 235.182 151.392 235.364 150.21 235.364ZM161.517 235V217.545H164.108V220.182H164.29C164.608 219.318 165.184 218.617 166.017 218.08C166.85 217.542 167.79 217.273 168.835 217.273C169.032 217.273 169.278 217.277 169.574 217.284C169.869 217.292 170.093 217.303 170.244 217.318V220.045C170.153 220.023 169.945 219.989 169.619 219.943C169.301 219.89 168.964 219.864 168.608 219.864C167.759 219.864 167.002 220.042 166.335 220.398C165.676 220.746 165.153 221.231 164.767 221.852C164.388 222.466 164.199 223.167 164.199 223.955V235H161.517ZM176.105 224.5V235H173.423V217.545H176.014V220.273H176.241C176.651 219.386 177.272 218.674 178.105 218.136C178.938 217.591 180.014 217.318 181.332 217.318C182.514 217.318 183.548 217.561 184.435 218.045C185.321 218.523 186.01 219.25 186.503 220.227C186.995 221.197 187.241 222.424 187.241 223.909V235H184.56V224.091C184.56 222.72 184.204 221.652 183.491 220.886C182.779 220.114 181.802 219.727 180.56 219.727C179.704 219.727 178.938 219.913 178.264 220.284C177.598 220.655 177.071 221.197 176.685 221.909C176.298 222.621 176.105 223.485 176.105 224.5ZM197.278 235.409C196.172 235.409 195.169 235.201 194.267 234.784C193.366 234.36 192.65 233.75 192.119 232.955C191.589 232.152 191.324 231.182 191.324 230.045C191.324 229.045 191.521 228.235 191.915 227.614C192.309 226.985 192.835 226.492 193.494 226.136C194.153 225.78 194.881 225.515 195.676 225.341C196.479 225.159 197.286 225.015 198.097 224.909C199.157 224.773 200.017 224.67 200.676 224.602C201.343 224.527 201.828 224.402 202.131 224.227C202.441 224.053 202.597 223.75 202.597 223.318V223.227C202.597 222.106 202.29 221.235 201.676 220.614C201.07 219.992 200.15 219.682 198.915 219.682C197.634 219.682 196.631 219.962 195.903 220.523C195.176 221.083 194.665 221.682 194.369 222.318L191.824 221.409C192.278 220.348 192.884 219.523 193.642 218.932C194.407 218.333 195.241 217.917 196.142 217.682C197.051 217.439 197.945 217.318 198.824 217.318C199.384 217.318 200.028 217.386 200.756 217.523C201.491 217.652 202.199 217.92 202.881 218.33C203.57 218.739 204.142 219.356 204.597 220.182C205.051 221.008 205.278 222.114 205.278 223.5V235H202.597V232.636H202.46C202.278 233.015 201.975 233.42 201.551 233.852C201.127 234.284 200.563 234.652 199.858 234.955C199.153 235.258 198.294 235.409 197.278 235.409ZM197.688 233C198.748 233 199.642 232.792 200.369 232.375C201.104 231.958 201.657 231.42 202.028 230.761C202.407 230.102 202.597 229.409 202.597 228.682V226.227C202.483 226.364 202.233 226.489 201.847 226.602C201.468 226.708 201.028 226.803 200.528 226.886C200.036 226.962 199.555 227.03 199.085 227.091C198.623 227.144 198.248 227.189 197.96 227.227C197.263 227.318 196.612 227.466 196.006 227.67C195.407 227.867 194.922 228.167 194.551 228.568C194.188 228.962 194.006 229.5 194.006 230.182C194.006 231.114 194.35 231.818 195.04 232.295C195.737 232.765 196.619 233 197.688 233ZM210.173 235V217.545H212.764V220.273H212.991C213.355 219.341 213.942 218.617 214.753 218.102C215.563 217.58 216.537 217.318 217.673 217.318C218.825 217.318 219.783 217.58 220.548 218.102C221.321 218.617 221.923 219.341 222.355 220.273H222.537C222.984 219.371 223.654 218.655 224.548 218.125C225.442 217.587 226.514 217.318 227.764 217.318C229.325 217.318 230.601 217.807 231.594 218.784C232.586 219.754 233.082 221.265 233.082 223.318V235H230.401V223.318C230.401 222.03 230.048 221.11 229.344 220.557C228.639 220.004 227.81 219.727 226.855 219.727C225.628 219.727 224.677 220.098 224.003 220.841C223.329 221.576 222.991 222.508 222.991 223.636V235H220.264V223.045C220.264 222.053 219.942 221.254 219.298 220.648C218.654 220.034 217.825 219.727 216.81 219.727C216.113 219.727 215.461 219.913 214.855 220.284C214.257 220.655 213.772 221.17 213.401 221.83C213.037 222.481 212.855 223.235 212.855 224.091V235H210.173ZM245.304 235.364C243.622 235.364 242.171 234.992 240.952 234.25C239.74 233.5 238.804 232.455 238.145 231.114C237.493 229.765 237.168 228.197 237.168 226.409C237.168 224.621 237.493 223.045 238.145 221.682C238.804 220.311 239.721 219.242 240.895 218.477C242.077 217.705 243.455 217.318 245.031 217.318C245.94 217.318 246.838 217.47 247.724 217.773C248.611 218.076 249.418 218.568 250.145 219.25C250.872 219.924 251.452 220.818 251.884 221.932C252.315 223.045 252.531 224.417 252.531 226.045V227.182H239.077V224.864H249.804C249.804 223.879 249.607 223 249.213 222.227C248.827 221.455 248.274 220.845 247.554 220.398C246.842 219.951 246.001 219.727 245.031 219.727C243.963 219.727 243.039 219.992 242.259 220.523C241.486 221.045 240.891 221.727 240.474 222.568C240.058 223.409 239.849 224.311 239.849 225.273V226.818C239.849 228.136 240.077 229.254 240.531 230.17C240.993 231.08 241.634 231.773 242.452 232.25C243.27 232.72 244.221 232.955 245.304 232.955C246.009 232.955 246.645 232.856 247.213 232.659C247.789 232.455 248.285 232.152 248.702 231.75C249.118 231.341 249.44 230.833 249.668 230.227L252.259 230.955C251.986 231.833 251.527 232.606 250.884 233.273C250.24 233.932 249.444 234.447 248.497 234.818C247.55 235.182 246.486 235.364 245.304 235.364Z" fill="#888888"/>
<rect x="100" y="424" width="801" height="72" fill="#D5D5D5"/>
<path d="M102.818 396V372.727H110.682C112.508 372.727 114 373.057 115.159 373.716C116.326 374.367 117.189 375.25 117.75 376.364C118.311 377.477 118.591 378.72 118.591 380.091C118.591 381.462 118.311 382.708 117.75 383.83C117.197 384.951 116.341 385.845 115.182 386.511C114.023 387.17 112.538 387.5 110.727 387.5H105.091V385H110.636C111.886 385 112.89 384.784 113.648 384.352C114.405 383.92 114.955 383.337 115.295 382.602C115.644 381.86 115.818 381.023 115.818 380.091C115.818 379.159 115.644 378.326 115.295 377.591C114.955 376.856 114.402 376.28 113.636 375.864C112.871 375.439 111.856 375.227 110.591 375.227H105.636V396H102.818ZM127.903 396.409C126.797 396.409 125.794 396.201 124.892 395.784C123.991 395.36 123.275 394.75 122.744 393.955C122.214 393.152 121.949 392.182 121.949 391.045C121.949 390.045 122.146 389.235 122.54 388.614C122.934 387.985 123.46 387.492 124.119 387.136C124.778 386.78 125.506 386.515 126.301 386.341C127.104 386.159 127.911 386.015 128.722 385.909C129.782 385.773 130.642 385.67 131.301 385.602C131.968 385.527 132.453 385.402 132.756 385.227C133.066 385.053 133.222 384.75 133.222 384.318V384.227C133.222 383.106 132.915 382.235 132.301 381.614C131.695 380.992 130.775 380.682 129.54 380.682C128.259 380.682 127.256 380.962 126.528 381.523C125.801 382.083 125.29 382.682 124.994 383.318L122.449 382.409C122.903 381.348 123.509 380.523 124.267 379.932C125.032 379.333 125.866 378.917 126.767 378.682C127.676 378.439 128.57 378.318 129.449 378.318C130.009 378.318 130.653 378.386 131.381 378.523C132.116 378.652 132.824 378.92 133.506 379.33C134.195 379.739 134.767 380.356 135.222 381.182C135.676 382.008 135.903 383.114 135.903 384.5V396H133.222V393.636H133.085C132.903 394.015 132.6 394.42 132.176 394.852C131.752 395.284 131.188 395.652 130.483 395.955C129.778 396.258 128.919 396.409 127.903 396.409ZM128.312 394C129.373 394 130.267 393.792 130.994 393.375C131.729 392.958 132.282 392.42 132.653 391.761C133.032 391.102 133.222 390.409 133.222 389.682V387.227C133.108 387.364 132.858 387.489 132.472 387.602C132.093 387.708 131.653 387.803 131.153 387.886C130.661 387.962 130.18 388.03 129.71 388.091C129.248 388.144 128.873 388.189 128.585 388.227C127.888 388.318 127.237 388.466 126.631 388.67C126.032 388.867 125.547 389.167 125.176 389.568C124.813 389.962 124.631 390.5 124.631 391.182C124.631 392.114 124.975 392.818 125.665 393.295C126.362 393.765 127.244 394 128.312 394ZM153.162 382.455L150.753 383.136C150.601 382.735 150.378 382.345 150.082 381.966C149.795 381.58 149.401 381.261 148.901 381.011C148.401 380.761 147.76 380.636 146.98 380.636C145.912 380.636 145.022 380.883 144.31 381.375C143.605 381.86 143.253 382.477 143.253 383.227C143.253 383.894 143.495 384.42 143.98 384.807C144.465 385.193 145.223 385.515 146.253 385.773L148.844 386.409C150.404 386.788 151.567 387.367 152.332 388.148C153.098 388.92 153.48 389.917 153.48 391.136C153.48 392.136 153.192 393.03 152.616 393.818C152.048 394.606 151.253 395.227 150.23 395.682C149.207 396.136 148.018 396.364 146.662 396.364C144.882 396.364 143.408 395.977 142.241 395.205C141.075 394.432 140.336 393.303 140.026 391.818L142.571 391.182C142.813 392.121 143.272 392.826 143.946 393.295C144.628 393.765 145.518 394 146.616 394C147.866 394 148.859 393.735 149.594 393.205C150.336 392.667 150.707 392.023 150.707 391.273C150.707 390.667 150.495 390.159 150.071 389.75C149.647 389.333 148.995 389.023 148.116 388.818L145.207 388.136C143.609 387.758 142.435 387.17 141.685 386.375C140.942 385.572 140.571 384.568 140.571 383.364C140.571 382.379 140.848 381.508 141.401 380.75C141.961 379.992 142.723 379.398 143.685 378.966C144.654 378.534 145.753 378.318 146.98 378.318C148.707 378.318 150.063 378.697 151.048 379.455C152.041 380.212 152.745 381.212 153.162 382.455ZM169.881 382.455L167.472 383.136C167.32 382.735 167.097 382.345 166.801 381.966C166.513 381.58 166.119 381.261 165.619 381.011C165.119 380.761 164.479 380.636 163.699 380.636C162.631 380.636 161.741 380.883 161.028 381.375C160.324 381.86 159.972 382.477 159.972 383.227C159.972 383.894 160.214 384.42 160.699 384.807C161.184 385.193 161.941 385.515 162.972 385.773L165.562 386.409C167.123 386.788 168.286 387.367 169.051 388.148C169.816 388.92 170.199 389.917 170.199 391.136C170.199 392.136 169.911 393.03 169.335 393.818C168.767 394.606 167.972 395.227 166.949 395.682C165.926 396.136 164.737 396.364 163.381 396.364C161.6 396.364 160.127 395.977 158.96 395.205C157.794 394.432 157.055 393.303 156.744 391.818L159.29 391.182C159.532 392.121 159.991 392.826 160.665 393.295C161.347 393.765 162.237 394 163.335 394C164.585 394 165.578 393.735 166.312 393.205C167.055 392.667 167.426 392.023 167.426 391.273C167.426 390.667 167.214 390.159 166.79 389.75C166.366 389.333 165.714 389.023 164.835 388.818L161.926 388.136C160.328 387.758 159.153 387.17 158.403 386.375C157.661 385.572 157.29 384.568 157.29 383.364C157.29 382.379 157.566 381.508 158.119 380.75C158.68 379.992 159.441 379.398 160.403 378.966C161.373 378.534 162.472 378.318 163.699 378.318C165.426 378.318 166.782 378.697 167.767 379.455C168.759 380.212 169.464 381.212 169.881 382.455ZM178.19 396L172.872 378.545H175.69L179.463 391.909H179.645L183.372 378.545H186.236L189.918 391.864H190.099L193.872 378.545H196.69L191.372 396H188.736L184.918 382.591H184.645L180.827 396H178.19ZM206.733 396.364C205.157 396.364 203.775 395.989 202.585 395.239C201.403 394.489 200.479 393.439 199.812 392.091C199.153 390.742 198.824 389.167 198.824 387.364C198.824 385.545 199.153 383.958 199.812 382.602C200.479 381.246 201.403 380.193 202.585 379.443C203.775 378.693 205.157 378.318 206.733 378.318C208.309 378.318 209.688 378.693 210.869 379.443C212.059 380.193 212.983 381.246 213.642 382.602C214.309 383.958 214.642 385.545 214.642 387.364C214.642 389.167 214.309 390.742 213.642 392.091C212.983 393.439 212.059 394.489 210.869 395.239C209.688 395.989 208.309 396.364 206.733 396.364ZM206.733 393.955C207.93 393.955 208.915 393.648 209.688 393.034C210.46 392.42 211.032 391.614 211.403 390.614C211.775 389.614 211.96 388.53 211.96 387.364C211.96 386.197 211.775 385.11 211.403 384.102C211.032 383.095 210.46 382.28 209.688 381.659C208.915 381.038 207.93 380.727 206.733 380.727C205.536 380.727 204.551 381.038 203.778 381.659C203.006 382.28 202.434 383.095 202.062 384.102C201.691 385.11 201.506 386.197 201.506 387.364C201.506 388.53 201.691 389.614 202.062 390.614C202.434 391.614 203.006 392.42 203.778 393.034C204.551 393.648 205.536 393.955 206.733 393.955ZM218.736 396V378.545H221.327V381.182H221.509C221.827 380.318 222.402 379.617 223.236 379.08C224.069 378.542 225.009 378.273 226.054 378.273C226.251 378.273 226.497 378.277 226.793 378.284C227.088 378.292 227.312 378.303 227.463 378.318V381.045C227.372 381.023 227.164 380.989 226.838 380.943C226.52 380.89 226.183 380.864 225.827 380.864C224.978 380.864 224.221 381.042 223.554 381.398C222.895 381.746 222.372 382.231 221.986 382.852C221.607 383.466 221.418 384.167 221.418 384.955V396H218.736ZM236.702 396.364C235.247 396.364 233.963 395.996 232.849 395.261C231.736 394.519 230.865 393.473 230.236 392.125C229.607 390.769 229.293 389.167 229.293 387.318C229.293 385.485 229.607 383.894 230.236 382.545C230.865 381.197 231.74 380.155 232.861 379.42C233.982 378.686 235.277 378.318 236.747 378.318C237.884 378.318 238.781 378.508 239.44 378.886C240.107 379.258 240.615 379.682 240.963 380.159C241.319 380.629 241.596 381.015 241.793 381.318H242.02V372.727H244.702V396H242.111V393.318H241.793C241.596 393.636 241.315 394.038 240.952 394.523C240.588 395 240.069 395.428 239.395 395.807C238.721 396.178 237.823 396.364 236.702 396.364ZM237.065 393.955C238.141 393.955 239.05 393.674 239.793 393.114C240.535 392.545 241.099 391.761 241.486 390.761C241.872 389.754 242.065 388.591 242.065 387.273C242.065 385.97 241.876 384.83 241.497 383.852C241.118 382.867 240.558 382.102 239.815 381.557C239.073 381.004 238.156 380.727 237.065 380.727C235.929 380.727 234.982 381.019 234.224 381.602C233.474 382.178 232.91 382.962 232.531 383.955C232.16 384.939 231.974 386.045 231.974 387.273C231.974 388.515 232.164 389.644 232.543 390.659C232.929 391.667 233.497 392.47 234.247 393.068C235.005 393.659 235.944 393.955 237.065 393.955Z" fill="#888888"/>
</g>
<defs>
<clipPath id="clip0_522_385">
<rect width="800" height="500" fill="white" transform="translate(100 100)"/>
</clipPath>
</defs>
</svg>
