<svg width="1000" height="700" viewBox="0 0 1000 700" fill="none" xmlns="http://www.w3.org/2000/svg">
<rect width="1000" height="700" fill="white"/>
<g clip-path="url(#clip0_522_361)">
<rect width="800" height="500" transform="translate(100 100)" fill="white"/>
<path d="M129.606 121.148H123.073C122.954 120.303 122.71 119.553 122.342 118.896C121.974 118.23 121.502 117.663 120.925 117.196C120.349 116.729 119.683 116.371 118.927 116.122C118.181 115.874 117.371 115.749 116.496 115.749C114.915 115.749 113.538 116.142 112.364 116.928C111.191 117.703 110.281 118.837 109.635 120.328C108.989 121.81 108.665 123.609 108.665 125.727C108.665 127.905 108.989 129.734 109.635 131.216C110.291 132.697 111.206 133.816 112.379 134.572C113.553 135.327 114.91 135.705 116.451 135.705C117.316 135.705 118.116 135.591 118.852 135.362C119.598 135.134 120.259 134.8 120.836 134.363C121.413 133.915 121.89 133.374 122.268 132.737C122.656 132.101 122.924 131.375 123.073 130.56L129.606 130.589C129.437 131.991 129.014 133.344 128.338 134.646C127.672 135.939 126.772 137.097 125.638 138.121C124.515 139.136 123.173 139.941 121.612 140.538C120.06 141.124 118.305 141.418 116.347 141.418C113.622 141.418 111.186 140.801 109.038 139.568C106.901 138.335 105.21 136.55 103.967 134.214C102.734 131.877 102.118 129.048 102.118 125.727C102.118 122.396 102.744 119.562 103.997 117.226C105.25 114.889 106.95 113.109 109.098 111.886C111.246 110.653 113.662 110.037 116.347 110.037C118.116 110.037 119.757 110.286 121.268 110.783C122.79 111.28 124.137 112.006 125.31 112.96C126.484 113.905 127.438 115.063 128.174 116.435C128.92 117.808 129.397 119.379 129.606 121.148ZM134.118 141V118.091H140.277V122.088H140.516C140.934 120.666 141.635 119.592 142.619 118.866C143.603 118.131 144.737 117.763 146.02 117.763C146.338 117.763 146.681 117.783 147.049 117.822C147.417 117.862 147.74 117.917 148.018 117.987V123.624C147.72 123.535 147.307 123.455 146.78 123.386C146.253 123.316 145.771 123.281 145.333 123.281C144.399 123.281 143.564 123.485 142.828 123.893C142.102 124.29 141.525 124.847 141.098 125.563C140.68 126.279 140.471 127.104 140.471 128.039V141H134.118ZM160.677 141.447C158.32 141.447 156.292 140.97 154.592 140.016C152.901 139.051 151.599 137.689 150.684 135.929C149.769 134.159 149.312 132.066 149.312 129.65C149.312 127.293 149.769 125.225 150.684 123.445C151.599 121.665 152.887 120.278 154.547 119.284C156.218 118.29 158.176 117.793 160.423 117.793C161.935 117.793 163.342 118.036 164.644 118.523C165.957 119.001 167.1 119.722 168.075 120.686C169.059 121.651 169.825 122.864 170.372 124.325C170.919 125.777 171.192 127.477 171.192 129.426V131.171H151.847V127.234H165.211C165.211 126.319 165.012 125.509 164.615 124.803C164.217 124.097 163.665 123.545 162.959 123.147C162.263 122.739 161.453 122.536 160.528 122.536C159.563 122.536 158.708 122.759 157.963 123.207C157.227 123.644 156.65 124.236 156.232 124.982C155.815 125.717 155.601 126.538 155.591 127.442V131.186C155.591 132.32 155.8 133.299 156.218 134.124C156.645 134.95 157.247 135.586 158.022 136.033C158.798 136.481 159.718 136.705 160.781 136.705C161.487 136.705 162.134 136.605 162.72 136.406C163.307 136.207 163.809 135.909 164.227 135.511C164.644 135.114 164.963 134.626 165.181 134.05L171.058 134.438C170.759 135.849 170.148 137.082 169.223 138.136C168.308 139.18 167.125 139.996 165.673 140.582C164.232 141.159 162.566 141.447 160.677 141.447ZM181.871 141.433C180.409 141.433 179.107 141.179 177.963 140.672C176.82 140.155 175.915 139.394 175.249 138.39C174.593 137.376 174.264 136.113 174.264 134.602C174.264 133.329 174.498 132.26 174.965 131.395C175.433 130.53 176.069 129.834 176.874 129.307C177.68 128.78 178.595 128.382 179.619 128.114C180.653 127.845 181.737 127.656 182.87 127.547C184.203 127.408 185.276 127.278 186.092 127.159C186.907 127.03 187.499 126.841 187.867 126.592C188.235 126.344 188.419 125.976 188.419 125.489V125.399C188.419 124.455 188.12 123.724 187.524 123.207C186.937 122.69 186.102 122.431 185.018 122.431C183.874 122.431 182.965 122.685 182.289 123.192C181.612 123.689 181.165 124.315 180.946 125.071L175.07 124.594C175.368 123.202 175.955 121.999 176.83 120.984C177.705 119.96 178.833 119.175 180.215 118.628C181.607 118.071 183.218 117.793 185.048 117.793C186.32 117.793 187.539 117.942 188.702 118.24C189.875 118.538 190.914 119.001 191.819 119.627C192.734 120.254 193.455 121.059 193.982 122.043C194.509 123.018 194.772 124.186 194.772 125.548V141H188.747V137.823H188.568C188.2 138.539 187.708 139.17 187.091 139.717C186.475 140.254 185.734 140.677 184.869 140.985C184.004 141.283 183.004 141.433 181.871 141.433ZM183.691 137.048C184.625 137.048 185.45 136.864 186.166 136.496C186.882 136.118 187.444 135.611 187.852 134.974C188.259 134.338 188.463 133.617 188.463 132.812V130.381C188.264 130.51 187.991 130.629 187.643 130.739C187.305 130.838 186.922 130.933 186.494 131.022C186.067 131.102 185.639 131.176 185.212 131.246C184.784 131.305 184.396 131.36 184.048 131.41C183.303 131.519 182.651 131.693 182.095 131.932C181.538 132.17 181.105 132.494 180.797 132.901C180.489 133.299 180.335 133.796 180.335 134.393C180.335 135.258 180.648 135.919 181.274 136.376C181.911 136.824 182.716 137.048 183.691 137.048ZM211.887 118.091V122.864H198.091V118.091H211.887ZM201.223 112.602H207.577V133.96C207.577 134.547 207.666 135.004 207.845 135.332C208.024 135.651 208.273 135.874 208.591 136.004C208.919 136.133 209.297 136.197 209.724 136.197C210.023 136.197 210.321 136.173 210.619 136.123C210.917 136.063 211.146 136.018 211.305 135.989L212.305 140.717C211.986 140.816 211.539 140.93 210.962 141.06C210.385 141.199 209.684 141.283 208.859 141.313C207.328 141.373 205.986 141.169 204.832 140.702C203.689 140.234 202.799 139.509 202.162 138.524C201.526 137.54 201.213 136.297 201.223 134.795V112.602ZM232.279 141.433C230.817 141.433 229.515 141.179 228.371 140.672C227.228 140.155 226.323 139.394 225.657 138.39C225.001 137.376 224.673 136.113 224.673 134.602C224.673 133.329 224.906 132.26 225.374 131.395C225.841 130.53 226.477 129.834 227.283 129.307C228.088 128.78 229.003 128.382 230.027 128.114C231.061 127.845 232.145 127.656 233.278 127.547C234.611 127.408 235.685 127.278 236.5 127.159C237.315 127.03 237.907 126.841 238.275 126.592C238.643 126.344 238.827 125.976 238.827 125.489V125.399C238.827 124.455 238.528 123.724 237.932 123.207C237.345 122.69 236.51 122.431 235.426 122.431C234.283 122.431 233.373 122.685 232.697 123.192C232.021 123.689 231.573 124.315 231.354 125.071L225.478 124.594C225.776 123.202 226.363 121.999 227.238 120.984C228.113 119.96 229.241 119.175 230.624 118.628C232.016 118.071 233.626 117.793 235.456 117.793C236.729 117.793 237.947 117.942 239.11 118.24C240.283 118.538 241.322 119.001 242.227 119.627C243.142 120.254 243.863 121.059 244.39 122.043C244.917 123.018 245.18 124.186 245.18 125.548V141H239.155V137.823H238.976C238.608 138.539 238.116 139.17 237.499 139.717C236.883 140.254 236.142 140.677 235.277 140.985C234.412 141.283 233.413 141.433 232.279 141.433ZM234.099 137.048C235.033 137.048 235.859 136.864 236.575 136.496C237.29 136.118 237.852 135.611 238.26 134.974C238.668 134.338 238.871 133.617 238.871 132.812V130.381C238.673 130.51 238.399 130.629 238.051 130.739C237.713 130.838 237.33 130.933 236.903 131.022C236.475 131.102 236.048 131.176 235.62 131.246C235.192 131.305 234.805 131.36 234.457 131.41C233.711 131.519 233.06 131.693 232.503 131.932C231.946 132.17 231.513 132.494 231.205 132.901C230.897 133.299 230.743 133.796 230.743 134.393C230.743 135.258 231.056 135.919 231.683 136.376C232.319 136.824 233.124 137.048 234.099 137.048ZM256.463 127.756V141H250.11V118.091H256.165V122.133H256.434C256.941 120.8 257.791 119.746 258.984 118.971C260.177 118.185 261.624 117.793 263.324 117.793C264.915 117.793 266.302 118.141 267.485 118.837C268.669 119.533 269.588 120.527 270.245 121.82C270.901 123.102 271.229 124.634 271.229 126.413V141H264.875V127.547C264.885 126.145 264.527 125.051 263.801 124.266C263.076 123.47 262.076 123.072 260.804 123.072C259.949 123.072 259.193 123.256 258.537 123.624C257.89 123.992 257.383 124.529 257.015 125.235C256.657 125.931 256.473 126.771 256.463 127.756ZM291.342 141H284.421L294.966 110.455H303.288L313.818 141H306.898L299.246 117.435H299.008L291.342 141ZM290.909 128.994H307.256V134.035H290.909V128.994ZM326.66 141.447C324.313 141.447 322.295 140.95 320.604 139.956C318.924 138.952 317.631 137.56 316.727 135.78C315.832 134 315.384 131.952 315.384 129.635C315.384 127.288 315.837 125.23 316.741 123.46C317.656 121.68 318.954 120.293 320.634 119.299C322.315 118.295 324.313 117.793 326.63 117.793C328.629 117.793 330.379 118.156 331.88 118.881C333.381 119.607 334.57 120.626 335.445 121.939C336.32 123.251 336.802 124.793 336.891 126.562H330.896C330.727 125.419 330.279 124.499 329.553 123.803C328.837 123.097 327.898 122.744 326.734 122.744C325.75 122.744 324.89 123.013 324.154 123.55C323.428 124.077 322.862 124.847 322.454 125.862C322.046 126.876 321.842 128.104 321.842 129.545C321.842 131.007 322.041 132.25 322.439 133.274C322.847 134.298 323.418 135.079 324.154 135.616C324.89 136.153 325.75 136.421 326.734 136.421C327.46 136.421 328.112 136.272 328.688 135.974C329.275 135.675 329.757 135.243 330.135 134.676C330.523 134.099 330.776 133.408 330.896 132.603H336.891C336.792 134.353 336.315 135.894 335.46 137.227C334.614 138.549 333.446 139.583 331.955 140.329C330.463 141.075 328.698 141.447 326.66 141.447ZM351.31 141.447C348.964 141.447 346.945 140.95 345.255 139.956C343.574 138.952 342.282 137.56 341.377 135.78C340.482 134 340.035 131.952 340.035 129.635C340.035 127.288 340.487 125.23 341.392 123.46C342.307 121.68 343.604 120.293 345.285 119.299C346.965 118.295 348.964 117.793 351.28 117.793C353.279 117.793 355.029 118.156 356.53 118.881C358.032 119.607 359.22 120.626 360.095 121.939C360.97 123.251 361.452 124.793 361.542 126.562H355.546C355.377 125.419 354.93 124.499 354.204 123.803C353.488 123.097 352.548 122.744 351.385 122.744C350.4 122.744 349.54 123.013 348.805 123.55C348.079 124.077 347.512 124.847 347.104 125.862C346.697 126.876 346.493 128.104 346.493 129.545C346.493 131.007 346.692 132.25 347.089 133.274C347.497 134.298 348.069 135.079 348.805 135.616C349.54 136.153 350.4 136.421 351.385 136.421C352.111 136.421 352.762 136.272 353.339 135.974C353.925 135.675 354.407 135.243 354.785 134.676C355.173 134.099 355.427 133.408 355.546 132.603H361.542C361.442 134.353 360.965 135.894 360.11 137.227C359.265 138.549 358.096 139.583 356.605 140.329C355.113 141.075 353.349 141.447 351.31 141.447ZM375.961 141.447C373.644 141.447 371.64 140.955 369.95 139.971C368.27 138.977 366.972 137.594 366.057 135.825C365.142 134.045 364.685 131.982 364.685 129.635C364.685 127.268 365.142 125.2 366.057 123.43C366.972 121.651 368.27 120.268 369.95 119.284C371.64 118.29 373.644 117.793 375.961 117.793C378.277 117.793 380.276 118.29 381.956 119.284C383.647 120.268 384.949 121.651 385.864 123.43C386.779 125.2 387.236 127.268 387.236 129.635C387.236 131.982 386.779 134.045 385.864 135.825C384.949 137.594 383.647 138.977 381.956 139.971C380.276 140.955 378.277 141.447 375.961 141.447ZM375.99 136.526C377.044 136.526 377.924 136.227 378.63 135.631C379.336 135.024 379.868 134.199 380.226 133.155C380.594 132.111 380.778 130.923 380.778 129.59C380.778 128.258 380.594 127.07 380.226 126.026C379.868 124.982 379.336 124.156 378.63 123.55C377.924 122.943 377.044 122.64 375.99 122.64C374.926 122.64 374.032 122.943 373.306 123.55C372.59 124.156 372.048 124.982 371.68 126.026C371.322 127.07 371.143 128.258 371.143 129.59C371.143 130.923 371.322 132.111 371.68 133.155C372.048 134.199 372.59 135.024 373.306 135.631C374.032 136.227 374.926 136.526 375.99 136.526ZM406.059 131.246V118.091H412.412V141H406.312V136.839H406.074C405.556 138.181 404.696 139.26 403.493 140.075C402.3 140.891 400.843 141.298 399.123 141.298C397.592 141.298 396.245 140.95 395.081 140.254C393.918 139.558 393.008 138.569 392.352 137.286C391.706 136.004 391.377 134.467 391.368 132.678V118.091H397.721V131.544C397.731 132.896 398.094 133.965 398.81 134.751C399.526 135.536 400.485 135.929 401.689 135.929C402.454 135.929 403.17 135.755 403.836 135.407C404.502 135.049 405.039 134.522 405.447 133.826C405.865 133.13 406.069 132.27 406.059 131.246ZM423.848 127.756V141H417.494V118.091H423.55V122.133H423.818C424.325 120.8 425.176 119.746 426.369 118.971C427.562 118.185 429.009 117.793 430.709 117.793C432.3 117.793 433.687 118.141 434.87 118.837C436.053 119.533 436.973 120.527 437.629 121.82C438.286 123.102 438.614 124.634 438.614 126.413V141H432.26V127.547C432.27 126.145 431.912 125.051 431.186 124.266C430.46 123.47 429.461 123.072 428.188 123.072C427.333 123.072 426.578 123.256 425.921 123.624C425.275 123.992 424.768 124.529 424.4 125.235C424.042 125.931 423.858 126.771 423.848 127.756ZM455.807 118.091V122.864H442.011V118.091H455.807ZM445.143 112.602H451.496V133.96C451.496 134.547 451.586 135.004 451.765 135.332C451.944 135.651 452.192 135.874 452.511 136.004C452.839 136.133 453.217 136.197 453.644 136.197C453.942 136.197 454.241 136.173 454.539 136.123C454.837 136.063 455.066 136.018 455.225 135.989L456.224 140.717C455.906 140.816 455.459 140.93 454.882 141.06C454.305 141.199 453.604 141.283 452.779 141.313C451.248 141.373 449.906 141.169 448.752 140.702C447.609 140.234 446.719 139.509 446.082 138.524C445.446 137.54 445.133 136.297 445.143 134.795V112.602Z" fill="#888888"/>
<rect x="100" y="220" width="800" height="50" fill="#D5D5D5"/>
<path d="M102.818 202V178.727H116.773V181.227H105.636V189.091H115.727V191.591H105.636V202H102.818ZM121.236 202V184.545H123.918V202H121.236ZM122.599 181.636C122.077 181.636 121.626 181.458 121.247 181.102C120.876 180.746 120.69 180.318 120.69 179.818C120.69 179.318 120.876 178.89 121.247 178.534C121.626 178.178 122.077 178 122.599 178C123.122 178 123.569 178.178 123.94 178.534C124.319 178.89 124.509 179.318 124.509 179.818C124.509 180.318 124.319 180.746 123.94 181.102C123.569 181.458 123.122 181.636 122.599 181.636ZM128.83 202V184.545H131.42V187.182H131.602C131.92 186.318 132.496 185.617 133.33 185.08C134.163 184.542 135.102 184.273 136.148 184.273C136.345 184.273 136.591 184.277 136.886 184.284C137.182 184.292 137.405 184.303 137.557 184.318V187.045C137.466 187.023 137.258 186.989 136.932 186.943C136.614 186.89 136.277 186.864 135.92 186.864C135.072 186.864 134.314 187.042 133.648 187.398C132.989 187.746 132.466 188.231 132.08 188.852C131.701 189.466 131.511 190.167 131.511 190.955V202H128.83ZM153.099 188.455L150.69 189.136C150.539 188.735 150.315 188.345 150.02 187.966C149.732 187.58 149.338 187.261 148.838 187.011C148.338 186.761 147.698 186.636 146.918 186.636C145.849 186.636 144.959 186.883 144.247 187.375C143.543 187.86 143.19 188.477 143.19 189.227C143.19 189.894 143.433 190.42 143.918 190.807C144.402 191.193 145.16 191.515 146.19 191.773L148.781 192.409C150.342 192.788 151.505 193.367 152.27 194.148C153.035 194.92 153.418 195.917 153.418 197.136C153.418 198.136 153.13 199.03 152.554 199.818C151.986 200.606 151.19 201.227 150.168 201.682C149.145 202.136 147.955 202.364 146.599 202.364C144.819 202.364 143.346 201.977 142.179 201.205C141.012 200.432 140.274 199.303 139.963 197.818L142.509 197.182C142.751 198.121 143.209 198.826 143.884 199.295C144.565 199.765 145.455 200 146.554 200C147.804 200 148.796 199.735 149.531 199.205C150.274 198.667 150.645 198.023 150.645 197.273C150.645 196.667 150.433 196.159 150.009 195.75C149.584 195.333 148.933 195.023 148.054 194.818L145.145 194.136C143.546 193.758 142.372 193.17 141.622 192.375C140.88 191.572 140.509 190.568 140.509 189.364C140.509 188.379 140.785 187.508 141.338 186.75C141.899 185.992 142.66 185.398 143.622 184.966C144.592 184.534 145.69 184.318 146.918 184.318C148.645 184.318 150.001 184.697 150.986 185.455C151.978 186.212 152.683 187.212 153.099 188.455ZM165.045 184.545V186.818H156V184.545H165.045ZM158.636 180.364H161.318V197C161.318 197.758 161.428 198.326 161.648 198.705C161.875 199.076 162.163 199.326 162.511 199.455C162.867 199.576 163.242 199.636 163.636 199.636C163.932 199.636 164.174 199.621 164.364 199.591C164.553 199.553 164.705 199.523 164.818 199.5L165.364 201.909C165.182 201.977 164.928 202.045 164.602 202.114C164.277 202.189 163.864 202.227 163.364 202.227C162.606 202.227 161.864 202.064 161.136 201.739C160.417 201.413 159.818 200.917 159.341 200.25C158.871 199.583 158.636 198.742 158.636 197.727V180.364ZM196.898 178.727V202H194.17L181.489 183.727H181.261V202H178.443V178.727H181.17L193.898 197.045H194.125V178.727H196.898ZM207.31 202.409C206.204 202.409 205.2 202.201 204.298 201.784C203.397 201.36 202.681 200.75 202.151 199.955C201.62 199.152 201.355 198.182 201.355 197.045C201.355 196.045 201.552 195.235 201.946 194.614C202.34 193.985 202.866 193.492 203.526 193.136C204.185 192.78 204.912 192.515 205.707 192.341C206.51 192.159 207.317 192.015 208.128 191.909C209.188 191.773 210.048 191.67 210.707 191.602C211.374 191.527 211.859 191.402 212.162 191.227C212.473 191.053 212.628 190.75 212.628 190.318V190.227C212.628 189.106 212.321 188.235 211.707 187.614C211.101 186.992 210.181 186.682 208.946 186.682C207.666 186.682 206.662 186.962 205.935 187.523C205.207 188.083 204.696 188.682 204.401 189.318L201.855 188.409C202.31 187.348 202.916 186.523 203.673 185.932C204.438 185.333 205.272 184.917 206.173 184.682C207.082 184.439 207.976 184.318 208.855 184.318C209.416 184.318 210.06 184.386 210.787 184.523C211.522 184.652 212.23 184.92 212.912 185.33C213.601 185.739 214.173 186.356 214.628 187.182C215.082 188.008 215.31 189.114 215.31 190.5V202H212.628V199.636H212.491C212.31 200.015 212.007 200.42 211.582 200.852C211.158 201.284 210.594 201.652 209.889 201.955C209.185 202.258 208.325 202.409 207.31 202.409ZM207.719 200C208.779 200 209.673 199.792 210.401 199.375C211.135 198.958 211.688 198.42 212.06 197.761C212.438 197.102 212.628 196.409 212.628 195.682V193.227C212.514 193.364 212.264 193.489 211.878 193.602C211.499 193.708 211.06 193.803 210.56 193.886C210.067 193.962 209.586 194.03 209.116 194.091C208.654 194.144 208.279 194.189 207.991 194.227C207.295 194.318 206.643 194.466 206.037 194.67C205.438 194.867 204.954 195.167 204.582 195.568C204.219 195.962 204.037 196.5 204.037 197.182C204.037 198.114 204.382 198.818 205.071 199.295C205.768 199.765 206.651 200 207.719 200ZM220.205 202V184.545H222.795V187.273H223.023C223.386 186.341 223.973 185.617 224.784 185.102C225.595 184.58 226.568 184.318 227.705 184.318C228.856 184.318 229.814 184.58 230.58 185.102C231.352 185.617 231.955 186.341 232.386 187.273H232.568C233.015 186.371 233.686 185.655 234.58 185.125C235.473 184.587 236.545 184.318 237.795 184.318C239.356 184.318 240.633 184.807 241.625 185.784C242.617 186.754 243.114 188.265 243.114 190.318V202H240.432V190.318C240.432 189.03 240.08 188.11 239.375 187.557C238.67 187.004 237.841 186.727 236.886 186.727C235.659 186.727 234.708 187.098 234.034 187.841C233.36 188.576 233.023 189.508 233.023 190.636V202H230.295V190.045C230.295 189.053 229.973 188.254 229.33 187.648C228.686 187.034 227.856 186.727 226.841 186.727C226.144 186.727 225.492 186.913 224.886 187.284C224.288 187.655 223.803 188.17 223.432 188.83C223.068 189.481 222.886 190.235 222.886 191.091V202H220.205ZM255.335 202.364C253.653 202.364 252.203 201.992 250.983 201.25C249.771 200.5 248.835 199.455 248.176 198.114C247.525 196.765 247.199 195.197 247.199 193.409C247.199 191.621 247.525 190.045 248.176 188.682C248.835 187.311 249.752 186.242 250.926 185.477C252.108 184.705 253.487 184.318 255.062 184.318C255.972 184.318 256.869 184.47 257.756 184.773C258.642 185.076 259.449 185.568 260.176 186.25C260.903 186.924 261.483 187.818 261.915 188.932C262.347 190.045 262.562 191.417 262.562 193.045V194.182H249.108V191.864H259.835C259.835 190.879 259.638 190 259.244 189.227C258.858 188.455 258.305 187.845 257.585 187.398C256.873 186.951 256.032 186.727 255.062 186.727C253.994 186.727 253.07 186.992 252.29 187.523C251.517 188.045 250.922 188.727 250.506 189.568C250.089 190.409 249.881 191.311 249.881 192.273V193.818C249.881 195.136 250.108 196.254 250.562 197.17C251.025 198.08 251.665 198.773 252.483 199.25C253.301 199.72 254.252 199.955 255.335 199.955C256.04 199.955 256.676 199.856 257.244 199.659C257.82 199.455 258.316 199.152 258.733 198.75C259.15 198.341 259.472 197.833 259.699 197.227L262.29 197.955C262.017 198.833 261.559 199.606 260.915 200.273C260.271 200.932 259.475 201.447 258.528 201.818C257.581 202.182 256.517 202.364 255.335 202.364Z" fill="#888888"/>
<rect x="100" y="339" width="800" height="50" fill="#D5D5D5"/>
<path d="M102.818 321V297.727H105.636V318.5H116.455V321H102.818ZM125.591 321.409C124.485 321.409 123.481 321.201 122.58 320.784C121.678 320.36 120.962 319.75 120.432 318.955C119.902 318.152 119.636 317.182 119.636 316.045C119.636 315.045 119.833 314.235 120.227 313.614C120.621 312.985 121.148 312.492 121.807 312.136C122.466 311.78 123.193 311.515 123.989 311.341C124.792 311.159 125.598 311.015 126.409 310.909C127.47 310.773 128.33 310.67 128.989 310.602C129.655 310.527 130.14 310.402 130.443 310.227C130.754 310.053 130.909 309.75 130.909 309.318V309.227C130.909 308.106 130.602 307.235 129.989 306.614C129.383 305.992 128.462 305.682 127.227 305.682C125.947 305.682 124.943 305.962 124.216 306.523C123.489 307.083 122.977 307.682 122.682 308.318L120.136 307.409C120.591 306.348 121.197 305.523 121.955 304.932C122.72 304.333 123.553 303.917 124.455 303.682C125.364 303.439 126.258 303.318 127.136 303.318C127.697 303.318 128.341 303.386 129.068 303.523C129.803 303.652 130.511 303.92 131.193 304.33C131.883 304.739 132.455 305.356 132.909 306.182C133.364 307.008 133.591 308.114 133.591 309.5V321H130.909V318.636H130.773C130.591 319.015 130.288 319.42 129.864 319.852C129.439 320.284 128.875 320.652 128.17 320.955C127.466 321.258 126.606 321.409 125.591 321.409ZM126 319C127.061 319 127.955 318.792 128.682 318.375C129.417 317.958 129.97 317.42 130.341 316.761C130.72 316.102 130.909 315.409 130.909 314.682V312.227C130.795 312.364 130.545 312.489 130.159 312.602C129.78 312.708 129.341 312.803 128.841 312.886C128.348 312.962 127.867 313.03 127.398 313.091C126.936 313.144 126.561 313.189 126.273 313.227C125.576 313.318 124.924 313.466 124.318 313.67C123.72 313.867 123.235 314.167 122.864 314.568C122.5 314.962 122.318 315.5 122.318 316.182C122.318 317.114 122.663 317.818 123.352 318.295C124.049 318.765 124.932 319 126 319ZM150.849 307.455L148.44 308.136C148.289 307.735 148.065 307.345 147.77 306.966C147.482 306.58 147.088 306.261 146.588 306.011C146.088 305.761 145.448 305.636 144.668 305.636C143.599 305.636 142.709 305.883 141.997 306.375C141.293 306.86 140.94 307.477 140.94 308.227C140.94 308.894 141.183 309.42 141.668 309.807C142.152 310.193 142.91 310.515 143.94 310.773L146.531 311.409C148.092 311.788 149.255 312.367 150.02 313.148C150.785 313.92 151.168 314.917 151.168 316.136C151.168 317.136 150.88 318.03 150.304 318.818C149.736 319.606 148.94 320.227 147.918 320.682C146.895 321.136 145.705 321.364 144.349 321.364C142.569 321.364 141.096 320.977 139.929 320.205C138.762 319.432 138.024 318.303 137.713 316.818L140.259 316.182C140.501 317.121 140.959 317.826 141.634 318.295C142.315 318.765 143.205 319 144.304 319C145.554 319 146.546 318.735 147.281 318.205C148.024 317.667 148.395 317.023 148.395 316.273C148.395 315.667 148.183 315.159 147.759 314.75C147.334 314.333 146.683 314.023 145.804 313.818L142.895 313.136C141.296 312.758 140.122 312.17 139.372 311.375C138.63 310.572 138.259 309.568 138.259 308.364C138.259 307.379 138.535 306.508 139.088 305.75C139.649 304.992 140.41 304.398 141.372 303.966C142.342 303.534 143.44 303.318 144.668 303.318C146.395 303.318 147.751 303.697 148.736 304.455C149.728 305.212 150.433 306.212 150.849 307.455ZM162.795 303.545V305.818H153.75V303.545H162.795ZM156.386 299.364H159.068V316C159.068 316.758 159.178 317.326 159.398 317.705C159.625 318.076 159.913 318.326 160.261 318.455C160.617 318.576 160.992 318.636 161.386 318.636C161.682 318.636 161.924 318.621 162.114 318.591C162.303 318.553 162.455 318.523 162.568 318.5L163.114 320.909C162.932 320.977 162.678 321.045 162.352 321.114C162.027 321.189 161.614 321.227 161.114 321.227C160.356 321.227 159.614 321.064 158.886 320.739C158.167 320.413 157.568 319.917 157.091 319.25C156.621 318.583 156.386 317.742 156.386 316.727V299.364ZM194.648 297.727V321H191.92L179.239 302.727H179.011V321H176.193V297.727H178.92L191.648 316.045H191.875V297.727H194.648ZM205.06 321.409C203.954 321.409 202.95 321.201 202.048 320.784C201.147 320.36 200.431 319.75 199.901 318.955C199.37 318.152 199.105 317.182 199.105 316.045C199.105 315.045 199.302 314.235 199.696 313.614C200.09 312.985 200.616 312.492 201.276 312.136C201.935 311.78 202.662 311.515 203.457 311.341C204.26 311.159 205.067 311.015 205.878 310.909C206.938 310.773 207.798 310.67 208.457 310.602C209.124 310.527 209.609 310.402 209.912 310.227C210.223 310.053 210.378 309.75 210.378 309.318V309.227C210.378 308.106 210.071 307.235 209.457 306.614C208.851 305.992 207.931 305.682 206.696 305.682C205.416 305.682 204.412 305.962 203.685 306.523C202.957 307.083 202.446 307.682 202.151 308.318L199.605 307.409C200.06 306.348 200.666 305.523 201.423 304.932C202.188 304.333 203.022 303.917 203.923 303.682C204.832 303.439 205.726 303.318 206.605 303.318C207.166 303.318 207.81 303.386 208.537 303.523C209.272 303.652 209.98 303.92 210.662 304.33C211.351 304.739 211.923 305.356 212.378 306.182C212.832 307.008 213.06 308.114 213.06 309.5V321H210.378V318.636H210.241C210.06 319.015 209.757 319.42 209.332 319.852C208.908 320.284 208.344 320.652 207.639 320.955C206.935 321.258 206.075 321.409 205.06 321.409ZM205.469 319C206.529 319 207.423 318.792 208.151 318.375C208.885 317.958 209.438 317.42 209.81 316.761C210.188 316.102 210.378 315.409 210.378 314.682V312.227C210.264 312.364 210.014 312.489 209.628 312.602C209.249 312.708 208.81 312.803 208.31 312.886C207.817 312.962 207.336 313.03 206.866 313.091C206.404 313.144 206.029 313.189 205.741 313.227C205.045 313.318 204.393 313.466 203.787 313.67C203.188 313.867 202.704 314.167 202.332 314.568C201.969 314.962 201.787 315.5 201.787 316.182C201.787 317.114 202.132 317.818 202.821 318.295C203.518 318.765 204.401 319 205.469 319ZM217.955 321V303.545H220.545V306.273H220.773C221.136 305.341 221.723 304.617 222.534 304.102C223.345 303.58 224.318 303.318 225.455 303.318C226.606 303.318 227.564 303.58 228.33 304.102C229.102 304.617 229.705 305.341 230.136 306.273H230.318C230.765 305.371 231.436 304.655 232.33 304.125C233.223 303.587 234.295 303.318 235.545 303.318C237.106 303.318 238.383 303.807 239.375 304.784C240.367 305.754 240.864 307.265 240.864 309.318V321H238.182V309.318C238.182 308.03 237.83 307.11 237.125 306.557C236.42 306.004 235.591 305.727 234.636 305.727C233.409 305.727 232.458 306.098 231.784 306.841C231.11 307.576 230.773 308.508 230.773 309.636V321H228.045V309.045C228.045 308.053 227.723 307.254 227.08 306.648C226.436 306.034 225.606 305.727 224.591 305.727C223.894 305.727 223.242 305.913 222.636 306.284C222.038 306.655 221.553 307.17 221.182 307.83C220.818 308.481 220.636 309.235 220.636 310.091V321H217.955ZM253.085 321.364C251.403 321.364 249.953 320.992 248.733 320.25C247.521 319.5 246.585 318.455 245.926 317.114C245.275 315.765 244.949 314.197 244.949 312.409C244.949 310.621 245.275 309.045 245.926 307.682C246.585 306.311 247.502 305.242 248.676 304.477C249.858 303.705 251.237 303.318 252.812 303.318C253.722 303.318 254.619 303.47 255.506 303.773C256.392 304.076 257.199 304.568 257.926 305.25C258.653 305.924 259.233 306.818 259.665 307.932C260.097 309.045 260.312 310.417 260.312 312.045V313.182H246.858V310.864H257.585C257.585 309.879 257.388 309 256.994 308.227C256.608 307.455 256.055 306.845 255.335 306.398C254.623 305.951 253.782 305.727 252.812 305.727C251.744 305.727 250.82 305.992 250.04 306.523C249.267 307.045 248.672 307.727 248.256 308.568C247.839 309.409 247.631 310.311 247.631 311.273V312.818C247.631 314.136 247.858 315.254 248.312 316.17C248.775 317.08 249.415 317.773 250.233 318.25C251.051 318.72 252.002 318.955 253.085 318.955C253.79 318.955 254.426 318.856 254.994 318.659C255.57 318.455 256.066 318.152 256.483 317.75C256.9 317.341 257.222 316.833 257.449 316.227L260.04 316.955C259.767 317.833 259.309 318.606 258.665 319.273C258.021 319.932 257.225 320.447 256.278 320.818C255.331 321.182 254.267 321.364 253.085 321.364Z" fill="#888888"/>
<rect x="100" y="458" width="800" height="50" fill="#D5D5D5"/>
<path d="M102.818 440V416.727H116.864V419.227H105.636V427.091H116.136V429.591H105.636V437.5H117.045V440H102.818ZM121.58 440V422.545H124.17V425.273H124.398C124.761 424.341 125.348 423.617 126.159 423.102C126.97 422.58 127.943 422.318 129.08 422.318C130.231 422.318 131.189 422.58 131.955 423.102C132.727 423.617 133.33 424.341 133.761 425.273H133.943C134.39 424.371 135.061 423.655 135.955 423.125C136.848 422.587 137.92 422.318 139.17 422.318C140.731 422.318 142.008 422.807 143 423.784C143.992 424.754 144.489 426.265 144.489 428.318V440H141.807V428.318C141.807 427.03 141.455 426.11 140.75 425.557C140.045 425.004 139.216 424.727 138.261 424.727C137.034 424.727 136.083 425.098 135.409 425.841C134.735 426.576 134.398 427.508 134.398 428.636V440H131.67V428.045C131.67 427.053 131.348 426.254 130.705 425.648C130.061 425.034 129.231 424.727 128.216 424.727C127.519 424.727 126.867 424.913 126.261 425.284C125.663 425.655 125.178 426.17 124.807 426.83C124.443 427.481 124.261 428.235 124.261 429.091V440H121.58ZM154.528 440.409C153.422 440.409 152.419 440.201 151.517 439.784C150.616 439.36 149.9 438.75 149.369 437.955C148.839 437.152 148.574 436.182 148.574 435.045C148.574 434.045 148.771 433.235 149.165 432.614C149.559 431.985 150.085 431.492 150.744 431.136C151.403 430.78 152.131 430.515 152.926 430.341C153.729 430.159 154.536 430.015 155.347 429.909C156.407 429.773 157.267 429.67 157.926 429.602C158.593 429.527 159.078 429.402 159.381 429.227C159.691 429.053 159.847 428.75 159.847 428.318V428.227C159.847 427.106 159.54 426.235 158.926 425.614C158.32 424.992 157.4 424.682 156.165 424.682C154.884 424.682 153.881 424.962 153.153 425.523C152.426 426.083 151.915 426.682 151.619 427.318L149.074 426.409C149.528 425.348 150.134 424.523 150.892 423.932C151.657 423.333 152.491 422.917 153.392 422.682C154.301 422.439 155.195 422.318 156.074 422.318C156.634 422.318 157.278 422.386 158.006 422.523C158.741 422.652 159.449 422.92 160.131 423.33C160.82 423.739 161.392 424.356 161.847 425.182C162.301 426.008 162.528 427.114 162.528 428.5V440H159.847V437.636H159.71C159.528 438.015 159.225 438.42 158.801 438.852C158.377 439.284 157.813 439.652 157.108 439.955C156.403 440.258 155.544 440.409 154.528 440.409ZM154.938 438C155.998 438 156.892 437.792 157.619 437.375C158.354 436.958 158.907 436.42 159.278 435.761C159.657 435.102 159.847 434.409 159.847 433.682V431.227C159.733 431.364 159.483 431.489 159.097 431.602C158.718 431.708 158.278 431.803 157.778 431.886C157.286 431.962 156.805 432.03 156.335 432.091C155.873 432.144 155.498 432.189 155.21 432.227C154.513 432.318 153.862 432.466 153.256 432.67C152.657 432.867 152.172 433.167 151.801 433.568C151.438 433.962 151.256 434.5 151.256 435.182C151.256 436.114 151.6 436.818 152.29 437.295C152.987 437.765 153.869 438 154.938 438ZM167.423 440V422.545H170.105V440H167.423ZM168.787 419.636C168.264 419.636 167.813 419.458 167.435 419.102C167.063 418.746 166.878 418.318 166.878 417.818C166.878 417.318 167.063 416.89 167.435 416.534C167.813 416.178 168.264 416 168.787 416C169.31 416 169.757 416.178 170.128 416.534C170.507 416.89 170.696 417.318 170.696 417.818C170.696 418.318 170.507 418.746 170.128 419.102C169.757 419.458 169.31 419.636 168.787 419.636ZM177.699 416.727V440H175.017V416.727H177.699Z" fill="#888888"/>
<rect x="100" y="528" width="173" height="72" fill="#888888"/>
<path d="M142.818 575V551.727H145.636V572.5H156.455V575H142.818ZM167.545 575.364C165.97 575.364 164.587 574.989 163.398 574.239C162.216 573.489 161.292 572.439 160.625 571.091C159.966 569.742 159.636 568.167 159.636 566.364C159.636 564.545 159.966 562.958 160.625 561.602C161.292 560.246 162.216 559.193 163.398 558.443C164.587 557.693 165.97 557.318 167.545 557.318C169.121 557.318 170.5 557.693 171.682 558.443C172.871 559.193 173.795 560.246 174.455 561.602C175.121 562.958 175.455 564.545 175.455 566.364C175.455 568.167 175.121 569.742 174.455 571.091C173.795 572.439 172.871 573.489 171.682 574.239C170.5 574.989 169.121 575.364 167.545 575.364ZM167.545 572.955C168.742 572.955 169.727 572.648 170.5 572.034C171.273 571.42 171.845 570.614 172.216 569.614C172.587 568.614 172.773 567.53 172.773 566.364C172.773 565.197 172.587 564.11 172.216 563.102C171.845 562.095 171.273 561.28 170.5 560.659C169.727 560.038 168.742 559.727 167.545 559.727C166.348 559.727 165.364 560.038 164.591 560.659C163.818 561.28 163.246 562.095 162.875 563.102C162.504 564.11 162.318 565.197 162.318 566.364C162.318 567.53 162.504 568.614 162.875 569.614C163.246 570.614 163.818 571.42 164.591 572.034C165.364 572.648 166.348 572.955 167.545 572.955ZM186.594 581.909C185.298 581.909 184.185 581.742 183.253 581.409C182.321 581.083 181.545 580.652 180.923 580.114C180.31 579.583 179.821 579.015 179.457 578.409L181.594 576.909C181.836 577.227 182.143 577.591 182.514 578C182.885 578.417 183.393 578.777 184.037 579.08C184.688 579.39 185.541 579.545 186.594 579.545C188.003 579.545 189.166 579.205 190.082 578.523C190.999 577.841 191.457 576.773 191.457 575.318V571.773H191.23C191.033 572.091 190.753 572.485 190.389 572.955C190.033 573.417 189.518 573.83 188.844 574.193C188.177 574.549 187.276 574.727 186.139 574.727C184.73 574.727 183.465 574.394 182.344 573.727C181.23 573.061 180.348 572.091 179.696 570.818C179.052 569.545 178.73 568 178.73 566.182C178.73 564.394 179.045 562.837 179.673 561.511C180.302 560.178 181.177 559.148 182.298 558.42C183.42 557.686 184.715 557.318 186.185 557.318C187.321 557.318 188.223 557.508 188.889 557.886C189.563 558.258 190.079 558.682 190.435 559.159C190.798 559.629 191.079 560.015 191.276 560.318H191.548V557.545H194.139V575.5C194.139 577 193.798 578.22 193.116 579.159C192.442 580.106 191.533 580.799 190.389 581.239C189.253 581.686 187.988 581.909 186.594 581.909ZM186.503 572.318C187.579 572.318 188.488 572.072 189.23 571.58C189.973 571.087 190.537 570.379 190.923 569.455C191.31 568.53 191.503 567.424 191.503 566.136C191.503 564.879 191.313 563.769 190.935 562.807C190.556 561.845 189.995 561.091 189.253 560.545C188.51 560 187.594 559.727 186.503 559.727C185.366 559.727 184.42 560.015 183.662 560.591C182.912 561.167 182.348 561.939 181.969 562.909C181.598 563.879 181.412 564.955 181.412 566.136C181.412 567.348 181.601 568.42 181.98 569.352C182.366 570.277 182.935 571.004 183.685 571.534C184.442 572.057 185.382 572.318 186.503 572.318ZM211.23 551.727V575H208.412V551.727H211.23ZM219.199 564.5V575H216.517V557.545H219.108V560.273H219.335C219.744 559.386 220.366 558.674 221.199 558.136C222.032 557.591 223.108 557.318 224.426 557.318C225.608 557.318 226.642 557.561 227.528 558.045C228.415 558.523 229.104 559.25 229.597 560.227C230.089 561.197 230.335 562.424 230.335 563.909V575H227.653V564.091C227.653 562.72 227.297 561.652 226.585 560.886C225.873 560.114 224.896 559.727 223.653 559.727C222.797 559.727 222.032 559.913 221.358 560.284C220.691 560.655 220.165 561.197 219.778 561.909C219.392 562.621 219.199 563.485 219.199 564.5Z" fill="white"/>
</g>
<defs>
<clipPath id="clip0_522_361">
<rect width="800" height="500" fill="white" transform="translate(100 100)"/>
</clipPath>
</defs>
</svg>
