<svg width="80" height="80" viewBox="0 0 80 80" fill="none" xmlns="http://www.w3.org/2000/svg">
<path d="M0 4.32433C0 1.93607 1.93607 0 4.32432 0H75.6757C78.0639 0 80 1.93607 80 4.32432V75.6757C80 78.0639 78.0639 80 75.6757 80H4.32433C1.93607 80 0 78.0639 0 75.6757V4.32433Z" fill="#FEDB22"/>
<path fill-rule="evenodd" clip-rule="evenodd" d="M69.1899 14.002C70.1274 13.9442 70.6622 15.1633 70.0393 15.9382L64.4947 22.8361C63.8454 23.6439 62.6353 23.1275 62.6481 22.0481L62.681 19.2493C62.6854 18.8826 62.5329 18.5351 62.2695 18.3112L60.2594 16.6029C59.4841 15.944 59.8679 14.577 60.8451 14.5167L69.1899 14.002ZM25.0719 32.1163C25.0719 38.7241 19.6705 44.0788 13.0144 44.0788C11.3465 44.0788 10 42.7344 10 41.0862C10 39.4381 11.3465 38.1013 13.0144 38.1013C16.3425 38.1013 19.0432 35.4202 19.0432 32.1163V23.1464C19.0432 21.4906 20.3897 20.1538 22.0575 20.1538C23.7254 20.1538 25.0719 21.4906 25.0719 23.1464V32.1163ZM57.5722 32.1163C57.5722 35.4202 60.2729 38.1013 63.601 38.1013C65.2689 38.1013 66.6154 39.4305 66.6154 41.0862C66.6154 42.742 65.2689 44.0788 63.601 44.0788C56.9449 44.0788 51.5435 38.7241 51.5435 32.1163V23.1464C51.5435 21.4906 52.89 20.1538 54.5578 20.1538C56.2257 20.1538 57.5722 21.4982 57.5722 23.1464V25.8275H59.9669C61.6348 25.8275 62.9889 27.1718 62.9889 28.8276C62.9889 30.4833 61.6348 31.8277 59.9669 31.8277H57.5722V32.1163ZM49.8145 27.9238C49.8221 27.9162 49.8298 27.9162 49.8298 27.9162C48.8811 25.4402 47.1061 23.2679 44.6273 21.84C38.8739 18.5285 31.5292 20.4881 28.2165 26.2149C24.896 31.9341 26.8699 39.2482 32.6156 42.5522C36.8465 44.9826 41.9419 44.5573 45.6601 41.8838L45.6372 41.8534C46.494 41.3293 47.0602 40.3875 47.0602 39.3166C47.0602 37.6684 45.7137 36.3317 44.0535 36.3317C43.2501 36.3317 42.5157 36.6431 41.9801 37.1596C40.1745 38.3672 37.7722 38.5571 35.7448 37.4482L47.8865 31.8505C48.5903 31.6378 49.2177 31.1669 49.6079 30.4834C50.0822 29.6707 50.1281 28.7365 49.8145 27.9238ZM41.6205 27.0124C41.9801 27.2174 42.3014 27.4529 42.5998 27.7111L32.608 32.3062C32.585 31.2505 32.8451 30.1796 33.4113 29.1998C35.0715 26.344 38.7439 25.3642 41.6205 27.0124ZM23.6567 47.0266C23.6567 46.9117 23.6965 46.8144 23.7761 46.7348C23.8557 46.6552 23.953 46.6154 24.068 46.6154C24.183 46.6154 24.2803 46.6552 24.3599 46.7348C24.4395 46.8144 24.4793 46.9117 24.4793 47.0266V50.9933C25.2929 50.2061 26.1641 49.8126 27.0927 49.8126C28.0479 49.8126 28.8571 50.1486 29.5204 50.8208C30.197 51.4929 30.5353 52.3044 30.5353 53.2551V56.8304C30.5353 56.9454 30.4933 57.0427 30.4093 57.1223C30.3297 57.2019 30.2324 57.2417 30.1174 57.2417C30.0024 57.2417 29.9052 57.2019 29.8256 57.1223C29.746 57.0427 29.7062 56.9454 29.7062 56.8304V53.2551C29.7062 52.5255 29.4497 51.9108 28.9367 51.4111C28.4238 50.8938 27.8091 50.6351 27.0927 50.6351C26.3763 50.6351 25.7594 50.8938 25.2421 51.4111C24.7335 51.9153 24.4793 52.5299 24.4793 53.2551V56.8304C24.4793 56.9454 24.4395 57.0427 24.3599 57.1223C24.2803 57.2019 24.183 57.2417 24.068 57.2417C23.953 57.2417 23.8557 57.2019 23.7761 57.1223C23.6965 57.0427 23.6567 56.9454 23.6567 56.8304V47.0266ZM22.3564 56.4192C22.4714 56.4192 22.5686 56.459 22.6482 56.5386C22.7323 56.6182 22.7743 56.7154 22.7743 56.8304C22.7743 56.9454 22.7323 57.0427 22.6482 57.1223C22.5686 57.2019 22.4714 57.2417 22.3564 57.2417C20.6141 57.2417 19.7429 56.3705 19.7429 54.6282V50.6351H19.0597C18.9447 50.6351 18.8452 50.5953 18.7612 50.5157C18.6816 50.4361 18.6418 50.3388 18.6418 50.2238C18.6418 50.1088 18.6816 50.0115 18.7612 49.9319C18.8452 49.8524 18.9447 49.8126 19.0597 49.8126H19.7429V47.0333C19.7429 46.9183 19.7827 46.821 19.8623 46.7414C19.9419 46.6618 20.0392 46.622 20.1542 46.622C20.2692 46.622 20.3664 46.6618 20.446 46.7414C20.5301 46.821 20.5721 46.9183 20.5721 47.0333V49.8126H21.8125C21.9274 49.8126 22.0247 49.8524 22.1043 49.9319C22.1883 50.0115 22.2304 50.1088 22.2304 50.2238C22.2304 50.3388 22.1883 50.4361 22.1043 50.5157C22.0247 50.5953 21.9274 50.6351 21.8125 50.6351H20.5721V54.6282C20.5721 55.8222 21.1668 56.4192 22.3564 56.4192ZM37.0957 51.4841C37.5247 51.913 37.8011 52.457 37.9249 53.1159H32.174C32.3066 52.4525 32.5852 51.9086 33.0097 51.4841C33.5758 50.9181 34.2568 50.6351 35.0527 50.6351C35.8487 50.6351 36.5297 50.9181 37.0957 51.4841ZM37.4606 55.7691C37.381 55.6851 37.2837 55.6431 37.1687 55.6431C37.0714 55.6431 36.9852 55.674 36.91 55.7359C36.6535 55.957 36.3705 56.1273 36.061 56.2467C35.7514 56.3617 35.4153 56.4192 35.0527 56.4192C34.2568 56.4192 33.5758 56.1361 33.0097 55.5701C32.5852 55.1456 32.3066 54.6017 32.174 53.9384H38.356C38.471 53.9384 38.5683 53.8986 38.6479 53.819C38.7275 53.7394 38.7673 53.6421 38.7673 53.5271C38.7673 52.5012 38.4047 51.6256 37.6795 50.9004C36.9542 50.1752 36.0787 49.8126 35.0527 49.8126C34.0268 49.8126 33.1512 50.1752 32.426 50.9004C31.7008 51.6256 31.3382 52.5012 31.3382 53.5271C31.3382 54.553 31.7008 55.4286 32.426 56.1538C33.1512 56.8791 34.0268 57.2417 35.0527 57.2417C35.9769 57.2417 36.784 56.9432 37.4738 56.3462C37.5446 56.271 37.58 56.1759 37.58 56.061C37.58 55.946 37.5402 55.8487 37.4606 55.7691ZM40.3529 56.8304C40.3529 56.9454 40.3131 57.0427 40.2335 57.1223C40.1539 57.2019 40.0566 57.2417 39.9416 57.2417C39.8266 57.2417 39.7271 57.2019 39.6431 57.1223C39.5635 57.0427 39.5237 56.9454 39.5237 56.8304V50.2238C39.5237 50.1088 39.5635 50.0115 39.6431 49.9319C39.7271 49.8524 39.8266 49.8126 39.9416 49.8126C40.0566 49.8126 40.1539 49.8524 40.2335 49.9319C40.3131 50.0115 40.3529 50.1088 40.3529 50.2238V50.6682C41.025 50.0978 41.7127 49.8126 42.4158 49.8126C43.2118 49.8126 43.8928 50.0956 44.4588 50.6616C44.5959 50.8031 44.7396 50.9756 44.8899 51.179C45.0403 50.9756 45.1862 50.8031 45.3277 50.6616C45.8937 50.0956 46.5748 49.8126 47.3707 49.8126C48.1667 49.8126 48.8477 50.0956 49.4137 50.6616C49.9753 51.2232 50.2561 51.9042 50.2561 52.7046V56.8304C50.2561 56.9454 50.2163 57.0427 50.1367 57.1223C50.0571 57.2019 49.9599 57.2417 49.8449 57.2417C49.7299 57.2417 49.6326 57.2019 49.553 57.1223C49.4734 57.0427 49.4336 56.9454 49.4336 56.8304V52.7046C49.4336 52.1342 49.2302 51.6477 48.8234 51.2453C48.4166 50.8385 47.9323 50.6351 47.3707 50.6351C46.8047 50.6351 46.3183 50.8385 45.9114 51.2453C45.509 51.6477 45.3078 52.1342 45.3078 52.7046V56.8304C45.3078 56.9454 45.2658 57.0427 45.1818 57.1223C45.1022 57.2019 45.0049 57.2417 44.8899 57.2417C44.775 57.2417 44.6777 57.2019 44.5981 57.1223C44.5185 57.0427 44.4787 56.9454 44.4787 56.8304V52.7046C44.4787 52.1342 44.2775 51.6477 43.8751 51.2453C43.4682 50.8385 42.9818 50.6351 42.4158 50.6351C41.8497 50.6351 41.3633 50.8385 40.9565 51.2453C40.5541 51.6477 40.3529 52.1342 40.3529 52.7046V56.8304ZM56.7171 51.4841C57.146 51.913 57.4224 52.457 57.5462 53.1159H51.7953C51.928 52.4525 52.2066 51.9086 52.6311 51.4841C53.1971 50.9181 53.8781 50.6351 54.6741 50.6351C55.4701 50.6351 56.1511 50.9181 56.7171 51.4841ZM57.0819 55.7691C57.0023 55.6851 56.905 55.6431 56.79 55.6431C56.6928 55.6431 56.6065 55.674 56.5314 55.7359C56.2749 55.957 55.9919 56.1273 55.6823 56.2467C55.3728 56.3617 55.0367 56.4192 54.6741 56.4192C53.8781 56.4192 53.1971 56.1361 52.6311 55.5701C52.2066 55.1456 51.928 54.6017 51.7953 53.9384H57.9774C58.0924 53.9384 58.1896 53.8986 58.2692 53.819C58.3488 53.7394 58.3886 53.6421 58.3886 53.5271C58.3886 52.5012 58.026 51.6256 57.3008 50.9004C56.5756 50.1752 55.7 49.8126 54.6741 49.8126C53.6481 49.8126 52.7726 50.1752 52.0474 50.9004C51.3221 51.6256 50.9595 52.5012 50.9595 53.5271C50.9595 54.553 51.3221 55.4286 52.0474 56.1538C52.7726 56.8791 53.6481 57.2417 54.6741 57.2417C55.5983 57.2417 56.4053 56.9432 57.0952 56.3462C57.1659 56.271 57.2013 56.1759 57.2013 56.061C57.2013 55.946 57.1615 55.8487 57.0819 55.7691ZM24.4658 65.0504C24.5808 65.0504 24.6781 65.0924 24.7577 65.1765C24.8373 65.2561 24.8771 65.3533 24.8771 65.4683C24.8771 65.5833 24.8351 65.6828 24.751 65.7668C24.415 66.0542 24.0413 66.2753 23.63 66.4301C23.2188 66.5849 22.7854 66.6623 22.3299 66.6623C21.304 66.6623 20.4284 66.2997 19.7032 65.5744C18.978 64.8492 18.6154 63.9736 18.6154 62.9477C18.6154 61.9218 18.978 61.0462 19.7032 60.321C20.4284 59.5958 21.304 59.2332 22.3299 59.2332C22.7854 59.2332 23.2188 59.3106 23.63 59.4653C24.0457 59.6201 24.4194 59.8412 24.751 60.1286C24.7908 60.1684 24.824 60.2171 24.8505 60.2746C24.8815 60.3321 24.897 60.3918 24.897 60.4537C24.897 60.5686 24.8572 60.6659 24.7776 60.7455C24.698 60.8251 24.6007 60.8649 24.4857 60.8649C24.3796 60.8649 24.2911 60.8318 24.2204 60.7654C23.6809 60.2923 23.0507 60.0557 22.3299 60.0557C21.534 60.0557 20.853 60.3387 20.2869 60.9047C19.7253 61.4663 19.4445 62.1473 19.4445 62.9477C19.4445 63.7481 19.7253 64.4291 20.2869 64.9907C20.853 65.5568 21.534 65.8398 22.3299 65.8398C22.6793 65.8398 23.0154 65.7757 23.3382 65.6474C23.6654 65.5192 23.9595 65.3467 24.2204 65.13C24.2867 65.077 24.3685 65.0504 24.4658 65.0504ZM32.1141 65.5744C32.8393 64.8492 33.2019 63.9736 33.2019 62.9477C33.2019 61.9218 32.8393 61.0462 32.1141 60.321C31.3889 59.5958 30.5133 59.2332 29.4874 59.2332C28.4614 59.2332 27.5859 59.5958 26.8606 60.321C26.1354 61.0462 25.7728 61.9218 25.7728 62.9477C25.7728 63.9736 26.1354 64.8492 26.8606 65.5744C27.5859 66.2997 28.4614 66.6623 29.4874 66.6623C30.5133 66.6623 31.3889 66.2997 32.1141 65.5744ZM27.4444 60.9047C28.0104 60.3387 28.6914 60.0557 29.4874 60.0557C30.2833 60.0557 30.9643 60.3387 31.5304 60.9047C32.092 61.4663 32.3728 62.1473 32.3728 62.9477C32.3728 63.7481 32.092 64.4291 31.5304 64.9907C30.9643 65.5568 30.2833 65.8398 29.4874 65.8398C28.6914 65.8398 28.0104 65.5568 27.4444 64.9907C26.8783 64.4247 26.5953 63.7437 26.5953 62.9477C26.5953 62.1517 26.8783 61.4707 27.4444 60.9047ZM34.0114 59.6444C34.0114 59.5294 34.0512 59.4322 34.1308 59.3526C34.2104 59.273 34.3077 59.2332 34.4227 59.2332C34.5377 59.2332 34.6349 59.273 34.7145 59.3526C34.7941 59.4322 34.8339 59.5294 34.8339 59.6444V60.5797C35.7316 59.682 36.6956 59.2332 37.726 59.2332C38.2787 59.2332 38.7519 59.3194 39.1455 59.4919C39.2162 59.5184 39.2803 59.5604 39.3378 59.6179C39.413 59.6931 39.4506 59.7904 39.4506 59.9097C39.4506 60.0247 39.4108 60.122 39.3312 60.2016C39.2516 60.2812 39.1543 60.321 39.0393 60.321C38.9686 60.321 38.9067 60.3077 38.8536 60.2812C38.5441 60.1309 38.1682 60.0557 37.726 60.0557C36.93 60.0557 36.249 60.3387 35.683 60.9047C35.1169 61.4663 34.8339 62.1473 34.8339 62.9477V66.251C34.8339 66.366 34.7941 66.4633 34.7145 66.5429C34.6349 66.6225 34.5377 66.6623 34.4227 66.6623C34.3077 66.6623 34.2104 66.6225 34.1308 66.5429C34.0512 66.4633 34.0114 66.366 34.0114 66.251V59.6444ZM45.8452 60.9047C46.2741 61.3337 46.5505 61.8776 46.6743 62.5365H40.9234C41.0561 61.8732 41.3347 61.3292 41.7592 60.9047C42.3252 60.3387 43.0062 60.0557 43.8022 60.0557C44.5982 60.0557 45.2792 60.3387 45.8452 60.9047ZM46.21 65.1897C46.1304 65.1057 46.0331 65.0637 45.9182 65.0637C45.8209 65.0637 45.7346 65.0947 45.6595 65.1566C45.403 65.3777 45.12 65.5479 44.8104 65.6673C44.5009 65.7823 44.1648 65.8398 43.8022 65.8398C43.0062 65.8398 42.3252 65.5568 41.7592 64.9907C41.3347 64.5662 41.0561 64.0223 40.9234 63.359H47.1055C47.2205 63.359 47.3178 63.3192 47.3974 63.2396C47.4769 63.16 47.5168 63.0627 47.5168 62.9477C47.5168 61.9218 47.1541 61.0462 46.4289 60.321C45.7037 59.5958 44.8281 59.2332 43.8022 59.2332C42.7763 59.2332 41.9007 59.5958 41.1755 60.321C40.4502 61.0462 40.0876 61.9218 40.0876 62.9477C40.0876 63.9736 40.4502 64.8492 41.1755 65.5744C41.9007 66.2997 42.7763 66.6623 43.8022 66.6623C44.7264 66.6623 45.5334 66.3638 46.2233 65.7668C46.294 65.6916 46.3294 65.5966 46.3294 65.4816C46.3294 65.3666 46.2896 65.2693 46.21 65.1897Z" fill="#162B40"/>
</svg>
