<svg xmlns="http://www.w3.org/2000/svg" xmlns:xlink="http://www.w3.org/1999/xlink" width="1000" height="700" viewBox="0 0 1000 700">
  <defs>
    <clipPath>
      <rect width="1000" height="700"/>
    </clipPath>
  </defs>
  <g clip-path="url(#clip-Social_Icon_-_Style_4)">
    <rect width="1000" height="700" fill="#fcfcff"/>
    <g transform="translate(309 189)" fill="#f2f2f2" stroke="#d5d5d5" stroke-width="1">
      <rect width="383" height="147" rx="10" stroke="none"/>
      <rect x="0.5" y="0.5" width="382" height="146" rx="9.5" fill="none"/>
    </g>
    <rect width="383" height="147" rx="10" transform="translate(309 365)" fill="#888"/>
    <g transform="translate(471.52 409.723)">
      <path d="M99.7,58.134V31.651h9.043l1.292-10.335H99.7V14.857c0-2.907.969-5.167,5.167-5.167h5.49V.323c-1.292,0-4.522-.323-8.074-.323C94.534,0,89.043,4.845,89.043,13.565v7.751H80V31.651h9.043V58.134Z" transform="translate(-66.209 0.003)" fill="#fff" fill-rule="evenodd"/>
    </g>
    <text transform="translate(381 284)" fill="#888" font-size="55" font-family="Roboto-Bold, Roboto" font-weight="700"><tspan x="0" y="0">Facebook</tspan></text>
  </g>
</svg>
