<svg xmlns="http://www.w3.org/2000/svg" xmlns:xlink="http://www.w3.org/1999/xlink" width="1000" height="700" viewBox="0 0 1000 700">
  <defs>
    <clipPath>
      <rect width="1000" height="700"/>
    </clipPath>
  </defs>
  <g clip-path="url(#clip-Social_Icon_-_Style_8)">
    <rect width="1000" height="700" fill="#fcfcff"/>
    <g transform="translate(260 245)" fill="#f2f2f2" stroke="#d5d5d5" stroke-width="1">
      <rect width="225" height="225" rx="112.5" stroke="none"/>
      <rect x="0.5" y="0.5" width="224" height="224" rx="112" fill="none"/>
    </g>
    <g transform="translate(525 245)" fill="#888" stroke="#888" stroke-width="1">
      <rect width="225" height="225" rx="10" stroke="none"/>
      <rect x="0.5" y="0.5" width="224" height="224" rx="9.5" fill="none"/>
    </g>
    <g transform="translate(337.52 317.997)">
      <path d="M106.916,79.424V43.242h12.355l1.765-14.12h-14.12V20.3c0-3.971,1.324-7.06,7.06-7.06h7.5V.441C119.712.441,115.3,0,110.446,0,99.856,0,92.355,6.619,92.355,18.532v10.59H80v14.12H92.355V79.424Z" transform="translate(-66.209 0.003)" fill="#888" fill-rule="evenodd"/>
    </g>
    <g transform="translate(602.52 309.997)">
      <path d="M106.916,79.424V43.242h12.355l1.765-14.12h-14.12V20.3c0-3.971,1.324-7.06,7.06-7.06h7.5V.441C119.712.441,115.3,0,110.446,0,99.856,0,92.355,6.619,92.355,18.532v10.59H80v14.12H92.355V79.424Z" transform="translate(-66.209 0.003)" fill="#fff" fill-rule="evenodd"/>
    </g>
  </g>
</svg>
