<svg xmlns="http://www.w3.org/2000/svg" xmlns:xlink="http://www.w3.org/1999/xlink" width="1000" height="700" viewBox="0 0 1000 700">
  <defs>
    <clipPath id="clip-Blockquote_Style_1">
      <rect width="1000" height="700"/>
    </clipPath>
  </defs>
  <g id="Blockquote_Style_1" data-name="Blockquote Style 1" clip-path="url(#clip-Blockquote_Style_1)">
    <rect width="1000" height="700" fill="#fcfcff"/>
    <rect id="Rectangle_602" data-name="Rectangle 602" width="800" height="500" transform="translate(100 100)" fill="#f2f2f2"/>
    <line id="Line_2" data-name="Line 2" x2="628.266" transform="translate(185.548 247.828)" fill="none" stroke="#d5d5d5" stroke-width="8"/>
    <line id="Line_3" data-name="Line 3" x2="628.266" transform="translate(185.548 291.509)" fill="none" stroke="#d5d5d5" stroke-width="8"/>
    <line id="Line_9" data-name="Line 9" x2="628.266" transform="translate(185.548 379.417)" fill="none" stroke="#d5d5d5" stroke-width="8"/>
    <line id="Line_4" data-name="Line 4" x2="555.26" transform="translate(185.548 335.189)" fill="none" stroke="#d5d5d5" stroke-width="8"/>
    <line id="Line_10" data-name="Line 10" x2="555.26" transform="translate(185.548 423.098)" fill="none" stroke="#d5d5d5" stroke-width="8"/>
    <line id="Line_6" data-name="Line 6" x2="196.079" transform="translate(617.362 495.314)" fill="none" stroke="#888" stroke-width="20"/>
    <g id="Quotes" transform="translate(186 58)">
      <path id="Path_7087" data-name="Path 7087" d="M67.08,82.627a4.038,4.038,0,0,1-2.545-.888l-27.8-22.606c-.973-.782-.723-1.973-.723-3.229V20.575c0-2.275,0-6.575,6.575-6.575H75.464c6.575,0,6.575,4.3,6.575,6.575V55.918c0,2.275-.191,4.11-2.466,4.11H64.851l6.1,17.116a4.114,4.114,0,0,1-3.873,5.484Z" transform="translate(23.167)" fill="#888"/>
      <path id="Path_7088" data-name="Path 7088" d="M32.713,82.627a4.038,4.038,0,0,1-2.545-.888L1.552,59.133A4.135,4.135,0,0,1,0,55.9V20.575C0,18.3,0,14,6.575,14H39.452c6.575,0,6.575,4.3,6.575,6.575V55.918c0,2.275,1.447,4.11-.822,4.11H30.483l6.1,17.116a4.114,4.114,0,0,1-3.873,5.484Z" fill="#888"/>
    </g>
  </g>
</svg>
