<svg width="36" height="36" viewBox="0 0 36 36" fill="none" xmlns="http://www.w3.org/2000/svg">
<path fill-rule="evenodd" clip-rule="evenodd" d="M31 6H5C4.44772 6 4 6.44772 4 7V14C4 14.5523 4.44772 15 5 15H31C31.5523 15 32 14.5523 32 14V7C32 6.44772 31.5523 6 31 6ZM5 4C3.34315 4 2 5.34315 2 7V14C2 15.6569 3.34315 17 5 17H31C32.6569 17 34 15.6569 34 14V7C34 5.34315 32.6569 4 31 4H5Z" fill="#5900E7"/>
<path fill-rule="evenodd" clip-rule="evenodd" d="M31 21H5C4.44772 21 4 21.4477 4 22V29C4 29.5523 4.44772 30 5 30H31C31.5523 30 32 29.5523 32 29V22C32 21.4477 31.5523 21 31 21ZM5 19C3.34315 19 2 20.3431 2 22V29C2 30.6569 3.34315 32 5 32H31C32.6569 32 34 30.6569 34 29V22C34 20.3431 32.6569 19 31 19H5Z" fill="#5900E7"/>
<path fill-rule="evenodd" clip-rule="evenodd" d="M6.29303 8.29275C6.68363 7.90231 7.3168 7.90243 7.70725 8.29303L9.99909 10.5858L12.293 8.29275C12.6836 7.90231 13.3168 7.90243 13.7072 8.29303C14.0977 8.68363 14.0976 9.3168 13.707 9.70725L10.7058 12.7072C10.5182 12.8947 10.2638 13.0001 9.99861 13C9.7334 12.9999 9.47907 12.8945 9.29157 12.707L6.29275 9.70697C5.90231 9.31637 5.90243 8.6832 6.29303 8.29275Z" fill="#1DD8A7"/>
<path fill-rule="evenodd" clip-rule="evenodd" d="M6.29303 23.2928C6.68363 22.9023 7.3168 22.9024 7.70725 23.293L9.99909 25.5858L12.293 23.2928C12.6836 22.9023 13.3168 22.9024 13.7072 23.293C14.0977 23.6836 14.0976 24.3168 13.707 24.7072L10.7058 27.7072C10.5182 27.8947 10.2638 28.0001 9.99861 28C9.7334 27.9999 9.47907 27.8945 9.29157 27.707L6.29275 24.707C5.90231 24.3164 5.90243 23.6832 6.29303 23.2928Z" fill="#1DD8A7"/>
</svg>
