<svg width="36" height="36" viewBox="0 0 36 36" fill="none" xmlns="http://www.w3.org/2000/svg">
<path fill-rule="evenodd" clip-rule="evenodd" d="M3 3H5V4.875H4.875V5H3V3ZM3 31V33H5V31.125H4.875V31H3ZM31 33H33V31H31.125V31.125H31V33ZM33 5V3H31V4.875H31.125V5H33ZM8.625 3V5H12.375V3H8.625ZM16.125 3V5H19.875V3H16.125ZM23.625 3V5H27.375V3H23.625ZM33 8.625H31V12.375H33V8.625ZM33 16.125H31V19.875H33V16.125ZM33 23.625H31V27.375H33V23.625ZM27.375 33V31H23.625V33H27.375ZM19.875 33V31H16.125V33H19.875ZM12.375 33V31H8.625V33H12.375ZM3 27.375H5V23.625H3V27.375ZM3 19.875H5V16.125H3V19.875ZM3 12.375H5V8.625H3V12.375ZM27 10H9L9 15H27V10ZM9 8C7.89543 8 7 8.89543 7 10V15C7 16.1046 7.89543 17 9 17H27C28.1046 17 29 16.1046 29 15V10C29 8.89543 28.1046 8 27 8H9ZM9 22H27V27H9L9 22ZM7 22C7 20.8954 7.89543 20 9 20H27C28.1046 20 29 20.8954 29 22V27C29 28.1046 28.1046 29 27 29H9C7.89543 29 7 28.1046 7 27V22Z" fill="#5900E7"/>
<path fill-rule="evenodd" clip-rule="evenodd" d="M11.067 11.1758C10.823 10.9415 10.4273 10.9414 10.1831 11.1757C9.93902 11.4099 9.93894 11.7898 10.183 12.0242L12.0572 13.8242C12.1744 13.9367 12.3334 14 12.4991 14C12.6649 14 12.8239 13.9368 12.9411 13.8243L14.8169 12.0243C15.061 11.7901 15.0611 11.4102 14.817 11.1758C14.573 10.9415 14.1773 10.9414 13.9331 11.1757L12.4994 12.5515L11.067 11.1758ZM11.067 23.1758C10.823 22.9415 10.4273 22.9414 10.1831 23.1757C9.93902 23.4099 9.93894 23.7898 10.183 24.0242L12.0572 25.8242C12.1744 25.9367 12.3334 26 12.4991 26C12.6649 26 12.8239 25.9368 12.9411 25.8243L14.8169 24.0243C15.061 23.7901 15.0611 23.4102 14.817 23.1758C14.573 22.9415 14.1773 22.9414 13.9331 23.1757L12.4994 24.5515L11.067 23.1758Z" fill="#1DD8A7"/>
</svg>
