<svg width="36" height="36" viewBox="0 0 36 36" fill="none" xmlns="http://www.w3.org/2000/svg">
<path fill-rule="evenodd" clip-rule="evenodd" d="M17 7C16.4477 7 16 7.44772 16 8V15H4C2.89543 15 2 15.8954 2 17V26C2 27.1046 2.89543 28 4 28H27C28.1046 28 29 27.1046 29 26V19H33C33.5523 19 34 18.5523 34 18V8C34 7.44772 33.5523 7 33 7H17ZM27 19H17C16.4477 19 16 18.5523 16 18V17H4V26H27V19ZM18 17V9H32V17H18ZM7 22C7 21.4477 7.44772 21 8 21H22C22.5523 21 23 21.4477 23 22C23 22.5523 22.5523 23 22 23H8C7.44772 23 7 22.5523 7 22ZM21 12C20.4477 12 20 12.4477 20 13C20 13.5523 20.4477 14 21 14H29C29.5523 14 30 13.5523 30 13C30 12.4477 29.5523 12 29 12H21Z" fill="#5900E7"/>
<path fill-rule="evenodd" clip-rule="evenodd" d="M27 7H31L30 9H26L27 7ZM11 15H15L14 17H10L11 15ZM31 19L32 17H28L27 19H31ZM19 7H22L21 9H18L19 7ZM8 15H5L4 17H7L8 15ZM20 17H23L22 19H19L20 17ZM9 28L10 26H6L5 28H9ZM13 28L14 26H18L17 28H13ZM26 26H22L21 28H25L26 26ZM2 19H4V23H2V19ZM18 11H16V15H18V11ZM32 11H34V15H32V11ZM29 21H27V25H29V21Z" fill="#1DD8A7"/>
</svg>
