<svg width="36" height="36" viewBox="0 0 36 36" fill="none" xmlns="http://www.w3.org/2000/svg">
<path fill-rule="evenodd" clip-rule="evenodd" d="M3 4C3.55228 4 4 4.44772 4 5V28C4 29.1046 4.89543 30 6 30H33C33.5523 30 34 30.4477 34 31C34 31.5523 33.5523 32 33 32H6C3.79086 32 2 30.2091 2 28V5C2 4.44772 2.44772 4 3 4Z" fill="#5900E7"/>
<path fill-rule="evenodd" clip-rule="evenodd" d="M28.6728 10.2601C29.0815 10.6316 29.1116 11.264 28.7401 11.6727L18.7401 22.6727C18.3686 23.0813 17.7361 23.1115 17.3275 22.7399L12.7135 18.5454L8.34813 25.53C8.05542 25.9983 7.43847 26.1407 6.97013 25.848C6.5018 25.5553 6.35943 24.9383 6.65214 24.47L11.6521 16.47C11.8092 16.2187 12.0697 16.0499 12.3634 16.0094C12.657 15.9689 12.9535 16.0607 13.1728 16.2601L17.9329 20.5874L27.2602 10.3273C27.6317 9.91868 28.2641 9.88856 28.6728 10.2601Z" fill="#1DD8A7"/>
</svg>
