<svg width="36" height="36" viewBox="0 0 36 36" fill="none" xmlns="http://www.w3.org/2000/svg">
<path fill-rule="evenodd" clip-rule="evenodd" d="M6 7C6.55228 7 7 6.55228 7 6C7 5.44772 6.55228 5 6 5C5.44772 5 5 5.44772 5 6C5 6.55228 5.44772 7 6 7ZM6 9C7.65685 9 9 7.65685 9 6C9 4.34315 7.65685 3 6 3C4.34315 3 3 4.34315 3 6C3 7.65685 4.34315 9 6 9Z" fill="#5900E7"/>
<path fill-rule="evenodd" clip-rule="evenodd" d="M6 31C6.55228 31 7 30.5523 7 30C7 29.4477 6.55228 29 6 29C5.44772 29 5 29.4477 5 30C5 30.5523 5.44772 31 6 31ZM6 33C7.65685 33 9 31.6569 9 30C9 28.3431 7.65685 27 6 27C4.34315 27 3 28.3431 3 30C3 31.6569 4.34315 33 6 33Z" fill="#5900E7"/>
<path fill-rule="evenodd" clip-rule="evenodd" d="M6 19C6.55228 19 7 18.5523 7 18C7 17.4477 6.55228 17 6 17C5.44772 17 5 17.4477 5 18C5 18.5523 5.44772 19 6 19ZM6 21C7.65685 21 9 19.6569 9 18C9 16.3431 7.65685 15 6 15C4.34315 15 3 16.3431 3 18C3 19.6569 4.34315 21 6 21Z" fill="#5900E7"/>
<path fill-rule="evenodd" clip-rule="evenodd" d="M30 7C30.5523 7 31 6.55228 31 6C31 5.44772 30.5523 5 30 5C29.4477 5 29 5.44772 29 6C29 6.55228 29.4477 7 30 7ZM30 9C31.6569 9 33 7.65685 33 6C33 4.34315 31.6569 3 30 3C28.3431 3 27 4.34315 27 6C27 7.65685 28.3431 9 30 9Z" fill="#5900E7"/>
<path fill-rule="evenodd" clip-rule="evenodd" d="M30 31C30.5523 31 31 30.5523 31 30C31 29.4477 30.5523 29 30 29C29.4477 29 29 29.4477 29 30C29 30.5523 29.4477 31 30 31ZM30 33C31.6569 33 33 31.6569 33 30C33 28.3431 31.6569 27 30 27C28.3431 27 27 28.3431 27 30C27 31.6569 28.3431 33 30 33Z" fill="#5900E7"/>
<path fill-rule="evenodd" clip-rule="evenodd" d="M30 19C30.5523 19 31 18.5523 31 18C31 17.4477 30.5523 17 30 17C29.4477 17 29 17.4477 29 18C29 18.5523 29.4477 19 30 19ZM30 21C31.6569 21 33 19.6569 33 18C33 16.3431 31.6569 15 30 15C28.3431 15 27 16.3431 27 18C27 19.6569 28.3431 21 30 21Z" fill="#5900E7"/>
<path fill-rule="evenodd" clip-rule="evenodd" d="M18 7C18.5523 7 19 6.55228 19 6C19 5.44772 18.5523 5 18 5C17.4477 5 17 5.44772 17 6C17 6.55228 17.4477 7 18 7ZM18 9C19.6569 9 21 7.65685 21 6C21 4.34315 19.6569 3 18 3C16.3431 3 15 4.34315 15 6C15 7.65685 16.3431 9 18 9Z" fill="#5900E7"/>
<path fill-rule="evenodd" clip-rule="evenodd" d="M18 31C18.5523 31 19 30.5523 19 30C19 29.4477 18.5523 29 18 29C17.4477 29 17 29.4477 17 30C17 30.5523 17.4477 31 18 31ZM18 33C19.6569 33 21 31.6569 21 30C21 28.3431 19.6569 27 18 27C16.3431 27 15 28.3431 15 30C15 31.6569 16.3431 33 18 33Z" fill="#5900E7"/>
<path fill-rule="evenodd" clip-rule="evenodd" d="M11 12C11 11.4477 11.4477 11 12 11H18H24C24.5523 11 25 11.4477 25 12V14C25 14.5523 24.5523 15 24 15C23.4477 15 23 14.5523 23 14V13H19L19 23H20C20.5523 23 21 23.4477 21 24C21 24.5523 20.5523 25 20 25H18H16C15.4477 25 15 24.5523 15 24C15 23.4477 15.4477 23 16 23H17L17 13H13V14C13 14.5523 12.5523 15 12 15C11.4477 15 11 14.5523 11 14V12Z" fill="#1DD8A7"/>
<path d="M29 22H31V26H29V22Z" fill="#5900E7"/>
<path d="M29 10H31V14H29V10Z" fill="#5900E7"/>
<path d="M5 10H7V14H5V10Z" fill="#5900E7"/>
<path d="M5 22H7V26H5V22Z" fill="#5900E7"/>
<path d="M14 29L14 31L10 31L10 29L14 29Z" fill="#5900E7"/>
<path d="M14 5L14 7L10 7L10 5L14 5Z" fill="#5900E7"/>
<path d="M26 29L26 31L22 31L22 29L26 29Z" fill="#5900E7"/>
<path d="M26 5L26 7L22 7L22 5L26 5Z" fill="#5900E7"/>
</svg>
