<svg width="36" height="36" viewBox="0 0 36 36" fill="none" xmlns="http://www.w3.org/2000/svg">
<path fill-rule="evenodd" clip-rule="evenodd" d="M17.0847 21.5911C16.4952 22.7101 16.1884 23.9882 16.0656 25.0031C15.9993 25.5514 15.5523 26 15 26C14.4477 26 14.0103 25.5495 13.935 25.0023C13.7285 23.5012 13.0551 22.581 12.2777 22.002C11.292 21.2679 10.0236 21 9 21C8.44772 21 8 20.5523 8 20C8 19.4477 8.44772 19 9 19C10.3097 19 12.0413 19.3321 13.4723 20.398C13.9769 20.7738 14.4312 21.2316 14.8109 21.7784C14.9555 21.4002 15.1228 21.0242 15.3153 20.6589C16.325 18.7422 18.1104 17 21 17C21.5523 17 22 17.4477 22 18C22 18.5523 21.5523 19 21 19C19.0896 19 17.875 20.0911 17.0847 21.5911Z" fill="#1DD8A7"/>
<path fill-rule="evenodd" clip-rule="evenodd" d="M24 20C25.1046 20 26 19.1046 26 18C26 16.8954 25.1046 16 24 16C22.8954 16 22 16.8954 22 18C22 19.1046 22.8954 20 24 20ZM24 22C26.2091 22 28 20.2091 28 18C28 15.7909 26.2091 14 24 14C21.7909 14 20 15.7909 20 18C20 20.2091 21.7909 22 24 22Z" fill="#1DD8A7"/>
<path fill-rule="evenodd" clip-rule="evenodd" d="M6 10C4.89543 10 4 10.8954 4 12V28C4 29.1046 4.89543 30 6 30H30C31.1046 30 32 29.1046 32 28V12C32 10.8954 31.1046 10 30 10H23.5476V8H30C32.2091 8 34 9.79086 34 12V28C34 30.2091 32.2091 32 30 32H6C3.79086 32 2 30.2091 2 28V12C2 9.79086 3.79086 8 6 8H23.5V10H6Z" fill="#5900E7"/>
</svg>
