<svg width="36" height="36" viewBox="0 0 36 36" fill="none" xmlns="http://www.w3.org/2000/svg">
<path fill-rule="evenodd" clip-rule="evenodd" d="M31.6008 2.20061C31.8521 2.3895 32 2.6856 32 3.00001V11.075C32 11.52 31.7059 11.9115 31.2785 12.0354L17.5659 16.0105L13.7759 17.1026C13.474 17.1896 13.1488 17.1296 12.8977 16.9407C12.6467 16.7518 12.499 16.4559 12.499 16.1417V8.06667C12.499 7.62149 12.7933 7.22992 13.2209 7.10612L30.7219 2.03945C31.0239 1.95202 31.3494 2.01171 31.6008 2.20061ZM14.499 8.81823V14.8128L17.0107 14.0891L30 10.3238V4.33058L14.499 8.81823Z" fill="#5900E7"/>
<path fill-rule="evenodd" clip-rule="evenodd" d="M31 10.075C31.5523 10.075 32 10.5227 32 11.075V24.5333C32 25.0856 31.5523 25.5333 31 25.5333C30.4477 25.5333 30 25.0856 30 24.5333V11.075C30 10.5227 30.4477 10.075 31 10.075Z" fill="#5900E7"/>
<path fill-rule="evenodd" clip-rule="evenodd" d="M26.7505 21.3083C24.9504 21.3083 23.501 22.7577 23.501 24.5333C23.501 26.309 24.9504 27.7583 26.7505 27.7583C28.5506 27.7583 30 26.309 30 24.5333C30 22.7577 28.5506 21.3083 26.7505 21.3083ZM21.501 24.5333C21.501 21.6422 23.8567 19.3083 26.7505 19.3083C29.6442 19.3083 32 21.6422 32 24.5333C32 27.4245 29.6442 29.7583 26.7505 29.7583C23.8567 29.7583 21.501 27.4245 21.501 24.5333Z" fill="#1DD8A7"/>
<path fill-rule="evenodd" clip-rule="evenodd" d="M13.499 14.3167C14.0513 14.3167 14.499 14.7644 14.499 15.3167V28.775C14.499 29.3273 14.0513 29.775 13.499 29.775C12.9467 29.775 12.499 29.3273 12.499 28.775V15.3167C12.499 14.7644 12.9467 14.3167 13.499 14.3167Z" fill="#5900E7"/>
<path fill-rule="evenodd" clip-rule="evenodd" d="M9.24951 25.55C7.44939 25.55 6 26.9994 6 28.775C6 30.5507 7.44939 32 9.24951 32C11.0496 32 12.499 30.5507 12.499 28.775C12.499 26.9994 11.0496 25.55 9.24951 25.55ZM4 28.775C4 25.8839 6.35575 23.55 9.24951 23.55C12.1433 23.55 14.499 25.8839 14.499 28.775C14.499 31.6662 12.1433 34 9.24951 34C6.35575 34 4 31.6662 4 28.775Z" fill="#1DD8A7"/>
</svg>
