<svg width="36" height="36" viewBox="0 0 36 36" fill="none" xmlns="http://www.w3.org/2000/svg">
<path fill-rule="evenodd" clip-rule="evenodd" d="M19 4C19 3.44772 18.5523 3 18 3C17.4477 3 17 3.44772 17 4V32C17 32.5523 17.4477 33 18 33C18.5523 33 19 32.5523 19 32V4ZM6 6C4.34315 6 3 7.34315 3 9V27C3 28.6569 4.34315 30 6 30H14C14.5523 30 15 29.5523 15 29C15 28.4477 14.5523 28 14 28H6C5.44771 28 5 27.5523 5 27V9C5 8.44772 5.44772 8 6 8H14C14.5523 8 15 7.55228 15 7C15 6.44772 14.5523 6 14 6H6Z" fill="#5900E7"/>
<path fill-rule="evenodd" clip-rule="evenodd" d="M23 7C23 7.55228 22.5523 8 22 8C21.4477 8 21 7.55228 21 7C21 6.44772 21.4477 6 22 6C22.5523 6 23 6.44772 23 7ZM23 29C23 29.5523 22.5523 30 22 30C21.4477 30 21 29.5523 21 29C21 28.4477 21.4477 28 22 28C22.5523 28 23 28.4477 23 29ZM25 8C25.5523 8 26 7.55228 26 7C26 6.44772 25.5523 6 25 6C24.4477 6 24 6.44772 24 7C24 7.55228 24.4477 8 25 8ZM26 29C26 29.5523 25.5523 30 25 30C24.4477 30 24 29.5523 24 29C24 28.4477 24.4477 28 25 28C25.5523 28 26 28.4477 26 29ZM28 8C28.5523 8 29 7.55228 29 7C29 6.44772 28.5523 6 28 6C27.4477 6 27 6.44772 27 7C27 7.55228 27.4477 8 28 8ZM29 29C29 29.5523 28.5523 30 28 30C27.4477 30 27 29.5523 27 29C27 28.4477 27.4477 28 28 28C28.5523 28 29 28.4477 29 29ZM31 8C31.5523 8 32 7.55228 32 7C32 6.44772 31.5523 6 31 6C30.4477 6 30 6.44772 30 7C30 7.55228 30.4477 8 31 8ZM32 29C32 29.5523 31.5523 30 31 30C30.4477 30 30 29.5523 30 29C30 28.4477 30.4477 28 31 28C31.5523 28 32 28.4477 32 29ZM32 11C32.5523 11 33 10.5523 33 10C33 9.44772 32.5523 9 32 9C31.4477 9 31 9.44772 31 10C31 10.5523 31.4477 11 32 11ZM33 14C33 14.5523 32.5523 15 32 15C31.4477 15 31 14.5523 31 14C31 13.4477 31.4477 13 32 13C32.5523 13 33 13.4477 33 14ZM32 19C32.5523 19 33 18.5523 33 18C33 17.4477 32.5523 17 32 17C31.4477 17 31 17.4477 31 18C31 18.5523 31.4477 19 32 19ZM33 22C33 22.5523 32.5523 23 32 23C31.4477 23 31 22.5523 31 22C31 21.4477 31.4477 21 32 21C32.5523 21 33 21.4477 33 22ZM32 27C32.5523 27 33 26.5523 33 26C33 25.4477 32.5523 25 32 25C31.4477 25 31 25.4477 31 26C31 26.5523 31.4477 27 32 27Z" fill="#1DD8A7"/>
</svg>
