<svg width="36" height="36" viewBox="0 0 36 36" fill="none" xmlns="http://www.w3.org/2000/svg">
<path fill-rule="evenodd" clip-rule="evenodd" d="M17.8553 3.99765C17.9293 4.54731 17.5431 5.04959 16.9998 5.16108C13.8077 5.8161 10.9044 7.50098 8.74 9.9733C6.57363 12.4478 5.27961 15.5604 5.04046 18.8299C5.00017 19.3807 4.55269 19.8258 4.00039 19.8219C3.44815 19.8179 3.00062 19.3666 3.03663 18.8155C3.28192 15.0615 4.75406 11.483 7.23866 8.64491C9.72064 5.80985 13.06 3.88842 16.7281 3.16524C17.2734 3.05775 17.7812 3.44689 17.8553 3.99765Z" fill="#1DD8A7"/>
<rect x="4" y="17.9202" width="13" height="13.0798" rx="2" stroke="#5900E7" stroke-width="2"/>
<path fill-rule="evenodd" clip-rule="evenodd" d="M33.8553 3.99765C33.9293 4.54731 33.5431 5.04959 32.9998 5.16108C29.8077 5.8161 26.9044 7.50098 24.74 9.9733C22.5736 12.4478 21.2796 15.5604 21.0405 18.8299C21.0002 19.3807 20.5527 19.8258 20.0004 19.8219C19.4481 19.8179 19.0006 19.3666 19.0366 18.8155C19.2819 15.0615 20.7541 11.483 23.2387 8.64491C25.7206 5.80985 29.06 3.88842 32.7281 3.16524C33.2734 3.05775 33.7812 3.44689 33.8553 3.99765Z" fill="#1DD8A7"/>
<rect x="20" y="17.9202" width="13" height="13.0798" rx="2" stroke="#5900E7" stroke-width="2"/>
</svg>
