<svg width="36" height="36" viewBox="0 0 36 36" fill="none" xmlns="http://www.w3.org/2000/svg">
<path fill-rule="evenodd" clip-rule="evenodd" d="M24.2393 7.04244C24.769 6.88374 25.3273 7.18392 25.4862 7.71292L28.404 17.4256C28.5166 17.8004 28.5166 18.2001 28.404 18.575L25.4862 28.2876C25.3273 28.8166 24.769 29.1168 24.2393 28.9581C23.7096 28.7994 23.409 28.2419 23.5679 27.7129L26.4857 18.0003L23.5679 8.28761C23.409 7.75862 23.7096 7.20113 24.2393 7.04244Z" fill="#1DD8A7"/>
<path fill-rule="evenodd" clip-rule="evenodd" d="M29.751 7.04244C30.2807 6.88374 30.839 7.18392 30.9979 7.71292L33.9157 17.4256C34.0283 17.8004 34.0283 18.2001 33.9157 18.575L30.9979 28.2876C30.839 28.8166 30.2807 29.1168 29.751 28.9581C29.2213 28.7994 28.9207 28.2419 29.0796 27.7129L31.9974 18.0003L29.0796 8.28761C28.9207 7.75862 29.2213 7.20113 29.751 7.04244Z" fill="#1DD8A7"/>
<path fill-rule="evenodd" clip-rule="evenodd" d="M16.8987 9H5C4.44772 9 4 9.44772 4 10V26C4 26.5523 4.44772 27 5 27H16.8987C17.3192 27 17.6948 26.7369 17.8385 26.3417L20.7476 18.3417C20.8279 18.121 20.8279 17.879 20.7476 17.6583L17.8385 9.65826C17.6948 9.26307 17.3192 9 16.8987 9ZM5 7C3.34315 7 2 8.34315 2 10V26C2 27.6569 3.34315 29 5 29H16.8987C18.1602 29 19.287 28.2108 19.7181 27.0252L22.6272 19.0252C22.868 18.363 22.868 17.637 22.6272 16.9748L19.7181 8.97477C19.287 7.7892 18.1602 7 16.8987 7H5Z" fill="#5900E7"/>
</svg>
