<svg width="36" height="36" viewBox="0 0 36 36" fill="none" xmlns="http://www.w3.org/2000/svg">
<path fill-rule="evenodd" clip-rule="evenodd" d="M2 8.03046C2 5.8045 3.79086 4 6 4H30C32.2091 4 34 5.8045 34 8.03046V16.0914C34 18.3174 32.2091 20.1219 30 20.1219H26L25 18.1066H30C31.1046 18.1066 32 17.2044 32 16.0914V8.03046C32 6.91748 31.1046 6.01523 30 6.01523H6C4.89543 6.01523 4 6.91748 4 8.03046V16.0914C4 17.2044 4.89543 18.1066 6 18.1066H17V20.1219H6C3.79086 20.1219 2 18.3174 2 16.0914V8.03046Z" fill="#1DD8A7"/>
<rect x="9" y="11.0533" width="18" height="2.00798" rx="1.00399" fill="#1DD8A7"/>
<path fill-rule="evenodd" clip-rule="evenodd" d="M15.1136 17.7998C14.5652 16.1881 16.0959 14.6457 17.6955 15.1983L30.415 19.5925C32.3042 20.2451 32.2241 22.9645 30.2998 23.5031L24.8653 25.0242L23.3557 30.5001C22.8211 32.439 20.1223 32.5198 19.4746 30.6162L15.1136 17.7998ZM18.0185 17.4749C17.6187 17.3368 17.236 17.7224 17.3731 18.1253L20.8657 28.3897C21.0276 28.8656 21.7023 28.8454 21.8359 28.3607L23.2143 23.3607L28.1765 21.9718C28.6576 21.8372 28.6776 21.1573 28.2053 20.9941L18.0185 17.4749Z" fill="#5900E7"/>
</svg>
