<svg width="36" height="36" viewBox="0 0 36 36" fill="none" xmlns="http://www.w3.org/2000/svg">
<circle cx="13" cy="31" r="1" fill="#1DD8A7"/>
<circle cx="23" cy="31" r="1" fill="#1DD8A7"/>
<circle cx="18" cy="31" r="1" fill="#1DD8A7"/>
<path fill-rule="evenodd" clip-rule="evenodd" d="M25 6H11C10.4477 6 10 6.44772 10 7V25C10 25.5523 10.4477 26 11 26H25C25.5523 26 26 25.5523 26 25V7C26 6.44772 25.5523 6 25 6ZM11 4C9.34315 4 8 5.34315 8 7V25C8 26.6569 9.34315 28 11 28H25C26.6569 28 28 26.6569 28 25V7C28 5.34315 26.6569 4 25 4H11Z" fill="#5900E7"/>
<path fill-rule="evenodd" clip-rule="evenodd" d="M29.2947 15.7073C28.9041 15.3169 28.9039 14.6837 29.2943 14.2931C29.6847 13.9025 30.3179 13.9023 30.7085 14.2927L33.7028 17.2852C33.7055 17.2879 33.7082 17.2906 33.7109 17.2933C34.1012 17.684 34.1009 18.3172 33.7101 18.7075L30.7067 21.7075C30.316 22.0978 29.6828 22.0975 29.2925 21.7067C28.9022 21.316 28.9026 20.6828 29.2933 20.2925L31.5886 17.9998L29.2947 15.7073Z" fill="#1DD8A7"/>
<path fill-rule="evenodd" clip-rule="evenodd" d="M6.7087 15.7073C7.09933 15.3169 7.09951 14.6837 6.7091 14.2931C6.31869 13.9025 5.68552 13.9023 5.29489 14.2927L2.30066 17.2852C2.29792 17.2879 2.2952 17.2906 2.29249 17.2933C1.90219 17.684 1.90255 18.3172 2.2933 18.7075L5.29673 21.7075C5.68747 22.0978 6.32064 22.0975 6.71094 21.7067C7.10124 21.316 7.10088 20.6828 6.71013 20.2925L4.41486 17.9998L6.7087 15.7073Z" fill="#1DD8A7"/>
</svg>
