<svg width="36" height="36" viewBox="0 0 36 36" fill="none" xmlns="http://www.w3.org/2000/svg">
<path fill-rule="evenodd" clip-rule="evenodd" d="M18 29C24.0751 29 29 24.0751 29 18C29 11.9249 24.0751 7 18 7C11.9249 7 7 11.9249 7 18C7 24.0751 11.9249 29 18 29ZM18 31C25.1797 31 31 25.1797 31 18C31 10.8203 25.1797 5 18 5C10.8203 5 5 10.8203 5 18C5 25.1797 10.8203 31 18 31Z" fill="#5900E7"/>
<path fill-rule="evenodd" clip-rule="evenodd" d="M30 20C31.1046 20 32 19.1046 32 18C32 16.8954 31.1046 16 30 16C28.8954 16 28 16.8954 28 18C28 19.1046 28.8954 20 30 20ZM30 22C32.2091 22 34 20.2091 34 18C34 15.7909 32.2091 14 30 14C27.7909 14 26 15.7909 26 18C26 20.2091 27.7909 22 30 22Z" fill="#1DD8A7"/>
<path fill-rule="evenodd" clip-rule="evenodd" d="M6 20C7.10457 20 8 19.1046 8 18C8 16.8954 7.10457 16 6 16C4.89543 16 4 16.8954 4 18C4 19.1046 4.89543 20 6 20ZM6 22C8.20914 22 10 20.2091 10 18C10 15.7909 8.20914 14 6 14C3.79086 14 2 15.7909 2 18C2 20.2091 3.79086 22 6 22Z" fill="#1DD8A7"/>
<path fill-rule="evenodd" clip-rule="evenodd" d="M18 8C19.1046 8 20 7.10457 20 6C20 4.89543 19.1046 4 18 4C16.8954 4 16 4.89543 16 6C16 7.10457 16.8954 8 18 8ZM18 10C20.2091 10 22 8.20914 22 6C22 3.79086 20.2091 2 18 2C15.7909 2 14 3.79086 14 6C14 8.20914 15.7909 10 18 10Z" fill="#1DD8A7"/>
<path fill-rule="evenodd" clip-rule="evenodd" d="M18 32C19.1046 32 20 31.1046 20 30C20 28.8954 19.1046 28 18 28C16.8954 28 16 28.8954 16 30C16 31.1046 16.8954 32 18 32ZM18 34C20.2091 34 22 32.2091 22 30C22 27.7909 20.2091 26 18 26C15.7909 26 14 27.7909 14 30C14 32.2091 15.7909 34 18 34Z" fill="#1DD8A7"/>
</svg>
