<svg xmlns="http://www.w3.org/2000/svg" width="166.667" height="200" viewBox="0 0 166.667 200"><g transform="translate(-10 0)"><path d="M125.333,142.667h-60A3.343,3.343,0,0,1,62,139.333v-65.6a3.313,3.313,0,0,1,.68-2.007l10.86-14.4A3.331,3.331,0,0,1,76.2,56h49.133a3.339,3.339,0,0,1,3.333,3.333v80A3.343,3.343,0,0,1,125.333,142.667ZM68.667,136H122V62.667H77.86l-9.193,12.18Z" transform="translate(34.667 37.333)" fill="#8072fc"/><path d="M77.333,74.667h-10a3.333,3.333,0,1,1,0-6.667H74V61.333a3.333,3.333,0,1,1,6.667,0v10A3.343,3.343,0,0,1,77.333,74.667Z" transform="translate(36 38.667)" fill="#8072fc"/><path d="M130.667,134.667h-10a3.333,3.333,0,1,1,0-6.667h6.667V54.667H80.667v6.667a3.333,3.333,0,1,1-6.667,0v-10A3.339,3.339,0,0,1,77.333,48h53.333A3.339,3.339,0,0,1,134,51.333v80A3.343,3.343,0,0,1,130.667,134.667Z" transform="translate(42.667 32)" fill="#8072fc"/><path d="M96.667,200H13.333A3.339,3.339,0,0,1,10,196.667V49.853a3.336,3.336,0,0,1,.913-2.293L55.007,1.04A3.323,3.323,0,0,1,57.427,0H160a3.339,3.339,0,0,1,3.333,3.333V60a3.333,3.333,0,1,1-6.667,0V6.667H58.86L16.667,51.18V193.333h80a3.333,3.333,0,1,1,0,6.667Z" transform="translate(0 0)" fill="#8072fc"/><path d="M58.667,52H15.333a3.333,3.333,0,0,1,0-6.667h40v-40a3.333,3.333,0,0,1,6.667,0V48.667A3.335,3.335,0,0,1,58.667,52Z" transform="translate(1.333 1.333)" fill="#8072fc"/></g></svg>