<svg width="36" height="36" viewBox="0 0 36 36" fill="none" xmlns="http://www.w3.org/2000/svg">
<path fill-rule="evenodd" clip-rule="evenodd" d="M30 5H6C5.44772 5 5 5.44772 5 6V10H31V6C31 5.44772 30.5523 5 30 5ZM33 10V6C33 4.34315 31.6569 3 30 3H6C4.34315 3 3 4.34315 3 6V10V12V30C3 31.6569 4.34315 33 6 33H30C31.6569 33 33 31.6569 33 30V12V10ZM31 12H5V30C5 30.5523 5.44772 31 6 31H30C30.5523 31 31 30.5523 31 30V12Z" fill="#5900E7"/>
<rect x="7.5" y="6.5" width="3" height="1" rx="0.5" fill="#D9D9D9" stroke="#1DD8A7"/>
<rect x="13.5" y="6.5" width="3" height="1" rx="0.5" fill="#D9D9D9" stroke="#1DD8A7"/>
<path fill-rule="evenodd" clip-rule="evenodd" d="M7.20006 21.4C7.53143 20.9582 8.15823 20.8686 8.60006 21.2L12.6001 24.2C13.0419 24.5314 13.1314 25.1582 12.8001 25.6C12.4687 26.0418 11.8419 26.1314 11.4001 25.8L7.40006 22.8C6.95823 22.4686 6.86869 21.8418 7.20006 21.4Z" fill="#1DD8A7"/>
<path fill-rule="evenodd" clip-rule="evenodd" d="M12.7071 17.2929C13.0976 17.6834 13.0976 18.3166 12.7071 18.7071L8.70711 22.7071C8.31658 23.0976 7.68342 23.0976 7.29289 22.7071C6.90237 22.3166 6.90237 21.6834 7.29289 21.2929L11.2929 17.2929C11.6834 16.9024 12.3166 16.9024 12.7071 17.2929Z" fill="#1DD8A7"/>
<path fill-rule="evenodd" clip-rule="evenodd" d="M28.7999 21.4C28.4686 20.9582 27.8418 20.8686 27.3999 21.2L23.3999 24.2C22.9581 24.5314 22.8686 25.1582 23.1999 25.6C23.5313 26.0418 24.1581 26.1314 24.5999 25.8L28.5999 22.8C29.0418 22.4686 29.1313 21.8418 28.7999 21.4Z" fill="#1DD8A7"/>
<path fill-rule="evenodd" clip-rule="evenodd" d="M23.2929 17.2929C22.9024 17.6834 22.9024 18.3166 23.2929 18.7071L27.2929 22.7071C27.6834 23.0976 28.3166 23.0976 28.7071 22.7071C29.0976 22.3166 29.0976 21.6834 28.7071 21.2929L24.7071 17.2929C24.3166 16.9024 23.6834 16.9024 23.2929 17.2929Z" fill="#1DD8A7"/>
<path fill-rule="evenodd" clip-rule="evenodd" d="M21.2722 15.4049C21.7771 15.6285 22.0052 16.2192 21.7816 16.7242L17.2335 26.995C17.0099 27.5 16.4193 27.7281 15.9143 27.5044C15.4093 27.2808 15.1812 26.6902 15.4048 26.1852L19.9529 15.9144C20.1765 15.4094 20.7672 15.1813 21.2722 15.4049Z" fill="#1DD8A7"/>
</svg>
