<svg fill="none" xmlns="http://www.w3.org/2000/svg" viewBox="0 0 36 36"><path fill-rule="evenodd" clip-rule="evenodd" d="M9 5H5v4h4V5ZM5 3a2 2 0 0 0-2 2v6h8V3H5Zm26 2h-4v4h4V5Zm-4-2h-2v8h8V5a2 2 0 0 0-2-2h-4ZM5 27h4v4H5v-4Zm-2-2h8v8H5a2 2 0 0 1-2-2v-6Zm28 2h-4v4h4v-4Zm-4-2h-2v8h6a2 2 0 0 0 2-2v-6h-6ZM16 5h4v13h-4V5Zm-2-2h8v17h-8V3Z" fill="#5900E7"/><path fill-rule="evenodd" clip-rule="evenodd" d="M9 16H5v4h4v-4Zm-4-2H3v8h8v-8H5Zm26 2h-4v4h4v-4Zm-4-2h-2v8h8v-8h-6Zm-8.653 6.062a.995.995 0 0 1 .345.216l2.99 2.793a1 1 0 0 1-1.364 1.462L19 23.303V32a1 1 0 0 1-2 0v-8.697l-1.317 1.23a1 1 0 0 1-1.366-1.46l3-2.804a1 1 0 0 1 1.03-.207Z" fill="#1DD8A7"/></svg>