<svg width="36" height="36" viewBox="0 0 36 36" fill="none" xmlns="http://www.w3.org/2000/svg">
<path fill-rule="evenodd" clip-rule="evenodd" d="M31 5H5L5 31H31V5ZM5 3C3.89543 3 3 3.89543 3 5V31C3 32.1046 3.89543 33 5 33H31C32.1046 33 33 32.1046 33 31V5C33 3.89543 32.1046 3 31 3H5Z" fill="#5900E7"/>
<path fill-rule="evenodd" clip-rule="evenodd" d="M9 15.0019L9.00073 15.0006L9 15H9.00108L9.00256 14.9974L9 14.9989V15L8.99939 14.9993L8.99813 15L8.13383 15.5001C8.04871 15.353 8 15.1822 8 15V14H9H10L10 15V16H9C8.81782 16 8.64703 15.9513 8.49992 15.8662L9 15.0019ZM26 16V15V14H27H28V15C28 15.1822 27.9513 15.353 27.8662 15.5001L27.0019 15L27.0006 14.9993L27 15V14.9989L26.9974 14.9974L26.9989 15H27L26.9993 15.0006L27 15.0019L27.5001 15.8662C27.353 15.9513 27.1822 16 27 16H26ZM28 10H27H26V9V8H27C27.1822 8 27.353 8.04871 27.5001 8.13383L27 8.99813L26.9993 8.99939L27 9H26.9989L26.9974 9.00256L27 9.00108V9L27.0006 9.00073L27.0019 9L27.8662 8.49992C27.9513 8.64703 28 8.81782 28 9V10ZM10 8H9C8.81782 8 8.64702 8.04871 8.49992 8.13383L9 8.99813L9.00073 8.99939L9 9L8.99939 9.00073L8.99813 9L8.13383 8.49992C8.04871 8.64702 8 8.81782 8 9V10H9H10V9V8ZM9 9H9.00108L9.00256 9.00256L9 9.00108V9ZM8 13H9H10V11H9H8V13ZM11 8V9V10H13V9V8H11ZM14 8V9V10H16V9V8H14ZM17 8V9V10H19V9V8H17ZM20 8V9V10H22V9V8H20ZM23 8V9V10H25V9V8H23ZM28 11H27H26V13H27H28V11ZM25 16V15V14H23V15V16H25ZM22 16V15V14H20V15V16H22ZM19 16V15V14H17V15V16H19ZM16 16V15V14H14V15V16H16ZM13 16V15V14H11V15V16H13ZM9 27.0019L9.00073 27.0006L9 27H9.00108L9.00256 26.9974L9 26.9989L9 27L8.99939 26.9993L8.99813 27L8.13383 27.5001C8.04871 27.353 8 27.1822 8 27V25.8333H9H10V26H10.1667V27V28H9C8.81782 28 8.64702 27.9513 8.49992 27.8662L9 27.0019ZM14.8333 28V27V26H15V25.8333H16H17V27C17 27.1822 16.9513 27.353 16.8662 27.5001L16.0019 27L16.0006 26.9993L16 27V26.9989L15.9974 26.9974L15.9989 27H16L15.9993 27.0006L16 27.0019L16.5001 27.8662C16.353 27.9513 16.1822 28 16 28H14.8333ZM17 21.1667H16H15V21H14.8333V20V19H16C16.1822 19 16.353 19.0487 16.5001 19.1338L16 19.9981L15.9993 19.9994L16 20H15.9989L15.9974 20.0026L16 20.0011V20L16.0006 20.0007L16.0019 20L16.8662 19.4999C16.9513 19.647 17 19.8178 17 20V21.1667ZM10.1667 19H9C8.81782 19 8.64702 19.0487 8.49992 19.1338L9 19.9981L9.00073 19.9994L9 20L8.99939 20.0007L8.99813 20L8.13383 19.4999C8.04871 19.647 8 19.8178 8 20V21.1667H9H10V21H10.1667V20V19ZM9 20H9.00108L9.00256 20.0026L9 20.0011V20ZM8 24.6667H9H10V22.3333H9H8V24.6667ZM11.3333 19V20V21H13.6667V20V19H11.3333ZM17 22.3333H16H15V24.6667H16H17V22.3333ZM13.6667 28V27V26H11.3333V27V28H13.6667ZM20.0007 27.0006L20 27.0019L19.4999 27.8662C19.647 27.9513 19.8178 28 20 28H21.1667V27V26H21V25.8333H20H19V27C19 27.1822 19.0487 27.353 19.1338 27.5001L19.9981 27L19.9994 26.9993L20 27L20.0007 27.0006ZM20 27V26.9989L20.0026 26.9974L20.0011 27H20ZM25.8333 27V28H27C27.1822 28 27.353 27.9513 27.5001 27.8662L27 27.0019L26.9993 27.0006L27 27L27.0006 26.9993L27.0019 27L27.8662 27.5001C27.9513 27.353 28 27.1822 28 27V25.8333H27H26V26H25.8333V27ZM27 27H26.9989L26.9974 26.9974L27 26.9989V27ZM27 21.1667H28V20C28 19.8178 27.9513 19.647 27.8662 19.4999L27.0019 20L27.0006 20.0007L27 20L26.9993 19.9994L27 19.9981L27.5001 19.1338C27.353 19.0487 27.1822 19 27 19H25.8333V20V21H26V21.1667H27ZM27 20V20.0011L26.9974 20.0026L26.9989 20H27ZM20 19H21.1667V20V21H21V21.1667H20H19V20C19 19.8178 19.0487 19.647 19.1338 19.4999L19.9981 20L19.9994 20.0007L20 20V20.0011L20.0026 20.0026L20.0011 20H20L20.0007 19.9994L20 19.9981L19.4999 19.1338C19.647 19.0487 19.8178 19 20 19ZM20 24.6667H19V22.3333H20H21V24.6667H20ZM22.3333 20V19H24.6667V20V21H22.3333V20ZM27 22.3333H28V24.6667H27H26V22.3333H27ZM24.6667 27V28H22.3333V27V26H24.6667V27Z" fill="#1DD8A7"/>
</svg>
