<svg width="36" height="36" viewBox="0 0 36 36" fill="none" xmlns="http://www.w3.org/2000/svg">
<rect width="2.00699" height="9.03146" rx="1.0035" transform="matrix(-0.709562 0.704643 -0.709562 -0.704643 34 10.864)" fill="#1DD8A7"/>
<rect x="17.1047" y="9.5" width="2.01396" height="10" rx="1.00698" fill="#1DD8A7"/>
<rect x="27.1746" y="17.5" width="2" height="10.0698" rx="1" transform="rotate(90 27.1746 17.5)" fill="#1DD8A7"/>
<rect width="2.00699" height="9.03146" rx="1.0035" transform="matrix(0.709562 0.704643 0.709562 -0.704643 2 10.864)" fill="#1DD8A7"/>
<path fill-rule="evenodd" clip-rule="evenodd" d="M18.1117 29.5C24.2293 29.5 29.1885 24.5751 29.1885 18.5C29.1885 12.4249 24.2293 7.5 18.1117 7.5C11.9942 7.5 7.03496 12.4249 7.03496 18.5C7.03496 24.5751 11.9942 29.5 18.1117 29.5ZM18.1117 31.5C25.3415 31.5 31.2025 25.6797 31.2025 18.5C31.2025 11.3203 25.3415 5.5 18.1117 5.5C10.8819 5.5 5.021 11.3203 5.021 18.5C5.021 25.6797 10.8819 31.5 18.1117 31.5Z" fill="#5900E7"/>
</svg>
