<svg width="36" height="36" viewBox="0 0 36 36" fill="none" xmlns="http://www.w3.org/2000/svg">
<path fill-rule="evenodd" clip-rule="evenodd" d="M11 9H4C2.89543 9 2 9.89543 2 11V13.5C3.42222 13.5 6.26667 14.4 6.26667 18C6.26667 21.6 3.42222 22.5 2 22.5V25C2 26.1046 2.89543 27 4 27H11L12.5 25.5L14 27H32C33.1046 27 34 26.1046 34 25V22.5C32.5778 22.5 29.7333 21.6 29.7333 18C29.7333 14.4 32.5778 13.5 34 13.5V11C34 9.89543 33.1046 9 32 9H14L12.5 10.5L11 9ZM14.8284 11L13.5607 12.2678C12.9749 12.8536 12.0251 12.8536 11.4393 12.2678L10.1716 11H4V11.831C4.62631 12.0362 5.27387 12.3498 5.8762 12.8072C7.27665 13.8707 8.26667 15.5919 8.26667 18C8.26667 20.4081 7.27665 22.1293 5.8762 23.1928C5.27387 23.6502 4.62631 23.9638 4 24.169V25H10.1716L11.4393 23.7322C12.0251 23.1464 12.9749 23.1464 13.5607 23.7322L14.8284 25H32V24.169C31.3737 23.9638 30.7261 23.6502 30.1238 23.1928C28.7234 22.1293 27.7333 20.4081 27.7333 18C27.7333 15.5919 28.7234 13.8707 30.1238 12.8072C30.7261 12.3498 31.3737 12.0362 32 11.831V11H14.8284Z" fill="#5900E7"/>
<path fill-rule="evenodd" clip-rule="evenodd" d="M12.5 14C13.0523 14 13.5 14.4477 13.5 15L13.5 16.5C13.5 17.0523 13.0523 17.5 12.5 17.5C11.9477 17.5 11.5 17.0523 11.5 16.5L11.5 15C11.5 14.4477 11.9477 14 12.5 14ZM12.5 18.5C13.0523 18.5 13.5 18.9477 13.5 19.5L13.5 21C13.5 21.5523 13.0523 22 12.5 22C11.9477 22 11.5 21.5523 11.5 21L11.5 19.5C11.5 18.9477 11.9477 18.5 12.5 18.5Z" fill="#1DD8A7"/>
</svg>
