<svg width="36" height="36" viewBox="0 0 36 36" fill="none" xmlns="http://www.w3.org/2000/svg">
<path fill-rule="evenodd" clip-rule="evenodd" d="M2 7.93419C2 5.7614 3.79086 4 6 4H30C32.2091 4 34 5.7614 34 7.93419V13.8482C34 16.021 32.2091 17.7824 30 17.7824H25V15.8153H30C31.1046 15.8153 32 14.9346 32 13.8482V7.93419C32 6.84779 31.1046 5.96709 30 5.96709H6C4.89543 5.96709 4 6.84779 4 7.93419V13.8482C4 14.9346 4.89543 15.8153 6 15.8153H16.5V17.7824H6C3.79086 17.7824 2 16.021 2 13.8482V7.93419Z" fill="#1DD8A7"/>
<rect x="20" y="7.91718" width="10" height="3.91716" rx="1.5" fill="#1DD8A7"/>
<rect x="6" y="8.89648" width="12" height="1.95858" rx="0.979291" fill="#1DD8A7"/>
<path fill-rule="evenodd" clip-rule="evenodd" d="M30.8459 23.068L16.6539 10.7598L16.864 29.3847L21.4791 24.5773C22.1939 23.8327 23.1758 23.3915 24.2161 23.3477L30.8459 23.068ZM17.9766 9.28433C16.6772 8.15739 14.6348 9.07776 14.654 10.7816L14.8642 29.4065C14.8841 31.1756 17.0833 32.0215 18.3182 30.7351L22.9333 25.9278C23.2907 25.5554 23.7817 25.3349 24.3018 25.3129L30.9316 25.0333C32.7309 24.9574 33.5195 22.7641 32.1686 21.5926L17.9766 9.28433Z" fill="#5900E7"/>
</svg>
