<svg width="36" height="36" viewBox="0 0 36 36" fill="none" xmlns="http://www.w3.org/2000/svg">
<path fill-rule="evenodd" clip-rule="evenodd" d="M18 32C25.732 32 32 25.732 32 18C32 10.268 25.732 4 18 4C10.268 4 4 10.268 4 18C4 25.732 10.268 32 18 32ZM18 34C26.8366 34 34 26.8366 34 18C34 9.16344 26.8366 2 18 2C9.16344 2 2 9.16344 2 18C2 26.8366 9.16344 34 18 34Z" fill="#5900E7"/>
<path d="M8.99992 21.4305C9.69941 23.0898 10.8482 24.521 12.3169 25.5628C13.7857 26.6046 15.5161 27.2158 17.3134 27.3275C19.1106 27.4392 20.9034 27.047 22.4898 26.195C24.0763 25.3431 25.3934 24.0652 26.293 22.5052C27.1925 20.9453 27.6388 19.1652 27.5815 17.3654C27.5243 15.5656 26.9657 13.8175 25.9688 12.3179C24.9719 10.8183 23.5762 9.62673 21.9388 8.87736C20.3013 8.128 18.4873 7.85057 16.7007 8.07631C17.9336 9.32096 18.7233 10.9363 18.9483 12.6737C19.1733 14.411 18.8212 16.1742 17.946 17.6919C17.0708 19.2095 15.7212 20.3975 14.1048 21.073C12.4883 21.7485 10.6947 21.8741 8.99992 21.4305Z" fill="#1DD8A7"/>
</svg>
