<svg width="36" height="36" viewBox="0 0 36 36" fill="none" xmlns="http://www.w3.org/2000/svg">
<path fill-rule="evenodd" clip-rule="evenodd" d="M31 6H5C4.44772 6 4 6.44772 4 7V29C4 29.5523 4.44772 30 5 30H31C31.5523 30 32 29.5523 32 29V7C32 6.44772 31.5523 6 31 6ZM5 4C3.34315 4 2 5.34315 2 7V29C2 30.6569 3.34315 32 5 32H31C32.6569 32 34 30.6569 34 29V7C34 5.34315 32.6569 4 31 4H5Z" fill="#5900E7"/>
<path fill-rule="evenodd" clip-rule="evenodd" d="M8 16V18H15V16H8ZM7.5 14C6.67157 14 6 14.6716 6 15.5V18.5C6 19.3284 6.67157 20 7.5 20H15.5C16.3284 20 17 19.3284 17 18.5V15.5C17 14.6716 16.3284 14 15.5 14H7.5Z" fill="#1DD8A7"/>
<path fill-rule="evenodd" clip-rule="evenodd" d="M21 16V18H28V16H21ZM20.5 14C19.6716 14 19 14.6716 19 15.5V18.5C19 19.3284 19.6716 20 20.5 20H28.5C29.3284 20 30 19.3284 30 18.5V15.5C30 14.6716 29.3284 14 28.5 14H20.5Z" fill="#1DD8A7"/>
<path fill-rule="evenodd" clip-rule="evenodd" d="M21 24V26H28V24H21ZM20.5 22C19.6716 22 19 22.6716 19 23.5V26.5C19 27.3284 19.6716 28 20.5 28H28.5C29.3284 28 30 27.3284 30 26.5V23.5C30 22.6716 29.3284 22 28.5 22H20.5Z" fill="#1DD8A7"/>
<path fill-rule="evenodd" clip-rule="evenodd" d="M8 24V26H15V24H8ZM7.5 22C6.67157 22 6 22.6716 6 23.5V26.5C6 27.3284 6.67157 28 7.5 28H15.5C16.3284 28 17 27.3284 17 26.5V23.5C17 22.6716 16.3284 22 15.5 22H7.5Z" fill="#1DD8A7"/>
</svg>
