<svg width="36" height="36" viewBox="0 0 36 36" fill="none" xmlns="http://www.w3.org/2000/svg">
<path fill-rule="evenodd" clip-rule="evenodd" d="M18 2.98486C17.4477 2.98486 17 3.43258 17 3.98486V14.9912C17 15.0476 17.0047 15.1029 17.0136 15.1567C15.8413 15.5649 15 16.6802 15 17.9922C15 19.6498 16.3431 20.9936 18 20.9936C19.6569 20.9936 21 19.6498 21 17.9922C21 16.6802 20.1587 15.5649 18.9864 15.1567C18.9953 15.1029 19 15.0476 19 14.9912V3.98486C19 3.43258 18.5523 2.98486 18 2.98486ZM19 17.9922C19 18.5447 18.5523 18.9927 18 18.9927C17.4477 18.9927 17 18.5447 17 17.9922C17 17.4396 17.4477 16.9917 18 16.9917C18.5523 16.9917 19 17.4396 19 17.9922Z" fill="#1DD8A7"/>
<path fill-rule="evenodd" clip-rule="evenodd" d="M16.2636 3.00821C17.0314 1.66393 18.9687 1.66393 19.7365 3.00821L26.5379 14.9165C26.9431 15.6258 26.8512 16.4435 26.5037 17.0473C25.9734 17.9685 25.2966 19.6156 24.7142 21.4994C24.134 23.3764 23.6732 25.4059 23.5393 27.0791C23.4573 28.1043 22.6181 28.9976 21.5 28.9976H14.5C13.382 28.9976 12.5428 28.1043 12.4608 27.0791C12.3269 25.4059 11.8661 23.3764 11.2859 21.4994C10.7035 19.6156 10.0267 17.9685 9.49644 17.0473C9.14887 16.4435 9.05702 15.6258 9.46217 14.9165L16.2636 3.00821ZM18 4.00098L11.1987 15.9092L11.1983 15.91C11.1981 15.9106 11.1976 15.9118 11.1971 15.9139C11.1962 15.9182 11.1948 15.9267 11.1954 15.9399C11.1965 15.968 11.206 16.0077 11.2296 16.0487C11.8655 17.1535 12.5941 18.9593 13.1966 20.9082C13.8011 22.8638 14.3046 25.047 14.4544 26.9194C14.4567 26.9482 14.4696 26.9722 14.4846 26.9867C14.4914 26.9933 14.4963 26.9957 14.4977 26.9963C14.4983 26.9965 14.4983 26.9966 14.5 26.9966H21.5C21.5012 26.9966 21.5016 26.9966 21.5019 26.9965C21.502 26.9965 21.5022 26.9964 21.5024 26.9963C21.5038 26.9957 21.5087 26.9933 21.5155 26.9867C21.5305 26.9722 21.5434 26.9482 21.5457 26.9194C21.6955 25.047 22.199 22.8638 22.8035 20.9082C23.406 18.9593 24.1346 17.1535 24.7705 16.0487C24.7941 16.0077 24.8036 15.968 24.8047 15.9399C24.8053 15.9267 24.8039 15.9182 24.803 15.9139C24.8025 15.9118 24.802 15.9106 24.8018 15.91L24.8014 15.9092L18 4.00098Z" fill="#5900E7"/>
<rect x="9" y="28" width="18" height="5" rx="2" stroke="#5900E7" stroke-width="2"/>
</svg>
