<svg xmlns="http://www.w3.org/2000/svg" width="200" height="200" viewBox="0 0 200 200"><g transform="translate(-50 -50)"><g transform="translate(-1350 221.367)"><g transform="translate(1400 20)" fill="none" stroke-linecap="round" stroke-linejoin="round"><path d="M0-80.708S22.167-46.523,45.694-48.219s43.893-32.687,64.619-32.489,31.162,38.054,55.226,38.054S200-59.607,200-59.607V8.633H0Z" stroke="none"/><path d="M 110.1154403686523 -75.70870208740234 C 108.1811752319336 -75.70846557617188 106.1735610961914 -75.36016845703125 103.9778518676758 -74.64393615722656 C 101.8762359619141 -73.95840454101563 99.65152740478516 -72.95066833496094 97.17658996582031 -71.56320190429688 C 92.31958770751953 -68.84031677246094 87.37853240966797 -65.14975738525391 82.14738464355469 -61.24252319335938 C 70.92179870605469 -52.85799407958984 59.31402587890625 -44.18796539306641 46.0535888671875 -43.23202514648438 C 45.37205505371094 -43.18290710449219 44.67716979980469 -43.15799331665039 43.98823547363281 -43.15799331665039 C 33.12474060058594 -43.15799331665039 21.64840698242188 -49.12640380859375 9.87811279296875 -60.89746475219727 C 8.114303588867188 -62.66139221191406 6.481353759765625 -64.42159271240234 5 -66.10514831542969 L 5 3.633003234863281 L 195 3.633003234863281 L 195 -47.28740692138672 C 194.9365539550781 -47.23892593383789 194.8725280761719 -47.19027328491211 194.8083801269531 -47.14178848266602 C 189.0820617675781 -42.81361389160156 179.3558502197266 -37.65420150756836 165.5393524169922 -37.65420150756836 C 150.7446441650391 -37.65420150756836 140.7447357177734 -49.23893737792969 131.9219665527344 -59.45993423461914 C 128.0657348632813 -63.92731857299805 124.4233245849609 -68.14696502685547 120.6457977294922 -71.21293640136719 C 116.9067916870117 -74.24761199951172 113.6084136962891 -75.67596435546875 110.2652053833008 -75.70799255371094 C 110.2172317504883 -75.70846557617188 110.171028137207 -75.70870208740234 110.1232070922852 -75.70870208740234 L 110.1154403686523 -75.70870208740234 M 110.1148300170898 -80.70870971679688 C 110.1818695068359 -80.70871734619141 110.2463989257813 -80.70840454101563 110.3134384155273 -80.70775604248047 C 131.0394592285156 -80.50914001464844 141.4759063720703 -42.65419769287109 165.5393524169922 -42.65419769287109 C 189.6028289794922 -42.65419769287109 200 -59.60696411132813 200 -59.60696411132813 L 200 8.633003234863281 L 0 8.633003234863281 L 0 -80.70775604248047 C 0 -80.70775604248047 21.10726928710938 -48.15798950195313 43.98822021484375 -48.15798950195313 C 44.55641174316406 -48.15798950195313 45.12405395507813 -48.17798614501953 45.69415283203125 -48.21908187866211 C 69.14533996582031 -49.90971374511719 89.4581298828125 -80.70620727539063 110.1148300170898 -80.70870971679688 Z" stroke="none" fill="#8072fc"/></g><g transform="translate(1400 41)" fill="none" stroke-linecap="round" stroke-linejoin="round"><path d="M0-80.708s22.167,26.15,45.694,24.852,43.893-25,64.619-24.852S141.476-51.6,165.539-51.6,200-64.567,200-64.567v52.2H0Z" stroke="none"/><path d="M 110.1150588989258 -75.70872497558594 L 110.1152954101563 -75.70872497558594 C 101.1802978515625 -75.70790100097656 91.68670654296875 -70.28372192382813 81.63570404052734 -64.54107666015625 C 70.48240661621094 -58.16863632202148 58.94938659667969 -51.5792236328125 45.96949768066406 -50.86343002319336 C 45.31591796875 -50.82737350463867 44.64932250976563 -50.80910873413086 43.98823547363281 -50.80910873413086 C 33.37553405761719 -50.80910873413086 22.06668090820313 -55.34384155273438 10.37576293945313 -64.28731536865234 C 8.415008544921875 -65.78728485107422 6.613327026367188 -67.28558349609375 5 -68.705322265625 L 5 -17.36698913574219 L 195 -17.36698913574219 L 195 -54.16960906982422 C 194.7702331542969 -54.03134536743164 194.5353088378906 -53.89269638061523 194.2961730957031 -53.75443267822266 C 188.6504058837891 -50.49016571044922 179.0784759521484 -46.59901809692383 165.5393524169922 -46.59901809692383 C 151.1371459960938 -46.59901809692383 141.177734375 -55.42481231689453 132.3907623291016 -63.21163940429688 C 128.5490112304688 -66.61610412597656 124.9203262329102 -69.83175659179688 121.1593856811523 -72.16675567626953 C 117.3100891113281 -74.55661010742188 113.8520584106445 -75.68190002441406 110.2761459350586 -75.70813751220703 C 110.2217559814453 -75.70854949951172 110.1694183349609 -75.70872497558594 110.1150588989258 -75.70872497558594 M 110.1148147583008 -80.70871734619141 C 110.1818466186523 -80.70872497558594 110.2463989257813 -80.70848083496094 110.3134384155273 -80.70799255371094 C 131.0394592285156 -80.55604553222656 141.4759063720703 -51.59901809692383 165.5393524169922 -51.59901809692383 C 189.6028289794922 -51.59901809692383 200 -64.56696319580078 200 -64.56696319580078 L 200 -12.36698913574219 L 0 -12.36698913574219 L 0 -80.70799255371094 C 0 -80.70799255371094 21.10726928710938 -55.80911254882813 43.98822021484375 -55.80911254882813 C 44.55641174316406 -55.80911254882813 45.12405395507813 -55.82440567016602 45.69415283203125 -55.85584259033203 C 69.14533996582031 -57.14908599853516 89.45811462402344 -80.70681762695313 110.1148147583008 -80.70871734619141 Z" stroke="none" fill="#8072fc"/></g></g><g transform="translate(50 50)" fill="none" stroke="#8072fc" stroke-width="5"><rect width="200" height="200" stroke="none"/><rect x="2.5" y="2.5" width="195" height="195" fill="none"/></g><path d="M192.95,36.7H5.35a3.35,3.35,0,1,1,0-6.7h187.6a3.35,3.35,0,0,1,0,6.7Z" transform="translate(50.35 48.5)" fill="#8072fc"/><path d="M19.331,24.688A4.187,4.187,0,1,1,15.144,20.5,4.187,4.187,0,0,1,19.331,24.688Z" transform="translate(56.395 42.087)" fill="#8072fc"/><path d="M29.331,24.688A4.187,4.187,0,1,1,25.143,20.5,4.187,4.187,0,0,1,29.331,24.688Z" transform="translate(63.145 42.087)" fill="#8072fc"/><path d="M39.331,24.688A4.188,4.188,0,1,1,35.144,20.5,4.187,4.187,0,0,1,39.331,24.688Z" transform="translate(69.895 42.087)" fill="#8072fc"/></g></svg>