<svg width="36" height="36" viewBox="0 0 36 36" fill="none" xmlns="http://www.w3.org/2000/svg">
<path d="M16.0806 11.7103C16.3672 11.2675 16.9757 11.1507 17.4397 11.4495C17.9037 11.7482 18.0475 12.3494 17.7608 12.7922L5.19911 32.1982C4.91247 32.641 4.30397 32.7578 3.83998 32.4591C3.37599 32.1603 3.23222 31.5591 3.51887 31.1163L16.0806 11.7103Z" fill="#5900E7"/>
<path fill-rule="evenodd" clip-rule="evenodd" d="M18 10.9737C19.6618 10.9737 21 9.6315 21 7.98686C21 6.34222 19.6618 5 18 5C16.3382 5 15 6.34222 15 7.98686C15 9.6315 16.3382 10.9737 18 10.9737ZM18 12.9737C20.7614 12.9737 23 10.741 23 7.98686C23 5.23269 20.7614 3 18 3C15.2386 3 13 5.23269 13 7.98686C13 10.741 15.2386 12.9737 18 12.9737Z" fill="#5900E7"/>
<path fill-rule="evenodd" clip-rule="evenodd" d="M7.13804 19.7004C7.51234 19.2967 8.14075 19.2751 8.56925 19.6206C11.2304 21.7666 14.557 22.9471 17.9991 22.9474C21.4412 22.9476 24.768 21.7675 27.4294 19.6218C27.8579 19.2763 28.4863 19.2981 28.8605 19.7018C29.2362 20.107 29.2131 20.7428 28.7856 21.0928C25.753 23.5754 21.9428 24.9423 17.999 24.9421C14.0551 24.9418 10.245 23.5744 7.21285 21.0914C6.78537 20.7413 6.76235 20.1055 7.13804 19.7004Z" fill="#1DD8A7"/>
<path d="M19.8889 11.5882C19.6016 11.1443 18.9925 11.0266 18.5285 11.3254C18.0645 11.6242 17.9213 12.2262 18.2087 12.6701L30.8006 32.1228C31.088 32.5667 31.697 32.6843 32.161 32.3856C32.625 32.0868 32.7682 31.4848 32.4809 31.0409L19.8889 11.5882Z" fill="#5900E7"/>
</svg>
