<svg width="36" height="36" viewBox="0 0 36 36" fill="none" xmlns="http://www.w3.org/2000/svg">
<path fill-rule="evenodd" clip-rule="evenodd" d="M11.7152 18.5311L11.7152 5C11.7152 4.44772 12.1576 4 12.7032 4L26.5359 4C27.0815 4 27.5239 4.44772 27.5239 5L27.5239 17.4689L24.401 23L9.19208 23L11.7152 18.5311ZM29.5 18L25.8323 24.4961C25.6564 24.8077 25.329 25 24.9744 25L7.4895 25C6.73086 25 6.25525 24.1705 6.63164 23.5039L9.7391 18L9.73911 5C9.73911 3.34315 11.0662 2 12.7032 2L26.5359 2C28.1729 2 29.5 3.34315 29.5 5L29.5 18Z" fill="#5900E7"/>
<path d="M10.7271 31C11.2727 31 11.7151 30.5523 11.7151 30C11.7151 29.4477 11.2727 29 10.7271 29C10.1814 29 9.73901 29.4477 9.73901 30C9.73901 30.5523 10.1814 31 10.7271 31Z" fill="#1DD8A7"/>
<path d="M10.7271 28C11.2727 28 11.7151 27.5523 11.7151 27C11.7151 26.4477 11.2727 26 10.7271 26C10.1814 26 9.73901 26.4477 9.73901 27C9.73901 27.5523 10.1814 28 10.7271 28Z" fill="#1DD8A7"/>
<path d="M10.7271 34C11.2727 34 11.7151 33.5523 11.7151 33C11.7151 32.4477 11.2727 32 10.7271 32C10.1814 32 9.73901 32.4477 9.73901 33C9.73901 33.5523 10.1814 34 10.7271 34Z" fill="#1DD8A7"/>
<path d="M13.6912 34C14.2369 34 14.6792 33.5523 14.6792 33C14.6792 32.4477 14.2369 32 13.6912 32C13.1455 32 12.7031 32.4477 12.7031 33C12.7031 33.5523 13.1455 34 13.6912 34Z" fill="#1DD8A7"/>
<path d="M16.6555 34C17.2012 34 17.6436 33.5523 17.6436 33C17.6436 32.4477 17.2012 32 16.6555 32C16.1098 32 15.6675 32.4477 15.6675 33C15.6675 33.5523 16.1098 34 16.6555 34Z" fill="#1DD8A7"/>
<path d="M19.6196 34C20.1653 34 20.6077 33.5523 20.6077 33C20.6077 32.4477 20.1653 32 19.6196 32C19.074 32 18.6316 32.4477 18.6316 33C18.6316 33.5523 19.074 34 19.6196 34Z" fill="#1DD8A7"/>
<path d="M22.5837 34C23.1294 34 23.5718 33.5523 23.5718 33C23.5718 32.4477 23.1294 32 22.5837 32C22.0381 32 21.5957 32.4477 21.5957 33C21.5957 33.5523 22.0381 34 22.5837 34Z" fill="#1DD8A7"/>
<path d="M25.5479 34C26.0935 34 26.5359 33.5523 26.5359 33C26.5359 32.4477 26.0935 32 25.5479 32C25.0022 32 24.5598 32.4477 24.5598 33C24.5598 33.5523 25.0022 34 25.5479 34Z" fill="#1DD8A7"/>
<path d="M28.512 34C29.0577 34 29.5 33.5523 29.5 33C29.5 32.4477 29.0577 32 28.512 32C27.9663 32 27.5239 32.4477 27.5239 33C27.5239 33.5523 27.9663 34 28.512 34Z" fill="#1DD8A7"/>
<path d="M28.512 31C29.0577 31 29.5 30.5523 29.5 30C29.5 29.4477 29.0577 29 28.512 29C27.9663 29 27.5239 29.4477 27.5239 30C27.5239 30.5523 27.9663 31 28.512 31Z" fill="#1DD8A7"/>
<path d="M28.512 28C29.0577 28 29.5 27.5523 29.5 27C29.5 26.4477 29.0577 26 28.512 26C27.9663 26 27.5239 26.4477 27.5239 27C27.5239 27.5523 27.9663 28 28.512 28Z" fill="#1DD8A7"/>
<path d="M28.512 25C29.0577 25 29.5 24.5523 29.5 24C29.5 23.4477 29.0577 23 28.512 23C27.9663 23 27.5239 23.4477 27.5239 24C27.5239 24.5523 27.9663 25 28.512 25Z" fill="#1DD8A7"/>
<path fill-rule="evenodd" clip-rule="evenodd" d="M19.387 14.0455C19.3867 13.7769 19.4388 13.511 19.5402 13.2628C19.6416 13.0147 19.7902 12.7892 19.9778 12.5992C20.1653 12.4092 20.388 12.2586 20.6331 12.1557C20.8782 12.0529 21.1409 12 21.4062 12L23.5468 12C24.0925 12 24.5348 11.5523 24.5348 11C24.5348 10.4477 24.0925 10 23.5468 10L21.4062 10C20.8813 10 20.3614 10.1047 19.8765 10.3081C19.3915 10.5116 18.9509 10.8097 18.5799 11.1856C18.2088 11.5615 17.9146 12.0077 17.714 12.4987C17.5135 12.9895 17.4105 13.5155 17.4109 14.0467C17.4109 14.0469 17.4109 14.0465 17.4109 14.0467L17.4109 18.98C17.4109 19.5323 17.8533 19.98 18.3989 19.98C18.9446 19.98 19.387 19.5323 19.387 18.98L19.387 14.0455Z" fill="#1DD8A7"/>
<path fill-rule="evenodd" clip-rule="evenodd" d="M14.9692 15.5001C14.5831 15.8904 14.5828 16.5236 14.9685 16.9143L17.7053 19.6868C18.0909 20.0775 18.7165 20.0778 19.1026 19.6875C19.4886 19.2972 19.4889 18.664 19.1032 18.2733L16.3665 15.5008C15.9808 15.11 15.3552 15.1097 14.9692 15.5001Z" fill="#1DD8A7"/>
<path fill-rule="evenodd" clip-rule="evenodd" d="M17.7057 19.6875C18.0918 20.0778 18.7174 20.0775 19.103 19.6868L21.8398 16.9143C22.2255 16.5236 22.2252 15.8904 21.8391 15.5001C21.4531 15.1097 20.8275 15.11 20.4418 15.5008L17.7051 18.2733C17.3194 18.664 17.3197 19.2972 17.7057 19.6875Z" fill="#1DD8A7"/>
</svg>
