<svg width="36" height="36" viewBox="0 0 36 36" fill="none" xmlns="http://www.w3.org/2000/svg">
<path d="M4.10011 31.2014C3.80011 31.2014 3.40011 31.0017 3.20011 30.7023C2.90011 30.2032 3.10011 29.6042 3.50011 29.3048L16.1001 21.8181C16.6001 21.5187 17.2001 21.7183 17.5001 22.1176C17.8001 22.6167 17.6001 23.2156 17.2001 23.5151L4.60011 31.1016C4.40011 31.2014 4.30011 31.2014 4.10011 31.2014Z" fill="#5900E7"/>
<path d="M32 31.2014C31.8 31.2014 31.7 31.2014 31.5 31.1016L18.8 23.615C18.3 23.3155 18.2 22.7166 18.4 22.2175C18.7 21.7184 19.3 21.6186 19.8 21.8182L32.5 29.3048C33 29.6043 33.1 30.2032 32.9 30.7023C32.6 31.0018 32.3 31.2014 32 31.2014Z" fill="#5900E7"/>
<path d="M18.0001 24.1141C17.8001 24.1141 17.6001 24.1141 17.5001 24.0143L3.6001 15.7291C3.1001 15.4296 3.0001 14.8307 3.3001 14.3316C3.5001 13.8325 4.1001 13.7326 4.6001 14.0321L18.0001 22.0178L31.5001 14.0321C32.0001 13.7326 32.6001 13.9323 32.9001 14.4314C33.2001 14.9305 33.0001 15.5294 32.5001 15.8289L18.5001 24.1141C18.4001 24.0143 18.2001 24.1141 18.0001 24.1141Z" fill="#1DD8A7"/>
<path d="M29.7 32H6.3C5.2 32 4.1 31.6007 3.3 30.902C2.5 30.2032 2 29.205 2 28.107V14.8307C2 14.4314 2.1 14.0321 2.3 13.6328C2.5 13.3333 2.8 13.0339 3.2 12.7344L17.5 4.14973C17.8 3.95009 18.2 3.95009 18.5 4.14973L32.8 12.7344C33.2 12.934 33.5 13.2335 33.7 13.6328C33.9 14.0321 34 14.4314 34 14.8307V28.107C34 29.1052 33.5 30.2032 32.7 30.902C31.9 31.6007 30.8 32 29.7 32ZM18 6.24599L4.2 14.5312C4.1 14.5312 4.1 14.631 4 14.7308C4 14.8307 4 14.8307 4 14.9305V28.2068C4 28.7059 4.2 29.1052 4.6 29.5045C5.1 29.8039 5.7 30.0036 6.3 30.0036H29.6C30.2 30.0036 30.9 29.8039 31.3 29.4046C31.7 29.0053 31.9 28.6061 31.9 28.107V14.8307C31.9 14.7308 31.9 14.7308 31.9 14.631C31.9 14.5312 31.8 14.5312 31.7 14.4314L18 6.24599Z" fill="#5900E7"/>
</svg>
