<svg width="36" height="36" viewBox="0 0 36 36" fill="none" xmlns="http://www.w3.org/2000/svg">
<path fill-rule="evenodd" clip-rule="evenodd" d="M29 4L7 6C6.44772 6 6 6.44772 6 7V29C6 29.5523 6.44772 30 7 30L29 32C29.5523 32 30 31.5523 30 31V5C30 4.44772 29.5523 4 29 4ZM7 4C5.34315 4 4 5.34315 4 7V29C4 30.6569 5.34315 32 7 32L29 34C30.6569 34 32 32.6569 32 31V5C32 3.34315 30.6569 2 29 2L7 4Z" fill="#5900E7"/>
<path fill-rule="evenodd" clip-rule="evenodd" d="M10.9984 11.8328L12 9.33839L9.4373 9L9.87953 9.80249C9.37331 10.2 8.94737 10.7019 8.62913 11.2794C8.21698 12.0273 8 12.8757 8 13.7393C8 14.6029 8.21698 15.4513 8.62913 16.1992C9.04129 16.9471 9.63409 17.5682 10.348 18L11.1306 16.5798C10.6547 16.2919 10.2595 15.8778 9.98473 15.3792C9.70996 14.8806 9.56531 14.315 9.56531 13.7393C9.56531 13.1635 9.70996 12.5979 9.98473 12.0993C10.1652 11.7719 10.3976 11.4809 10.6707 11.2382L10.9984 11.8328Z" fill="#1DD8A7"/>
<path fill-rule="evenodd" clip-rule="evenodd" d="M14.0016 16.1672L13 18.6616L15.5627 19L15.1205 18.1975C15.6267 17.8 16.0526 17.2981 16.3709 16.7206C16.783 15.9727 17 15.1243 17 14.2607C17 13.3971 16.783 12.5487 16.3709 11.8008C15.9587 11.0529 15.3659 10.4318 14.652 10L13.8694 11.4202C14.3453 11.7081 14.7405 12.1222 15.0153 12.6208C15.29 13.1194 15.4347 13.685 15.4347 14.2607C15.4347 14.8365 15.29 15.4021 15.0153 15.9007C14.8348 16.2281 14.6024 16.5191 14.3293 16.7618L14.0016 16.1672Z" fill="#1DD8A7"/>
<path d="M8 26C8 25.4477 8.44772 25 9 25L27 26C27.5523 26 28 26.4477 28 27C28 27.5523 27.5523 28 27 28L9 27C8.44772 27 8 26.5523 8 26Z" fill="#1DD8A7"/>
</svg>
