<svg width="36" height="36" viewBox="0 0 36 36" fill="none" xmlns="http://www.w3.org/2000/svg">
<path fill-rule="evenodd" clip-rule="evenodd" d="M23.2072 12.7929C23.5977 13.1834 23.5977 13.8166 23.2072 14.2071L5.70721 31.7071C5.31668 32.0976 4.68352 32.0976 4.29299 31.7071C3.90247 31.3166 3.90247 30.6834 4.29299 30.2929L21.793 12.7929C22.1835 12.4024 22.8167 12.4024 23.2072 12.7929Z" fill="#1DD8A7"/>
<path fill-rule="evenodd" clip-rule="evenodd" d="M28.7071 31.7071C28.3166 32.0976 27.6834 32.0976 27.2929 31.7071L16.2929 20.7071C15.9024 20.3166 15.9024 19.6834 16.2929 19.2929C16.6834 18.9023 17.3166 18.9023 17.7071 19.2929L28.7071 30.2929C29.0976 30.6834 29.0976 31.3166 28.7071 31.7071Z" fill="#1DD8A7"/>
<path d="M16 14.6286C16 17.7667 14.0143 20 11.082 20C8.27049 20 6 17.5427 6 14.5C6 11.4573 8.27049 9 11.082 9C12.4508 9 13.6025 9.54335 14.4898 10.4393L13.1066 11.8786C11.2971 9.98911 7.93238 11.4085 7.93238 14.5C7.93238 16.4183 9.34836 17.973 11.082 17.973C13.0943 17.973 13.8484 16.4117 13.9672 15.6022H11.082V13.7105H15.9201C15.9672 13.9921 16 14.2627 16 14.6286Z" fill="#1DD8A7"/>
<path d="M28.5 9C28.5 10.1046 27.6046 11 26.5 11C25.3954 11 24.5 10.1046 24.5 9C24.5 7.89543 25.3954 7 26.5 7C27.6046 7 28.5 7.89543 28.5 9Z" fill="#1DD8A7"/>
<path fill-rule="evenodd" clip-rule="evenodd" d="M7 8C5.89543 8 5 8.89543 5 10V29C5 30.1046 5.89543 31 7 31H26C27.1046 31 28 30.1046 28 29V15.5H30V29C30 31.2091 28.2091 33 26 33H7C4.79086 33 3 31.2091 3 29V10C3 7.79086 4.79086 6 7 6H21.5V8H7Z" fill="#5900E7"/>
<path fill-rule="evenodd" clip-rule="evenodd" d="M22.3498 4.26811C23.387 3.48805 24.7577 3 26.5 3C28.2423 3 29.613 3.48805 30.6502 4.26811C31.6747 5.03856 32.3133 6.0474 32.6918 7.00973C33.3974 8.8039 32.7655 10.6445 32.058 12.0397L27.3919 21.2412C27.0215 21.9715 25.9785 21.9715 25.6081 21.2412L20.942 12.0397C20.2345 10.6446 19.6026 8.8039 20.3082 7.00973C20.6867 6.0474 21.3253 5.03856 22.3498 4.26811ZM23.6226 5.81815C22.9625 6.31453 22.5165 6.99132 22.2362 7.70414C21.8443 8.70054 22.1424 9.89162 22.7952 11.179L26.5 18.4847L30.2048 11.179C30.8576 9.89162 31.1557 8.70054 30.7638 7.70414C30.4835 6.99132 30.0375 6.31453 29.3774 5.81815C28.7301 5.33137 27.8163 4.97137 26.5 4.97137C25.1837 4.97137 24.2699 5.33137 23.6226 5.81815Z" fill="#5900E7"/>
</svg>
