<svg width="36" height="36" viewBox="0 0 36 36" fill="none" xmlns="http://www.w3.org/2000/svg">
<rect x="4" y="32" width="28" height="2" rx="1" fill="#1DD8A7"/>
<path fill-rule="evenodd" clip-rule="evenodd" d="M4 3C4 2.44772 4.44772 2 5 2H9H13C13.5523 2 14 2.44772 14 3C14 3.55228 13.5523 4 13 4H10L10 18C10 19.0506 10.2069 20.0909 10.609 21.0615C11.011 22.0321 11.6003 22.914 12.3431 23.6569C13.086 24.3997 13.9679 24.989 14.9385 25.391C15.9091 25.7931 16.9494 26 18 26C19.0506 26 20.0909 25.7931 21.0615 25.391C22.0321 24.989 22.914 24.3997 23.6569 23.6569C24.3997 22.914 24.989 22.0321 25.391 21.0615C25.7931 20.0909 26 19.0506 26 18V4H23C22.4477 4 22 3.55228 22 3C22 2.44772 22.4477 2 23 2H27H31C31.5523 2 32 2.44772 32 3C32 3.55228 31.5523 4 31 4H28V18C28 19.3132 27.7413 20.6136 27.2388 21.8268C26.7362 23.0401 25.9997 24.1425 25.0711 25.0711C24.1425 25.9997 23.0401 26.7362 21.8268 27.2388C20.6136 27.7413 19.3132 28 18 28C16.6868 28 15.3864 27.7413 14.1732 27.2388C12.9599 26.7362 11.8575 25.9997 10.9289 25.0711C10.0003 24.1425 9.26375 23.0401 8.7612 21.8268C8.25866 20.6136 8 19.3132 8 18L8 4H5C4.44772 4 4 3.55228 4 3Z" fill="#5900E7"/>
</svg>
