<svg width="36" height="36" viewBox="0 0 36 36" fill="none" xmlns="http://www.w3.org/2000/svg">
<path fill-rule="evenodd" clip-rule="evenodd" d="M21.1057 14.5528C21.4802 13.8037 22.5545 13.8193 22.9072 14.5789L29.4072 26.5789C29.6397 27.0798 29.4222 27.6744 28.9213 27.907C28.4203 28.1396 27.8257 27.922 27.5931 27.4211L21.9668 16.3028L17.3946 24.4472C17.0261 25.1843 15.9742 25.1843 15.6057 24.4472L12.9204 19.0766L7.85764 27.5145C7.5735 27.9881 6.95924 28.1416 6.48566 27.8575C6.01208 27.5733 5.85851 26.9591 6.14266 26.4855L12.1427 16.4855C12.5486 15.8089 13.5417 15.847 13.8946 16.5528L16.5002 21.7639L21.1057 14.5528Z" fill="#1DD8A7"/>
<path fill-rule="evenodd" clip-rule="evenodd" d="M6 10C4.89543 10 4 10.8954 4 12V28C4 29.1046 4.89543 30 6 30H30C31.1046 30 32 29.1046 32 28V12C32 10.8954 31.1046 10 30 10H21.5V8H30C32.2091 8 34 9.79086 34 12V28C34 30.2091 32.2091 32 30 32H6C3.79086 32 2 30.2091 2 28V12C2 9.79086 3.79086 8 6 8H13.5V10H6Z" fill="#5900E7"/>
<path fill-rule="evenodd" clip-rule="evenodd" d="M17.77 11.7642C18.3223 11.7642 18.77 12.2119 18.77 12.7642V16.5429C18.77 17.0951 18.3223 17.5429 17.77 17.5429C17.2177 17.5429 16.77 17.0951 16.77 16.5429V12.7642C16.77 12.2119 17.2177 11.7642 17.77 11.7642Z" fill="#5900E7"/>
<path fill-rule="evenodd" clip-rule="evenodd" d="M17.77 6C16.2402 6 15 7.24017 15 8.77C15 10.2998 16.2402 11.54 17.77 11.54C19.2998 11.54 20.54 10.2998 20.54 8.77C20.54 7.24017 19.2998 6 17.77 6ZM13 8.77C13 6.1356 15.1356 4 17.77 4C20.4044 4 22.54 6.1356 22.54 8.77C22.54 11.4044 20.4044 13.54 17.77 13.54C15.1356 13.54 13 11.4044 13 8.77Z" fill="#1DD8A7"/>
</svg>
