<svg width="36" height="36" viewBox="0 0 36 36" fill="none" xmlns="http://www.w3.org/2000/svg">
<path fill-rule="evenodd" clip-rule="evenodd" d="M16.3253 18.9071C15.7769 17.3076 17.3076 15.7768 18.9072 16.3253L31.6266 20.6862C33.5158 21.3339 33.4357 24.0328 31.5114 24.5673L26.0769 26.0769L24.5673 31.5114C24.0328 33.4357 21.334 33.5158 20.6862 31.6266L16.3253 18.9071ZM19.2302 18.5847C18.8303 18.4476 18.4476 18.8303 18.5847 19.2302L22.0773 29.4169C22.2393 29.8892 22.914 29.8692 23.0476 29.3881L24.426 24.426L29.3882 23.0476C29.8692 22.914 29.8893 22.2392 29.417 22.0773L19.2302 18.5847Z" fill="#5900E7"/>
<path fill-rule="evenodd" clip-rule="evenodd" d="M20.4218 6.13239C18.4539 5.16225 16.2348 4.82231 14.0667 5.15885C11.8986 5.4954 9.88695 6.49207 8.30573 8.01313C6.72451 9.53418 5.65059 11.5057 5.23024 13.6591C4.80989 15.8125 5.06354 18.0431 5.95664 20.0472C6.84975 22.0512 8.3389 23.7313 10.2213 24.8585C11.812 25.8111 13.6182 26.3297 15.4604 26.3717C16.0215 26.3845 16.5089 26.8002 16.5495 27.3601C16.5902 27.9199 16.1689 28.4109 15.6076 28.4066C13.3477 28.3896 11.1264 27.7697 9.17702 26.6023C6.93611 25.2604 5.16332 23.2603 4.1001 20.8746C3.03688 18.4888 2.73491 15.8333 3.23533 13.2697C3.73575 10.7061 5.01423 8.35908 6.89664 6.54829C8.77904 4.73751 11.1739 3.551 13.7549 3.15035C16.336 2.7497 18.9778 3.1544 21.3206 4.30932C23.6633 5.46424 25.5931 7.31325 26.8471 9.6045C27.9381 11.5977 28.4714 13.8413 28.4008 16.1002C28.3833 16.6612 27.8763 17.0632 27.3185 17.0009C26.7607 16.9386 26.3641 16.4354 26.3731 15.8742C26.4026 14.0318 25.9544 12.2068 25.0642 10.5803C24.0108 8.65569 22.3897 7.10253 20.4218 6.13239Z" fill="#1DD8A7"/>
</svg>
