<svg width="36" height="36" viewBox="0 0 36 36" fill="none" xmlns="http://www.w3.org/2000/svg">
<path fill-rule="evenodd" clip-rule="evenodd" d="M32 6H4V30H32V6ZM4 4C2.89543 4 2 4.89543 2 6V30C2 31.1046 2.89543 32 4 32H32C33.1046 32 34 31.1046 34 30V6C34 4.89543 33.1046 4 32 4H4Z" fill="#5900E7"/>
<path fill-rule="evenodd" clip-rule="evenodd" d="M17 18V24.9291C13.6077 24.4439 11 21.5265 11 18C11 14.134 14.134 11 18 11C21.866 11 25 14.134 25 18C25 21.5265 22.3923 24.4439 19 24.9291V18C19 17.4477 18.5523 17 18 17C17.4477 17 17 17.4477 17 18ZM18 27C22.9706 27 27 22.9706 27 18C27 13.0294 22.9706 9 18 9C13.0294 9 9 13.0294 9 18C9 22.9706 13.0294 27 18 27ZM18 16C18.5523 16 19 15.5523 19 15C19 14.4477 18.5523 14 18 14C17.4477 14 17 14.4477 17 15C17 15.5523 17.4477 16 18 16Z" fill="#1DD8A7"/>
</svg>
