<svg width="36" height="36" viewBox="0 0 36 36" fill="none" xmlns="http://www.w3.org/2000/svg">
<path fill-rule="evenodd" clip-rule="evenodd" d="M21.0007 15.0006L21 15.0019L20.4999 15.8662C20.647 15.9513 20.8178 16 21 16H21.9167V15V14.601C21.9705 14.7248 22 14.8608 22 15V14.0833H21.9167V14H21C21.1392 14 21.2752 14.0295 21.399 14.0833H21H20V15C20 15.1822 20.0487 15.353 20.1338 15.5001L20.9981 15L20.9994 14.9993L21 15L21.0007 15.0006ZM21 15L21 14.9989L21.0026 14.9974L21.0011 15H21ZM31.0833 15V16H32C32.1822 16 32.353 15.9513 32.5001 15.8662L32 15.0019L31.9993 15.0006L32 15L32.0006 14.9993L32.0019 15L32.8662 15.5001C32.9513 15.353 33 15.1822 33 15V14.0833H32H31.601C31.7248 14.0295 31.8608 14 32 14H31.0833V14.0833H31V15C31 14.8608 31.0295 14.7248 31.0833 14.601V15ZM32 15H31.9989L31.9974 14.9974L32 14.9989V15ZM32 4.91667H33V4C33 3.81782 32.9513 3.64702 32.8662 3.49992L32.0019 4L32.0006 4.00073L32 4L31.9993 3.99939L32 3.99813L32.5001 3.13383C32.353 3.04871 32.1822 3 32 3H31.0833V4V4.39899C31.0295 4.27521 31 4.13922 31 4V4.91667H31.0833V5H32C31.8608 5 31.7248 4.97046 31.601 4.91667H32ZM32 4V4.00108L31.9974 4.00256L31.9989 4H32ZM21 3H21.9167V4V4.39899C21.9705 4.27521 22 4.13922 22 4V4.91667H21.9167V5H21C21.1392 5 21.2752 4.97046 21.399 4.91667H21H20V4C20 3.81782 20.0487 3.64702 20.1338 3.49992L20.9981 4L20.9994 4.00073L21 4V4.00108L21.0026 4.00256L21.0011 4H21L21.0007 3.99939L21 3.99813L20.4999 3.13383C20.647 3.04871 20.8178 3 21 3ZM21 13.1667H20V11.3333H21H22V13.1667H21ZM21 10.4167H20V8.58333H21H22V10.4167H21ZM21 7.66667H20V5.83333H21H22V7.66667H21ZM22.8333 4V3H24.6667V4V5H22.8333V4ZM25.5833 4V3H27.4167V4V5H25.5833V4ZM28.3333 4V3H30.1667V4V5H28.3333V4ZM32 5.83333H33V7.66667H32H31V5.83333H32ZM32 8.58333H33V10.4167H32H31V8.58333H32ZM32 11.3333H33V13.1667H32H31V11.3333H32ZM30.1667 15V16H28.3333V15V14H30.1667V15ZM27.4167 15V16H25.5833V15V14H27.4167V15ZM24.6667 15V16H22.8333V15V14H24.6667V15ZM21.0007 32.0006L21 32.0019L20.4999 32.8662C20.647 32.9513 20.8178 33 21 33H21.9167V32V31.601C21.9705 31.7248 22 31.8608 22 32V31.0833H21.9167V31H21C21.1392 31 21.2752 31.0295 21.399 31.0833H21H20V32C20 32.1822 20.0487 32.353 20.1338 32.5001L20.9981 32L20.9994 31.9993L21 32L21.0007 32.0006ZM21 32L21 31.9989L21.0026 31.9974L21.0011 32H21ZM31.0833 32V33H32C32.1822 33 32.353 32.9513 32.5001 32.8662L32 32.0019L31.9993 32.0006L32 32L32.0006 31.9993L32.0019 32L32.8662 32.5001C32.9513 32.353 33 32.1822 33 32V31.0833H32H31.601C31.7248 31.0295 31.8608 31 32 31H31.0833V31.0833H31V32C31 31.8608 31.0295 31.7248 31.0833 31.601V32ZM32 32H31.9989L31.9974 31.9974L32 31.9989V32ZM32 21.9167H33V21C33 20.8178 32.9513 20.647 32.8662 20.4999L32.0019 21L32.0006 21.0007L32 21L31.9993 20.9994L32 20.9981L32.5001 20.1338C32.353 20.0487 32.1822 20 32 20H31.0833V21V21.399C31.0295 21.2752 31 21.1392 31 21V21.9167H31.0833V22H32C31.8608 22 31.7248 21.9705 31.601 21.9167H32ZM32 21V21.0011L31.9974 21.0026L31.9989 21H32ZM21 20H21.9167V21V21.399C21.9705 21.2752 22 21.1392 22 21V21.9167H21.9167V22H21C21.1392 22 21.2752 21.9705 21.399 21.9167H21H20V21C20 20.8178 20.0487 20.647 20.1338 20.4999L20.9981 21L20.9994 21.0007L21 21V21.0011L21.0026 21.0026L21.0011 21H21L21.0007 20.9994L21 20.9981L20.4999 20.1338C20.647 20.0487 20.8178 20 21 20ZM21 30.1667H20V28.3333H21H22V30.1667H21ZM21 27.4167H20V25.5833H21H22V27.4167H21ZM21 24.6667H20V22.8333H21H22V24.6667H21ZM22.8333 21V20H24.6667V21V22H22.8333V21ZM25.5833 21V20H27.4167V21V22H25.5833V21ZM28.3333 21V20H30.1667V21V22H28.3333V21ZM32 22.8333H33V24.6667H32H31V22.8333H32ZM32 25.5833H33V27.4167H32H31V25.5833H32ZM32 28.3333H33V30.1667H32H31V28.3333H32ZM30.1667 32V33H28.3333V32V31H30.1667V32ZM27.4167 32V33H25.5833V32V31H27.4167V32ZM24.6667 32V33H22.8333V32V31H24.6667V32Z" fill="#1DD8A7"/>
<path fill-rule="evenodd" clip-rule="evenodd" d="M8 5H10V3H8V5ZM14 5H12V3H14V5ZM16 5V7H14V5H16ZM6 5V3H5H3V5H5H6ZM3 9V7H5V9H3ZM5 11H3V13H5V11ZM3 17V15H5V17H3ZM5 19H3V21H5V19ZM3 25V23H5V25H3ZM5 27H3V29H5V27ZM3 31H5H6V33H5H3V31ZM8 31V33H10V31H8ZM14 33H12V31H14V33ZM14 31V29H16V31H14ZM16 25V27H14V25H16ZM16 21V23H14V21H16ZM16 17V19H14V17H16ZM16 15V13H14V15H16ZM16 11V9H14V11H16Z" fill="#5900E7"/>
</svg>
