<svg width="36" height="36" viewBox="0 0 36 36" fill="none" xmlns="http://www.w3.org/2000/svg">
<path fill-rule="evenodd" clip-rule="evenodd" d="M18 30.6923C25.0098 30.6923 30.6923 25.0098 30.6923 18C30.6923 10.9902 25.0098 5.30769 18 5.30769C10.9902 5.30769 5.30769 10.9902 5.30769 18C5.30769 25.0098 10.9902 30.6923 18 30.6923ZM18 33C26.2843 33 33 26.2843 33 18C33 9.71573 26.2843 3 18 3C9.71573 3 3 9.71573 3 18C3 26.2843 9.71573 33 18 33Z" fill="#5900E7"/>
<path fill-rule="evenodd" clip-rule="evenodd" d="M27.9395 12.0415C27.6208 11.4896 26.9152 11.3005 26.3633 11.6191L20.0389 15.2705C19.487 15.5891 19.298 16.2948 19.6166 16.8467C19.9352 17.3986 20.6409 17.5877 21.1928 17.269L27.5171 13.6176C28.069 13.299 28.2581 12.5933 27.9395 12.0415Z" fill="#1DD8A7"/>
<path fill-rule="evenodd" clip-rule="evenodd" d="M8.07933 12.1894C8.39795 11.6375 9.10363 11.4484 9.65551 11.767L15.8713 15.3557C16.4232 15.6744 16.6123 16.38 16.2936 16.9319C15.975 17.4838 15.2693 17.6729 14.7175 17.3543L8.50166 13.7656C7.94979 13.4469 7.7607 12.7413 8.07933 12.1894Z" fill="#1DD8A7"/>
<path fill-rule="evenodd" clip-rule="evenodd" d="M29.5384 12.2308C30.1757 12.2308 30.6923 11.7142 30.6923 11.0769C30.6923 10.4397 30.1757 9.92308 29.5384 9.92308C28.9012 9.92308 28.3846 10.4397 28.3846 11.0769C28.3846 11.7142 28.9012 12.2308 29.5384 12.2308ZM29.5384 14.5385C31.4502 14.5385 33 12.9887 33 11.0769C33 9.16517 31.4502 7.61539 29.5384 7.61539C27.6267 7.61539 26.0769 9.16517 26.0769 11.0769C26.0769 12.9887 27.6267 14.5385 29.5384 14.5385Z" fill="#1DD8A7"/>
<path fill-rule="evenodd" clip-rule="evenodd" d="M6.46154 12.2308C7.09879 12.2308 7.61538 11.7142 7.61538 11.0769C7.61538 10.4397 7.09879 9.92308 6.46154 9.92308C5.82429 9.92308 5.30769 10.4397 5.30769 11.0769C5.30769 11.7142 5.82429 12.2308 6.46154 12.2308ZM6.46154 14.5385C8.37329 14.5385 9.92308 12.9887 9.92308 11.0769C9.92308 9.16517 8.37329 7.61539 6.46154 7.61539C4.54978 7.61539 3 9.16517 3 11.0769C3 12.9887 4.54978 14.5385 6.46154 14.5385Z" fill="#1DD8A7"/>
<circle cx="18.0001" cy="18" r="2.46154" stroke="#5900E7" stroke-width="2"/>
</svg>
