<svg xmlns="http://www.w3.org/2000/svg" width="36" height="36" fill="none" xmlns:v="https://vecta.io/nano"><mask id="A" fill="#fff"><path fill-rule="evenodd" d="M22 14a4 4 0 1 1-8 0 4 4 0 1 1 8 0zm-.178 4.625C23.153 17.525 24 15.861 24 14a6 6 0 1 0-12 0c0 1.861.848 3.525 2.178 4.625a12 12 0 0 0-8.009 9.372l1.972.334A10 10 0 0 1 18.066 20a10 10 0 0 1 9.815 8.46l1.976-.308a12 12 0 0 0-8.035-9.527z"/></mask><path fill-rule="evenodd" d="M22 14a4 4 0 1 1-8 0 4 4 0 1 1 8 0zm-.178 4.625C23.153 17.525 24 15.861 24 14a6 6 0 1 0-12 0c0 1.861.848 3.525 2.178 4.625a12 12 0 0 0-8.009 9.372l1.972.334A10 10 0 0 1 18.066 20a10 10 0 0 1 9.815 8.46l1.976-.308a12 12 0 0 0-8.035-9.527z" fill="#000"/><path d="M21.822 18.625l-1.275-1.541-2.77 2.292 3.408 1.145.637-1.896zm-7.645 0l.637 1.896 3.408-1.145-2.77-2.292-1.275 1.541zm-3.892 2.183L9 19.277h0l1.286 1.532zm-4.117 7.188l-1.972-.334-.334 1.972 1.972.334.334-1.972zm1.972.334l-.334 1.972 1.972.334.334-1.972-1.972-.334zm3.431-5.99l-1.286-1.532h0l1.286 1.532zM18.066 20l.013-2h0l-.013 2zm6.463 2.425l1.306-1.515h0l-1.306 1.515zm3.352 6.035l-1.976.308.308 1.976 1.976-.308-.308-1.976zm1.976-.308l.308 1.976 1.976-.308-.308-1.976-1.976.308zm-4.023-7.242l-1.306 1.515h0l1.306-1.515zM18 20a6 6 0 0 0 6-6h-4a2 2 0 0 1-2 2v4zm-6-6a6 6 0 0 0 6 6v-4a2 2 0 0 1-2-2h-4zm6-6a6 6 0 0 0-6 6h4a2 2 0 0 1 2-2V8zm6 6a6 6 0 0 0-6-6v4a2 2 0 0 1 2 2h4zm-.903 6.166C24.867 18.702 26 16.482 26 14h-4c0 1.24-.562 2.347-1.453 3.084l2.55 3.082zM26 14a8 8 0 0 0-8-8v4a4 4 0 0 1 4 4h4zm-8-8a8 8 0 0 0-8 8h4a4 4 0 0 1 4-4V6zm-8 8c0 2.482 1.133 4.702 2.903 6.166l2.55-3.082C14.562 16.347 14 15.24 14 14h-4zm1.571 8.34a10 10 0 0 1 3.244-1.82l-1.274-3.792A14 14 0 0 0 9 19.277l2.572 3.064zm-3.431 5.99a10 10 0 0 1 3.431-5.99L9 19.277a14 14 0 0 0-4.803 8.386l3.944.668zm.334-1.972l-1.972-.334-.668 3.944 1.972.334.668-3.944zm1.811-5.55a12 12 0 0 0-4.117 7.188l3.944.668a8 8 0 0 1 2.745-4.792l-2.572-3.064zM18.079 18a12 12 0 0 0-7.793 2.808l2.572 3.064A8 8 0 0 1 18.052 22l.026-4zm7.756 2.91A12 12 0 0 0 18.079 18l-.026 4a8 8 0 0 1 5.171 1.94l2.611-3.03zm4.023 7.242a12 12 0 0 0-4.023-7.242l-2.611 3.03a8 8 0 0 1 2.682 4.828l3.952-.616zm-.308-1.976l-1.976.308.616 3.952 1.976-.308-.616-3.952zm-5.02-3.75a10 10 0 0 1 3.352 6.035l3.952-.616a14 14 0 0 0-4.693-8.449l-2.611 3.03zm-3.343-1.904a10 10 0 0 1 3.343 1.904l2.611-3.03a14 14 0 0 0-4.681-2.666l-1.274 3.792z" fill="#1dd8a7" mask="url(#A)"/><path fill-rule="evenodd" d="M18 32c7.732 0 14-6.268 14-14S25.732 4 18 4 4 10.268 4 18s6.268 14 14 14zm0 2c8.837 0 16-7.163 16-16S26.837 2 18 2 2 9.163 2 18s7.163 16 16 16z" fill="#5900e7"/></svg>