<svg width="36" height="36" viewBox="0 0 36 36" fill="none" xmlns="http://www.w3.org/2000/svg">
<path d="M25.4095 3H10.5907C6.39847 3 3 6.39847 3 10.5907V25.4095C3 29.6015 6.39847 33 10.5907 33H25.4095C29.6015 33 33 29.6015 33 25.4095V10.5907C33 6.39847 29.6015 3 25.4095 3Z" fill="#00DDB3"/>
<path d="M26.4007 10C20.8401 10 18.7795 13.5622 17.1226 16.4238L16.0401 18.2547C14.2858 21.2895 12.9748 23.1343 9.59679 23.1343C9.38703 23.1342 9.17932 23.1712 8.98552 23.2432C8.79173 23.3152 8.61566 23.4207 8.4674 23.5539C8.31916 23.6869 8.20158 23.8448 8.12139 24.0187C8.04119 24.1925 7.99994 24.3788 8 24.5669C8.00006 24.755 8.04142 24.9413 8.12172 25.115C8.20203 25.2888 8.3197 25.4467 8.46802 25.5797C8.76746 25.8483 9.17336 25.9994 9.59679 26C15.1596 26 17.2202 22.4377 18.8771 19.5762L19.9574 17.7453C21.7139 14.7103 23.0249 12.8657 26.4007 12.8657C26.6106 12.866 26.8186 12.8292 27.0126 12.7573C27.2067 12.6854 27.383 12.5798 27.5315 12.4467C27.68 12.3136 27.7979 12.1556 27.8783 11.9816C27.9586 11.8077 28 11.6212 28 11.4329C27.9992 11.0527 27.8303 10.6884 27.5305 10.4198C27.2307 10.1513 26.8244 10.0003 26.4007 10.0002V10Z" fill="white"/>
</svg>
