<svg width="36" height="36" viewBox="0 0 36 36" fill="none" xmlns="http://www.w3.org/2000/svg">
<path d="M25.0613 17.1659C25.2658 17.1391 25.4728 17.1391 25.6773 17.1659C25.7872 16.91 25.8064 16.469 25.7071 15.9892C25.5594 15.2763 25.3594 14.844 24.9467 14.9115C24.5341 14.9789 24.5182 15.4954 24.6659 16.209C24.7494 16.61 24.8971 16.9534 25.0633 17.1659H25.0613ZM21.5138 17.7325C21.8099 17.8661 21.9907 17.9503 22.0622 17.8748C22.1874 17.7452 21.8317 17.2474 21.2595 17.0002C20.9291 16.8621 20.5689 16.8121 20.2138 16.8552C19.8587 16.8983 19.5206 17.0329 19.2321 17.2461C19.0333 17.3917 18.8472 17.5948 18.8737 17.7178C18.93 17.9677 19.5361 17.5367 20.3706 17.4853C20.8343 17.4559 21.2184 17.6022 21.5138 17.7331V17.7325ZM20.9177 18.0753C20.317 18.1701 19.9242 18.5116 20.0255 18.7501C20.0851 18.7728 20.103 18.8042 20.3706 18.696C20.7659 18.5455 21.193 18.5006 21.6105 18.5657C21.8039 18.5884 21.896 18.6004 21.9377 18.533C22.0344 18.3846 21.5595 17.9984 20.9184 18.0753H20.9177ZM24.5056 19.2178C24.7295 18.7588 23.7837 18.2871 23.5585 18.7501C23.3333 19.2132 24.2817 19.6775 24.5069 19.2158L24.5056 19.2178ZM25.5428 17.8501C25.0355 17.8414 25.0163 18.9058 25.5256 18.9145C26.035 18.9232 26.0542 17.8581 25.5442 17.8481L25.5428 17.8501ZM11.0515 23.122C10.964 23.1427 10.6541 23.2189 10.4905 22.965C10.1461 22.4304 11.2263 21.6032 10.6892 20.5749C10.0864 19.4076 8.84654 19.6702 8.36767 20.2047C7.79077 20.8462 7.79011 21.7776 8.0365 21.8137C8.31932 21.8518 8.30673 21.3814 8.52531 21.0366C8.58638 20.9415 8.66553 20.8596 8.75817 20.7956C8.85082 20.7316 8.95512 20.6867 9.06506 20.6636C9.175 20.6405 9.28839 20.6396 9.39867 20.6609C9.50896 20.6823 9.61395 20.7255 9.70758 20.788C10.4752 21.2952 9.79833 21.9747 9.8586 22.7004C9.95066 23.8149 11.0786 23.7942 11.2879 23.3017C11.3014 23.2774 11.3074 23.2496 11.305 23.2218C11.3027 23.1941 11.2921 23.1676 11.2747 23.146C11.2767 23.2055 11.3197 23.0592 11.0528 23.12L11.0515 23.122ZM30.9032 21.9814C30.6813 21.1976 30.7329 21.3653 30.4541 20.6103C30.6164 20.3651 31.4668 19.0067 30.2508 17.7205C29.5619 16.9908 28.0054 16.6153 27.5285 16.4817C27.4292 15.7206 27.8365 12.5595 26.1032 10.9358C27.4802 9.4959 28.3392 7.90966 28.3373 6.54926C28.3333 3.93269 25.1481 3.14157 21.2224 4.7806L20.3911 5.13674C20.3872 5.1334 18.887 3.64871 18.8645 3.62867C14.3903 -0.308211 0.397054 15.3812 4.87117 19.1924L5.84878 20.0283C5.58495 20.7425 5.49191 21.5094 5.57722 22.2667C5.79977 24.4984 7.96165 26.3038 10.05 26.3011C13.8737 35.1919 27.7941 35.2066 31.3966 26.5016C31.5119 26.2029 32 24.8572 32 23.6699C32 22.4825 31.3317 21.9814 30.9052 21.9814H30.9032ZM9.97318 25.1993C8.46172 25.1586 6.82971 23.7861 6.66744 22.1585C6.25877 18.0619 11.586 17.1291 12.2311 21.3346C12.5318 23.3151 11.9218 25.2428 9.9712 25.1973L9.97318 25.1993ZM8.74719 17.5688C7.74308 17.7659 6.85819 18.3399 6.3164 19.1356C5.99318 18.8637 5.38912 18.3338 5.28381 18.1334C4.4221 16.473 6.22698 13.2557 7.4894 11.4376C10.6097 6.94548 15.4958 3.54582 17.759 4.16254C18.1266 4.26744 19.3446 5.69199 19.3446 5.69199C19.3446 5.69199 17.0828 6.95751 14.9864 8.72216C12.1609 10.9171 10.0262 14.107 8.74719 17.5688ZM24.5692 24.3274C24.5692 24.3274 22.202 24.6815 19.9653 23.855C20.3766 22.5079 21.7536 24.2625 26.3502 22.9322C27.363 22.6396 28.6929 22.0636 29.7282 21.2384C29.951 21.7575 30.1094 22.3024 30.1998 22.8607C30.4422 22.8166 31.1436 22.826 30.9575 24.0701C30.7396 25.3978 30.1806 26.4755 29.24 27.4671C28.6526 28.1093 27.9532 28.6372 27.1768 29.0246C26.7444 29.2532 26.2937 29.445 25.8296 29.5979C22.2854 30.7659 18.6565 29.4816 17.4841 26.7248C17.389 26.5144 17.3104 26.2968 17.249 26.074C16.7503 24.2565 17.1735 22.0763 18.4969 20.7039C18.5783 20.6163 18.6611 20.5134 18.6611 20.3838C18.6496 20.2722 18.6053 20.1666 18.5339 20.0804C18.0703 19.4036 16.4681 18.2496 16.79 16.0159C17.0218 14.4123 18.4121 13.2824 19.7089 13.3493L20.0401 13.3686C20.6018 13.402 21.0926 13.4749 21.5555 13.4943C22.3298 13.5277 23.0259 13.4147 23.8499 12.7218C24.1281 12.488 24.3513 12.2849 24.7282 12.22C24.8805 12.182 25.0389 12.1756 25.1938 12.2014C25.3487 12.2271 25.4967 12.2844 25.6289 12.3697C26.2913 12.8134 26.384 13.8885 26.4185 14.6743C26.4377 15.1233 26.4913 16.2111 26.5099 16.5204C26.5516 17.2334 26.737 17.3336 27.1132 17.4559C27.3245 17.526 27.5206 17.5781 27.8094 17.6603C28.6843 17.9082 29.2003 18.1601 29.5315 18.4828C29.7004 18.6497 29.8106 18.8677 29.8454 19.1036C29.9487 19.8633 29.2612 20.8007 27.4404 21.6533C24.3466 23.1019 21.2356 22.6188 20.7852 22.5674C19.4506 22.3863 18.6903 24.1256 19.4904 25.3169C20.9899 27.5493 27.5974 26.6533 29.5162 23.8904C29.5619 23.8236 29.5242 23.7841 29.4679 23.8236C26.7013 25.7332 23.0392 26.3766 20.9594 25.5608C20.6435 25.4372 19.9838 25.1305 19.9037 24.447C22.7915 25.3483 24.6063 24.4964 24.6063 24.4964C24.6063 24.4964 24.7407 24.31 24.5692 24.3274ZM14.5102 11.4182C15.619 10.1253 16.9847 9.00079 18.2081 8.36936C18.2173 8.36385 18.2281 8.36159 18.2387 8.36295C18.2494 8.3643 18.2593 8.36919 18.2669 8.37685C18.2745 8.38451 18.2793 8.39449 18.2807 8.40523C18.282 8.41597 18.2798 8.42686 18.2743 8.43618C18.1776 8.61391 17.9902 8.99344 17.9306 9.28142C17.9282 9.29132 17.9289 9.30171 17.9325 9.31122C17.9361 9.32072 17.9425 9.32888 17.9509 9.33461C17.9592 9.34035 17.9691 9.34338 17.9792 9.3433C17.9893 9.34323 17.9991 9.34006 18.0074 9.33421C18.7684 8.81103 20.0924 8.25043 21.2529 8.17827C21.2638 8.17751 21.2747 8.18033 21.2839 8.18631C21.2931 8.19229 21.3002 8.20111 21.3041 8.21145C21.3079 8.2218 21.3084 8.23313 21.3054 8.24376C21.3023 8.25439 21.296 8.26376 21.2873 8.27047C21.0954 8.41962 20.9237 8.59349 20.7766 8.78764C20.7713 8.79504 20.7681 8.80377 20.7673 8.81287C20.7666 8.82198 20.7683 8.83112 20.7723 8.83931C20.7764 8.8475 20.7825 8.85442 20.7902 8.85933C20.7978 8.86424 20.8067 8.86694 20.8157 8.86715C21.6311 8.87317 22.7802 9.16115 23.5313 9.58477C23.5816 9.6135 23.5459 9.71239 23.4889 9.6997C18.8823 8.63463 15.3368 10.9378 14.5804 11.4924C14.5703 11.499 14.5583 11.5017 14.5464 11.5C14.5345 11.4984 14.5236 11.4926 14.5156 11.4835C14.5076 11.4745 14.5031 11.4629 14.5028 11.4508C14.5026 11.4387 14.5066 11.4269 14.5142 11.4176L14.5102 11.4182Z" fill="#5900E7"/>
</svg>
