<svg width="36" height="36" viewBox="0 0 36 36" fill="none" xmlns="http://www.w3.org/2000/svg">
<path fill-rule="evenodd" clip-rule="evenodd" d="M12 5H24V7H12V5ZM10 7V5C10 3.89543 10.8954 3 12 3H24C25.1046 3 26 3.89543 26 5V7H27C28.1046 7 29 7.89543 29 9V11H31C32.1046 11 33 11.8954 33 13V31C33 32.1046 32.1046 33 31 33H5C3.89543 33 3 32.1046 3 31V13C3 11.8954 3.89543 11 5 11H7V9C7 7.89543 7.89543 7 9 7H10ZM24 9H12H9L9 11H27V9H24ZM9 13H27H31V31H5L5 13H9Z" fill="#5900E7"/>
<path fill-rule="evenodd" clip-rule="evenodd" d="M14.1324 26.17C14.1633 26.2076 14.192 26.2468 14.2184 26.2873C14.2449 26.3276 14.269 26.3693 14.2909 26.4119C14.4952 26.811 14.4945 27.297 14.207 27.6495C13.858 28.0773 13.2219 28.1454 12.8482 27.7391C12.7579 27.6409 12.6705 27.5403 12.5861 27.4373L12.5664 27.4132C11.9673 26.6755 11.5214 25.8196 11.2614 24.8952C10.8716 23.5089 10.9187 22.0361 11.3965 20.6776C11.8742 19.3192 12.7593 18.1411 13.9311 17.304C15.1029 16.467 16.5044 16.0117 17.9444 16.0002C19.3844 15.9888 20.7929 16.4217 21.9778 17.2401C23.1628 18.0584 24.0665 19.2223 24.5658 20.573C25.0651 21.9237 25.1356 23.3956 24.7678 24.7878C24.5226 25.7163 24.0904 26.5792 23.503 27.3263L23.4837 27.3507C23.401 27.455 23.3152 27.557 23.2265 27.6566C22.8592 28.0688 22.2222 28.0108 21.8664 27.5886C21.5733 27.2408 21.5649 26.7548 21.7629 26.3526C21.784 26.3096 21.8076 26.2675 21.8333 26.2267C21.8591 26.1859 21.8872 26.1462 21.9175 26.1081C22.3441 25.5704 22.6577 24.9477 22.8348 24.2772C23.0976 23.2826 23.0472 22.2311 22.6905 21.2662C22.3338 20.3012 21.6882 19.4698 20.8417 18.8852C19.9952 18.3006 18.989 17.9913 17.9603 17.9995C16.9315 18.0076 15.9304 18.3329 15.0933 18.9309C14.2562 19.5289 13.6238 20.3705 13.2825 21.3409C12.9412 22.3114 12.9076 23.3636 13.1861 24.3539C13.3738 25.0215 13.6973 25.6391 14.1324 26.17ZM20.1835 25.0573C19.8874 25.3715 19.442 25.3183 19.1406 25.0453C19.0582 24.9707 18.9865 24.8795 18.9316 24.775L18.7804 24.4868C18.6614 24.2601 18.7011 23.9953 18.7873 23.7419C18.8072 23.6836 18.8295 23.6259 18.8529 23.5694C18.8747 23.5167 18.8974 23.465 18.92 23.4149C19.0091 23.2173 19.0322 22.9965 18.9861 22.7851C18.9843 22.7767 18.9823 22.7683 18.9803 22.7599C18.9267 22.541 18.8013 22.3463 18.6242 22.2069C18.4471 22.0675 18.2284 21.9914 18.003 21.9908C17.7776 21.9901 17.5585 22.0649 17.3806 22.2032C17.2026 22.3416 17.0761 22.5355 17.0212 22.7541C17.0191 22.7624 17.0171 22.7708 17.0152 22.7792C16.9679 22.9903 16.9896 23.2113 17.0775 23.4094C17.0998 23.4596 17.1223 23.5114 17.1438 23.5643C17.1668 23.6209 17.1888 23.6787 17.2082 23.7371C17.2929 23.9911 17.3311 24.2561 17.2107 24.4822L17.0578 24.7694C17.0023 24.8736 16.9301 24.9643 16.8472 25.0385C16.5442 25.3097 16.0984 25.3602 15.8043 25.0442C15.6002 24.825 15.429 24.5753 15.2975 24.3025C15.2839 24.2742 15.2707 24.2457 15.2579 24.2169C14.9861 23.6045 14.9272 22.9188 15.0904 22.269C15.2537 21.6192 15.6297 21.0428 16.1587 20.6315C16.6876 20.2203 17.339 19.998 18.009 20C18.6789 20.002 19.329 20.2282 19.8554 20.6426C20.3819 21.057 20.7545 21.6356 20.9139 22.2864C21.0733 22.9371 21.0102 23.6225 20.7348 24.2332C20.7219 24.2619 20.7085 24.2904 20.6947 24.3186C20.5616 24.5906 20.3888 24.8393 20.1835 25.0573Z" fill="#1DD8A7"/>
</svg>
