<svg width="36" height="36" viewBox="0 0 36 36" fill="none" xmlns="http://www.w3.org/2000/svg">
<path d="M16.1248 8.99611C16.0572 7.91442 16.9162 7 18 7C19.0838 7 19.9428 7.91442 19.8752 8.99611L19.0624 22.0019C19.0273 22.563 18.5621 23 18 23C17.4379 23 16.9727 22.563 16.9376 22.0019L16.1248 8.99611Z" fill="#1DD8A7"/>
<circle cx="18" cy="27" r="2" fill="#1DD8A7"/>
<path fill-rule="evenodd" clip-rule="evenodd" d="M30 5H6C5.44772 5 5 5.44772 5 6V30C5 30.5523 5.44772 31 6 31H30C30.5523 31 31 30.5523 31 30V6C31 5.44772 30.5523 5 30 5ZM6 3C4.34315 3 3 4.34315 3 6V30C3 31.6569 4.34315 33 6 33H30C31.6569 33 33 31.6569 33 30V6C33 4.34315 31.6569 3 30 3H6Z" fill="#5900E7"/>
</svg>
