<svg width="36" height="36" viewBox="0 0 36 36" fill="none" xmlns="http://www.w3.org/2000/svg">
<path fill-rule="evenodd" clip-rule="evenodd" d="M30 5H6C5.44772 5 5 5.44772 5 6V30C5 30.5523 5.44772 31 6 31H30C30.5523 31 31 30.5523 31 30V6C31 5.44772 30.5523 5 30 5ZM6 3C4.34315 3 3 4.34315 3 6V30C3 31.6569 4.34315 33 6 33H30C31.6569 33 33 31.6569 33 30V6C33 4.34315 31.6569 3 30 3H6Z" fill="#5900E7"/>
<path fill-rule="evenodd" clip-rule="evenodd" d="M9 9V15H15V9H9ZM8.5 7C7.67157 7 7 7.67157 7 8.5V15.5C7 16.3284 7.67157 17 8.5 17H15.5C16.3284 17 17 16.3284 17 15.5V8.5C17 7.67157 16.3284 7 15.5 7H8.5Z" fill="#1DD8A7"/>
<path fill-rule="evenodd" clip-rule="evenodd" d="M21 15V21H27V15H21ZM20.5 13C19.6716 13 19 13.6716 19 14.5V21.5C19 22.3284 19.6716 23 20.5 23H27.5C28.3284 23 29 22.3284 29 21.5V14.5C29 13.6716 28.3284 13 27.5 13H20.5Z" fill="#1DD8A7"/>
<path fill-rule="evenodd" clip-rule="evenodd" d="M9 21V27H15V21H9ZM8.5 19C7.67157 19 7 19.6716 7 20.5V27.5C7 28.3284 7.67157 29 8.5 29H15.5C16.3284 29 17 28.3284 17 27.5V20.5C17 19.6716 16.3284 19 15.5 19H8.5Z" fill="#1DD8A7"/>
<path fill-rule="evenodd" clip-rule="evenodd" d="M29 29V26.5C29 25.6716 28.3284 25 27.5 25H20.5C19.6716 25 19 25.6716 19 26.5V29H21V27H27V29H29Z" fill="#1DD8A7"/>
<path fill-rule="evenodd" clip-rule="evenodd" d="M19 7V9.5C19 10.3284 19.6716 11 20.5 11H27.5C28.3284 11 29 10.3284 29 9.5V7H27V9H21V7H19Z" fill="#1DD8A7"/>
</svg>
