<svg width="36" height="36" viewBox="0 0 36 36" fill="none" xmlns="http://www.w3.org/2000/svg">
<path fill-rule="evenodd" clip-rule="evenodd" d="M25 4H11C10.4477 4 10 4.44772 10 5V31C10 31.5523 10.4477 32 11 32H25C25.5523 32 26 31.5523 26 31V5C26 4.44771 25.5523 4 25 4ZM11 2C9.34315 2 8 3.34315 8 5V31C8 32.6569 9.34315 34 11 34H25C26.6569 34 28 32.6569 28 31V5C28 3.34315 26.6569 2 25 2H11Z" fill="#5900E7"/>
<path d="M22 27.8C22 27.3582 22.3582 27 22.8 27H23.2C23.6418 27 24 27.3582 24 27.8V28.2C24 28.6418 23.6418 29 23.2 29H22.8C22.3582 29 22 28.6418 22 28.2V27.8Z" fill="#1DD8A7"/>
<path d="M12 27.8C12 27.3582 12.3582 27 12.8 27H13.2C13.6418 27 14 27.3582 14 27.8V28.2C14 28.6418 13.6418 29 13.2 29H12.8C12.3582 29 12 28.6418 12 28.2V27.8Z" fill="#1DD8A7"/>
<path d="M16 27.6C16 26.7163 16.7163 26 17.6 26H18.4C19.2837 26 20 26.7163 20 27.6V28.4C20 29.2837 19.2837 30 18.4 30H17.6C16.7163 30 16 29.2837 16 28.4V27.6Z" fill="#1DD8A7"/>
</svg>
