<svg width="36" height="36" viewBox="0 0 36 36" fill="none" xmlns="http://www.w3.org/2000/svg">
<rect x="12" y="10.5" width="18" height="2" rx="1" fill="#1DD8A7"/>
<rect x="6" y="10.5" width="4" height="2" rx="1" fill="#1DD8A7"/>
<path fill-rule="evenodd" clip-rule="evenodd" d="M5 8H31C31.5523 8 32 8.44772 32 9V14C32 14.5523 31.5523 15 31 15H27H25H5C4.44772 15 4 14.5523 4 14V9C4 8.44772 4.44772 8 5 8ZM2 14V9C2 7.34315 3.34315 6 5 6H31C32.6569 6 34 7.34315 34 9V14C34 15.6569 32.6569 17 31 17H27V27C27 28.6569 25.6569 30 24 30H5C3.34315 30 2 28.6569 2 27V16.8284V16V14ZM25 17H5H4V27C4 27.5523 4.44772 28 5 28H24C24.5523 28 25 27.5523 25 27V17Z" fill="#5900E7"/>
</svg>
