<svg width="36" height="36" viewBox="0 0 36 36" fill="none" xmlns="http://www.w3.org/2000/svg">
<path fill-rule="evenodd" clip-rule="evenodd" d="M21 10V5H19V10C19 12.2091 20.7909 14 23 14C25.2091 14 27 12.2091 27 10V5H25V10C25 11.1046 24.1046 12 23 12C21.8954 12 21 11.1046 21 10ZM15 16V20C15 21.1046 14.1046 22 13 22C11.8954 22 11 21.1046 11 20V16C11 14.8954 11.8954 14 13 14C14.1046 14 15 14.8954 15 16ZM9 16C9 13.7909 10.7909 12 13 12C15.2091 12 17 13.7909 17 16V20C17 22.2091 15.2091 24 13 24C10.7909 24 9 22.2091 9 20V16ZM23 21H23.0095H25V31H23V25C22.6909 25.2318 22.3554 25.4275 22 25.5826C21.9713 25.5951 21.9424 25.6074 21.9134 25.6194C21.3068 25.8707 20.6566 26 20 26V24.0095C20.3952 24.0095 20.7865 23.9316 21.1517 23.7804C21.5168 23.6291 21.8486 23.4075 22.128 23.128C22.4075 22.8486 22.6291 22.5168 22.7804 22.1517C22.9011 21.8602 22.9751 21.552 23 21.2385V21Z" fill="#1DD8A7"/>
<path fill-rule="evenodd" clip-rule="evenodd" d="M31 5H5L5 31H31V5ZM5 3C3.89543 3 3 3.89543 3 5V31C3 32.1046 3.89543 33 5 33H31C32.1046 33 33 32.1046 33 31V5C33 3.89543 32.1046 3 31 3H5Z" fill="#5900E7"/>
</svg>
