<svg width="36" height="36" viewBox="0 0 36 36" fill="none" xmlns="http://www.w3.org/2000/svg">
<path fill-rule="evenodd" clip-rule="evenodd" d="M5 12C5 10.8954 5.89543 10 7 10H9V8H7C4.79086 8 3 9.79086 3 12V24C3 26.2091 4.79086 28 7 28H14V30H12C11.4477 30 11 30.4477 11 31C11 31.5523 11.4477 32 12 32H15H21H24C24.5523 32 25 31.5523 25 31C25 30.4477 24.5523 30 24 30H22V28H29C31.2091 28 33 26.2091 33 24V12C33 9.79086 31.2091 8 29 8H28V10H29C30.1046 10 31 10.8954 31 12V24C31 25.1046 30.1046 26 29 26H21H15H7C5.89543 26 5 25.1046 5 24V12ZM20 28H16V30H20V28Z" fill="#5900E7"/>
<path fill-rule="evenodd" clip-rule="evenodd" d="M13 9V13H16V9H13ZM12.5 7C11.6716 7 11 7.67157 11 8.5V13.5C11 14.3284 11.6716 15 12.5 15H16.5C17.3284 15 18 14.3284 18 13.5V8.5C18 7.67157 17.3284 7 16.5 7H12.5Z" fill="#1DD8A7"/>
<rect x="19.5" y="8.5" width="5" height="1" rx="0.5" stroke="#1DD8A7"/>
<rect x="19.5" y="12.5" width="5" height="1" rx="0.5" stroke="#1DD8A7"/>
<path d="M18 22.3C17.7 22.3 17.5 22.2 17.3 22L14.6 19.2C14.3 19 14 18.9 13.7 18.9H10.2C9.8 18.9 9.4 18.8 9 18.7C8.6 18.5 8.3 18.3 8 18C7.7 17.7 7.5 17.3 7.3 16.9C7.1 16.5 7 16 7 15.6V6.3C7 5.8 7.1 5.4 7.2 5C7.4 4.6 7.6 4.3 7.9 4C8.2 3.7 8.6 3.5 8.9 3.3C9.4 3.1 9.8 3 10.2 3H25.7C26.1 3 26.5 3.1 26.9 3.2C27.3 3.4 27.6 3.6 27.9 3.9C28.2 4.2 28.4 4.6 28.6 5C28.9 5.4 29 5.8 29 6.3V15.6C29 16 28.9 16.4 28.8 16.8C28.6 17.2 28.4 17.6 28.1 17.9C27.8 18.2 27.4 18.4 27.1 18.6C26.8 18.8 26.3 18.8 25.9 18.8H22.4C22.1 18.8 21.8 18.9 21.6 19.2L18.7 22C18.5 22.2 18.3 22.3 18 22.3ZM10.2 16.9H13.7C14.6 16.9 15.4 17.3 16 17.9L18 19.9L20 17.9C20.6 17.3 21.4 16.9 22.3 16.9H25.8C26 16.9 26.1 16.9 26.3 16.8C26.4 16.7 26.6 16.6 26.7 16.5C26.8 16.4 26.9 16.2 27 16.1C27.1 15.9 27.1 15.8 27.1 15.6V6.3C27.1 6.1 27.1 6 27 5.8C26.9 5.6 26.8 5.5 26.7 5.4C26.6 5.3 26.5 5.2 26.3 5.1C26.1 5 25.9 5 25.8 5H10.2C10.1 5 9.9 5 9.8 5.1C9.6 5.2 9.5 5.2 9.4 5.4C9.2 5.5 9.2 5.6 9.1 5.8C9 5.9 9 6.1 9 6.3V15.6C9 15.8 9 15.9 9.1 16.1C9.2 16.3 9.3 16.4 9.4 16.5C9.5 16.6 9.6 16.7 9.8 16.8C9.9 16.8 10.1 16.9 10.2 16.9Z" fill="#1DD8A7"/>
</svg>
