<svg width="36" height="36" viewBox="0 0 36 36" fill="none" xmlns="http://www.w3.org/2000/svg">
<path d="M18 32C17.7 32 17.5 31.9 17.3 31.7L13.2 27.5C13 27.3 12.7 27.1 12.4 27C12.1 26.9 11.8 26.8 11.5 26.8H6.3C5.1 26.8 4 26.3 3.2 25.5C2.4 24.7 2 23.6 2 22.4V8.4C2 7.2 2.4 6.1 3.3 5.3C4.1 4.5 5.2 4 6.3 4H29.6C30.7 4 31.9 4.5 32.7 5.3C33.6 6.1 34 7.2 34 8.4V22.4C34 23.6 33.6 24.7 32.7 25.5C31.9 26.3 30.8 26.8 29.6 26.8H24.4C24.1 26.8 23.8 26.9 23.5 27C23.2 27.1 23 27.3 22.7 27.5L18.6 31.7C18.5 31.9 18.3 32 18 32ZM6.3 6C5.7 6 5.1 6.2 4.7 6.7C4.3 7.1 4 7.8 4 8.4V22.4C4 23 4.3 23.7 4.7 24.1C5.1 24.5 5.7 24.8 6.3 24.8H11.5C12.1 24.8 12.6 24.9 13.2 25.1C13.8 25.3 14.2 25.6 14.6 26.1L18 29.5L21.4 26.1C21.8 25.7 22.3 25.4 22.8 25.1C23.3 24.9 23.9 24.8 24.5 24.8H29.7C30.3 24.8 30.9 24.6 31.3 24.1C31.7 23.7 32 23 32 22.4V8.4C32 7.8 31.7 7.1 31.3 6.7C30.9 6.3 30.3 6 29.7 6H6.3Z" fill="#5900E7"/>
<circle cx="18" cy="15" r="1.5" fill="#1DD8A7"/>
<circle cx="9.5" cy="15" r="1.5" fill="#1DD8A7"/>
<circle cx="26.5" cy="15" r="1.5" fill="#1DD8A7"/>
</svg>
