<svg width="36" height="36" viewBox="0 0 36 36" fill="none" xmlns="http://www.w3.org/2000/svg">
<path fill-rule="evenodd" clip-rule="evenodd" d="M8.6428 4.65896C9.04532 4.22808 9.57611 4 10.1139 4H18.7438V10.2833C18.7438 11.1904 19.0798 12.073 19.6971 12.7337C20.3165 13.3968 21.1718 13.7833 22.0792 13.7833H28V29.6667C28 30.3066 27.7619 30.9079 27.3572 31.341C26.9547 31.7719 26.4239 32 25.8861 32H10.1139C9.57611 32 9.04532 31.7719 8.6428 31.341C8.23813 30.9079 8 30.3066 8 29.6667V6.33333C8 5.69336 8.23813 5.09214 8.6428 4.65896ZM27.8648 11.7833L20.7438 4.45462V10.2833C20.7438 10.7023 20.8999 11.0915 21.1586 11.3684C21.4151 11.643 21.7479 11.7833 22.0792 11.7833H27.8648ZM10.1139 2C9.00004 2 7.94674 2.4743 7.18131 3.29366C6.41802 4.11072 6 5.2052 6 6.33333V29.6667C6 30.7948 6.41802 31.8893 7.18131 32.7063C7.94674 33.5257 9.00004 34 10.1139 34H25.8861C27 34 28.0533 33.5257 28.8187 32.7063C29.582 31.8893 30 30.7948 30 29.6667V11.5167C30 11.2564 29.8986 11.0064 29.7172 10.8198L21.4419 2.30313C21.2536 2.10934 20.9949 2 20.7247 2H10.1139Z" fill="#5900E7"/>
<path fill-rule="evenodd" clip-rule="evenodd" d="M10.3362 25.7833C10.3362 25.231 10.7839 24.7833 11.3362 24.7833H24.3758C24.9281 24.7833 25.3758 25.231 25.3758 25.7833C25.3758 26.3356 24.9281 26.7833 24.3758 26.7833H11.3362C10.7839 26.7833 10.3362 26.3356 10.3362 25.7833Z" fill="#1DD8A7"/>
<path fill-rule="evenodd" clip-rule="evenodd" d="M10.375 18.4417C10.375 17.8894 10.8227 17.4417 11.375 17.4417H24.4146C24.9669 17.4417 25.4146 17.8894 25.4146 18.4417C25.4146 18.9939 24.9669 19.4417 24.4146 19.4417H11.375C10.8227 19.4417 10.375 18.9939 10.375 18.4417Z" fill="#1DD8A7"/>
<path fill-rule="evenodd" clip-rule="evenodd" d="M10.3362 11.1C10.3362 10.5477 10.7839 10.1 11.3362 10.1H14.9873C15.5396 10.1 15.9873 10.5477 15.9873 11.1C15.9873 11.6523 15.5396 12.1 14.9873 12.1H11.3362C10.7839 12.1 10.3362 11.6523 10.3362 11.1Z" fill="#1DD8A7"/>
</svg>
