<svg width="36" height="36" viewBox="0 0 36 36" fill="none" xmlns="http://www.w3.org/2000/svg">
<path fill-rule="evenodd" clip-rule="evenodd" d="M21.1057 12.5529C21.4802 11.8038 22.5545 11.8194 22.9072 12.579L29.4072 26.579C29.6397 27.0799 29.4222 27.6745 28.9213 27.9071C28.4203 28.1396 27.8257 27.9221 27.5931 27.4212L21.9668 15.3029L17.3946 24.4473C17.0261 25.1843 15.9742 25.1843 15.6057 24.4473L12.9204 19.0766L7.85764 27.5146C7.5735 27.9881 6.95924 28.1417 6.48566 27.8576C6.01208 27.5734 5.85851 26.9592 6.14266 26.4856L12.1427 16.4856C12.5486 15.8089 13.5417 15.8471 13.8946 16.5529L16.5002 21.764L21.1057 12.5529Z" fill="#1DD8A7"/>
<path fill-rule="evenodd" clip-rule="evenodd" d="M10 12C10.5523 12 11 11.5523 11 11C11 10.4477 10.5523 10 10 10C9.44772 10 9 10.4477 9 11C9 11.5523 9.44772 12 10 12ZM10 14C11.6569 14 13 12.6569 13 11C13 9.34315 11.6569 8 10 8C8.34315 8 7 9.34315 7 11C7 12.6569 8.34315 14 10 14Z" fill="#1DD8A7"/>
<path fill-rule="evenodd" clip-rule="evenodd" d="M6 6C4.89543 6 4 6.89543 4 8V28C4 29.1046 4.89543 30 6 30H30C31.1046 30 32 29.1046 32 28V17C32 16.4477 32.4477 16 33 16C33.5523 16 34 16.4477 34 17V28C34 30.2091 32.2091 32 30 32H6C3.79086 32 2 30.2091 2 28V8C2 5.79086 3.79086 4 6 4H21C21.5523 4 22 4.44772 22 5C22 5.55228 21.5523 6 21 6H6Z" fill="#5900E7"/>
<path fill-rule="evenodd" clip-rule="evenodd" d="M29 4C28.4477 4 28 4.44772 28 5V8L25 8C24.4477 8 24 8.44772 24 9C24 9.55228 24.4477 10 25 10H28V13C28 13.5523 28.4477 14 29 14C29.5523 14 30 13.5523 30 13V10H33C33.5523 10 34 9.55229 34 9C34 8.44772 33.5523 8 33 8L30 8V5C30 4.44772 29.5523 4 29 4Z" fill="#5900E7"/>
</svg>
