<svg width="36" height="36" viewBox="0 0 36 36" fill="none" xmlns="http://www.w3.org/2000/svg">
<path fill-rule="evenodd" clip-rule="evenodd" d="M21.4012 21.4159C21.7915 21.0252 22.4246 21.0249 22.8154 21.4151L32.7069 31.2931C33.0976 31.6833 33.098 32.3163 32.7077 32.7069C32.3173 33.0975 31.6842 33.0978 31.2934 32.7076L21.4019 22.8296C21.0112 22.4394 21.0108 21.8065 21.4012 21.4159Z" fill="#1DD8A7"/>
<path fill-rule="evenodd" clip-rule="evenodd" d="M14.6159 4.99937C12.7141 4.99937 10.8551 5.56246 9.27391 6.61732C7.69273 7.67218 6.46038 9.17141 5.7325 10.9254C5.00463 12.6793 4.81384 14.6093 5.18422 16.4714C5.5546 18.3336 6.46955 20.0444 7.81356 21.3876C9.1576 22.7307 10.8704 23.6459 12.7354 24.0173C14.6004 24.3887 16.5338 24.1995 18.2912 23.4737C20.0485 22.7479 21.5507 21.5182 22.608 19.9402C23.6653 18.3621 24.2304 16.5066 24.2318 14.6081C24.2327 13.3467 23.9847 12.0975 23.502 10.9319C23.0192 9.76619 22.3112 8.70688 21.4182 7.81449C20.5252 6.9221 19.4649 6.21412 18.2977 5.73107C17.1305 5.24801 15.8794 4.99937 14.6159 4.99937ZM8.16373 4.95427C10.0737 3.68004 12.3191 3 14.6159 3C16.1419 3 17.6529 3.30029 19.0627 3.88375C20.4725 4.4672 21.7534 5.32239 22.8322 6.4005C23.911 7.47861 24.7665 8.7585 25.3498 10.1671C25.9332 11.5756 26.2329 13.0852 26.2318 14.6095C26.2301 16.9039 25.5472 19.1461 24.2697 21.0528C22.9922 22.9595 21.1774 24.445 19.0548 25.3216C16.9323 26.1982 14.5972 26.4267 12.3447 25.9782C10.0922 25.5296 8.0233 24.4243 6.39958 22.8016C4.77584 21.1789 3.67021 19.1117 3.22262 16.8614C2.77502 14.611 3.00561 12.2786 3.88517 10.1592C4.76473 8.03977 6.25371 6.2285 8.16373 4.95427Z" fill="#5900E7"/>
</svg>
