<svg width="36" height="36" viewBox="0 0 36 36" fill="none" xmlns="http://www.w3.org/2000/svg">
<path fill-rule="evenodd" clip-rule="evenodd" d="M13 24C13 23.4477 13.4477 23 14 23L33 23C33.5523 23 34 23.4477 34 24C34 24.5523 33.5523 25 33 25L14 25C13.4477 25 13 24.5523 13 24Z" fill="#5900E7"/>
<path fill-rule="evenodd" clip-rule="evenodd" d="M33.6941 23.2802C34.0917 23.6635 34.1032 24.2966 33.7198 24.6941L26.9698 31.6941C26.5865 32.0917 25.9534 32.1032 25.5559 31.7199C25.1583 31.3365 25.1468 30.7034 25.5302 30.3059L32.2802 23.3059C32.6635 22.9083 33.2966 22.8968 33.6941 23.2802Z" fill="#1DD8A7"/>
<path fill-rule="evenodd" clip-rule="evenodd" d="M25.5664 16.2796C25.9643 15.8966 26.5973 15.9086 26.9804 16.3064L33.7204 23.3064C34.1034 23.7042 34.0915 24.3373 33.6936 24.7204C33.2958 25.1034 32.6627 25.0915 32.2797 24.6936L25.5397 17.6936C25.1566 17.2958 25.1686 16.6627 25.5664 16.2796Z" fill="#1DD8A7"/>
<path fill-rule="evenodd" clip-rule="evenodd" d="M23 12C23 12.5523 22.5523 13 22 13L3 13C2.44772 13 2 12.5523 2 12C2 11.4477 2.44772 11 3 11L22 11C22.5523 11 23 11.4477 23 12Z" fill="#5900E7"/>
<path fill-rule="evenodd" clip-rule="evenodd" d="M2.30586 11.2802C1.9083 11.6635 1.89679 12.2966 2.28015 12.6941L9.03015 19.6941C9.41351 20.0917 10.0466 20.1032 10.4441 19.7199C10.8417 19.3365 10.8532 18.7034 10.4698 18.3059L3.71984 11.3059C3.33648 10.9083 2.70342 10.8968 2.30586 11.2802Z" fill="#1DD8A7"/>
<path fill-rule="evenodd" clip-rule="evenodd" d="M10.4336 4.27964C10.0357 3.89658 9.4027 3.90856 9.01963 4.3064L2.27963 11.3064C1.89656 11.7042 1.90854 12.3373 2.30639 12.7204C2.70423 13.1034 3.33728 13.0915 3.72035 12.6936L10.4603 5.6936C10.8434 5.29576 10.8314 4.66271 10.4336 4.27964Z" fill="#1DD8A7"/>
</svg>
