<svg width="36" height="36" viewBox="0 0 36 36" fill="none" xmlns="http://www.w3.org/2000/svg">
<path fill-rule="evenodd" clip-rule="evenodd" d="M5 13C5 11.8954 5.89543 11 7 11H9V9H7C4.79086 9 3 10.7909 3 13V25C3 27.2091 4.79086 29 7 29H14V31H12C11.4477 31 11 31.4477 11 32C11 32.5523 11.4477 33 12 33H15H21H24C24.5523 33 25 32.5523 25 32C25 31.4477 24.5523 31 24 31H22V29H29C31.2091 29 33 27.2091 33 25V13C33 10.7909 31.2091 9 29 9H27V11H29C30.1046 11 31 11.8954 31 13V25C31 26.1046 30.1046 27 29 27H21H15H7C5.89543 27 5 26.1046 5 25V13ZM20 29H16V31H20V29Z" fill="#5900E7"/>
<path fill-rule="evenodd" clip-rule="evenodd" d="M13 9V11H23V9H13ZM12.5 7C11.6716 7 11 7.67157 11 8.5V11.5C11 12.3284 11.6716 13 12.5 13H23.5C24.3284 13 25 12.3284 25 11.5V8.5C25 7.67157 24.3284 7 23.5 7H12.5Z" fill="#1DD8A7"/>
<rect x="11" y="16" width="14" height="2" rx="1" fill="#1DD8A7"/>
<path fill-rule="evenodd" clip-rule="evenodd" d="M26 5H10C9.44772 5 9 5.44772 9 6V21C9 21.5523 9.44772 22 10 22H26C26.5523 22 27 21.5523 27 21V6C27 5.44772 26.5523 5 26 5ZM10 3C8.34315 3 7 4.34315 7 6V21C7 22.6569 8.34315 24 10 24H26C27.6569 24 29 22.6569 29 21V6C29 4.34315 27.6569 3 26 3H10Z" fill="#1DD8A7"/>
</svg>
