<svg width="36" height="36" viewBox="0 0 36 36" fill="none" xmlns="http://www.w3.org/2000/svg">
<path fill-rule="evenodd" clip-rule="evenodd" d="M18 5C14.1633 5 11.053 8.1103 11.053 11.9471C11.053 15.7838 14.1633 18.8941 18 18.8941C21.8368 18.8941 24.9471 15.7838 24.9471 11.9471C24.9471 8.1103 21.8368 5 18 5ZM9.05298 11.9471C9.05298 7.00573 13.0587 3 18 3C22.9414 3 26.9471 7.00573 26.9471 11.9471C26.9471 16.8884 22.9414 20.8941 18 20.8941C13.0587 20.8941 9.05298 16.8884 9.05298 11.9471Z" fill="#1DD8A7"/>
<path fill-rule="evenodd" clip-rule="evenodd" d="M6.83862 22.7328C9.29645 20.275 12.63 18.8942 16.1059 18.8942H19.8941C21.6152 18.8942 23.3194 19.2332 24.9095 19.8918C26.4996 20.5504 27.9444 21.5158 29.1614 22.7328C30.3784 23.9498 31.3437 25.3946 32.0024 26.9846C32.661 28.5747 33 30.279 33 32C33 32.5523 32.5523 33 32 33C31.4477 33 31 32.5523 31 32C31 30.5416 30.7127 29.0974 30.1546 27.75C29.5965 26.4026 28.7784 25.1783 27.7472 24.147C26.7159 23.1157 25.4916 22.2977 24.1442 21.7396C22.7967 21.1814 21.3526 20.8942 19.8941 20.8942H16.1059C13.1604 20.8942 10.3356 22.0642 8.25284 24.147C6.17008 26.2298 5 29.0546 5 32C5 32.5523 4.55228 33 4 33C3.44772 33 3 32.5523 3 32C3 28.5242 4.38079 25.1906 6.83862 22.7328Z" fill="#5900E7"/>
</svg>
