<svg width="36" height="36" viewBox="0 0 36 36" fill="none" xmlns="http://www.w3.org/2000/svg">
<path fill-rule="evenodd" clip-rule="evenodd" d="M29 4H7C6.44772 4 6 4.44772 6 5V31C6 31.5523 6.44772 32 7 32H29C29.5523 32 30 31.5523 30 31V5C30 4.44772 29.5523 4 29 4ZM7 2C5.34315 2 4 3.34315 4 5V31C4 32.6569 5.34315 34 7 34H29C30.6569 34 32 32.6569 32 31V5C32 3.34315 30.6569 2 29 2H7Z" fill="#5900E7"/>
<path d="M12.3263 10.9601C12.1461 10.9601 12 10.814 12 10.6338V8.53992C12 8.26378 12.2239 8.03992 12.5 8.03992H13.2178C13.4519 8.03992 13.6513 8.08222 13.8161 8.16683C13.9809 8.25048 14.1065 8.36692 14.1929 8.51616C14.2803 8.66445 14.324 8.83555 14.324 9.02947C14.324 9.22338 14.2798 9.39449 14.1914 9.54278C14.103 9.69106 13.9749 9.80656 13.8071 9.88926C13.6403 9.97196 13.4383 10.0133 13.2012 10.0133H12.425V9.51854H13.0957C13.2213 9.51854 13.3248 9.4981 13.4062 9.45722C13.4886 9.4154 13.5499 9.35789 13.5901 9.2847C13.6312 9.21055 13.6518 9.12548 13.6518 9.02947C13.6518 8.93251 13.6312 8.84791 13.5901 8.77567C13.5499 8.70247 13.4886 8.64591 13.4062 8.60599C13.3238 8.56511 13.2193 8.54468 13.0927 8.54468H12.6526V10.6338C12.6526 10.814 12.5065 10.9601 12.3263 10.9601Z" fill="#1DD8A7"/>
<path d="M15.0742 10.9601C14.894 10.9601 14.7479 10.814 14.7479 10.6338V8.53992C14.7479 8.26378 14.9718 8.03992 15.2479 8.03992H15.9657C16.1988 8.03992 16.3978 8.07937 16.5625 8.15827C16.7283 8.23622 16.8544 8.34696 16.9408 8.49049C17.0283 8.63308 17.072 8.80086 17.072 8.99382C17.072 9.18774 17.0278 9.35456 16.9393 9.4943C16.8509 9.63308 16.7228 9.73954 16.555 9.81369C16.3882 9.88783 16.1863 9.9249 15.9491 9.9249H15.1338V9.42871H15.8436C15.9682 9.42871 16.0717 9.41255 16.1541 9.38023C16.2365 9.34791 16.2978 9.29943 16.338 9.23479C16.3792 9.17015 16.3998 9.08983 16.3998 8.99382C16.3998 8.89686 16.3792 8.81511 16.338 8.74857C16.2978 8.68203 16.236 8.63165 16.1526 8.59743C16.0702 8.56226 15.9662 8.54468 15.8406 8.54468H15.4005V10.6338C15.4005 10.814 15.2544 10.9601 15.0742 10.9601ZM16.4148 9.63118L16.9126 10.4934C17.0323 10.7008 16.8826 10.9601 16.6432 10.9601C16.531 10.9601 16.4274 10.8997 16.3723 10.802L15.711 9.63118H16.4148Z" fill="#1DD8A7"/>
<path d="M17.8595 8.03992C18.0397 8.03992 18.1858 8.18601 18.1858 8.36622V10.6338C18.1858 10.814 18.0397 10.9601 17.8595 10.9601C17.6792 10.9601 17.5332 10.814 17.5332 10.6338V8.36622C17.5332 8.18601 17.6792 8.03992 17.8595 8.03992Z" fill="#1DD8A7"/>
<path d="M21.3477 8.70204C21.4299 8.88334 21.2703 9.06226 21.0713 9.06226H21.015C20.8834 9.06226 20.7792 8.9602 20.7121 8.84696C20.675 8.78327 20.6272 8.72909 20.569 8.68441C20.5107 8.63973 20.4434 8.60551 20.367 8.58175C20.2916 8.55798 20.2097 8.5461 20.1213 8.5461C19.9616 8.5461 19.8224 8.58365 19.7038 8.65875C19.5853 8.73289 19.4933 8.84125 19.428 8.98384C19.3627 9.12548 19.3301 9.29753 19.3301 9.5C19.3301 9.70817 19.3627 9.88308 19.428 10.0247C19.4943 10.1663 19.5868 10.2733 19.7054 10.3455C19.8239 10.4178 19.9611 10.4539 20.1168 10.4539C20.2042 10.4539 20.2851 10.443 20.3595 10.4211C20.4348 10.3992 20.5016 10.3674 20.5599 10.3256C20.6182 10.2828 20.6664 10.231 20.7046 10.1702C20.7752 10.0605 20.8804 9.96239 21.0109 9.96295L21.0652 9.96318C21.2676 9.96406 21.425 10.1464 21.3321 10.3262C21.3275 10.3351 21.3228 10.3439 21.318 10.3527C21.2507 10.4762 21.1598 10.587 21.0452 10.6849C20.9317 10.7818 20.796 10.8588 20.6383 10.9159C20.4815 10.972 20.3042 11 20.1063 11C19.8309 11 19.5848 10.9411 19.3677 10.8232C19.1517 10.7053 18.9809 10.5347 18.8553 10.3113C18.7307 10.0879 18.6684 9.81749 18.6684 9.5C18.6684 9.18156 18.7317 8.91065 18.8583 8.68726C18.9849 8.46388 19.1567 8.29373 19.3738 8.17681C19.5908 8.05894 19.835 8 20.1063 8C20.2851 8 20.4509 8.02376 20.6036 8.07129C20.7573 8.11882 20.8935 8.18821 21.0121 8.27947C21.1306 8.36977 21.2271 8.48051 21.3014 8.61169C21.3182 8.64087 21.3336 8.67098 21.3477 8.70204Z" fill="#1DD8A7"/>
<path d="M22.3313 10.9601C22.1009 10.9601 21.9141 10.7733 21.9141 10.5429V8.4559C21.9141 8.22616 22.1003 8.03992 22.3301 8.03992H23.7395C23.88 8.03992 23.994 8.15387 23.994 8.29444C23.994 8.435 23.88 8.54895 23.7395 8.54895H22.5667V9.24477H23.6324C23.773 9.24477 23.887 9.35872 23.887 9.49929C23.887 9.63985 23.773 9.7538 23.6324 9.7538H22.5667V10.451H23.7455C23.8861 10.451 24 10.565 24 10.7056C24 10.8461 23.8861 10.9601 23.7455 10.9601H22.3313Z" fill="#1DD8A7"/>
<rect x="13" y="17" width="15" height="2" rx="1" fill="#1DD8A7"/>
<rect x="13" y="27" width="15" height="2" rx="1" fill="#1DD8A7"/>
<path d="M9.37407 20V16H9.67778V20H9.37407ZM10.1796 17.3203C10.1648 17.1943 10.1012 17.0964 9.98889 17.0266C9.87654 16.9568 9.72407 16.9219 9.53148 16.9219C9.40062 16.9219 9.29012 16.9375 9.2 16.9688C9.10988 16.999 9.04074 17.0411 8.99259 17.0953C8.94568 17.1495 8.92222 17.2109 8.92222 17.2797C8.91975 17.337 8.93395 17.387 8.96481 17.4297C8.99691 17.4724 9.04074 17.5094 9.0963 17.5406C9.15185 17.5708 9.21605 17.5974 9.28889 17.6203C9.36173 17.6422 9.43951 17.6609 9.52222 17.6766L9.86296 17.7453C10.0284 17.7766 10.1802 17.8182 10.3185 17.8703C10.4568 17.9224 10.5765 17.9865 10.6778 18.0625C10.779 18.1385 10.8574 18.2281 10.913 18.3313C10.9698 18.4344 10.9988 18.5526 11 18.6859C10.9988 18.8818 10.9395 19.0516 10.8222 19.1953C10.7062 19.338 10.5383 19.449 10.3185 19.5281C10.1 19.6063 9.83642 19.6453 9.52778 19.6453C9.2216 19.6453 8.95494 19.6057 8.72778 19.5266C8.50185 19.4474 8.32531 19.3302 8.19815 19.175C8.07222 19.0188 8.00617 18.8255 8 18.5953H8.77593C8.78457 18.7026 8.82099 18.7922 8.88519 18.8641C8.95062 18.9349 9.03765 18.9885 9.1463 19.025C9.25617 19.0604 9.38025 19.0781 9.51852 19.0781C9.65432 19.0781 9.77222 19.0615 9.87222 19.0281C9.97346 18.9948 10.0519 18.9484 10.1074 18.8891C10.163 18.8297 10.1907 18.7615 10.1907 18.6844C10.1907 18.6125 10.1654 18.5521 10.1148 18.5031C10.0654 18.4542 9.99259 18.4125 9.8963 18.3781C9.80123 18.3438 9.68457 18.3125 9.5463 18.2844L9.13333 18.1969C8.81358 18.1312 8.56111 18.0286 8.37593 17.8891C8.19074 17.7495 8.09877 17.5615 8.1 17.325C8.09877 17.1313 8.15988 16.962 8.28333 16.8172C8.40802 16.6724 8.57901 16.5594 8.7963 16.4781C9.01358 16.3969 9.26049 16.3563 9.53704 16.3563C9.81852 16.3563 10.0642 16.3969 10.2741 16.4781C10.4852 16.5594 10.6494 16.6724 10.7667 16.8172C10.884 16.962 10.9444 17.1297 10.9481 17.3203H10.1796Z" fill="#1DD8A7"/>
<path d="M10.9958 26.9922L10.8411 27.5352H8L8.15254 26.9922H10.9958ZM9.51907 30L8.06992 28.4102L8.07203 27.9219H8.78814C8.94774 27.9219 9.08121 27.8945 9.18856 27.8398C9.2959 27.7852 9.37641 27.7109 9.43008 27.6172C9.48376 27.5234 9.5113 27.4167 9.51271 27.2969C9.5113 27.1172 9.4541 26.9707 9.3411 26.8574C9.22952 26.7428 9.0452 26.6855 8.78814 26.6855H8L8.17373 26H8.78814C9.14831 26 9.44845 26.0501 9.68856 26.1504C9.93008 26.2493 10.1109 26.3906 10.2309 26.5742C10.3524 26.7578 10.4138 26.9766 10.4153 27.2305C10.4138 27.4557 10.3729 27.6523 10.2924 27.8203C10.2133 27.9883 10.0883 28.1283 9.91737 28.2402C9.74788 28.3522 9.52684 28.4355 9.25424 28.4902L9.22034 28.502L10.5169 29.9648V30H9.51907ZM11 26L10.8411 26.5508H8.50212L8.66102 26H11Z" fill="#1DD8A7"/>
</svg>
