<svg width="36" height="36" viewBox="0 0 36 36" fill="none" xmlns="http://www.w3.org/2000/svg">
<path fill-rule="evenodd" clip-rule="evenodd" d="M27 4H9L9 32H27V4ZM9 2C7.89543 2 7 2.89543 7 4H3C2.44772 4 2 4.44772 2 5V31C2 31.5523 2.44772 32 3 32H7C7 33.1046 7.89543 34 9 34H27C28.1046 34 29 33.1046 29 32H33C33.5523 32 34 31.5523 34 31V5C34 4.44772 33.5523 4 33 4H29C29 2.89543 28.1046 2 27 2H9ZM29 6V30H32V6H29ZM4 6H7V30H4V6Z" fill="#5900E7"/>
<path fill-rule="evenodd" clip-rule="evenodd" d="M17.5177 10.6555C17.0914 10.6555 16.6965 10.813 16.4168 11.072C16.1401 11.3282 16.0005 11.6583 16 11.9847C16.0016 12.3106 16.1418 12.6397 16.4184 12.8951C16.6981 13.1532 17.0922 13.31 17.5177 13.31H17.7059C18.2582 13.31 18.7059 13.7578 18.7059 14.31C18.7059 14.8623 18.2582 15.31 17.7059 15.31H17.5177C16.6104 15.31 15.7261 14.9778 15.062 14.3648C14.3952 13.7494 14.0031 12.8973 14 11.9898L15 11.9864H14C14 11.077 14.3909 10.2221 15.058 9.60442C15.7226 8.98916 16.6085 8.65552 17.5177 8.65552H20.2079C20.7602 8.65552 21.2079 9.10323 21.2079 9.65552C21.2079 10.2078 20.7602 10.6555 20.2079 10.6555H17.5177Z" fill="#1DD8A7"/>
<path fill-rule="evenodd" clip-rule="evenodd" d="M16.7058 14.3101C16.7058 13.7578 17.1535 13.3101 17.7058 13.3101H18.493C19.4003 13.3127 20.2836 13.6475 20.9459 14.2626C21.6107 14.88 22 15.7335 22 16.641C22 17.5484 21.6099 18.4015 20.9442 19.0178C20.2811 19.6317 19.3972 19.9646 18.4901 19.9646H15.8313C15.279 19.9646 14.8313 19.5169 14.8313 18.9646C14.8313 18.4123 15.279 17.9646 15.8313 17.9646H18.4901C18.9144 17.9646 19.3072 17.8078 19.5855 17.5502C19.8612 17.295 20 16.966 20 16.6409C20 16.3146 19.8609 15.9845 19.5848 15.7281C19.3065 15.4695 18.9135 15.3116 18.4885 15.3101H17.7058C17.1535 15.3101 16.7058 14.8623 16.7058 14.3101Z" fill="#1DD8A7"/>
<path fill-rule="evenodd" clip-rule="evenodd" d="M17.8472 17.9648C18.3995 17.9648 18.8472 18.4126 18.8472 18.9648V20.6204C18.8472 21.1727 18.3995 21.6204 17.8472 21.6204C17.2949 21.6204 16.8472 21.1727 16.8472 20.6204V18.9648C16.8472 18.4126 17.2949 17.9648 17.8472 17.9648Z" fill="#1DD8A7"/>
<path fill-rule="evenodd" clip-rule="evenodd" d="M17.8472 7C18.3995 7 18.8472 7.44772 18.8472 8V9.65559C18.8472 10.2079 18.3995 10.6556 17.8472 10.6556C17.2949 10.6556 16.8472 10.2079 16.8472 9.65559V8C16.8472 7.44772 17.2949 7 17.8472 7Z" fill="#1DD8A7"/>
<rect x="12" y="24" width="12" height="2" rx="1" fill="#1DD8A7"/>
<rect x="12" y="27" width="12" height="2" rx="1" fill="#1DD8A7"/>
</svg>
