<svg width="36" height="36" viewBox="0 0 36 36" fill="none" xmlns="http://www.w3.org/2000/svg">
<circle cx="29" cy="29" r="3" stroke="#1DD8A7" stroke-width="2"/>
<path fill-rule="evenodd" clip-rule="evenodd" d="M29.682 9.31802C28.8381 8.47411 27.6935 8 26.5 8L26.5 6C28.2239 6 29.8772 6.68482 31.0962 7.90381C32.3152 9.12279 33 10.7761 33 12.5C33 14.2239 32.3152 15.8772 31.0962 17.0962C29.8772 18.3152 28.2239 19 26.5 19L26.5 17C27.6935 17 28.8381 16.5259 29.682 15.682C30.5259 14.8381 31 13.6935 31 12.5C31 11.3065 30.5259 10.1619 29.682 9.31802Z" fill="#5900E7"/>
<path fill-rule="evenodd" clip-rule="evenodd" d="M7.31802 20.318C8.16193 19.4741 9.30652 19 10.5 19L10.5 17C8.77609 17 7.12279 17.6848 5.9038 18.9038C4.68482 20.1228 4 21.7761 4 23.5C4 25.2239 4.68482 26.8772 5.90381 28.0962C7.12279 29.3152 8.77609 30 10.5 30L10.5 28C9.30653 28 8.16193 27.5259 7.31802 26.682C6.47411 25.8381 6 24.6935 6 23.5C6 22.3065 6.47411 21.1619 7.31802 20.318Z" fill="#5900E7"/>
<path d="M10 6H27V8H10V6Z" fill="#5900E7"/>
<path d="M10.5 17H15V19H10.5V17Z" fill="#5900E7"/>
<path d="M10.5 28H23V30H10.5V28Z" fill="#5900E7"/>
<path d="M21 17H26.5V19H21V17Z" fill="#5900E7"/>
<path fill-rule="evenodd" clip-rule="evenodd" d="M20.2926 25.2932C20.6829 24.9025 21.3161 24.9022 21.7068 25.2926L24.7096 28.2926C25.1004 28.6829 25.1007 29.3161 24.7103 29.7068C24.32 30.0975 23.6868 30.0978 23.2961 29.7074L20.2932 26.7074C19.9025 26.3171 19.9022 25.6839 20.2926 25.2932Z" fill="#5900E7"/>
<path fill-rule="evenodd" clip-rule="evenodd" d="M24.7103 28.2932C25.1007 28.6839 25.1004 29.3171 24.7096 29.7074L21.7068 32.7074C21.3161 33.0978 20.6829 33.0975 20.2926 32.7068C19.9022 32.3161 19.9025 31.6829 20.2932 31.2926L23.2961 28.2926C23.6868 27.9022 24.32 27.9025 24.7103 28.2932Z" fill="#5900E7"/>
<circle cx="18" cy="18" r="3" stroke="#1DD8A7" stroke-width="2"/>
<circle cx="7" cy="7" r="3" stroke="#1DD8A7" stroke-width="2"/>
</svg>
