<svg width="36" height="36" viewBox="0 0 36 36" fill="none" xmlns="http://www.w3.org/2000/svg">
<path fill-rule="evenodd" clip-rule="evenodd" d="M27 4H9L9 32H27V4ZM9 2C7.89543 2 7 2.89543 7 4H3C2.44772 4 2 4.44772 2 5V31C2 31.5523 2.44772 32 3 32H7C7 33.1046 7.89543 34 9 34H27C28.1046 34 29 33.1046 29 32H33C33.5523 32 34 31.5523 34 31V5C34 4.44772 33.5523 4 33 4H29C29 2.89543 28.1046 2 27 2H9ZM29 6V30H32V6H29ZM4 6H7V30H4V6Z" fill="#5900E7"/>
<path d="M11.9995 26C11.9995 25.4477 12.4472 25 12.9995 25H22.9995C23.5518 25 23.9995 25.4477 23.9995 26C23.9995 26.5523 23.5518 27 22.9995 27H12.9995C12.4472 27 11.9995 26.5523 11.9995 26Z" fill="#1DD8A7"/>
<path fill-rule="evenodd" clip-rule="evenodd" d="M18.0719 9C17.7796 9 17.5054 9.1128 17.308 9.304C17.1118 9.49415 17.0076 9.74518 17.0076 10V11.1533C17.0076 11.7056 16.5599 12.1533 16.0076 12.1533C15.4553 12.1533 15.0076 11.7056 15.0076 11.1533V10C15.0076 9.19395 15.3384 8.42757 15.9164 7.86758C16.4933 7.30863 17.2692 7 18.0719 7C18.47 7 18.8649 7.07593 19.2343 7.22418C19.6038 7.37245 19.9415 7.59057 20.2274 7.86758C20.5134 8.14465 20.742 8.4753 20.8986 8.84152C21.0552 9.20781 21.1362 9.60156 21.1362 10V11.1467C21.1362 11.699 20.6885 12.1467 20.1362 12.1467C19.584 12.1467 19.1362 11.699 19.1362 11.1467V10C19.1362 9.87315 19.1105 9.74676 19.0596 9.62775C19.0087 9.50866 18.9332 9.39836 18.8358 9.304C18.7383 9.20957 18.6209 9.13305 18.4895 9.0803C18.358 9.02753 18.216 9 18.0719 9Z" fill="#1DD8A7"/>
<path fill-rule="evenodd" clip-rule="evenodd" d="M14.9738 12.1534L14.0077 18.2941C13.9939 18.3772 13.9987 18.4623 14.0223 18.544C14.046 18.6258 14.0884 18.7041 14.1486 18.7726C14.209 18.8412 14.286 18.8986 14.3756 18.9386C14.4653 18.9787 14.5643 19 14.6655 19H21.3419C21.442 18.9995 21.5399 18.978 21.6285 18.938C21.7174 18.8979 21.7937 18.8407 21.8535 18.7723C21.9131 18.7041 21.955 18.6262 21.9782 18.5449C22.0015 18.4636 22.0061 18.3791 21.9922 18.2966L21.9901 18.2844L21.0324 12.1534C21.0317 12.1534 21.0311 12.1533 21.0304 12.1533H14.9761C14.9753 12.1533 14.9746 12.1534 14.9738 12.1534ZM21.3439 20V21H14.6661C14.666 21 14.6662 21 14.6661 21C14.2851 21.0001 13.9073 20.9201 13.5592 20.7644C13.211 20.6087 12.8992 20.3804 12.6468 20.0934C12.3943 19.8063 12.2073 19.4673 12.101 19.0992C11.995 18.7326 11.9721 18.3474 12.034 17.9708L13.0054 11.7962C13.085 11.3271 13.3333 10.9075 13.6971 10.6091C14.0597 10.3116 14.5146 10.1524 14.98 10.1533C14.9806 10.1533 14.9811 10.1533 14.9817 10.1533L14.9789 11.1533V10.1533H14.98H21.0308C21.4957 10.1536 21.9502 10.3136 22.3118 10.6113C22.6742 10.9095 22.9214 11.3282 23.0008 11.7962L23.0029 11.809L23.9654 17.9703C23.965 17.968 23.9646 17.9657 23.9642 17.9635L22.9782 18.13L23.9662 17.9757L23.9654 17.9703C24.0277 18.3454 24.0057 18.7291 23.9012 19.0946C23.7961 19.4623 23.6105 19.8011 23.3594 20.0884C23.1084 20.3757 22.798 20.6045 22.451 20.761C22.1041 20.9176 21.7276 20.9987 21.3472 21L21.3439 20Z" fill="#1DD8A7"/>
</svg>
