<svg width="36" height="36" viewBox="0 0 36 36" fill="none" xmlns="http://www.w3.org/2000/svg">
<path fill-rule="evenodd" clip-rule="evenodd" d="M31 6H5C4.44772 6 4 6.44772 4 7V14C4 14.5523 4.44772 15 5 15H31C31.5523 15 32 14.5523 32 14V7C32 6.44772 31.5523 6 31 6ZM5 4C3.34315 4 2 5.34315 2 7V14C2 15.6569 3.34315 17 5 17H31C32.6569 17 34 15.6569 34 14V7C34 5.34315 32.6569 4 31 4H5Z" fill="#5900E7"/>
<path fill-rule="evenodd" clip-rule="evenodd" d="M31 21H5C4.44772 21 4 21.4477 4 22V29C4 29.5523 4.44772 30 5 30H31C31.5523 30 32 29.5523 32 29V22C32 21.4477 31.5523 21 31 21ZM5 19C3.34315 19 2 20.3431 2 22V29C2 30.6569 3.34315 32 5 32H31C32.6569 32 34 30.6569 34 29V22C34 20.3431 32.6569 19 31 19H5Z" fill="#5900E7"/>
<path d="M6 10.5C6 9.11929 7.11929 8 8.5 8H22.5C23.8807 8 25 9.11929 25 10.5C25 11.8807 23.8807 13 22.5 13H8.5C7.11929 13 6 11.8807 6 10.5Z" fill="#1DD8A7"/>
<path d="M6 25.5C6 24.1193 7.11929 23 8.5 23H14.5C15.8807 23 17 24.1193 17 25.5C17 26.8807 15.8807 28 14.5 28H8.5C7.11929 28 6 26.8807 6 25.5Z" fill="#1DD8A7"/>
</svg>
