<svg width="36" height="36" viewBox="0 0 36 36" fill="none" xmlns="http://www.w3.org/2000/svg">
<path fill-rule="evenodd" clip-rule="evenodd" d="M19 6.06189C22.9463 6.55399 26 9.92038 26 14H21V16H26V22C26 26.4183 22.4183 30 18 30C13.5817 30 10 26.4183 10 22V16H15V14H10C10 9.92038 13.0537 6.55399 17 6.06189V11H19V6.06189ZM8 14C8 8.47715 12.4772 4 18 4C23.5228 4 28 8.47715 28 14V22C28 27.5228 23.5228 32 18 32C12.4772 32 8 27.5228 8 22V14Z" fill="#5900E7"/>
<mask id="path-2-inside-1_188_159" fill="white">
<path fill-rule="evenodd" clip-rule="evenodd" d="M17 26.1312L17 23C17 22.4477 17.4477 22 18 22C18.5523 22 19 22.4477 19 23L19 26.1314L20.4454 25.1678C20.9049 24.8614 21.5258 24.9856 21.8322 25.4451C22.1385 25.9046 22.0143 26.5255 21.5548 26.8319L18.0001 29.2017L14.4454 26.8319C13.9859 26.5255 13.8617 25.9046 14.1681 25.4451C14.4744 24.9856 15.0953 24.8614 15.5548 25.1678L17 26.1312Z"/>
</mask>
<path d="M17 26.1312L15.8906 27.7953L19 29.8683L19 26.1312L17 26.1312ZM17 23L15 23L15 23L17 23ZM19 23L17 23L17 23L19 23ZM19 26.1314L17 26.1314L17 29.8684L20.1094 27.7955L19 26.1314ZM20.4454 25.1678L19.336 23.5037L19.336 23.5037L20.4454 25.1678ZM21.8322 25.4451L20.1681 26.5545L20.1681 26.5545L21.8322 25.4451ZM21.5548 26.8319L22.6642 28.496L22.6642 28.496L21.5548 26.8319ZM18.0001 29.2017L16.8907 30.8658L18.0001 31.6054L19.1095 30.8658L18.0001 29.2017ZM14.4454 26.8319L13.336 28.496L13.336 28.496L14.4454 26.8319ZM14.1681 25.4451L15.8322 26.5545L15.8322 26.5545L14.1681 25.4451ZM15.5548 25.1678L16.6642 23.5037L16.6642 23.5037L15.5548 25.1678ZM19 26.1312L19 23L15 23L15 26.1312L19 26.1312ZM19 23C19 23.5523 18.5523 24 18 24V20C16.3431 20 15 21.3431 15 23H19ZM18 24C17.4477 24 17 23.5523 17 23H21C21 21.3431 19.6569 20 18 20V24ZM17 23L17 26.1314L21 26.1314L21 23L17 23ZM19.336 23.5037L17.8906 24.4673L20.1094 27.7955L21.5548 26.8319L19.336 23.5037ZM23.4963 24.3357C22.5772 22.9571 20.7146 22.5846 19.336 23.5037L21.5548 26.8319C21.0953 27.1382 20.4744 27.014 20.1681 26.5545L23.4963 24.3357ZM22.6642 28.496C24.0428 27.5769 24.4153 25.7143 23.4963 24.3357L20.1681 26.5545C19.8617 26.095 19.9859 25.4741 20.4454 25.1678L22.6642 28.496ZM19.1095 30.8658L22.6642 28.496L20.4454 25.1678L16.8907 27.5376L19.1095 30.8658ZM13.336 28.496L16.8907 30.8658L19.1095 27.5376L15.5548 25.1678L13.336 28.496ZM12.504 24.3357C11.5849 25.7143 11.9574 27.5769 13.336 28.496L15.5548 25.1678C16.0143 25.4741 16.1385 26.095 15.8322 26.5545L12.504 24.3357ZM16.6642 23.5037C15.2856 22.5846 13.423 22.9571 12.504 24.3357L15.8322 26.5545C15.5258 27.014 14.9049 27.1382 14.4454 26.8319L16.6642 23.5037ZM18.1094 24.4671L16.6642 23.5037L14.4454 26.8319L15.8906 27.7953L18.1094 24.4671Z" fill="#1DD8A7" mask="url(#path-2-inside-1_188_159)"/>
<path fill-rule="evenodd" clip-rule="evenodd" d="M19 17V13C19 12.4477 18.5523 12 18 12C17.4477 12 17 12.4477 17 13V17C17 17.5523 17.4477 18 18 18C18.5523 18 19 17.5523 19 17ZM18 10C16.3431 10 15 11.3431 15 13V17C15 18.6569 16.3431 20 18 20C19.6569 20 21 18.6569 21 17V13C21 11.3431 19.6569 10 18 10Z" fill="#1DD8A7"/>
</svg>
