<svg width="36" height="36" viewBox="0 0 36 36" fill="none" xmlns="http://www.w3.org/2000/svg">
<path fill-rule="evenodd" clip-rule="evenodd" d="M18.0008 4.93559L8.60325 15.0044H27.3984L18.0008 4.93559ZM18.7319 2.78768C18.3365 2.36411 17.6651 2.36411 17.2698 2.78768L5.57097 15.3221C4.97437 15.9613 5.42765 17.0044 6.30203 17.0044H29.6996C30.574 17.0044 31.0273 15.9613 30.4307 15.3221L18.7319 2.78768Z" fill="#1DD8A7"/>
<path fill-rule="evenodd" clip-rule="evenodd" d="M18.0008 31.0732L8.60325 21.0044H27.3984L18.0008 31.0732ZM18.7319 33.2211C18.3365 33.6447 17.6651 33.6447 17.2698 33.2211L5.57097 20.6867C4.97437 20.0475 5.42765 19.0044 6.30203 19.0044H29.6996C30.574 19.0044 31.0273 20.0475 30.4307 20.6867L18.7319 33.2211Z" fill="#5900E7"/>
</svg>
