<svg width="36" height="36" viewBox="0 0 36 36" fill="none" xmlns="http://www.w3.org/2000/svg">
<path fill-rule="evenodd" clip-rule="evenodd" d="M23.3751 28.2537C23.6203 27.8613 23.8527 27.4426 24.0702 27H19V31.8821C20.5185 31.525 22.0655 30.349 23.3751 28.2537ZM30.5 27H26.2691C24.4692 31.2255 21.4371 34 18 34C14.5629 34 11.5308 31.2255 9.73085 27H5.5C4.94772 27 4.5 26.5523 4.5 26C4.5 25.4477 4.94772 25 5.5 25H9.00529C8.44748 23.1685 8.10174 21.1412 8.01921 19H3.55078C2.9985 19 2.55078 18.5523 2.55078 18C2.55078 17.4477 2.9985 17 3.55078 17H8.01921C8.10174 14.8588 8.44748 12.8315 9.00529 11H5.5C4.94772 11 4.5 10.5523 4.5 10C4.5 9.44772 4.94772 9 5.5 9H9.73085C11.5308 4.77446 14.5629 2 18 2C21.4371 2 24.4692 4.77446 26.2691 9H30.5C31.0523 9 31.5 9.44772 31.5 10C31.5 10.5523 31.0523 11 30.5 11H26.9947C27.5525 12.8315 27.8983 14.8588 27.9808 17H32.4997C33.052 17 33.4997 17.4477 33.4997 18C33.4997 18.5523 33.052 19 32.4997 19H27.9808C27.8983 21.1412 27.5525 23.1685 26.9947 25H30.5C31.0523 25 31.5 25.4477 31.5 26C31.5 26.5523 31.0523 27 30.5 27ZM25.9792 17C25.8877 14.8089 25.4986 12.7762 24.8936 11H19V17H25.9792ZM19 19H25.9792C25.8877 21.1911 25.4986 23.2238 24.8936 25H19V19ZM17 17V11H11.1064C10.5014 12.7762 10.1123 14.8089 10.0208 17H17ZM10.0208 19H17V25H11.1064C10.5014 23.2238 10.1123 21.1911 10.0208 19ZM12.6249 28.2537C12.3797 27.8613 12.1473 27.4426 11.9298 27H17V31.8821C15.4815 31.525 13.9345 30.349 12.6249 28.2537ZM19 9H24.0702C23.8527 8.55739 23.6203 8.13873 23.3751 7.74629C22.0655 5.65099 20.5185 4.47499 19 4.11787V9ZM11.9298 9C12.1473 8.55739 12.3797 8.13873 12.6249 7.74629C13.9345 5.65099 15.4815 4.47499 17 4.11787V9H11.9298Z" fill="#1DD8A7"/>
<path fill-rule="evenodd" clip-rule="evenodd" d="M18 32C25.732 32 32 25.732 32 18C32 10.268 25.732 4 18 4C10.268 4 4 10.268 4 18C4 25.732 10.268 32 18 32ZM18 34C26.8366 34 34 26.8366 34 18C34 9.16344 26.8366 2 18 2C9.16344 2 2 9.16344 2 18C2 26.8366 9.16344 34 18 34Z" fill="#5900E7"/>
</svg>
