<svg width="36" height="36" viewBox="0 0 36 36" fill="none" xmlns="http://www.w3.org/2000/svg">
<path fill-rule="evenodd" clip-rule="evenodd" d="M17.3712 2.21925C17.7364 1.92701 18.2553 1.92691 18.6206 2.21901L28.6246 10.219C29.0559 10.5639 29.126 11.1932 28.781 11.6245C28.4361 12.0559 27.8068 12.1259 27.3755 11.781L17.9963 4.28063L8.62488 11.7807C8.19369 12.1258 7.56438 12.056 7.21929 11.6248C6.8742 11.1937 6.944 10.5643 7.37519 10.2193L17.3712 2.21925Z" fill="#5900E7"/>
<path fill-rule="evenodd" clip-rule="evenodd" d="M17.3712 33.7807C17.7364 34.073 18.2553 34.0731 18.6206 33.781L28.6246 25.781C29.0559 25.4361 29.126 24.8068 28.781 24.3755C28.4361 23.9441 27.8068 23.8741 27.3755 24.219L17.9963 31.7194L8.62488 24.2193C8.19369 23.8742 7.56438 23.944 7.21929 24.3752C6.8742 24.8063 6.944 25.4357 7.37519 25.7807L17.3712 33.7807Z" fill="#5900E7"/>
<path fill-rule="evenodd" clip-rule="evenodd" d="M19 11H17C14.7909 11 13 12.7909 13 15V21C13 23.2091 14.7909 25 17 25H19C21.2091 25 23 23.2091 23 21V15C23 12.7909 21.2091 11 19 11ZM17 9C13.6863 9 11 11.6863 11 15V21C11 24.3137 13.6863 27 17 27H19C22.3137 27 25 24.3137 25 21V15C25 11.6863 22.3137 9 19 9H17Z" fill="#1DD8A7"/>
<path d="M17 14C17 13.4477 17.4477 13 18 13C18.5523 13 19 13.4477 19 14V16C19 16.5523 18.5523 17 18 17C17.4477 17 17 16.5523 17 16V14Z" fill="#1DD8A7"/>
</svg>
