<svg width="36" height="36" viewBox="0 0 36 36" fill="none" xmlns="http://www.w3.org/2000/svg">
<rect x="4" y="4" width="28" height="28" rx="1" stroke="#5900E7" stroke-width="2"/>
<path fill-rule="evenodd" clip-rule="evenodd" d="M19.4055 14.048C19.7421 13.9646 20.0981 13.9904 20.4177 14.1213C20.7373 14.2523 21.0023 14.481 21.1711 14.7716L23 13.8003C22.606 13.1224 21.9876 12.5887 21.242 12.2831C20.4963 11.9775 19.6656 11.9174 18.8803 12.1121C18.095 12.3068 17.3996 12.7453 16.9033 13.3588C16.407 13.9723 16.1378 15.2244 16.1382 16V19H14C13.4477 19 13 19.4477 13 20C13 20.5523 13.4477 21 14 21H16.1382V31H18.2303V21H20.3686C20.9208 21 21.3686 20.5523 21.3686 20C21.3686 19.4477 20.9208 19 20.3686 19H18.2303V16H16.1382L18.2303 15.9991C18.2302 15.6667 18.3455 14.8453 18.5582 14.5823C18.7709 14.3194 19.069 14.1315 19.4055 14.048Z" fill="#1DD8A7"/>
</svg>
