<svg width="36" height="36" viewBox="0 0 36 36" fill="none" xmlns="http://www.w3.org/2000/svg">
<path fill-rule="evenodd" clip-rule="evenodd" d="M8 31C9.65685 31 11 29.6569 11 28C11 26.3431 9.65685 25 8 25C6.34315 25 5 26.3431 5 28C5 29.6569 6.34315 31 8 31ZM8 33C10.7614 33 13 30.7614 13 28C13 25.2386 10.7614 23 8 23C5.23858 23 3 25.2386 3 28C3 30.7614 5.23858 33 8 33Z" fill="#5900E7"/>
<path fill-rule="evenodd" clip-rule="evenodd" d="M9.8883 16.3702C8.01279 15.5933 6.02164 15.1402 3.9995 15.0278C3.44807 14.9971 3 14.5523 3 14C3 13.4477 3.448 12.9974 3.99959 13.025C6.28452 13.1393 8.53547 13.645 10.6537 14.5224C13.0802 15.5275 15.285 17.0007 17.1421 18.8579C18.9993 20.715 20.4725 22.9198 21.4776 25.3463C22.355 27.4645 22.8607 29.7155 22.975 32.0004C23.0026 32.552 22.5523 33 22 33C21.4477 33 21.0029 32.5519 20.9722 32.0005C20.8598 29.9784 20.4067 27.9872 19.6298 26.1117C18.7252 23.9278 17.3994 21.9435 15.7279 20.2721C14.0565 18.6006 12.0722 17.2748 9.8883 16.3702Z" fill="#1DD8A7"/>
<path fill-rule="evenodd" clip-rule="evenodd" d="M13.7151 7.13137C10.6262 5.85191 7.3357 5.13704 3.9998 5.01785C3.44787 4.99813 3 4.55228 3 4C3 3.44772 3.44786 2.99826 3.99984 3.01667C7.59845 3.13666 11.1489 3.90364 14.4805 5.28361C18.1203 6.79125 21.4274 9.00104 24.2132 11.7868C26.999 14.5726 29.2087 17.8797 30.7164 21.5195C32.0964 24.8511 32.8633 28.4015 32.9833 32.0002C33.0017 32.5521 32.5523 33 32 33C31.4477 33 31.0019 32.5521 30.9821 32.0002C30.863 28.6643 30.1481 25.3738 28.8686 22.2849C27.4615 18.8877 25.399 15.8011 22.799 13.201C20.1989 10.601 17.1123 8.5385 13.7151 7.13137Z" fill="#1DD8A7"/>
</svg>
