<svg width="36" height="36" viewBox="0 0 36 36" fill="none" xmlns="http://www.w3.org/2000/svg">
<rect x="11" y="19.7321" width="2" height="15.5195" rx="1" transform="rotate(-60 11 19.7321)" fill="#1DD8A7"/>
<rect width="2" height="15.3487" rx="1" transform="matrix(0.5 0.866025 0.866025 -0.5 11 15.8582)" fill="#1DD8A7"/>
<path fill-rule="evenodd" clip-rule="evenodd" d="M28 11C29.6569 11 31 9.65685 31 8C31 6.34315 29.6569 5 28 5C26.3431 5 25 6.34315 25 8C25 9.65685 26.3431 11 28 11ZM28 13C30.7614 13 33 10.7614 33 8C33 5.23858 30.7614 3 28 3C25.2386 3 23 5.23858 23 8C23 10.7614 25.2386 13 28 13Z" fill="#5900E7"/>
<path fill-rule="evenodd" clip-rule="evenodd" d="M28 31C29.6569 31 31 29.6569 31 28C31 26.3431 29.6569 25 28 25C26.3431 25 25 26.3431 25 28C25 29.6569 26.3431 31 28 31ZM28 33C30.7614 33 33 30.7614 33 28C33 25.2386 30.7614 23 28 23C25.2386 23 23 25.2386 23 28C23 30.7614 25.2386 33 28 33Z" fill="#5900E7"/>
<path fill-rule="evenodd" clip-rule="evenodd" d="M8 21C9.65685 21 11 19.6569 11 18C11 16.3431 9.65685 15 8 15C6.34315 15 5 16.3431 5 18C5 19.6569 6.34315 21 8 21ZM8 23C10.7614 23 13 20.7614 13 18C13 15.2386 10.7614 13 8 13C5.23858 13 3 15.2386 3 18C3 20.7614 5.23858 23 8 23Z" fill="#5900E7"/>
</svg>
