<svg width="36" height="36" viewBox="0 0 36 36" fill="none" xmlns="http://www.w3.org/2000/svg">
<path d="M10.0016 6.41058C8.01517 6.41058 6.41294 8.01317 6.41294 10C6.41294 11.9868 8.01517 13.5894 10.0016 13.5894C11.988 13.5894 13.5902 11.9868 13.5902 10C13.5902 8.01317 11.988 6.41058 10.0016 6.41058ZM10.0016 12.3336C8.7179 12.3336 7.66849 11.2871 7.66849 10C7.66849 8.71293 8.71478 7.66641 10.0016 7.66641C11.2883 7.66641 12.3346 8.71293 12.3346 10C12.3346 11.2871 11.2852 12.3336 10.0016 12.3336ZM14.574 6.26375C14.574 6.72922 14.1992 7.10097 13.737 7.10097C13.2716 7.10097 12.8999 6.7261 12.8999 6.26375C12.8999 5.80141 13.2747 5.42653 13.737 5.42653C14.1992 5.42653 14.574 5.80141 14.574 6.26375ZM16.9508 7.11347C16.8977 5.99197 16.6416 4.99855 15.8202 4.18007C15.0019 3.3616 14.0087 3.10543 12.8875 3.0492C11.7318 2.9836 8.26815 2.9836 7.11255 3.0492C5.99442 3.10231 5.00123 3.35847 4.17981 4.17695C3.35839 4.99543 3.10541 5.98884 3.04919 7.11034C2.9836 8.26621 2.9836 11.7307 3.04919 12.8865C3.10229 14.008 3.35839 15.0015 4.17981 15.8199C5.00123 16.6384 5.9913 16.8946 7.11255 16.9508C8.26815 17.0164 11.7318 17.0164 12.8875 16.9508C14.0087 16.8977 15.0019 16.6415 15.8202 15.8199C16.6385 15.0015 16.8946 14.008 16.9508 12.8865C17.0164 11.7307 17.0164 8.26933 16.9508 7.11347ZM15.4579 14.1267C15.2143 14.739 14.7427 15.2108 14.1274 15.4575C13.206 15.8231 11.0197 15.7387 10.0016 15.7387C8.98338 15.7387 6.79398 15.8199 5.87574 15.4575C5.26358 15.2139 4.79197 14.7422 4.54523 14.1267C4.17981 13.2052 4.26414 11.0184 4.26414 10C4.26414 8.98159 4.18293 6.7917 4.54523 5.87326C4.78885 5.26096 5.26046 4.78924 5.87574 4.54245C6.7971 4.17695 8.98338 4.2613 10.0016 4.2613C11.0197 4.2613 13.2091 4.18007 14.1274 4.54245C14.7395 4.78612 15.2112 5.25784 15.4579 5.87326C15.8233 6.79482 15.739 8.98159 15.739 10C15.739 11.0184 15.8233 13.2083 15.4579 14.1267Z" fill="#1DD8A7"/>
<path d="M30.9031 21.0344C29.5938 19.7219 27.85 19 25.9969 19C22.1719 19 19.0594 22.1125 19.0594 25.9375C19.0594 27.1594 19.3781 28.3531 19.9844 29.4062L19 33L22.6781 32.0344C23.6906 32.5875 24.8313 32.8781 25.9938 32.8781H25.9969C29.8188 32.8781 33 29.7656 33 25.9406C33 24.0875 32.2125 22.3469 30.9031 21.0344ZM25.9969 31.7094C24.9594 31.7094 23.9437 31.4313 23.0594 30.9062L22.85 30.7812L20.6688 31.3531L21.25 29.225L21.1125 29.0063C20.5344 28.0875 20.2313 27.0281 20.2313 25.9375C20.2313 22.7594 22.8187 20.1719 26 20.1719C27.5406 20.1719 28.9875 20.7719 30.075 21.8625C31.1625 22.9531 31.8313 24.4 31.8281 25.9406C31.8281 29.1219 29.175 31.7094 25.9969 31.7094ZM29.1594 27.3906C28.9875 27.3031 28.1344 26.8844 27.975 26.8281C27.8156 26.7688 27.7 26.7406 27.5844 26.9156C27.4688 27.0906 27.1375 27.4781 27.0344 27.5969C26.9344 27.7125 26.8313 27.7281 26.6594 27.6406C25.6406 27.1313 24.9719 26.7313 24.3 25.5781C24.1219 25.2719 24.4781 25.2937 24.8094 24.6312C24.8656 24.5156 24.8375 24.4156 24.7937 24.3281C24.75 24.2406 24.4031 23.3875 24.2594 23.0406C24.1188 22.7031 23.975 22.75 23.8688 22.7438C23.7688 22.7375 23.6531 22.7375 23.5375 22.7375C23.4219 22.7375 23.2344 22.7813 23.075 22.9531C22.9156 23.1281 22.4688 23.5469 22.4688 24.4C22.4688 25.2531 23.0906 26.0781 23.175 26.1938C23.2625 26.3094 24.3969 28.0594 26.1375 28.8125C27.2375 29.2875 27.6688 29.3281 28.2188 29.2469C28.5531 29.1969 29.2437 28.8281 29.3875 28.4219C29.5312 28.0156 29.5313 27.6688 29.4875 27.5969C29.4469 27.5188 29.3313 27.475 29.1594 27.3906Z" fill="#1DD8A7"/>
<path d="M31.5 3H20.5C20.1022 3 19.7206 3.15804 19.4393 3.43934C19.158 3.72064 19 4.10218 19 4.5V15.5C19 15.8978 19.158 16.2794 19.4393 16.5607C19.7206 16.842 20.1022 17 20.5 17H24.7891V12.2403H22.8203V10H24.7891V8.2925C24.7891 6.35031 25.9453 5.2775 27.7163 5.2775C28.5644 5.2775 29.4513 5.42875 29.4513 5.42875V7.335H28.4741C27.5113 7.335 27.2109 7.9325 27.2109 8.54531V10H29.3603L29.0166 12.2403H27.2109V17H31.5C31.8978 17 32.2794 16.842 32.5607 16.5607C32.842 16.2794 33 15.8978 33 15.5V4.5C33 4.10218 32.842 3.72064 32.5607 3.43934C32.2794 3.15804 31.8978 3 31.5 3Z" fill="#5900E7"/>
<path d="M16.7075 22.5647C16.5464 21.9488 16.072 21.4637 15.4697 21.2991C14.3779 21 10 21 10 21C10 21 5.6221 21 4.53029 21.2991C3.92795 21.4638 3.45356 21.9488 3.29254 22.5647C3 23.681 3 26.0101 3 26.0101C3 26.0101 3 28.3392 3.29254 29.4555C3.45356 30.0714 3.92795 30.5363 4.53029 30.7009C5.6221 31 10 31 10 31C10 31 14.3779 31 15.4697 30.7009C16.072 30.5363 16.5464 30.0714 16.7075 29.4555C17 28.3392 17 26.0101 17 26.0101C17 26.0101 17 23.681 16.7075 22.5647ZM8.56817 28.1248V23.8954L12.2272 26.0102L8.56817 28.1248Z" fill="#5900E7"/>
</svg>
