<svg width="36" height="36" viewBox="0 0 36 36" fill="none" xmlns="http://www.w3.org/2000/svg">
<path fill-rule="evenodd" clip-rule="evenodd" d="M9.82571 24.3091C9.90222 24.1734 10.0977 24.1734 10.1742 24.3091L10.9072 25.6096C10.9358 25.6603 10.9849 25.696 11.0419 25.7075L12.5053 26.0028C12.658 26.0336 12.7184 26.2195 12.613 26.3342L11.6026 27.4332C11.5633 27.476 11.5445 27.5338 11.5512 27.5915L11.7226 29.0745C11.7404 29.2293 11.5823 29.3442 11.4407 29.2794L10.0832 28.6581C10.0303 28.6339 9.96956 28.6339 9.91671 28.6581L8.55924 29.2794C8.41757 29.3442 8.25944 29.2293 8.27733 29.0745L8.44872 27.5915C8.4554 27.5338 8.43662 27.476 8.39728 27.4332L7.38692 26.3342C7.28148 26.2195 7.34187 26.0336 7.4946 26.0028L8.958 25.7075C9.01498 25.696 9.06414 25.6603 9.09268 25.6096L9.82571 24.3091ZM17.8257 24.3091C17.9022 24.1734 18.0977 24.1734 18.1742 24.3091L18.9072 25.6096C18.9358 25.6603 18.9849 25.696 19.0419 25.7075L20.5053 26.0028C20.658 26.0336 20.7184 26.2195 20.613 26.3342L19.6026 27.4332C19.5633 27.476 19.5445 27.5338 19.5512 27.5915L19.7226 29.0745C19.7404 29.2293 19.5823 29.3442 19.4407 29.2794L18.0832 28.6581C18.0303 28.6339 17.9696 28.6339 17.9167 28.6581L16.5592 29.2794C16.4176 29.3442 16.2594 29.2293 16.2773 29.0745L16.4487 27.5915C16.4554 27.5338 16.4366 27.476 16.3973 27.4332L15.3869 26.3342C15.2815 26.2195 15.3419 26.0336 15.4946 26.0028L16.958 25.7075C17.015 25.696 17.0641 25.6603 17.0927 25.6096L17.8257 24.3091ZM26.1742 24.3091C26.0977 24.1734 25.9022 24.1734 25.8257 24.3091L25.0927 25.6096C25.0641 25.6603 25.015 25.696 24.958 25.7075L23.4946 26.0028C23.3419 26.0336 23.2815 26.2195 23.3869 26.3342L24.3973 27.4332C24.4366 27.476 24.4554 27.5338 24.4487 27.5915L24.2773 29.0745C24.2594 29.2293 24.4176 29.3442 24.5592 29.2794L25.9167 28.6581C25.9696 28.6339 26.0303 28.6339 26.0832 28.6581L27.4407 29.2794C27.5823 29.3442 27.7404 29.2293 27.7226 29.0745L27.5512 27.5915C27.5445 27.5338 27.5633 27.476 27.6026 27.4332L28.613 26.3342C28.7184 26.2195 28.658 26.0336 28.5053 26.0028L27.0419 25.7075C26.9849 25.696 26.9358 25.6603 26.9072 25.6096L26.1742 24.3091Z" fill="#1DD8A7"/>
<path fill-rule="evenodd" clip-rule="evenodd" d="M10 5H26V21H19V15H20.5C20.7761 15 21 14.7761 21 14.5V13.5C21 13.2239 20.7761 13 20.5 13H19V11H18.9988C18.9988 10.8685 19.0247 10.7383 19.0751 10.6169C19.1254 10.4954 19.1991 10.385 19.2921 10.2921C19.385 10.1991 19.4954 10.1254 19.6169 10.0751C19.7383 10.0247 19.8685 9.99884 20 9.99884V10H21V8H20C19.606 8 19.2159 8.0776 18.8519 8.22836C18.5395 8.35779 18.2515 8.53898 18 8.76393C17.9586 8.801 17.9181 8.83927 17.8787 8.87868C17.8393 8.91809 17.801 8.95855 17.7639 9C17.539 9.2515 17.3578 9.53947 17.2284 9.85195C17.0776 10.2159 17 10.606 17 11V13H15.5C15.2239 13 15 13.2239 15 13.5V14.5C15 14.7761 15.2239 15 15.5 15H17V21H10V5ZM8 21V5C8 3.89543 8.89543 3 10 3H26C27.1046 3 28 3.89543 28 5V21H31C32.1046 21 33 21.8954 33 23V31C33 32.1046 32.1046 33 31 33H5C3.89543 33 3 32.1046 3 31V23C3 21.8954 3.89543 21 5 21H8ZM10 23H5L5 31H31V23H26H10Z" fill="#5900E7"/>
</svg>
