<svg width="36" height="36" viewBox="0 0 36 36" fill="none" xmlns="http://www.w3.org/2000/svg">
<path fill-rule="evenodd" clip-rule="evenodd" d="M6 3C6 2.44772 5.55228 2 5 2C4.44772 2 4 2.44772 4 3V12C4 13.6569 5.34315 15 7 15H29C30.6569 15 32 13.6569 32 12V3C32 2.44772 31.5523 2 31 2C30.4477 2 30 2.44772 30 3V12C30 12.5523 29.5523 13 29 13H7C6.44772 13 6 12.5523 6 12V3ZM30 33C30 33.5523 30.4477 34 31 34C31.5523 34 32 33.5523 32 33V24C32 22.3431 30.6569 21 29 21H7C5.34315 21 4 22.3431 4 24V33C4 33.5523 4.44772 34 5 34C5.55228 34 6 33.5523 6 33V24C6 23.4477 6.44772 23 7 23H29C29.5523 23 30 23.4477 30 24V33Z" fill="#5900E7"/>
<path fill-rule="evenodd" clip-rule="evenodd" d="M8.5 17C8.22386 17 8 17.2239 8 17.5V18.5C8 18.7761 8.22386 19 8.5 19H9.5C9.77614 19 10 18.7761 10 18.5V17.5C10 17.2239 9.77614 17 9.5 17H8.5ZM14.5 17C14.2239 17 14 17.2239 14 17.5V18.5C14 18.7761 14.2239 19 14.5 19H15.5C15.7761 19 16 18.7761 16 18.5V17.5C16 17.2239 15.7761 17 15.5 17H14.5ZM26 17.5C26 17.2239 26.2239 17 26.5 17H27.5C27.7761 17 28 17.2239 28 17.5V18.5C28 18.7761 27.7761 19 27.5 19H26.5C26.2239 19 26 18.7761 26 18.5V17.5ZM20.5 17C20.2239 17 20 17.2239 20 17.5V18.5C20 18.7761 20.2239 19 20.5 19H21.5C21.7761 19 22 18.7761 22 18.5V17.5C22 17.2239 21.7761 17 21.5 17H20.5Z" fill="#1DD8A7"/>
</svg>
