<svg width="36" height="36" viewBox="0 0 36 36" fill="none" xmlns="http://www.w3.org/2000/svg">
<path fill-rule="evenodd" clip-rule="evenodd" d="M26 5H10C7.23858 5 5 7.23858 5 10C5 12.7614 7.23858 15 10 15H26C28.7614 15 31 12.7614 31 10C31 7.23858 28.7614 5 26 5ZM10 3C6.13401 3 3 6.13401 3 10C3 13.866 6.13401 17 10 17H26C29.866 17 33 13.866 33 10C33 6.13401 29.866 3 26 3H10Z" fill="#5900E7"/>
<path fill-rule="evenodd" clip-rule="evenodd" d="M26 21H10C7.23858 21 5 23.2386 5 26C5 28.7614 7.23858 31 10 31H26C28.7614 31 31 28.7614 31 26C31 23.2386 28.7614 21 26 21ZM10 19C6.13401 19 3 22.134 3 26C3 29.866 6.13401 33 10 33H26C29.866 33 33 29.866 33 26C33 22.134 29.866 19 26 19H10Z" fill="#5900E7"/>
<path d="M30 10C30 12.2091 28.2091 14 26 14C23.7909 14 22 12.2091 22 10C22 7.79086 23.7909 6 26 6C28.2091 6 30 7.79086 30 10Z" fill="#1DD8A7"/>
<path fill-rule="evenodd" clip-rule="evenodd" d="M10 28C11.1046 28 12 27.1046 12 26C12 24.8954 11.1046 24 10 24C8.89543 24 8 24.8954 8 26C8 27.1046 8.89543 28 10 28ZM10 30C12.2091 30 14 28.2091 14 26C14 23.7909 12.2091 22 10 22C7.79086 22 6 23.7909 6 26C6 28.2091 7.79086 30 10 30Z" fill="#1DD8A7"/>
</svg>
