<svg width="36" height="36" viewBox="0 0 36 36" fill="none" xmlns="http://www.w3.org/2000/svg">
<path fill-rule="evenodd" clip-rule="evenodd" d="M3 3H5V4.875H4.875V5H3V3ZM3 31V33H5V31.125H4.875V31H3ZM31 33H33V31H31.125V31.125H31V33ZM33 5V3H31V4.875H31.125V5H33ZM8.625 3V5H12.375V3H8.625ZM16.125 3V5H19.875V3H16.125ZM23.625 3V5H27.375V3H23.625ZM33 8.625H31V12.375H33V8.625ZM33 16.125H31V19.875H33V16.125ZM33 23.625H31V27.375H33V23.625ZM27.375 33V31H23.625V33H27.375ZM19.875 33V31H16.125V33H19.875ZM12.375 33V31H8.625V33H12.375ZM3 27.375H5V23.625H3V27.375ZM3 19.875H5V16.125H3V19.875ZM3 12.375H5V8.625H3V12.375ZM24 9H12C10.3431 9 9 10.3431 9 12C9 13.6569 10.3431 15 12 15H24C25.6569 15 27 13.6569 27 12C27 10.3431 25.6569 9 24 9ZM12 7C9.23858 7 7 9.23858 7 12C7 14.7614 9.23858 17 12 17H24C26.7614 17 29 14.7614 29 12C29 9.23858 26.7614 7 24 7H12ZM12 21H24C25.6569 21 27 22.3431 27 24C27 25.6569 25.6569 27 24 27H12C10.3431 27 9 25.6569 9 24C9 22.3431 10.3431 21 12 21ZM7 24C7 21.2386 9.23858 19 12 19H24C26.7614 19 29 21.2386 29 24C29 26.7614 26.7614 29 24 29H12C9.23858 29 7 26.7614 7 24Z" fill="#5900E7"/>
<path fill-rule="evenodd" clip-rule="evenodd" d="M24 14C25.1046 14 26 13.1046 26 12C26 10.8954 25.1046 10 24 10C22.8954 10 22 10.8954 22 12C22 13.1046 22.8954 14 24 14ZM12 26C13.1046 26 14 25.1046 14 24C14 22.8954 13.1046 22 12 22C10.8954 22 10 22.8954 10 24C10 25.1046 10.8954 26 12 26Z" fill="#1DD8A7"/>
</svg>
