<svg width="36" height="36" viewBox="0 0 36 36" fill="none" xmlns="http://www.w3.org/2000/svg">
<path fill-rule="evenodd" clip-rule="evenodd" d="M5 3H3V5H4.875V4.875H5V3ZM3 33V31H4.875V31.125H5V33H3ZM33 33H31V31.125H31.125V31H33V33ZM33 3V5H31.125V4.875H31V3H33ZM8.625 5V3H12.375V5H8.625ZM16.125 5V3H19.875V5H16.125ZM23.625 5V3H27.375V5H23.625ZM31 8.625H33V12.375H31V8.625ZM31 16.125H33V19.875H31V16.125ZM31 23.625H33V27.375H31V23.625ZM27.375 31V33H23.625V31H27.375ZM19.875 31V33H16.125V31H19.875ZM12.375 31V33H8.625V31H12.375ZM5 27.375H3V23.625H5V27.375ZM5 19.875H3V16.125H5V19.875ZM5 12.375H3V8.625H5V12.375ZM9 15H27V27H9L9 15ZM7 15C7 13.8954 7.89543 13 9 13H27C28.1046 13 29 13.8954 29 15V27C29 28.1046 28.1046 29 27 29H9C7.89543 29 7 28.1046 7 27V15Z" fill="#5900E7"/>
<path fill-rule="evenodd" clip-rule="evenodd" d="M12 7C11.4477 7 11 7.44772 11 8C11 8.55228 11.4477 9 12 9H24C24.5523 9 25 8.55228 25 8C25 7.44772 24.5523 7 24 7H12ZM10 10C9.44772 10 9 10.4477 9 11C9 11.5523 9.44772 12 10 12H26C26.5523 12 27 11.5523 27 11C27 10.4477 26.5523 10 26 10H10Z" fill="#1DD8A7"/>
</svg>
