<svg width="36" height="36" viewBox="0 0 36 36" fill="none" xmlns="http://www.w3.org/2000/svg">
<path fill-rule="evenodd" clip-rule="evenodd" d="M5 6C4.44772 6 4 6.44772 4 7V25C4 25.5523 4.44772 26 5 26H21.5V28H5C3.34315 28 2 26.6569 2 25V7C2 5.34315 3.34315 4 5 4H7C8.65685 4 10 5.34315 10 7V9.41667C10 9.96895 10.4477 10.4167 11 10.4167H27C28.6569 10.4167 30 11.7598 30 13.4167V19.2083H28V13.4167C28 12.8644 27.5523 12.4167 27 12.4167H11C9.34315 12.4167 8 11.0735 8 9.41667V7C8 6.44772 7.55228 6 7 6H5Z" fill="#5900E7"/>
<path fill-rule="evenodd" clip-rule="evenodd" d="M27 30C29.7614 30 32 27.7614 32 25C32 22.2386 29.7614 20 27 20C24.2386 20 22 22.2386 22 25C22 27.7614 24.2386 30 27 30ZM27 32C30.866 32 34 28.866 34 25C34 21.134 30.866 18 27 18C23.134 18 20 21.134 20 25C20 28.866 23.134 32 27 32Z" fill="#1DD8A7"/>
<rect width="1.97989" height="7.91958" rx="0.989947" transform="matrix(1 1.57972e-06 1.62344e-06 1 26.01 21.0402)" fill="#1DD8A7"/>
<rect width="1.97989" height="7.91958" rx="0.989947" transform="matrix(1.53914e-06 1 -1 -1.66402e-06 30.96 24.01)" fill="#1DD8A7"/>
<path fill-rule="evenodd" clip-rule="evenodd" d="M20 7C20 5.34315 21.3431 4 23 4H25C26.6569 4 28 5.34315 28 7V9C28 9.55228 27.5523 10 27 10C26.4477 10 26 9.55228 26 9V7C26 6.44772 25.5523 6 25 6H23C22.4477 6 22 6.44772 22 7V9C22 9.55228 21.5523 10 21 10C20.4477 10 20 9.55228 20 9V7Z" fill="#5900E7"/>
<path fill-rule="evenodd" clip-rule="evenodd" d="M11 7C11 5.34315 12.3431 4 14 4H16C17.6569 4 19 5.34315 19 7V9C19 9.55228 18.5523 10 18 10C17.4477 10 17 9.55228 17 9V7C17 6.44772 16.5523 6 16 6H14C13.4477 6 13 6.44772 13 7V9C13 9.55228 12.5523 10 12 10C11.4477 10 11 9.55228 11 9V7Z" fill="#5900E7"/>
</svg>
