<svg width="36" height="36" viewBox="0 0 36 36" fill="none" xmlns="http://www.w3.org/2000/svg">
<path fill-rule="evenodd" clip-rule="evenodd" d="M5.73132 14.0155C6.47041 13.6914 7.26412 13.5239 8.06673 13.5239H9.64121C10.2015 13.5239 10.6556 13.9855 10.6556 14.5548C10.6556 15.1241 10.2015 15.5856 9.64121 15.5856H8.06673C7.54239 15.5856 7.02212 15.6949 6.53526 15.9084C6.04829 16.122 5.60304 16.4362 5.22607 16.8354C4.46394 17.6423 4.02881 18.7455 4.02881 19.9042C4.02881 20.4735 3.57465 20.935 3.01441 20.935C2.45417 20.935 2 20.4735 2 19.9042C2 18.2254 2.62947 16.6073 3.76232 15.4078C4.32366 14.8135 4.99234 14.3396 5.73132 14.0155Z" fill="#5900E7"/>
<path fill-rule="evenodd" clip-rule="evenodd" d="M10.7609 15.973C10.2348 15.7168 9.66465 15.5853 9.08913 15.5856H7.50708C6.94684 15.5856 6.49268 15.1241 6.49268 14.5548C6.49268 13.9855 6.94684 13.5239 7.50708 13.5239H9.08822C9.08833 13.5239 9.0881 13.5239 9.08822 13.5239C9.96971 13.5235 10.8398 13.7253 11.6375 14.1137C12.4353 14.5021 13.1406 15.0672 13.7069 15.7673C14.0627 16.2071 14.0002 16.8567 13.5674 17.2182C13.1346 17.5797 12.4954 17.5162 12.1396 17.0764C11.758 16.6047 11.287 16.2292 10.7609 15.973Z" fill="#5900E7"/>
<path fill-rule="evenodd" clip-rule="evenodd" d="M8.9065 8.56863C7.67376 8.56863 6.60401 9.63914 6.60401 11.0498C6.60401 12.4604 7.67376 13.5309 8.9065 13.5309C10.1392 13.5309 11.209 12.4604 11.209 11.0498C11.209 9.63914 10.1392 8.56863 8.9065 8.56863ZM4.5752 11.0498C4.5752 8.58121 6.4755 6.50699 8.9065 6.50699C11.3375 6.50699 13.2378 8.58121 13.2378 11.0498C13.2378 13.5184 11.3375 15.5926 8.9065 15.5926C6.4755 15.5926 4.5752 13.5184 4.5752 11.0498Z" fill="#1DD8A7"/>
<path fill-rule="evenodd" clip-rule="evenodd" d="M25.3442 14.5473C25.3442 13.978 25.7984 13.5165 26.3586 13.5165H27.9401C28.7425 13.5165 29.536 13.684 30.2748 14.0084C31.0135 14.3327 31.6818 14.8067 32.2425 15.4013C32.8033 15.9958 33.2457 16.6993 33.5464 17.4704C33.8472 18.2414 34.0009 19.0663 33.9999 19.8982C33.9991 20.4675 33.5443 20.9284 32.9841 20.9276C32.4239 20.9268 31.9703 20.4647 31.971 19.8954C31.9718 19.323 31.8659 18.757 31.6604 18.23C31.4549 17.7031 31.1543 17.227 30.7778 16.8278C30.4014 16.4288 29.9567 16.1145 29.4702 15.9009C28.9838 15.6874 28.464 15.5781 27.9401 15.5781H26.3586C25.7984 15.5781 25.3442 15.1166 25.3442 14.5473Z" fill="#5900E7"/>
<path fill-rule="evenodd" clip-rule="evenodd" d="M26.9187 13.5165L28.4931 13.5165C29.0534 13.5165 29.5076 13.978 29.5076 14.5473C29.5076 15.1166 29.0534 15.5781 28.4931 15.5781H26.9189M26.9187 13.5165C26.0355 13.517 25.1637 13.72 24.3648 14.1098L26.9187 13.5165ZM26.9189 15.5781C26.3419 15.5785 25.7702 15.7111 25.243 15.9683C24.7155 16.2257 24.2434 16.6026 23.8609 17.076C23.5054 17.516 22.8662 17.5798 22.4332 17.2185C22.0002 16.8573 21.9374 16.2077 22.2929 15.7677C22.8598 15.0661 23.566 14.4996 24.3648 14.1098" fill="#5900E7"/>
<path fill-rule="evenodd" clip-rule="evenodd" d="M27.1004 8.56168C25.8676 8.56168 24.7979 9.6322 24.7979 11.0428C24.7979 12.4535 25.8676 13.524 27.1004 13.524C28.3331 13.524 29.4028 12.4535 29.4028 11.0428C29.4028 9.6322 28.3331 8.56168 27.1004 8.56168ZM22.769 11.0428C22.769 8.57426 24.6693 6.50005 27.1004 6.50005C29.5314 6.50005 31.4317 8.57426 31.4317 11.0428C31.4317 13.5114 29.5314 15.5856 27.1004 15.5856C24.6693 15.5856 22.769 13.5114 22.769 11.0428Z" fill="#1DD8A7"/>
<path fill-rule="evenodd" clip-rule="evenodd" d="M13.9988 21.1023C14.9209 20.6975 15.9109 20.4886 16.9118 20.4886H18.9621C20.9858 20.4886 22.9177 21.3401 24.3353 22.8412C25.7517 24.3408 26.5404 26.366 26.5404 28.4693C26.5404 29.0386 26.0862 29.5001 25.526 29.5001C24.9657 29.5001 24.5116 29.0386 24.5116 28.4693C24.5116 26.8861 23.9172 25.3758 22.8716 24.2687C21.8274 23.1631 20.4202 22.5502 18.9621 22.5502H16.9118C16.1894 22.5502 15.473 22.7009 14.8032 22.9949C14.1333 23.2889 13.522 23.7211 13.0052 24.2688C12.4884 24.8166 12.0765 25.4692 11.795 26.1903C11.5136 26.9114 11.3686 27.6856 11.3694 28.4682C11.37 29.0375 10.9163 29.4995 10.356 29.5001C9.79578 29.5007 9.34115 29.0396 9.34058 28.4703C9.33953 27.4283 9.53242 26.3953 9.90914 25.4302C10.2859 24.4649 10.8397 23.5851 11.5407 22.842C12.2419 22.0989 13.0767 21.5069 13.9988 21.1023Z" fill="#5900E7"/>
<path fill-rule="evenodd" clip-rule="evenodd" d="M18.0035 13.437C16.2259 13.437 14.7144 14.9752 14.7144 16.9629C14.7144 18.9505 16.2259 20.4887 18.0035 20.4887C19.7812 20.4887 21.2927 18.9505 21.2927 16.9629C21.2927 14.9752 19.7812 13.437 18.0035 13.437ZM12.6855 16.9629C12.6855 13.9173 15.0276 11.3754 18.0035 11.3754C20.9795 11.3754 23.3215 13.9173 23.3215 16.9629C23.3215 20.0084 20.9795 22.5503 18.0035 22.5503C15.0276 22.5503 12.6855 20.0084 12.6855 16.9629Z" fill="#1DD8A7"/>
</svg>
