<svg width="36" height="36" viewBox="0 0 36 36" fill="none" xmlns="http://www.w3.org/2000/svg">
<path fill-rule="evenodd" clip-rule="evenodd" d="M9.82571 24.3091C9.90222 24.1734 10.0977 24.1734 10.1742 24.3091L10.9072 25.6097C10.9358 25.6603 10.9849 25.696 11.0419 25.7075L12.5053 26.0028C12.658 26.0336 12.7184 26.2195 12.613 26.3342L11.6026 27.4332C11.5633 27.476 11.5445 27.5338 11.5512 27.5915L11.7226 29.0746C11.7404 29.2293 11.5823 29.3442 11.4407 29.2794L10.0832 28.6581C10.0303 28.6339 9.96956 28.6339 9.91671 28.6581L8.55924 29.2794C8.41757 29.3442 8.25944 29.2293 8.27733 29.0746L8.44872 27.5915C8.4554 27.5338 8.43662 27.476 8.39728 27.4332L7.38692 26.3342C7.28148 26.2195 7.34187 26.0336 7.4946 26.0028L8.958 25.7075C9.01498 25.696 9.06414 25.6603 9.09268 25.6097L9.82571 24.3091ZM17.8257 24.3091C17.9022 24.1734 18.0977 24.1734 18.1742 24.3091L18.9072 25.6097C18.9358 25.6603 18.9849 25.696 19.0419 25.7075L20.5053 26.0028C20.658 26.0336 20.7184 26.2195 20.613 26.3342L19.6026 27.4332C19.5633 27.476 19.5445 27.5338 19.5512 27.5915L19.7226 29.0746C19.7404 29.2293 19.5823 29.3442 19.4407 29.2794L18.0832 28.6581C18.0303 28.6339 17.9696 28.6339 17.9167 28.6581L16.5592 29.2794C16.4176 29.3442 16.2594 29.2293 16.2773 29.0746L16.4487 27.5915C16.4554 27.5338 16.4366 27.476 16.3973 27.4332L15.3869 26.3342C15.2815 26.2195 15.3419 26.0336 15.4946 26.0028L16.958 25.7075C17.015 25.696 17.0641 25.6603 17.0927 25.6097L17.8257 24.3091ZM26.1742 24.3091C26.0977 24.1734 25.9022 24.1734 25.8257 24.3091L25.0927 25.6097C25.0641 25.6603 25.015 25.696 24.958 25.7075L23.4946 26.0028C23.3419 26.0336 23.2815 26.2195 23.3869 26.3342L24.3973 27.4332C24.4366 27.476 24.4554 27.5338 24.4487 27.5915L24.2773 29.0746C24.2594 29.2293 24.4176 29.3442 24.5592 29.2794L25.9167 28.6581C25.9696 28.6339 26.0303 28.6339 26.0832 28.6581L27.4407 29.2794C27.5823 29.3442 27.7404 29.2293 27.7226 29.0746L27.5512 27.5915C27.5445 27.5338 27.5633 27.476 27.6026 27.4332L28.613 26.3342C28.7184 26.2195 28.658 26.0336 28.5053 26.0028L27.0419 25.7075C26.9849 25.696 26.9358 25.6603 26.9072 25.6097L26.1742 24.3091Z" fill="#1DD8A7"/>
<path fill-rule="evenodd" clip-rule="evenodd" d="M10 5H26V21H24.7777C24.4677 19.6279 23.8414 18.3622 22.9497 17.3431C22.3574 16.6661 21.6697 16.123 20.9228 15.7308C21.591 15.0159 22 14.0557 22 13C22 10.7909 20.2091 9 18 9C15.7909 9 14 10.7909 14 13C14 14.0557 14.409 15.0159 15.0772 15.7308C14.3303 16.123 13.6426 16.6661 13.0503 17.3431C12.1586 18.3622 11.5323 19.6279 11.2223 21L10 21V5ZM13.288 21H18H22.712C22.4483 20.1118 22.0129 19.3096 21.4446 18.6602C20.4799 17.5577 19.2333 17 18 17C16.7667 17 15.5201 17.5577 14.5554 18.6602C13.9871 19.3096 13.5517 20.1118 13.288 21ZM11 23L10 23H5L5 31H31V23H26H25H23H18H13L11 23ZM18 15C19.1046 15 20 14.1046 20 13C20 11.8954 19.1046 11 18 11C16.8954 11 16 11.8954 16 13C16 14.1046 16.8954 15 18 15ZM8 21V5C8 3.89543 8.89543 3 10 3H26C27.1046 3 28 3.89543 28 5V21H31C32.1046 21 33 21.8954 33 23V31C33 32.1046 32.1046 33 31 33H5C3.89543 33 3 32.1046 3 31V23C3 21.8954 3.89543 21 5 21H8Z" fill="#5900E7"/>
</svg>
