<svg width="36" height="36" viewBox="0 0 36 36" fill="none" xmlns="http://www.w3.org/2000/svg">
<path fill-rule="evenodd" clip-rule="evenodd" d="M5 3H3V5H4.875V4.875H5V3ZM3 33V31H4.875V31.125H5V33H3ZM33 33H31V31.125H31.125V31H33V33ZM33 3V5H31.125V4.875H31V3H33ZM8.625 5V3H12.375V5H8.625ZM16.125 5V3H19.875V5H16.125ZM23.625 5V3H27.375V5H23.625ZM31 8.625H33V12.375H31V8.625ZM31 16.125H33V19.875H31V16.125ZM31 23.625H33V27.375H31V23.625ZM27.375 31V33H23.625V31H27.375ZM19.875 31V33H16.125V31H19.875ZM12.375 31V33H8.625V31H12.375ZM5 27.375H3V23.625H5V27.375ZM5 19.875H3V16.125H5V19.875ZM5 12.375H3V8.625H5V12.375ZM18 7C17.4477 7 17 7.44772 17 8V28C17 28.5523 17.4477 29 18 29C18.5523 29 19 28.5523 19 28V8C19 7.44772 18.5523 7 18 7Z" fill="#5900E7"/>
<path fill-rule="evenodd" clip-rule="evenodd" d="M23.9408 10.5L23.1074 13L23.9408 15.5H27.4992V10.5H23.9408ZM23.22 8.5C22.7896 8.5 22.4074 8.77543 22.2713 9.18377L21.1046 12.6838C21.0362 12.889 21.0362 13.111 21.1046 13.3162L22.2713 16.8162C22.4074 17.2246 22.7896 17.5 23.22 17.5H28.4992C29.0515 17.5 29.4992 17.0523 29.4992 16.5V9.5C29.4992 8.94772 29.0515 8.5 28.4992 8.5H23.22ZM17.9996 15C19.1042 15 19.9996 14.1046 19.9996 13C19.9996 11.8954 19.1042 11 17.9996 11C16.895 11 15.9996 11.8954 15.9996 13C15.9996 14.1046 16.895 15 17.9996 15ZM17.9996 25C19.1042 25 19.9996 24.1046 19.9996 23C19.9996 21.8954 19.1042 21 17.9996 21C16.895 21 15.9996 21.8954 15.9996 23C15.9996 24.1046 16.895 25 17.9996 25ZM12.8918 23L12.0585 20.5H8.5V25.5H12.0585L12.8918 23ZM13.7279 19.1838C13.5918 18.7754 13.2097 18.5 12.7792 18.5H7.5C6.94771 18.5 6.5 18.9477 6.5 19.5V26.5C6.5 27.0523 6.94772 27.5 7.5 27.5H12.7792C13.2097 27.5 13.5918 27.2246 13.7279 26.8162L14.8946 23.3162C14.963 23.111 14.963 22.889 14.8946 22.6838L13.7279 19.1838Z" fill="#1DD8A7"/>
</svg>
