<svg width="36" height="36" viewBox="0 0 36 36" fill="none" xmlns="http://www.w3.org/2000/svg">
<path d="M17 3C17 2.44772 17.4477 2 18 2C18.5523 2 19 2.44772 19 3V33C19 33.5523 18.5523 34 18 34C17.4477 34 17 33.5523 17 33V3Z" fill="#5900E7"/>
<path d="M20 27C20 28.1046 19.1046 29 18 29C16.8954 29 16 28.1046 16 27C16 25.8954 16.8954 25 18 25C19.1046 25 20 25.8954 20 27Z" fill="#1DD8A7"/>
<path d="M20 9C20 10.1046 19.1046 11 18 11C16.8954 11 16 10.1046 16 9C16 7.89543 16.8954 7 18 7C19.1046 7 20 7.89543 20 9Z" fill="#1DD8A7"/>
<path fill-rule="evenodd" clip-rule="evenodd" d="M31 5H24.009L22.3013 9L24.009 13H31L31 5ZM20 9L22.2709 13.9894C22.6265 14.6142 23.2901 15 24.009 15H31C32.1046 15 33 14.1046 33 13V5C33 3.89543 32.1046 3 31 3H24.009C23.2901 3 22.6265 3.38583 22.2709 4.0106L20 9Z" fill="#5900E7"/>
<path fill-rule="evenodd" clip-rule="evenodd" d="M5 23H11.991L13.6987 27L11.991 31H5L5 23ZM16 27L13.7291 31.9894C13.3735 32.6142 12.7099 33 11.991 33H5C3.89543 33 3 32.1046 3 31V23C3 21.8954 3.89543 21 5 21H11.991C12.7099 21 13.3735 21.3858 13.7291 22.0106L16 27Z" fill="#5900E7"/>
<path d="M25 9C25 8.44772 25.4477 8 26 8H29C29.5523 8 30 8.44772 30 9C30 9.55228 29.5523 10 29 10H26C25.4477 10 25 9.55228 25 9Z" fill="#1DD8A7"/>
<path d="M11 27C11 26.4477 10.5523 26 10 26H7C6.44772 26 6 26.4477 6 27C6 27.5523 6.44772 28 7 28H10C10.5523 28 11 27.5523 11 27Z" fill="#1DD8A7"/>
</svg>
