<svg width="36" height="36" viewBox="0 0 36 36" fill="none" xmlns="http://www.w3.org/2000/svg">
<path fill-rule="evenodd" clip-rule="evenodd" d="M31 6H5C4.44772 6 4 6.44772 4 7V29C4 29.5523 4.44772 30 5 30H31C31.5523 30 32 29.5523 32 29V7C32 6.44772 31.5523 6 31 6ZM5 4C3.34315 4 2 5.34315 2 7V29C2 30.6569 3.34315 32 5 32H31C32.6569 32 34 30.6569 34 29V7C34 5.34315 32.6569 4 31 4H5Z" fill="#5900E7"/>
<path fill-rule="evenodd" clip-rule="evenodd" d="M21.1057 12.5528C21.4802 11.8038 22.5545 11.8194 22.9072 12.579L29.4072 26.579C29.6397 27.0799 29.4222 27.6745 28.9213 27.9071C28.4203 28.1396 27.8257 27.9221 27.5931 27.4212L21.9668 15.3029L17.3946 24.4473C17.0261 25.1843 15.9742 25.1843 15.6057 24.4473L12.9204 19.0766L7.85764 27.5146C7.5735 27.9881 6.95924 28.1417 6.48566 27.8576C6.01208 27.5734 5.85851 26.9591 6.14266 26.4856L12.1427 16.4856C12.5486 15.8089 13.5417 15.8471 13.8946 16.5528L16.5002 21.764L21.1057 12.5528Z" fill="#1DD8A7"/>
<path fill-rule="evenodd" clip-rule="evenodd" d="M10 12C10.5523 12 11 11.5523 11 11C11 10.4477 10.5523 10 10 10C9.44772 10 9 10.4477 9 11C9 11.5523 9.44772 12 10 12ZM10 14C11.6569 14 13 12.6569 13 11C13 9.34315 11.6569 8 10 8C8.34315 8 7 9.34315 7 11C7 12.6569 8.34315 14 10 14Z" fill="#1DD8A7"/>
</svg>
