<svg width="36" height="36" viewBox="0 0 36 36" fill="none" xmlns="http://www.w3.org/2000/svg">
<rect x="19" y="2" width="2" height="32" rx="1" fill="#5900E7"/>
<rect x="25" y="2" width="2" height="32" rx="1" fill="#5900E7"/>
<path fill-rule="evenodd" clip-rule="evenodd" d="M8.05025 6.05026C9.363 4.7375 11.1435 4 13 4L13 2C10.613 2.00001 8.32385 2.94822 6.63603 4.63605C4.94821 6.32388 4 8.61306 4 11C4 13.387 4.94821 15.6761 6.63604 17.364C8.32387 19.0518 10.6131 20 13 20H19V18H13C11.1435 18 9.36301 17.2625 8.05025 15.9498C6.7375 14.637 6 12.8565 6 11C6 9.14349 6.73749 7.36302 8.05025 6.05026ZM31 2C31.5523 2 32 2.44772 32 3C32 3.55229 31.5523 4 31 4L13 4V2H31Z" fill="#1DD8A7"/>
</svg>
