<svg width="36" height="36" viewBox="0 0 36 36" fill="none" xmlns="http://www.w3.org/2000/svg">
<path fill-rule="evenodd" clip-rule="evenodd" d="M27 6H5C4.44772 6 4 6.44772 4 7V25C4 25.5523 4.44772 26 5 26H27C27.5523 26 28 25.5523 28 25V7C28 6.44772 27.5523 6 27 6ZM5 4C3.34315 4 2 5.34315 2 7V25C2 26.6569 3.34315 28 5 28H27C28.6569 28 30 26.6569 30 25V7C30 5.34315 28.6569 4 27 4H5Z" fill="#5900E7"/>
<path d="M17.752 15.1679C18.3457 15.5638 18.3457 16.4362 17.752 16.832L14.5547 18.9635C13.8902 19.4066 13 18.9302 13 18.1315L13 13.8685C13 13.0698 13.8902 12.5934 14.5547 13.0365L17.752 15.1679Z" fill="#1DD8A7"/>
<path fill-rule="evenodd" clip-rule="evenodd" d="M33 8C33.5523 8 34 8.44772 34 9V28C34 30.2091 32.2092 32 30 32H7C6.44772 32 6 31.5523 6 31C6 30.4477 6.44772 30 7 30H30C31.1046 30 32 29.1046 32 28V9C32 8.44772 32.4478 8 33 8Z" fill="#5900E7"/>
</svg>
