<?xml version="1.0" encoding="utf-8"?>
<!-- Generator: Adobe Illustrator 16.0.0, SVG Export Plug-In . SVG Version: 6.00 Build 0)  -->
<!DOCTYPE svg PUBLIC "-//W3C//DTD SVG 1.1//EN" "http://www.w3.org/Graphics/SVG/1.1/DTD/svg11.dtd">
<svg version="1.1" id="Layer_1" xmlns="http://www.w3.org/2000/svg" xmlns:xlink="http://www.w3.org/1999/xlink" x="0px" y="0px"
	 width="3000px" height="3000px" viewBox="0 0 3000 3000" enable-background="new 0 0 3000 3000" xml:space="preserve">
<g id="Layer_2">
	<g>
		<g id="Layer_1-2_8_">
			<path fill="#19253D" d="M234.024,1835.864H-0.005v-653.99h210.629c75.413,0,134.96,73.072,134.96,160.181
				c0,60.324-22.092,123.511-70.997,145.092v1.819c57.207,1.564,113.902,78.01,113.902,160.19
				C388.49,1763.048,317.237,1835.864,234.024,1835.864z M99.33,1283.55v169.544h78.02c37.18,0,66.305-45.502,66.305-95.695
				c2.37-38.409-26.843-71.479-65.263-73.849c-0.02,0-0.02,0-0.02,0H99.33L99.33,1283.55z M99.33,1552.959v184.348h108.698
				c41.085,0,82.958-25.996,82.958-93.088c3.6-46.83-31.426-87.699-78.256-91.299c-1.564-0.118-3.118-0.196-4.702-0.227
				L99.33,1552.959z"/>
			<path fill="#19253D" d="M418.647,1642.654c0-109.21,66.049-204.64,186.964-204.64c49.367-3.01,96.925,18.975,126.64,58.505
				v-50.704h81.904v390.039h-81.904v-52.003c-29.115,41.38-77.41,64.938-127.938,62.419
				C490.942,1845.484,418.647,1758.386,418.647,1642.654z M620.956,1512.642c-73.072,0-108.698,62.921-108.698,128.193
				c0,75.659,37.711,128.459,104.016,128.459c78.011,0,111.286-66.05,111.286-133.396c0-67.348-42.649-122.745-106.623-122.745
				L620.956,1512.642L620.956,1512.642z"/>
			<path fill="#19253D" d="M949.894,1835.864h-87.108v-390.049h84.521v54.6c0,0,26.017-62.41,120.925-62.41
				c83.203,0,134.961,52.014,134.961,137.302v260.036h-86.854v-221.292c0-70.465-24.187-96.472-76.189-96.472
				c-72.797,0-90.758,67.348-90.758,105.551L949.894,1835.864z"/>
			<path fill="#19253D" d="M1345.677,1636.949v198.915h-88.938v-682.318h88.938v448.043l140.4-156.029h105.57l-154.2,172.928
				l166.417,217.131h-108.689L1345.677,1636.949z"/>
			<path fill="#19253D" d="M1801.766,1522.526c-59.026,0-80.104,57.207-80.104,101.145v212.184h-87.089v-390.039h83.203v56.43
				c17.587-41.489,58.987-67.791,104.007-66.05c16.367-0.206,32.626,2.794,47.842,8.843l-28.072,85.81
				C1828.795,1526.038,1815.369,1523.234,1801.766,1522.526z"/>
			<path fill="#19253D" d="M1861.313,1642.654c0-109.21,65.783-204.64,186.688-204.64c49.378-3.059,96.955,18.935,126.63,58.505
				v-50.704h81.915v390.039h-81.915v-52.003c-29.114,41.38-77.39,64.938-127.938,62.419
				C1933.599,1845.484,1861.313,1758.386,1861.313,1642.654z M2063.355,1512.642c-72.807,0-108.698,62.921-108.698,128.193
				c0,75.659,37.701,128.459,104.007,128.459c78.02,0,111.561-66.05,111.561-133.396c0-67.348-42.905-122.745-106.869-122.745
				V1512.642z"/>
			<path fill="#19253D" d="M2361.624,1835.864V1527.72h-44.213v-81.904h44.213v-148.997h89.695v148.997h65.282v81.904h-64.751
				v308.135h-90.227V1835.864z"/>
			<path fill="#19253D" d="M2530.638,1645.782c-1.869-113.017,88.229-206.135,201.236-208.003c1.396-0.02,2.793-0.03,4.19-0.03
				c130.032,0,194.498,92.833,192.423,226.23h-305.017c-1.348,57.442,44.124,105.088,101.548,106.406
				c2.223,0.059,4.406,0.039,6.629-0.06c47.341,0.443,90.777-26.223,111.797-68.646l78.029,35.37
				c-35.341,69.217-107.764,111.482-185.42,108.158C2618.268,1845.484,2530.638,1766.697,2530.638,1645.782z M2626.333,1595.608
				h211.928c0-19.003-18.463-85.819-105.57-85.819C2680.785,1507.831,2635.382,1544.451,2626.333,1595.608z"/>
			<path fill="#19253D" d="M2999.995,1474.674c0.167,16.8-13.338,30.541-30.138,30.698c-0.256,0-0.531,0-0.786,0
				c-16.801,0-30.424-13.633-30.424-30.433s13.623-30.423,30.424-30.423l0,0c16.652-0.433,30.511,12.718,30.934,29.37
				C2999.995,1474.153,2999.995,1474.418,2999.995,1474.674z M2945.661,1474.674c-0.285,13.072,10.053,23.892,23.134,24.178
				c0.196,0,0.354,0.01,0.541,0.01c13.288-1.388,22.928-13.279,21.541-26.558c-1.19-11.37-10.181-20.36-21.541-21.551
				c-12.915-0.147-23.538,10.21-23.665,23.135C2945.651,1474.153,2945.651,1474.418,2945.661,1474.674L2945.661,1474.674z
				 M2964.389,1491.582h-7.032v-31.2c3.895-0.344,7.819-0.344,11.694,0c3.591-0.285,7.19,0.434,10.407,2.076
				c1.918,1.711,2.98,4.189,2.861,6.757c-0.363,3.442-2.871,6.266-6.246,7.023l0,0c3.039,1.229,5.125,4.032,5.459,7.278
				c0.324,2.637,1.121,5.184,2.342,7.544h-7.545c-1.298-2.232-2.095-4.711-2.341-7.278c0-3.374-2.597-4.682-6.235-4.682h-3.385
				L2964.389,1491.582L2964.389,1491.582z M2964.389,1474.674h3.108c3.895,0,7.022-1.298,7.022-4.416s-2.085-4.682-6.501-4.682
				h-3.63V1474.674L2964.389,1474.674z"/>
		</g>
	</g>
</g>
</svg>
