<?xml version="1.0" encoding="UTF-8"?>
<svg width="576px" height="171px" viewBox="0 0 576 171" version="1.1" xmlns="http://www.w3.org/2000/svg" xmlns:xlink="http://www.w3.org/1999/xlink" xmlns:sketch="http://www.bohemiancoding.com/sketch/ns">
    <!-- Generator: Sketch 3.3.3 (12081) - http://www.bohemiancoding.com/sketch -->
    <title>logo copy</title>
    <desc>Created with Sketch.</desc>
    <defs></defs>
    <g id="Page-1" stroke="none" stroke-width="1" fill="none" fill-rule="evenodd" sketch:type="MSPage">
        <g id="Nozzle-blue-Copy" sketch:type="MSLayerGroup" transform="translate(14.000000, 12.000000)" stroke="#FFFFFF" stroke-width="3" fill="#FFFFFF">
            <path d="M124.435255,67.1768538 L124.435255,15.197291 L87.3238042,49.6264928 L124.435255,67.1768538 L124.435255,67.1768538 Z M6.78102166,81.1425292 L6.78102166,133.12858 L43.8957172,98.6928902 L6.78102166,81.1425292 L6.78102166,81.1425292 Z M124.435255,74.297564 L124.435255,133.122092 L6.78102166,74.0185749 L6.78102166,15.197291 L124.435255,74.297564 L124.435255,74.297564 Z M82.0193874,45.869872 L130.8038,0.605512127 L130.8038,143.444689 L49.2001339,102.455999 L0.415721604,147.717115 L0.415721604,4.87469421 L82.0193874,45.869872 L82.0193874,45.869872 Z" id="Fill-3" sketch:type="MSShapeGroup"></path>
        </g>
        <path d="M243.996923,124 L237.323923,124 L237.323923,85.2965981 C237.323923,76.310246 236.056066,69.7707711 233.520313,65.6779771 C230.98456,61.5851831 226.914071,59.5388168 221.308722,59.5388168 C218.372587,59.5388168 215.45874,60.0726514 212.567092,61.1403368 C209.675444,62.2080222 207.00627,63.7205538 204.559491,65.6779771 C202.112712,67.6354003 199.95513,69.9264408 198.086681,72.5511674 C196.218232,75.175894 194.839159,78.0007692 193.949421,81.0258778 L193.949421,124 L187.276421,124 L187.276421,54.6007965 L193.415581,54.6007965 L193.415581,71.1498373 C194.839161,68.4806239 196.61861,66.0561247 198.753981,63.876267 C200.889352,61.6964093 203.247122,59.8279879 205.827361,58.2709467 C208.407601,56.7139055 211.18799,55.5127774 214.168612,54.6675265 C217.149234,53.8222756 220.19654,53.3996564 223.310622,53.3996564 C230.873394,53.3996564 236.211741,56.0465868 239.325823,61.3405268 C242.439906,66.6344669 243.996923,74.2193681 243.996923,84.095458 L243.996923,124 Z M292.976746,125.3346 C288.083188,125.3346 283.567836,124.378146 279.430555,122.46521 C275.293274,120.552274 271.712133,117.949829 268.687025,114.6578 C265.661916,111.36577 263.304146,107.539954 261.613644,103.180239 C259.923142,98.8205236 259.077904,94.2384425 259.077904,89.4338583 C259.077904,84.5403002 259.945385,79.9137329 261.680374,75.5540176 C263.415363,71.1943022 265.817619,67.3684869 268.887215,64.076457 C271.95681,60.784427 275.537951,58.1819829 279.630745,56.2690466 C283.723539,54.3561103 288.172162,53.3996564 292.976746,53.3996564 C297.78133,53.3996564 302.252196,54.3561103 306.389477,56.2690466 C310.526757,58.1819829 314.130142,60.784427 317.199737,64.076457 C320.269333,67.3684869 322.671589,71.1943022 324.406577,75.5540176 C326.141566,79.9137329 327.009048,84.5403002 327.009048,89.4338583 C327.009048,94.2384425 326.141566,98.8205236 324.406577,103.180239 C322.671589,107.539954 320.291576,111.36577 317.266467,114.6578 C314.241358,117.949829 310.637974,120.552274 306.456207,122.46521 C302.274439,124.378146 297.78133,125.3346 292.976746,125.3346 L292.976746,125.3346 Z M265.884364,89.7007783 C265.884364,93.7935723 266.596144,97.6416307 268.019725,101.245069 C269.443305,104.848507 271.378456,107.984786 273.825235,110.653999 C276.272014,113.323213 279.141375,115.436308 282.433405,116.99335 C285.725435,118.550391 289.239847,119.3289 292.976746,119.3289 C296.713645,119.3289 300.228056,118.550391 303.520086,116.99335 C306.812116,115.436308 309.681478,113.278727 312.128257,110.520539 C314.575036,107.762352 316.53243,104.581587 318.000497,100.978149 C319.468565,97.3747106 320.202587,93.482166 320.202587,89.3003983 C320.202587,85.2076043 319.468565,81.3595459 318.000497,77.7561077 C316.53243,74.1526695 314.575036,70.9941476 312.128257,68.2804472 C309.681478,65.5667468 306.812116,63.409165 303.520086,61.8076369 C300.228056,60.2061088 296.713645,59.4053568 292.976746,59.4053568 C289.328821,59.4053568 285.858895,60.2061088 282.566865,61.8076369 C279.274835,63.409165 276.383231,65.5889899 273.891965,68.3471772 C271.400699,71.1053645 269.443305,74.3306157 268.019725,78.0230277 C266.596144,81.7154397 265.884364,85.6079843 265.884364,89.7007783 L265.884364,89.7007783 Z M334.482808,119.19544 L383.72955,59.8057368 L335.417028,59.8057368 L335.417028,54.6007965 L391.069851,54.6007965 L391.069851,59.4053568 L342.090028,118.79506 L390.936391,118.79506 L390.936391,124 L334.482808,124 L334.482808,119.19544 Z M399.210911,119.19544 L448.457654,59.8057368 L400.145131,59.8057368 L400.145131,54.6007965 L455.797954,54.6007965 L455.797954,59.4053568 L406.818132,118.79506 L455.664494,118.79506 L455.664494,124 L399.210911,124 L399.210911,119.19544 Z M470.745475,26.5741951 L477.551935,26.5741951 L477.551935,110.253619 C477.551935,112.833859 478.285958,114.880225 479.754025,116.39278 C481.222093,117.905334 483.246216,118.6616 485.826456,118.6616 C486.805167,118.6616 487.984052,118.550384 489.363146,118.32795 C490.742239,118.105515 492.010097,117.771869 493.166756,117.327 L494.501356,122.6654 C492.988802,123.288216 491.12038,123.799808 488.896036,124.20019 C486.671691,124.600572 484.758783,124.80076 483.157255,124.80076 C479.420357,124.80076 476.417536,123.666361 474.148705,121.39753 C471.879873,119.128698 470.745475,116.081392 470.745475,112.255519 L470.745475,26.5741951 Z M533.204758,125.3346 C528.3112,125.3346 523.773605,124.378146 519.591837,122.46521 C515.410069,120.552274 511.784442,117.927586 508.714847,114.59107 C505.645251,111.254553 503.242995,107.406494 501.508006,103.046779 C499.773018,98.6870636 498.905536,94.0160101 498.905536,89.0334782 C498.905536,84.1399202 499.773018,79.535596 501.508006,75.2203675 C503.242995,70.9051391 505.623008,67.12381 508.648117,63.876267 C511.673225,60.6287239 515.276609,58.070766 519.458377,56.2023166 C523.640145,54.3338672 528.133254,53.3996564 532.937838,53.3996564 C537.831396,53.3996564 542.346748,54.3561103 546.484029,56.2690466 C550.621309,58.1819829 554.202451,60.7621839 557.227559,64.009727 C560.252668,67.25727 562.632681,71.0385991 564.367669,75.3538276 C566.102658,79.669056 566.97014,84.228894 566.97014,89.0334782 C566.97014,89.4783472 566.947897,90.034425 566.90341,90.7017283 C566.858923,91.3690317 566.83668,91.7916508 566.83668,91.9695984 L505.845457,91.9695984 C506.112378,95.9734186 507.046589,99.6880183 508.648117,103.113509 C510.249645,106.539 512.273768,109.497333 514.720547,111.988599 C517.167326,114.479865 519.992201,116.437259 523.195257,117.86084 C526.398314,119.28442 529.823753,119.9962 533.471678,119.9962 C535.87397,119.9962 538.253983,119.662553 540.611788,118.99525 C542.969594,118.327946 545.149419,117.415979 547.151329,116.25932 C549.153239,115.10266 550.932688,113.701344 552.489729,112.055329 C554.04677,110.409314 555.270141,108.607622 556.159879,106.650199 L562.032119,108.251719 C560.964434,110.742985 559.474145,113.034026 557.561209,115.12491 C555.648273,117.215793 553.423962,119.017486 550.888209,120.53004 C548.352456,122.042594 545.572067,123.221479 542.546958,124.06673 C539.52185,124.911981 536.407814,125.3346 533.204758,125.3346 L533.204758,125.3346 Z M560.430599,86.6311981 C560.163678,82.5384041 559.25171,78.8015613 557.694669,75.4205576 C556.137628,72.0395538 554.135748,69.1257061 551.688969,66.6789271 C549.24219,64.2321481 546.417315,62.3192405 543.214258,60.9401468 C540.011202,59.5610532 536.585763,58.8715167 532.937838,58.8715167 C529.289913,58.8715167 525.864474,59.5610532 522.661417,60.9401468 C519.458361,62.3192405 516.633486,64.2321481 514.186707,66.6789271 C511.739928,69.1257061 509.782534,72.0617969 508.314467,75.4872876 C506.846399,78.9127782 505.978918,82.6273779 505.711997,86.6311981 L560.430599,86.6311981 Z" id="nozzle-copy-2" fill="#FFFFFF" sketch:type="MSShapeGroup"></path>
    </g>
</svg>