<svg xmlns="http://www.w3.org/2000/svg" viewBox="0 0 218.59 218.59"><g><g><g><g style="opacity:0.4"><polyline points="114.6 89.07 104.01 89.07 104.01 104 89.07 104 89.07 114.59 104.01 114.59 104.01 129.53 114.6 129.53 114.6 114.59 129.52 114.59 129.52 104 114.6 104 114.6 89.07" style="fill:#fff"/><path d="M109.29,0h-40V104H37.08v10.59H69.33v14.93H79.92V10.59h29.37A29.42,29.42,0,0,1,138.66,39.8V60.27h10.6V39.79A40,40,0,0,0,109.29,0" style="fill:#fff"/><path d="M114.59,37.08H104V69.33H89.07V79.92H208v29.37a29.42,29.42,0,0,1-29.21,29.37H158.33v10.6h20.48a40,40,0,0,0,39.78-40v-40h-104V37.08" style="fill:#fff"/><path d="M149.27,89.07h-10.6V208H109.3a29.43,29.43,0,0,1-29.37-29.21V158.33H69.34v20.48a40,40,0,0,0,40,39.78h40v-104h32.25V104H149.27V89.07" style="fill:#fff"/><path d="M60.27,69.34H39.79A40,40,0,0,0,0,109.3v40H104v32.25h10.59V149.27h14.93v-10.6H10.59V109.3A29.42,29.42,0,0,1,39.81,79.93H60.27V69.34" style="fill:#fff"/></g><g id="f3101b9d-c8c4-4d8a-890b-568260eb4404" data-name="G"><path d="M79.92,10.59h29.37A29.42,29.42,0,0,1,138.66,39.8V60.27h10.6V39.79A40,40,0,0,0,109.29,0h-40V129.52H79.92Z" style="fill:#fff"/><path d="M140.27,104H104v10.59h34.66V208H109.3a29.43,29.43,0,0,1-29.37-29.21V158.33H69.34v20.48a40,40,0,0,0,40,39.78h40V104Z" style="fill:#fff"/></g></g></g></g></svg>