<svg xmlns="http://www.w3.org/2000/svg" xmlns:xlink="http://www.w3.org/1999/xlink" width="1000" height="700" viewBox="0 0 1000 700">
  <defs>
    <clipPath id="clip-Audio_Player_-_Style_3">
      <rect width="1000" height="700"/>
    </clipPath>
  </defs>
  <g id="Audio_Player_-_Style_3" data-name="Audio Player - Style 3" clip-path="url(#clip-Audio_Player_-_Style_3)">
    <rect width="1000" height="700" fill="#fcfcff"/>
    <rect id="Rectangle_547" data-name="Rectangle 547" width="800" height="500" rx="5" transform="translate(100 100)" fill="#888"/>
    <line id="Line_6" data-name="Line 6" x2="229" transform="translate(338.5 406.5)" fill="none" stroke="#fff" stroke-width="15"/>
    <path id="forward" d="M24.4,72.154l-9.359-7.8a1.562,1.562,0,0,0-2.559,1.2v15.6a1.561,1.561,0,0,0,2.559,1.2l9.359-7.8A1.565,1.565,0,0,0,24.4,72.154Zm-12.479,0-9.359-7.8A1.562,1.562,0,0,0,0,65.554v15.6a1.561,1.561,0,0,0,2.559,1.2l9.359-7.8A1.565,1.565,0,0,0,11.918,72.154Z" transform="translate(563.163 409.42)" fill="#d5d5d5"/>
    <path id="backward" d="M.584,74.508l9.357,7.8a1.56,1.56,0,0,0,2.559-1.2v-15.6a1.56,1.56,0,0,0-2.559-1.2L.584,72.11A1.565,1.565,0,0,0,.584,74.508Zm12.476,0,9.357,7.8a1.56,1.56,0,0,0,2.559-1.2v-15.6a1.56,1.56,0,0,0-2.559-1.2l-9.357,7.8A1.565,1.565,0,0,0,13.061,74.508Z" transform="translate(411.41 409.465)" fill="#d5d5d5"/>
    <line id="Line_98" data-name="Line 98" x1="643" transform="translate(169.5 566.5)" fill="none" stroke="#d5d5d5" stroke-width="5"/>
    <g id="Ellipse_298" data-name="Ellipse 298" transform="translate(159 556)" fill="#d5d5d5" stroke="#d5d5d5" stroke-width="5">
      <circle cx="11" cy="11" r="11" stroke="none"/>
      <circle cx="11" cy="11" r="8.5" fill="none"/>
    </g>
    <path id="volume-down" d="M13.569,65.443,7.954,71.057H1.514A1.514,1.514,0,0,0,0,72.571v9.087a1.514,1.514,0,0,0,1.514,1.514h6.44l5.614,5.613a1.515,1.515,0,0,0,2.585-1.071v-21.2A1.516,1.516,0,0,0,13.569,65.443Zm7.774,6.82a1.515,1.515,0,0,0-1.461,2.654,2.488,2.488,0,0,1,0,4.394,1.515,1.515,0,1,0,1.461,2.654,5.518,5.518,0,0,0,0-9.7Z" transform="translate(851 489.773)" fill="#d5d5d5"/>
    <path id="list-ul" d="M2.352,48A2.352,2.352,0,1,0,4.7,50.352,2.352,2.352,0,0,0,2.352,48Zm0,7.839A2.352,2.352,0,1,0,4.7,58.19a2.352,2.352,0,0,0-2.352-2.352Zm0,7.839A2.352,2.352,0,1,0,4.7,66.029a2.352,2.352,0,0,0-2.352-2.352Zm21.949.784H8.623a.784.784,0,0,0-.784.784v1.568a.784.784,0,0,0,.784.784H24.3a.784.784,0,0,0,.784-.784V65.245A.784.784,0,0,0,24.3,64.461Zm0-15.678H8.623a.784.784,0,0,0-.784.784v1.568a.784.784,0,0,0,.784.784H24.3a.784.784,0,0,0,.784-.784V49.568A.784.784,0,0,0,24.3,48.784Zm0,7.839H8.623a.784.784,0,0,0-.784.784v1.568a.784.784,0,0,0,.784.784H24.3a.784.784,0,0,0,.784-.784V57.407A.784.784,0,0,0,24.3,56.623Z" transform="translate(849.854 83.938)" fill="#d5d5d5"/>
    <rect id="Rectangle_547-2" data-name="Rectangle 547" width="152" height="147" rx="73.5" transform="translate(424 190)" fill="#d5d5d5"/>
    <rect id="Rectangle_624" data-name="Rectangle 624" width="64" height="62" rx="31" transform="translate(468 452)" fill="#d5d5d5"/>
    <path id="image" d="M62.445,115.679H6.46A6.46,6.46,0,0,1,0,109.219V70.46A6.46,6.46,0,0,1,6.46,64H62.445a6.46,6.46,0,0,1,6.46,6.46v38.759A6.46,6.46,0,0,1,62.445,115.679ZM15.073,71.537a7.537,7.537,0,1,0,7.537,7.537A7.537,7.537,0,0,0,15.073,71.537Zm-6.46,35.529H60.292V91.993L48.514,80.215a1.615,1.615,0,0,0-2.284,0L27.993,98.453l-7.471-7.471a1.615,1.615,0,0,0-2.284,0l-9.624,9.625Z" transform="translate(466 174)" fill="#888"/>
    <path id="play" d="M21.662,10.989,3.7.367A2.436,2.436,0,0,0,0,2.475V23.713a2.448,2.448,0,0,0,3.7,2.108L21.662,15.2A2.447,2.447,0,0,0,21.662,10.989Z" transform="translate(488.16 469.969)" fill="#888"/>
    <line id="Line_7" data-name="Line 7" x2="82.192" transform="translate(580.308 406.078)" fill="none" stroke="#d5d5d5" stroke-width="12"/>
    <text id="_00:00" data-name="00:00" transform="translate(159 537)" fill="#fff" font-size="25" font-family="HelveticaNeue, Helvetica Neue"><tspan x="0" y="0">00:00</tspan></text>
  </g>
</svg>
