<svg xmlns="http://www.w3.org/2000/svg" xmlns:xlink="http://www.w3.org/1999/xlink" width="1000" height="700" viewBox="0 0 1000 700">
  <defs>
    <clipPath id="clip-Audio_Player_-_Style_4">
      <rect width="1000" height="700"/>
    </clipPath>
  </defs>
  <g id="Audio_Player_-_Style_4" data-name="Audio Player - Style 4" clip-path="url(#clip-Audio_Player_-_Style_4)">
    <rect width="1000" height="700" fill="#fcfcff"/>
    <rect id="Rectangle_547" data-name="Rectangle 547" width="800" height="402" rx="5" transform="translate(100 149)" fill="#d5d5d5"/>
    <path id="image" d="M346.619,350.857H35.857A35.857,35.857,0,0,1,0,315V99.857A35.857,35.857,0,0,1,35.857,64H346.619a35.857,35.857,0,0,1,35.857,35.857V315A35.857,35.857,0,0,1,346.619,350.857ZM83.667,105.833A41.833,41.833,0,1,0,125.5,147.667,41.833,41.833,0,0,0,83.667,105.833ZM47.81,303.048H334.667V219.381l-65.376-65.376a8.965,8.965,0,0,0-12.678,0L155.381,255.238,113.91,213.767a8.965,8.965,0,0,0-12.678,0L47.81,267.191Z" transform="translate(309 142.625)" fill="#888" opacity="0.207"/>
    <path id="play" d="M24.013,12.178,4.1.4A2.7,2.7,0,0,0,0,2.74V26.284a2.713,2.713,0,0,0,4.1,2.337L24.013,16.852A2.713,2.713,0,0,0,24.013,12.178Z" transform="translate(148.209 482.74)" fill="#888"/>
    <line id="Line_98" data-name="Line 98" x1="579" transform="translate(226.5 497.5)" fill="none" stroke="#888" stroke-width="5"/>
    <g id="Ellipse_298" data-name="Ellipse 298" transform="translate(212 487)" fill="#888" stroke="#888" stroke-width="5">
      <circle cx="11" cy="11" r="11" stroke="none"/>
      <circle cx="11" cy="11" r="8.5" fill="none"/>
    </g>
    <path id="volume-down" d="M13.569,65.443,7.954,71.057H1.514A1.514,1.514,0,0,0,0,72.571v9.087a1.514,1.514,0,0,0,1.514,1.514h6.44l5.614,5.613a1.515,1.515,0,0,0,2.585-1.071v-21.2A1.516,1.516,0,0,0,13.569,65.443Zm7.774,6.82a1.515,1.515,0,0,0-1.461,2.654,2.488,2.488,0,0,1,0,4.394,1.515,1.515,0,1,0,1.461,2.654,5.518,5.518,0,0,0,0-9.7Z" transform="translate(828 420.773)" fill="#888"/>
    <path id="list-ul" d="M2.352,48A2.352,2.352,0,1,0,4.7,50.352,2.352,2.352,0,0,0,2.352,48Zm0,7.839A2.352,2.352,0,1,0,4.7,58.19a2.352,2.352,0,0,0-2.352-2.352Zm0,7.839A2.352,2.352,0,1,0,4.7,66.029a2.352,2.352,0,0,0-2.352-2.352Zm21.949.784H8.623a.784.784,0,0,0-.784.784v1.568a.784.784,0,0,0,.784.784H24.3a.784.784,0,0,0,.784-.784V65.245A.784.784,0,0,0,24.3,64.461Zm0-15.678H8.623a.784.784,0,0,0-.784.784v1.568a.784.784,0,0,0,.784.784H24.3a.784.784,0,0,0,.784-.784V49.568A.784.784,0,0,0,24.3,48.784Zm0,7.839H8.623a.784.784,0,0,0-.784.784v1.568a.784.784,0,0,0,.784.784H24.3a.784.784,0,0,0,.784-.784V57.407A.784.784,0,0,0,24.3,56.623Z" transform="translate(826.854 145.938)" fill="#888"/>
    <line id="Line_6" data-name="Line 6" x2="279" transform="translate(360.5 357.5)" fill="none" stroke="#888" stroke-width="20"/>
    <line id="Line_109" data-name="Line 109" x2="165" transform="translate(417.5 407.5)" fill="none" stroke="#fff" stroke-width="15"/>
  </g>
</svg>
