<svg xmlns="http://www.w3.org/2000/svg" xmlns:xlink="http://www.w3.org/1999/xlink" width="1000" height="700" viewBox="0 0 1000 700">
  <defs>
    <clipPath id="clip-Audio_Player_-_Style_9">
      <rect width="1000" height="700"/>
    </clipPath>
  </defs>
  <g id="Audio_Player_-_Style_9" data-name="Audio Player - Style 9" clip-path="url(#clip-Audio_Player_-_Style_9)">
    <rect width="1000" height="700" fill="#fcfcff"/>
    <rect id="Rectangle_547" data-name="Rectangle 547" width="800" height="393" rx="5" transform="translate(100 154)" fill="#d5d5d5"/>
    <path id="image" d="M346.619,350.857H35.857A35.857,35.857,0,0,1,0,315V99.857A35.857,35.857,0,0,1,35.857,64H346.619a35.857,35.857,0,0,1,35.857,35.857V315A35.857,35.857,0,0,1,346.619,350.857ZM83.667,105.833A41.833,41.833,0,1,0,125.5,147.667,41.833,41.833,0,0,0,83.667,105.833ZM47.81,303.048H334.667V219.381l-65.376-65.376a8.965,8.965,0,0,0-12.678,0L155.381,255.238,113.91,213.767a8.965,8.965,0,0,0-12.678,0L47.81,267.191Z" transform="translate(309 142.625)" fill="#888" opacity="0.207"/>
    <line id="Line_6" data-name="Line 6" x2="229" transform="translate(150.5 453.5)" fill="none" stroke="#888" stroke-width="20"/>
    <line id="Line_7" data-name="Line 7" x2="134" transform="translate(150.5 493.5)" fill="none" stroke="#fff" stroke-width="10"/>
  </g>
</svg>
