<svg xmlns="http://www.w3.org/2000/svg" xmlns:xlink="http://www.w3.org/1999/xlink" width="1000" height="700" viewBox="0 0 1000 700"><defs><clipPath id="b"><rect width="1000" height="700"/></clipPath></defs><g id="a" clip-path="url(#b)"><rect width="1000" height="700" fill="#fcfcff"/><rect width="178" height="162" transform="translate(100 138)" fill="#d5d5d5"/><line x2="547.472" transform="translate(317.5 300.201)" fill="none" stroke="#d5d5d5" stroke-width="8"/><line x2="582.676" transform="translate(317.5 334.893)" fill="none" stroke="#d5d5d5" stroke-width="8"/><line x2="582.676" transform="translate(317.5 369.586)" fill="none" stroke="#d5d5d5" stroke-width="8"/><line x2="582.676" transform="translate(317.5 439.405)" fill="none" stroke="#d5d5d5" stroke-width="8"/><line x2="524.693" transform="translate(317.5 404.278)" fill="none" stroke="#d5d5d5" stroke-width="8"/><line x2="524.693" transform="translate(317.5 474.097)" fill="none" stroke="#d5d5d5" stroke-width="8"/><line x2="356.837" transform="translate(317.5 156.245)" fill="none" stroke="#888" stroke-width="20"/><line x2="253.249" transform="translate(317.5 213.336)" fill="none" stroke="#888" stroke-width="20"/><line x2="183" transform="translate(317.5 561.336)" fill="none" stroke="#888" stroke-width="50"/><g transform="translate(139 174)"><line stroke="#449fdb" stroke-width="1"/><path d="M83.227,36.332a1.919,1.919,0,0,0-1.678-.988H50.105V3.949c0-.865-.193-1.62-1.031-1.853a1.674,1.674,0,0,0-1.963.877L16.29,55.459a3.613,3.613,0,0,0,.037,2.7c.337.6,1.022,1.727,1.712,1.727h29V89.026a1.929,1.929,0,0,0,1.384,1.844,1.779,1.779,0,0,0,.534.074,1.916,1.916,0,0,0,1.623-.9L83.172,38.28a1.918,1.918,0,0,0,.055-1.948Z" transform="translate(-3.74 -0.473)" fill="#fff"/></g></g></svg>