<svg xmlns="http://www.w3.org/2000/svg" xmlns:xlink="http://www.w3.org/1999/xlink" width="1000" height="700" viewBox="0 0 1000 700"><defs><clipPath id="b"><rect width="1000" height="700"/></clipPath></defs><g id="a" clip-path="url(#b)"><rect width="1000" height="700" fill="#fcfcff"/><rect width="246" height="224" transform="translate(99 100)" fill="#d5d5d5"/><g transform="translate(152 143.172)"><line transform="translate(0 -0.172)" stroke="#449fdb" stroke-width="1"/><path d="M118,54.086a2.912,2.912,0,0,0-2.547-1.5H67.734V4.942c0-1.313-.293-2.458-1.564-2.812a2.54,2.54,0,0,0-2.98,1.331L16.416,83.113a5.482,5.482,0,0,0,.056,4.092c.512.9,1.55,2.621,2.6,2.621H63.079v44.228a2.927,2.927,0,0,0,2.1,2.8,2.7,2.7,0,0,0,.81.112,2.908,2.908,0,0,0,2.463-1.359l49.465-78.563A2.911,2.911,0,0,0,118,54.086Z" transform="translate(2.63 0.333)" fill="#fff"/></g><line x2="640.421" transform="translate(222.297 373.147)" fill="none" stroke="#d5d5d5" stroke-width="8"/><line x2="677.856" transform="translate(222.297 416.828)" fill="none" stroke="#d5d5d5" stroke-width="8"/><line x2="677.856" transform="translate(222.297 460.509)" fill="none" stroke="#d5d5d5" stroke-width="8"/><line x2="677.856" transform="translate(222.297 548.417)" fill="none" stroke="#d5d5d5" stroke-width="8"/><line x2="616.199" transform="translate(222.297 504.189)" fill="none" stroke="#d5d5d5" stroke-width="8"/><line x2="616.199" transform="translate(222.297 592.097)" fill="none" stroke="#d5d5d5" stroke-width="8"/><line x2="325.639" transform="translate(222.405 267.744)" fill="none" stroke="#888" stroke-width="20"/></g></svg>