<svg xmlns="http://www.w3.org/2000/svg" xmlns:xlink="http://www.w3.org/1999/xlink" width="1000" height="700" viewBox="0 0 1000 700"><defs><clipPath id="b"><rect width="1000" height="700"/></clipPath></defs><g id="a" clip-path="url(#b)"><rect width="1000" height="700" fill="#fcfcff"/><rect width="196" height="178" transform="translate(102 113)" fill="#d5d5d5"/><line x2="758.281" transform="translate(98.548 367.147)" fill="none" stroke="#d5d5d5" stroke-width="8"/><line x2="802.606" transform="translate(98.548 410.828)" fill="none" stroke="#d5d5d5" stroke-width="8"/><line x2="802.606" transform="translate(98.548 454.509)" fill="none" stroke="#d5d5d5" stroke-width="8"/><line x2="802.606" transform="translate(98.548 542.417)" fill="none" stroke="#d5d5d5" stroke-width="8"/><line x2="729.601" transform="translate(98.548 498.189)" fill="none" stroke="#d5d5d5" stroke-width="8"/><line x2="729.601" transform="translate(98.548 586.097)" fill="none" stroke="#d5d5d5" stroke-width="8"/><line x2="392.098" transform="translate(341.242 123.398)" fill="none" stroke="#888" stroke-width="20"/><line x2="278.274" transform="translate(341.242 199.13)" fill="none" stroke="#888" stroke-width="20"/><g transform="translate(141 147.144)"><line transform="translate(0 -0.144)" stroke="#449fdb" stroke-width="1"/><path d="M97.972,43.86a2.34,2.34,0,0,0-2.046-1.2H57.58V4.37c0-1.055-.236-1.975-1.257-2.26a2.041,2.041,0,0,0-2.394,1.07l-37.586,64a4.405,4.405,0,0,0,.045,3.288c.412.726,1.246,2.106,2.087,2.106H53.839v35.539a2.352,2.352,0,0,0,1.687,2.248,2.17,2.17,0,0,0,.651.09,2.337,2.337,0,0,0,1.979-1.092L97.9,46.235a2.339,2.339,0,0,0,.067-2.376Z" transform="translate(-1.039 -0.132)" fill="#fff"/></g></g></svg>