<svg xmlns="http://www.w3.org/2000/svg" xmlns:xlink="http://www.w3.org/1999/xlink" width="1000" height="700" viewBox="0 0 1000 700"><defs><clipPath id="b"><rect width="1000" height="700"/></clipPath></defs><g id="a" clip-path="url(#b)"><rect width="1000" height="700" fill="#fcfcff"/><rect width="189" height="171" transform="translate(405 100)" fill="#d5d5d5"/><line x2="709.733" transform="translate(145.5 477.348)" fill="none" stroke="#d5d5d5" stroke-width="8"/><line x2="751.22" transform="translate(124.5 518.232)" fill="none" stroke="#d5d5d5" stroke-width="8"/><line x2="751.22" transform="translate(124.5 559.116)" fill="none" stroke="#d5d5d5" stroke-width="8"/><line x2="682.889" transform="translate(158.5 600)" fill="none" stroke="#d5d5d5" stroke-width="8"/><line x2="313.388" transform="translate(343.5 349.647)" fill="none" stroke="#888" stroke-width="20"/><line x2="222.413" transform="translate(388.5 399.787)" fill="none" stroke="#888" stroke-width="20"/><g transform="translate(442 132.249)"><line transform="translate(0 -0.249)" stroke="#449fdb" stroke-width="1"/><path d="M95.666,42.683a2.274,2.274,0,0,0-1.989-1.171H56.411V4.3c0-1.025-.229-1.92-1.222-2.2a1.984,1.984,0,0,0-2.327,1.04l-36.528,62.2a4.281,4.281,0,0,0,.044,3.2c.4.705,1.211,2.047,2.029,2.047H52.776v34.539a2.286,2.286,0,0,0,1.64,2.185,2.109,2.109,0,0,0,.633.087,2.271,2.271,0,0,0,1.923-1.062L95.6,44.991a2.273,2.273,0,0,0,.065-2.309Z" transform="translate(-1.461 -0.185)" fill="#fff"/></g></g></svg>