<svg xmlns="http://www.w3.org/2000/svg" xmlns:xlink="http://www.w3.org/1999/xlink" width="1000" height="700" viewBox="0 0 1000 700">
  <defs>
    <clipPath>
      <rect width="1000" height="700"/>
    </clipPath>
  </defs>
  <g clip-path="url(#clip-Heading_Highlight_-_Style_3)">
    <rect width="1000" height="700" fill="#fcfcff"/>
    <text transform="translate(201 394)" fill="#888" font-size="115" font-family="Roboto-Bold, Roboto" font-weight="700"><tspan x="0" y="0">Hello World</tspan></text>
    <path d="M1723.834,523.649a69.359,69.359,0,0,0-13.187,1.633,44.088,44.088,0,0,0-9.055,3.465,33.9,33.9,0,0,0-7.086,4.875,6.3,6.3,0,0,0-1.906,4.594,6.492,6.492,0,0,0,.538,2.582,62.944,62.944,0,0,0-9.659,2.988c-3.973,1.551-7.9,3.273-11.707,5.18a87.256,87.256,0,0,0-9.336,5.246,57.864,57.864,0,0,0-9.121,7.855,98.778,98.778,0,0,0-13.824,18.488,156.546,156.546,0,0,0-10.356,21.2c-1.379,3.375-2.593,6.812-3.855,10.234a92.215,92.215,0,0,0-4.551,16.062q-.78,4.46-1.559,8.911c-.246,1.414-.367,2.871-.535,4.3q-.351,2.946-.7,5.89c-.3,2.551-.406,5.117-.574,7.68-.336,5.133-.414,10.293-.266,15.441.082,2.871.133,5.746.305,8.614.176,2.964.4,5.914.672,8.871.281,3.089.777,6.152,1.328,9.2.211,1.156.555,2.3.832,3.445.34,1.4.738,2.785,1.141,4.164,1.421,4.836,3.066,9.66,4.96,14.332,1.125,2.777,2.282,5.539,3.512,8.27s2.586,5.382,3.969,8.05c.434.84.965,1.633,1.461,2.442q1.436,2.332,2.867,4.668c.438.711.961,1.367,1.449,2.043q1.74,2.4,3.477,4.8a110.478,110.478,0,0,0,12.492,14.512,86.081,86.081,0,0,0,8.969,7.442,58.243,58.243,0,0,0,10.34,5.875c14.746,6.773,31.1,9.1,47.125,10.523,2.82.25,5.656.363,8.48.531l9.309.551c2.351.137,4.73.082,7.086.121q4.436.07,8.875.145c.765.011,1.547-.086,2.312-.125q2.988-.171,5.969-.332c2.226-.121,4.48-.149,6.695-.43,9.992-1.273,20.02-2.328,29.656-5.441a99.153,99.153,0,0,0,10.934-4.442,120.171,120.171,0,0,0,10.742-5.648,106.754,106.754,0,0,0,18.961-14.157,94.2,94.2,0,0,0,14.789-18.324,108.642,108.642,0,0,0,15.606-44.718,148.387,148.387,0,0,0,1.1-24.461,195.387,195.387,0,0,0-2.722-25.219,201.588,201.588,0,0,0-5.367-23.231,193.688,193.688,0,0,0-8.606-23.168c-1.242-2.855-2.684-5.621-4.062-8.414q-1.964-3.978-3.93-7.961c-1.254-2.535-2.723-4.98-4.078-7.457-2.02-3.691-4.016-7.406-6.352-10.914-4.4-6.6-10.355-11.941-16.707-16.617-6.426-4.726-13.84-7.953-21.223-10.867-3.574-1.41-7.253-2.547-10.941-3.633q-6.046-1.774-12.18-3.266c-4.507-1.085-9.039-2.042-13.609-2.8q-5.548-.921-11.094-1.836a152.29,152.29,0,0,0-16.047-1.711c-2.106-.122-4.215-.177-6.324-.177q-2.715,0-5.43.114Zm22.821,14.06,15.262,2.522c2.078.344,4.14.824,6.2,1.27q5.256,1.143,10.453,2.535a166.123,166.123,0,0,1,20.161,6.558,82.013,82.013,0,0,1,16.326,9.15,66.135,66.135,0,0,1,10.157,9.942,100.84,100.84,0,0,1,6.86,11.42l2.953,5.395c.519.953,1.09,1.894,1.566,2.867,2.992,6.084,6.138,12.1,8.832,18.317a186.4,186.4,0,0,1,7.735,22.663,205.58,205.58,0,0,1,5.064,25.036,156.5,156.5,0,0,1,.314,38.866,108.9,108.9,0,0,1-6.855,25.595,102.32,102.32,0,0,1-11.86,20.463,88.422,88.422,0,0,1-14.124,14.118,117.755,117.755,0,0,1-23.591,13.644,82.518,82.518,0,0,1-10.511,3.482c-3.78.978-7.613,1.648-11.469,2.249-4.311.571-8.62,1.209-12.96,1.45l-10.4.574c-1.847.1-3.7.012-5.547-.02-5.183-.082-10.351-.128-15.531-.433q-5.385-.323-10.769-.641c-4.622-.272-9.236-.753-13.826-1.342a123.383,123.383,0,0,1-28.785-7.22,63.046,63.046,0,0,1-12.048-6.883,98.242,98.242,0,0,1-15.35-15.821q-2.376-3.281-4.749-6.562c-1.426-1.969-2.617-4.109-3.887-6.18a103.05,103.05,0,0,1-6.283-12.553c-1.755-4.3-3.354-8.657-4.838-13.068-.824-2.437-1.524-4.914-2.184-7.4-.631-2.38-1.127-4.761-1.567-7.18a206.689,206.689,0,0,1-1.335-24.422q.024-3.69.043-7.386c0-.832.109-1.672.164-2.5q.157-2.385.312-4.766c.251-3.842.739-7.655,1.2-11.477a151.368,151.368,0,0,1,3.868-18.2c.992-3.257,2.2-6.441,3.383-9.632,1.077-2.924,2.181-5.822,3.37-8.7A126.658,126.658,0,0,1,1657.3,577.25a71.992,71.992,0,0,1,10.833-11.183,68.792,68.792,0,0,1,7.8-4.629c2.974-1.595,6.022-3.02,9.122-4.35,2.4-.987,4.826-1.91,7.312-2.677a55.524,55.524,0,0,1,8.206-1.784,56.654,56.654,0,0,1,12.64-.052,37.853,37.853,0,0,1,7.059,1.76,31.166,31.166,0,0,1,4.068,2.242q.261.234.508.484a16.757,16.757,0,0,1,.909,1.634c.959,2.441,1.78,4.947,2.676,7.407a6.879,6.879,0,0,0,2.988,3.883,6.495,6.495,0,0,0,8.891-2.332,6.3,6.3,0,0,0,.656-5.008c-1.3-3.582-2.468-7.254-4.074-10.715a17.461,17.461,0,0,0-7.437-7.484,36.522,36.522,0,0,0-10.868-4.07,57.1,57.1,0,0,0-8.993-1.084l.232-.108a39.108,39.108,0,0,1,7.921-2.088,127.473,127.473,0,0,1,28.907.613Z" transform="translate(-1244.024 -306.535)" fill="#888"/>
  </g>
</svg>