<svg xmlns="http://www.w3.org/2000/svg" xmlns:xlink="http://www.w3.org/1999/xlink" width="1000" height="700" viewBox="0 0 1000 700">
  <defs>
    <clipPath>
      <rect width="1000" height="700"/>
    </clipPath>
  </defs>
  <g clip-path="url(#clip-Heading_Highlight_-_Style_6)">
    <rect width="1000" height="700" fill="#fcfcff"/>
    <text transform="translate(200 394)" fill="#888" font-size="115" font-family="Roboto-Bold, Roboto" font-weight="700"><tspan x="0" y="0">Hello World</tspan></text>
    <g transform="translate(129.514 -608.201)">
      <path id="Path_7095" data-name="Path 7095" d="M679.851,858.13c-3.466.354-6.9.921-10.338,1.424-3.02.335-6.049.572-9.065.947-3.343.412-6.669.97-10,1.458-5.7.736-11.4,1.519-17.1,2.288l1.73-.235q-21.3,2.7-42.566,5.629c-13.293,1.817-26.477,4.317-39.661,6.781q-19.879,3.715-39.628,8.094c-6.739,1.492-13.454,3.106-20.176,4.684-5.918,1.39-11.864,2.734-17.75,4.265-13.465,3.493-26.926,6.985-40.317,10.758-12.39,3.489-24.8,6.934-37.152,10.559-12.973,3.808-25.969,7.531-38.953,11.3-12.582,3.656-25.2,7.23-37.719,11.1-6.641,2.051-13.332,3.981-19.926,6.172q-5.988,1.992-11.968,3.977c-2.723.906-5.485,1.738-8.18,2.722q-10.436,3.815-20.867,7.637c-2.34.855-4.617,1.914-6.914,2.875q-6.258,2.619-12.512,5.234c-6.5,2.715-12.75,6-19.074,9.082-5.2,2.539-10.246,5.411-15.379,8.086q-9.814,5.11-19.578,10.3c-5.512,2.938-11.055,5.84-16.5,8.9-5.782,3.254-11.606,6.438-17.309,9.833q-9.686,5.758-19.336,11.566c-10.832,6.516-21.746,12.891-32.574,19.406q-10.318,6.211-20.617,12.457c-6.578,3.985-12.938,8.313-19.25,12.7a6.894,6.894,0,0,0-2.985,3.887,6.508,6.508,0,0,0,4.539,8,6.336,6.336,0,0,0,5.008-.656c3.215-2.234,6.406-4.551,9.707-6.652l9.035-5.747c3.032-1.929,6.149-3.726,9.219-5.589q3.827-2.32,7.672-4.625c11.731-7.059,23.539-13.981,35.273-21.032q7.864-4.728,15.739-9.441c2.879-1.711,5.726-3.492,8.644-5.133q5.426-3.047,10.848-6.09c11.535-6.476,23.254-12.648,34.988-18.758,5.969-3.109,11.91-6.269,17.86-9.417,2.609-1.379,5.312-2.6,7.964-3.9q4.62-2.252,9.239-4.511,9.387-3.924,18.773-7.852c2.078-.867,4.231-1.582,6.348-2.356l13.066-4.781c6.239-2.285,12.59-4.269,18.9-6.367,6.289-2.09,12.629-4,18.965-5.961,25.132-7.762,50.488-14.789,75.73-22.2,12.7-3.727,25.441-7.328,38.184-10.918,6.722-1.895,13.441-3.8,20.195-5.586q10.688-2.83,21.383-5.6c6.558-1.7,13.164-3.226,19.75-4.808,5.855-1.407,11.711-2.832,17.59-4.133,13.3-2.942,26.632-5.8,40.031-8.3,4.363-.816,8.722-1.656,13.09-2.445,4.761-.856,9.515-1.836,14.293-2.574q7.3-1.125,14.6-2.254c4.152-.643,8.33-1.153,12.5-1.714l-.62.085c12.9-1.69,25.807-3.332,38.7-5.089,5.206-.686,10.4-1.438,15.592-2.18,2.822-.333,5.656-.549,8.48-.876s5.638-.8,8.458-1.213q.961-.114,1.925-.216c.574-.075,1.148-.153,1.726-.231a6.524,6.524,0,0,0-1.354-12.788,3.537,3.537,0,0,0-.372.019Z" fill="#888"/>
      <path d="M54.486,841.7a6.577,6.577,0,0,0,6.5,6.5c3.3.09,6.6.234,9.9.4,2.25.11,4.547.09,6.785.344q7.434.846,14.872,1.687,10.365,1.945,20.722,3.911c1.852.348,3.738.621,5.57,1.066l8.735,2.145,22.8,5.59c6.235,1.531,12.43,3.242,18.641,4.863,10.863,2.84,21.711,5.762,32.434,9.09l22.48,6.972c1.477.461,2.934.989,4.4,1.489q6.135,2.1,12.274,4.191l10.262,3.5c1.437.492,2.9.945,4.32,1.477l16.785,6.257c3.93,1.465,7.844,2.926,11.723,4.52l16.681,6.857c10.693,4.54,21.4,9.048,32.077,13.635,12.492,5.371,24.933,10.871,37.484,16.106q15.728,6.561,31.455,13.128c10.55,4.5,21.127,8.959,31.607,13.625l22.469,10c5.278,2.348,10.481,4.868,15.715,7.309q17.613,8.226,35.156,16.609c6.121,2.911,12.184,5.961,18.274,8.946,5.375,2.629,10.664,5.429,15.976,8.183,11.192,5.8,22.188,11.957,33.305,17.891,11.039,5.9,22.066,11.789,32.93,18a166.954,166.954,0,0,1,17.065,10.837c4.632,3.78,9.314,7.432,14.29,10.749,2.953,1.965,7.184.59,8.9-2.332a6.555,6.555,0,0,0,.656-5.012,6.773,6.773,0,0,0-2.988-3.883c-2.231-1.485-4.425-3-6.567-4.6-2.255-1.787-4.458-3.641-6.738-5.391-2.238-1.722-4.535-3.328-6.922-4.836-5.562-3.515-11.242-6.816-16.953-10.082-5.289-3.027-10.676-5.887-16.047-8.765q-8.994-4.811-17.992-9.61c-5.715-3.047-11.379-6.191-17.063-9.3-5.535-3.027-11.172-5.859-16.769-8.761-5.16-2.676-10.371-5.227-15.594-7.782-5.027-2.461-10.051-4.933-15.109-7.339q-19.395-9.211-38.852-18.3c-11.137-5.2-22.4-10.121-33.625-15.117-5.078-2.258-10.215-4.387-15.32-6.579-5.281-2.269-10.547-4.578-15.852-6.793q-15.63-6.543-31.28-13.056-17.753-7.62-35.493-15.264c-5.762-2.48-11.551-4.906-17.324-7.363-5.84-2.481-11.657-5.024-17.524-7.438q-10.072-4.141-20.144-8.277c-1.887-.777-3.828-1.441-5.743-2.156q-6.4-2.385-12.808-4.774c-12.031-4.484-24.242-8.48-36.395-12.629-5.468-1.871-11.05-3.453-16.57-5.164-5.3-1.644-10.57-3.363-15.91-4.843-6.1-1.692-12.18-3.461-18.3-5.059q-11.284-2.953-22.57-5.9c-5.5-1.438-11.055-2.727-16.582-4.082q-6.34-1.56-12.684-3.11c-1.523-.375-3.043-.8-4.582-1.094q-11.6-2.185-23.187-4.375c-2.235-.421-4.457-.75-6.719-1q-6.3-.715-12.594-1.426c-2.113-.242-4.234-.305-6.359-.407-3.864-.191-7.719-.375-11.582-.48l-.162,0a6.556,6.556,0,0,0-6.338,6.5Z" fill="#888"/>
    </g>
  </g>
</svg>