<svg xmlns="http://www.w3.org/2000/svg" xmlns:xlink="http://www.w3.org/1999/xlink" width="1000" height="700" viewBox="0 0 1000 700">
  <defs>
    <clipPath>
      <rect width="1000" height="700"/>
    </clipPath>
  </defs>
  <g clip-path="url(#clip-Heading_Highlight_-_Style_5)">
    <rect width="1000" height="700" fill="#fcfcff"/>
    <text transform="translate(201 395)" fill="#888" font-size="115" font-family="Roboto-Bold, Roboto" font-weight="700"><tspan x="0" y="0">Hello World</tspan></text>
    <path d="M690.755,669.5c-3.028,1.047-6.051,2.059-9.114,2.988s-6.144,1.75-9.215,2.625c-6.07,1.731-12.035,3.793-18.125,5.446-6.07,1.648-12.125,3.367-18.2,5s-12.168,3.086-18.3,4.449c-13.261,2.941-26.527,5.836-39.781,8.809-12.855,2.878-25.668,5.921-38.476,8.984-14.172,3.394-28.379,6.617-42.539,10.059-12.743,3.1-25.411,6.519-38.11,9.793q-41.337,10.669-82.758,20.992c-6.218,1.55-12.5,2.84-18.761,4.2q-9.113,1.986-18.239,3.828c-13.656,2.769-27.277,5.676-40.9,8.59q-11.566,2.472-23.125,4.957c-6.242,1.34-12.508,2.562-18.769,3.82q-19.108,3.85-38.227,7.645-7.224,1.424-14.453,2.855c-4.492.887-9.02,1.621-13.527,2.43-8,1.438-16.024,2.7-24.044,4.006q-8.34,1.016-16.675,2.025c-5.016.613-10.082.938-15.125,1.18a137.124,137.124,0,0,1-23.083-.675,63.633,63.633,0,0,1-12.471-3.048,18.942,18.942,0,0,1-2.466-1.454,36.5,36.5,0,0,1-3.584-3.6c-.841-1.15-1.628-2.324-2.373-3.552a46.527,46.527,0,0,1-2.185-4.2,190.62,190.62,0,0,1-7.389-24.135c-1.043-4.1-1.805-8.27-2.809-12.379-1.316-5.383-2.722-10.735-4.183-16.078a6.5,6.5,0,1,0-12.535,3.453c1.992,7.289,3.843,14.59,5.539,21.953.789,3.426,1.539,6.848,2.406,10.258.793,3.109,1.644,6.207,2.578,9.281,2.027,6.664,4.281,13.352,7.914,19.332a42.382,42.382,0,0,0,2.625,3.715,32.19,32.19,0,0,0,3.875,4.332c1.094.984,2.25,1.879,3.426,2.769A23.722,23.722,0,0,0,95.52,803.1c5.016,1.933,10.387,2.715,15.688,3.418,9.929,1.32,20.093.98,30.054.238,4.7-.351,9.34-.894,14.012-1.461l11.852-1.441c3.476-.422,6.933-1.074,10.39-1.633q20.637-3.357,41.141-7.422,19.166-3.785,38.32-7.648c6.606-1.332,13.231-2.6,19.824-4.012q12.135-2.6,24.274-5.207c12.828-2.75,25.652-5.5,38.512-8.11,6.16-1.246,12.316-2.492,18.46-3.832,6.536-1.421,13.122-2.707,19.614-4.328q40.891-10.212,81.715-20.7c12.8-3.3,25.566-6.785,38.41-9.91,6.844-1.664,13.679-3.355,20.547-4.93Q529.289,723.6,540.227,721c12.781-3.058,25.555-6.137,38.379-9.008,13.512-3.027,27.039-5.984,40.555-8.984,6.246-1.387,12.472-2.8,18.66-4.445,2.894-.77,5.762-1.621,8.648-2.407,3.223-.878,6.45-1.734,9.668-2.617,2.934-.8,5.875-1.586,8.774-2.511,3.051-.977,6.1-1.938,9.172-2.856,5.933-1.766,12-3.187,17.816-5.309q1.155-.422,2.309-.82a6.812,6.812,0,0,0,3.886-2.988,6.5,6.5,0,0,0-2.332-8.895,6.865,6.865,0,0,0-3.366-.916,5.039,5.039,0,0,0-1.641.26Z" transform="translate(120.018 -388.242)" fill="#888"/>
  </g>
</svg>