<svg xmlns="http://www.w3.org/2000/svg" xmlns:xlink="http://www.w3.org/1999/xlink" width="1000" height="700" viewBox="0 0 1000 700">
  <defs>
    <clipPath>
      <rect width="1000" height="700"/>
    </clipPath>
  </defs>
  <g clip-path="url(#clip-Heading_Highlight_-_Style_9)">
    <rect width="1000" height="700" fill="#fcfcff"/>
    <text transform="translate(201 360)" fill="#888" font-size="115" font-family="Roboto-Bold, Roboto" font-weight="700"><tspan x="0" y="0">Hello World</tspan></text>
    <g transform="translate(122.854 305.883)">
      <path d="M155.427,85.169q-20.238.1-40.457.863c-4.285.16-8.566.508-12.848.762-4,.238-8,.707-12,1.062-9.113.813-18.172,2.125-27.2,3.539a6.222,6.222,0,0,0-3.887,2.989,6.493,6.493,0,0,0,2.333,8.89l1.554.657a6.567,6.567,0,0,0,3.453,0c4.46-.7,8.925-1.331,13.392-1.969Q90.3,100.833,100.849,99.9c3.308-.3,6.637-.422,9.953-.617,3.02-.18,6.027-.316,9.051-.426,13.691-.492,27.39-.648,41.094-.718,7.433-.036,14.867-.008,22.3.031,6.047.031,12.1.324,18.145.492,14.515.395,29.027.594,43.551.727,6.187.058,12.39.05,18.578.234,6.625.195,13.25.414,19.875.574,14.382.344,28.765.606,43.14,1.1q21.064.714,42.114,1.613c12.679.559,25.371.707,38.054,1.16,14.61.528,29.223.965,43.824,1.707,7.145.364,14.282.813,21.418,1.25,5.95.364,11.9.629,17.852.965,13.762.774,27.512,1.445,41.289,1.793q11.191.282,22.371.758,9.44.4,18.883.613c13.816.317,27.633.434,41.449.531q10.9.071,21.77.59c6.414.3,12.8.758,19.207,1.219,5.547.4,11.094.785,16.652.984,6.2.223,12.4.286,18.6.313a6.5,6.5,0,0,0,0-13c-6.961-.031-13.918-.106-20.871-.41-6.61-.285-13.211-.793-19.8-1.3-6.774-.52-13.559-.8-20.348-1.113-6.328-.293-12.668-.262-19-.309q-21.369-.157-42.726-.617c-6.836-.152-13.672-.5-20.5-.785-6.391-.274-12.781-.391-19.172-.574-28.238-.813-56.422-2.852-84.629-4.293-6.727-.34-13.461-.508-20.191-.743-6.325-.218-12.645-.507-18.973-.679-13.672-.371-27.344-.715-41.008-1.313-14.469-.637-28.945-1.109-43.418-1.605-12.863-.442-25.742-.535-38.609-.918-6.649-.2-13.3-.461-19.946-.547q-10.857-.135-21.714-.25-20.619-.187-41.219-.77c-7.121-.2-14.227-.39-21.348-.429q-3.254-.018-6.507-.017-7.3,0-14.61.052Z" fill="#888"/>
      <path d="M215.089,129.745c-10.879.145-21.761.4-32.625.887-5.972.27-11.945.527-17.918.816-6.093.3-12.2.477-18.285.907-7.476.531-14.957,1.019-22.422,1.675-4.215.372-8.406.938-12.59,1.575a40.085,40.085,0,0,0-5.7,1.269c-1.941.594-4.074,1.2-5.543,2.7a7.139,7.139,0,0,0-2.09,3.3c-.039.161-.074.321-.113.481a6.562,6.562,0,0,0,0,3.457,7.9,7.9,0,0,0,4,5.121c2.262,1.406,4.988,2.043,7.527,2.773a6.562,6.562,0,0,0,8-4.543,6.332,6.332,0,0,0,.185-2.434l.558-.08c8.828-1.11,17.764-1.545,26.635-2.173,5.973-.426,11.961-.637,17.942-.926,11.312-.551,22.621-1.062,33.941-1.383,23.528-.664,47.074-.855,70.606-.386q19.928.4,39.859.847c10.68.239,21.359.676,32.031,1.11,12.418.5,24.832,1.011,37.25,1.425q18.657.616,37.317,1.278c5.968.211,11.949.265,17.922.394q7.827.171,15.652.313c11.75.219,23.488.566,35.234.906q18.962.55,37.907,1.274,17.226.661,34.464.847c23.942.274,47.883.266,71.825.285,1.386,0,2.773,0,4.164-.007,5.316-.024,10.636-.047,15.941.359a6.3,6.3,0,0,0,4.594-1.9,6.494,6.494,0,0,0,0-9.192,6.85,6.85,0,0,0-4.594-1.906c-5.141-.4-10.289-.375-15.437-.356-1.168,0-2.332.008-3.5,0q-8.368,0-16.735-.011c-11.582-.016-23.164-.028-34.746-.1-12.719-.074-25.43-.2-38.144-.473-11.836-.254-23.672-.773-35.5-1.23-12.125-.469-24.262-.715-36.391-1.078-10.8-.321-21.609-.45-32.41-.684-6.586-.141-13.176-.2-19.758-.426q-10.19-.363-20.383-.711c-10.4-.363-20.808-.632-31.207-1.058q-19.27-.786-38.543-1.508c-12.664-.461-25.328-.738-38-1.02-10.332-.23-20.668-.543-31-.57q-11.2-.029-22.387-.055h-.844c-5.563,0-11.128.142-16.687.216Z" fill="#888"/>
    </g>
  </g>
</svg>