<svg xmlns="http://www.w3.org/2000/svg" xmlns:xlink="http://www.w3.org/1999/xlink" width="1000" height="700" viewBox="0 0 1000 700">
  <defs>
    <clipPath>
      <rect width="1000" height="700"/>
    </clipPath>
  </defs>
  <g clip-path="url(#clip-Heading_Highlight_-_Style_1)">
    <rect width="1000" height="700" fill="#fcfcff"/>
    <text transform="translate(198 346)" fill="#888" font-size="115" font-family="Roboto-Bold, Roboto" font-weight="700"><tspan x="0" y="0">Hello World</tspan></text>
    <path d="M213.986,391.06a43.107,43.107,0,0,0-5.59,1.109,29.413,29.413,0,0,0-5.66,2.321,22.286,22.286,0,0,0-3.02,1.992c-1.648,1.207-3.238,2.492-4.789,3.82a44.589,44.589,0,0,0-5.988,6.672c-2.039,2.609-4,5.266-5.852,8.012-2.332,3.459-4.5,7.028-6.865,10.459a42.1,42.1,0,0,1-5.026,5.222,43.023,43.023,0,0,1-6.628,3.738A48.134,48.134,0,0,1,155.574,437a41.182,41.182,0,0,1-4.249.241,35.821,35.821,0,0,1-3.854-.238,45.719,45.719,0,0,1-6.623-1.836,24.931,24.931,0,0,1-3.535-1.991,25.45,25.45,0,0,1-2.187-2.22A56.242,56.242,0,0,1,129.7,421c-2.309-5.705-4.424-11.609-7.719-16.82a30.819,30.819,0,0,0-3.028-3.93,21.164,21.164,0,0,0-3.957-3.242,21.7,21.7,0,0,0-4.566-2.16,11.7,11.7,0,0,0-2.035-.492,21.885,21.885,0,0,0-3.91-.379,22.6,22.6,0,0,0-5.567.836,22.846,22.846,0,0,0-5.031,2.1,35.585,35.585,0,0,0-5.816,4.343c-2.536,2.11-4.45,4.992-6.3,7.692-1.7,2.472-3.133,5.136-4.61,7.746-2.945,5.2-5.636,10.535-8.425,15.816q-2.321,4.395-4.641,8.785a6.683,6.683,0,0,0-.656,5.012,6.5,6.5,0,0,0,11.879,1.551c3.484-6.586,6.937-13.192,10.422-19.777a119.511,119.511,0,0,1,8.909-14.9,28.132,28.132,0,0,1,2.1-2.243c.606-.569,1.244-1.1,1.892-1.62a21.048,21.048,0,0,1,2.586-1.576,19.341,19.341,0,0,1,2.588-.71,14.985,14.985,0,0,1,1.747-.008c.46.1.909.219,1.356.363a18.109,18.109,0,0,1,1.824,1.073,18.234,18.234,0,0,1,1.5,1.545,51.965,51.965,0,0,1,4.4,8.3c.944,2.291,1.874,4.586,2.812,6.875a68.028,68.028,0,0,0,4.254,8.953,32.243,32.243,0,0,0,6.891,8.649c3.879,3.215,8.519,5.019,13.328,6.332a42.381,42.381,0,0,0,5.645.922,35.561,35.561,0,0,0,4.648.215,38.461,38.461,0,0,0,4.125-.325,46.8,46.8,0,0,0,5.7-.992,51.87,51.87,0,0,0,9.594-3.523,36.751,36.751,0,0,0,8.32-5.18,41.461,41.461,0,0,0,5.195-5.246,70.057,70.057,0,0,0,5.036-7.117c2.66-4.13,5.353-8.2,8.291-12.144,1.018-1.3,2.049-2.579,3.15-3.809a38.188,38.188,0,0,1,4.227-3.882,29.025,29.025,0,0,1,4.33-2.742,34.747,34.747,0,0,1,5.108-1.377,27.7,27.7,0,0,1,4.7-.128,18.807,18.807,0,0,1,2.193.62,17.5,17.5,0,0,1,1.988,1.153,27.605,27.605,0,0,1,2.965,3.056,28.513,28.513,0,0,1,2.129,3.507q.9,1.839,1.743,3.694c2.268,5.634,4.247,11.379,6.851,16.88a44.167,44.167,0,0,0,4.281,7.191,36.767,36.767,0,0,0,3.293,3.844c.453.465.918.918,1.4,1.356.715.64,1.512,1.191,2.277,1.769a14.468,14.468,0,0,0,3.547,1.7,35.725,35.725,0,0,0,20.809,1.192,27.28,27.28,0,0,0,3.664-1.145,41.7,41.7,0,0,0,5.336-2.41,39.332,39.332,0,0,0,8.742-6.957,101.272,101.272,0,0,0,8.535-10.84c2.484-3.4,4.836-6.9,7.339-10.3.753-.971,1.52-1.935,2.341-2.846a32.118,32.118,0,0,1,3.469-3.314,34.751,34.751,0,0,1,4.891-2.981,33.112,33.112,0,0,1,4.746-1.355,18.822,18.822,0,0,1,2.514-.043,14.757,14.757,0,0,1,1.728.483,30.827,30.827,0,0,1,3.41,2.046,48.212,48.212,0,0,1,6.446,6.6c1.629,2.247,3.193,4.519,4.6,6.913,1.453,2.469,2.957,4.887,4.543,7.27,1.793,2.691,3.753,5.265,5.781,7.785a33.449,33.449,0,0,0,7.043,6.344,32.686,32.686,0,0,0,4.133,2.527,26.542,26.542,0,0,0,7.671,2.383,42.986,42.986,0,0,0,5.524.683,40.339,40.339,0,0,0,5.191-.168,38.871,38.871,0,0,0,18.086-6.722,47.012,47.012,0,0,0,7.551-6.8c2.424-2.591,4.6-5.367,6.756-8.176q.792-1.023,1.583-2.049c2.093-2.652,4.137-5.338,6.166-8.039a32.012,32.012,0,0,1,3.748-4.149,14.861,14.861,0,0,1,1.471-.842,35.329,35.329,0,0,1,5.474-1.382c.914-.076,1.825-.131,2.747-.168a19.148,19.148,0,0,1,2.531.111,30.415,30.415,0,0,1,4.3,1.118c.375.173.747.354,1.115.548a10.17,10.17,0,0,1,1.176.751,27.428,27.428,0,0,1,2.768,2.843c.452.612.9,1.23,1.329,1.86a28.719,28.719,0,0,1,1.817,3.265c1.179,2.321,2.265,4.688,3.437,7.012a69.2,69.2,0,0,0,9.324,14.262,17.789,17.789,0,0,0,5.918,4.582,19.555,19.555,0,0,0,4.977,1.582,26.313,26.313,0,0,0,4.148.468,58.727,58.727,0,0,0,9.637-.839,44.3,44.3,0,0,0,8.148-2.125,75.263,75.263,0,0,0,9.407-4.02,46.53,46.53,0,0,0,8.527-6.016,52.013,52.013,0,0,0,6.32-6.925c4.091-4.977,8.11-10.1,12.949-14.384a35.388,35.388,0,0,1,4.774-2.5,45.678,45.678,0,0,1,4.555-1.542c1.514-.4,3.016-.706,4.546-.952a28.557,28.557,0,0,1,4.082-.088,20.208,20.208,0,0,1,2.184.584,14.063,14.063,0,0,1,1.239.72,22.1,22.1,0,0,1,2.1,2.237,23.145,23.145,0,0,1,1.483,2.49c1.813,4.72,2.793,9.718,4.24,14.56,1.121,3.769,2.386,7.656,4.765,10.836a22.749,22.749,0,0,0,8.578,7.23,43.744,43.744,0,0,0,5.829,2.309,30.619,30.619,0,0,0,6.929,1.113,21.22,21.22,0,0,0,9.946-2.2,21.575,21.575,0,0,0,3.171-1.711A26.4,26.4,0,0,0,605.068,446c4.2-4.335,7.086-9.66,9.929-14.925,1.371-2.535,2.883-4.977,4.356-7.453,1.175-1.966,2.435-3.865,3.778-5.715a46.637,46.637,0,0,1,6.226-6.046,41.88,41.88,0,0,1,6.331-3.959,26.326,26.326,0,0,1,4.476-1.157c2.578-.251,5.17-.294,7.759-.33a6.5,6.5,0,0,0,0-13c-2.676.035-5.359.058-8.019.351a39.627,39.627,0,0,0-5.325.867,28.844,28.844,0,0,0-5,1.825,36.745,36.745,0,0,0-6.722,4.125,53.915,53.915,0,0,0-7.149,6.121,56.138,56.138,0,0,0-5.383,6.867c-1.57,2.316-3.039,4.75-4.441,7.172-2.724,4.71-5.1,9.587-8.232,14.047a25.986,25.986,0,0,1-2.894,3,28.245,28.245,0,0,1-3.041,1.73,18.524,18.524,0,0,1-2.161.621,19.69,19.69,0,0,1-2.615-.023,29.63,29.63,0,0,1-4.608-1.271,28.217,28.217,0,0,1-3.41-1.89,20.1,20.1,0,0,1-1.722-1.72,21.746,21.746,0,0,1-1.617-2.927c-1.826-5.15-2.926-10.514-4.54-15.729-.367-1.188-.773-2.368-1.254-3.512a32.734,32.734,0,0,0-1.734-3.738,26.282,26.282,0,0,0-2.172-3.028,23.56,23.56,0,0,0-4.711-4.633,17.757,17.757,0,0,0-4.437-2.3,26.275,26.275,0,0,0-6.141-1.278,29.755,29.755,0,0,0-7.25.5,37.512,37.512,0,0,0-4.508.907,61.321,61.321,0,0,0-9.551,3.617c-4.015,1.8-7.293,4.883-10.238,8.094-2.031,2.218-4.012,4.488-5.91,6.824-3.161,3.887-6.242,7.938-10.123,11.134a46.3,46.3,0,0,1-8.324,4.791,58.117,58.117,0,0,1-5.791,2.032,56.452,56.452,0,0,1-5.984,1.255,36.464,36.464,0,0,1-6.533.166,16.958,16.958,0,0,1-2.15-.543c-.313-.164-.619-.338-.92-.525a27.579,27.579,0,0,1-2.185-2.307,83.824,83.824,0,0,1-7.553-12.628c-1.086-2.2-2.105-4.418-3.261-6.578a41.44,41.44,0,0,0-5.075-7.188,27,27,0,0,0-4.824-4.2,24.157,24.157,0,0,0-6.133-2.894A31.216,31.216,0,0,0,434.7,399.1a29.567,29.567,0,0,0-5.445.5c-1.555.254-3.07.578-4.594.981a22.032,22.032,0,0,0-6.371,2.769,24.756,24.756,0,0,0-5.215,4.817c-2.06,2.441-3.9,5.072-5.832,7.617q-1.748,2.234-3.484,4.476l1.019-1.312q-1.209,1.559-2.412,3.122a78.457,78.457,0,0,1-9.543,10.257,38.062,38.062,0,0,1-5.925,3.438,39.588,39.588,0,0,1-6.383,1.712c-.953.081-1.9.135-2.862.166a23.72,23.72,0,0,1-3.158-.173,32.044,32.044,0,0,1-5.307-1.236,31.648,31.648,0,0,1-4.6-2.88,34.668,34.668,0,0,1-2.638-2.465c-.624-.658-1.189-1.379-1.749-2.1-1.556-2.08-3.057-4.2-4.462-6.381-1.566-2.43-2.957-4.961-4.5-7.4a70.622,70.622,0,0,0-5.906-8.132,41.543,41.543,0,0,0-5.738-5.829,46.447,46.447,0,0,0-4.418-3.214,27.34,27.34,0,0,0-4.066-1.993,18.568,18.568,0,0,0-5.329-1.222,26.231,26.231,0,0,0-11.144,1.668,30.314,30.314,0,0,0-8.3,4.414,52.639,52.639,0,0,0-4.457,3.656,33.278,33.278,0,0,0-2.559,2.789c-2.824,3.391-5.382,6.988-7.878,10.621-2.118,3.08-4.361,6.083-6.618,9.065a52.649,52.649,0,0,1-6.478,6.631,31.617,31.617,0,0,1-4.429,2.5,38.2,38.2,0,0,1-5.88,1.667,35.266,35.266,0,0,1-5.574.048,35.443,35.443,0,0,1-5.684-1.418c-.315-.161-.619-.334-.918-.524a33.3,33.3,0,0,1-3.019-3.141,54.571,54.571,0,0,1-5.143-9.559c-2.2-5.454-4.07-11.053-6.656-16.34a36.244,36.244,0,0,0-5.832-8.555A26.788,26.788,0,0,0,230.271,394a23.412,23.412,0,0,0-4.637-2.152,21.506,21.506,0,0,0-6.207-1.125c-.354-.024-.708-.035-1.062-.035a34.55,34.55,0,0,0-4.379.371Zm92.932,27.255-.143.185.143-.185Zm106.49,10.547c-.179.233-.36.466-.54.7l.54-.7Z" transform="translate(146.793 21.311)" fill="#888"/>
  </g>
</svg>