<svg xmlns="http://www.w3.org/2000/svg" xmlns:xlink="http://www.w3.org/1999/xlink" width="1000" height="700" viewBox="0 0 1000 700">
  <defs>
    <clipPath>
      <rect width="1000" height="700"/>
    </clipPath>
  </defs>
  <g clip-path="url(#clip-Heading_Highlight_-_Style_10)">
    <rect width="1000" height="700" fill="#fcfcff"/>
    <text transform="translate(172 395)" fill="#888" font-size="115" font-family="Roboto-Bold, Roboto" font-weight="700"><tspan x="0" y="0">Hello World</tspan></text>
    <g transform="translate(-948.559 165.412)">
      <path d="M1759.957,101.621c-.046,1.384-.062,2.77-.086,4.154-.019,1.159.07,2.32.113,3.477.08,2.1.312,4.209.5,6.3.184,2.113.519,4.221.79,6.324.291,2.277.637,4.547.961,6.819.275,2.241.543,4.48.843,6.718a184.961,184.961,0,0,1,1.1,19.693c.053,3.357.077,6.715.1,10.075.019,3.132-.041,6.273.123,9.4.278,5.32.57,10.637.666,15.964.047,2.664-.038,5.318-.181,7.978-.129,2.443-.483,4.884-.774,7.314-.2,1.262-.422,2.52-.617,3.782-.289,1.869-.507,3.747-.734,5.624a3.847,3.847,0,0,0,1.178,2.842,4.021,4.021,0,0,0,5.682,0c.209-.273.417-.543.627-.814a4,4,0,0,0,.548-2.029c.1-.828.2-1.659.3-2.488.209-1.408.45-2.81.684-4.213.309-1.856.483-3.736.7-5.6a85.057,85.057,0,0,0,.635-9.309c.021-3.388-.1-6.775-.229-10.161-.123-3.156-.36-6.3-.473-9.461-.121-3.32-.084-6.643-.106-9.963q-.036-5.147-.113-10.292c-.051-3.154-.138-6.312-.314-9.464-.2-3.638-.533-7.241-1.027-10.851-.259-2.055-.475-4.116-.762-6.166-.238-1.7-.493-3.39-.736-5.086-.406-3.119-.83-6.236-1.066-9.371-.137-1.826-.26-3.642-.328-5.47-.07-1.91-.019-3.82.043-5.73a4.018,4.018,0,0,0-8.037,0Z" transform="translate(-5.519)" fill="#888"/>
      <path d="M1751.025,321.66a13.962,13.962,0,0,0-3.6,6.138,41.583,41.583,0,0,0-1.55,6.81c-.169,1.048-.276,2.1-.386,3.154a19.049,19.049,0,0,0,.618,6.553,19.657,19.657,0,0,0,1.188,3.132,13.142,13.142,0,0,0,2.221,3.19,9.658,9.658,0,0,0,1.48,1.231,12.051,12.051,0,0,0,1.33.86,20.655,20.655,0,0,0,4.018,1.7,27.033,27.033,0,0,0,5.12.852c.6.066,1.195.109,1.8.13a20.2,20.2,0,0,0,3.873-.35,12.609,12.609,0,0,0,6.5-3.12,10.351,10.351,0,0,0,1.27-1.56c.275-.391.529-.785.78-1.193a13.176,13.176,0,0,0,1.558-4,18.46,18.46,0,0,0-.336-8.056,24.2,24.2,0,0,0-2.837-6.976,49.9,49.9,0,0,0-4.909-6.771,3.9,3.9,0,0,0-2.84-1.176,4.032,4.032,0,0,0-1.424.262,16.13,16.13,0,0,0-1.6-1.261,11.557,11.557,0,0,0-1.207-.782,11.222,11.222,0,0,0-1.859-.836,8.153,8.153,0,0,0-2.514-.541l-.173,0a9.943,9.943,0,0,0-6.523,2.612ZM1757,327.1l-.207.028c.069-.012.138-.021.207-.028Zm.375.011c.112.031.223.064.335.1a12.247,12.247,0,0,1,1.353.821c.254.235.49.477.716.731a15.72,15.72,0,0,1,1.084,2.18l-.013-.031c.051.122.1.244.153.367a4.018,4.018,0,0,0,4.54,1.845,3.955,3.955,0,0,0,.731-.282q.111.166.221.333a27.256,27.256,0,0,1,1.842,3.341,25.477,25.477,0,0,1,1.131,4.35,16.563,16.563,0,0,1,.019,2.188,11.578,11.578,0,0,1-.4,1.447,14.808,14.808,0,0,1-.857,1.46c-.12.134-.245.262-.373.389q-.376.234-.769.438a15,15,0,0,1-2.047.52,22.557,22.557,0,0,1-4.22-.129,18.729,18.729,0,0,1-3.347-.843,15.337,15.337,0,0,1-1.905-1.043c-.171-.158-.333-.32-.492-.491a12.091,12.091,0,0,1-.841-1.447,17.594,17.594,0,0,1-.689-2.627,22.3,22.3,0,0,1,.109-4.133,42.294,42.294,0,0,1,1.818-7.483,10.564,10.564,0,0,1,.648-1.188c.118-.125.239-.247.364-.367.2-.127.4-.245.6-.356q.145-.048.292-.091Z" transform="translate(0 -84.55)" fill="#888"/>
    </g>
  </g>
</svg>