<svg xmlns="http://www.w3.org/2000/svg" xmlns:xlink="http://www.w3.org/1999/xlink" width="1000" height="700" viewBox="0 0 1000 700">
  <defs>
    <clipPath>
      <rect width="1000" height="700"/>
    </clipPath>
  </defs>
  <g clip-path="url(#clip-Heading_Highlight_-_Style_7)">
    <rect width="1000" height="700" fill="#fcfcff"/>
    <text transform="translate(200 395)" fill="#888" font-size="115" font-family="Roboto-Bold, Roboto" font-weight="700"><tspan x="0" y="0">Hello World</tspan></text>
    <path d="M859.117,282.97a6.579,6.579,0,0,0,6.5,6.5c5.414.148,10.828.352,16.242.547,4.133.148,8.266.558,12.391.848,7.553.531,15.07,1.5,22.6,2.354q10.239,1.7,20.47,3.4c2.575.426,5.125,1.106,7.672,1.657l14.129,3.066c5.645,1.223,11.262,2.57,16.883,3.891,6.172,1.445,12.363,2.816,18.512,4.355q12.621,3.165,25.25,6.324,4.453,1.114,8.914,2.231c1.719.433,3.414.992,5.113,1.488q13.43,3.926,26.859,7.856c4.84,1.418,9.618,3,14.411,4.57q11.045,3.627,22.093,7.258c2.407.789,4.77,1.754,7.149,2.629q7.031,2.583,14.062,5.172,7.711,2.835,15.344,5.828c6.7,2.629,13.391,5.308,20.113,7.882l26.11,10c4.109,1.574,8.168,3.293,12.246,4.937q6.219,2.512,12.443,5.019,10.086,4.3,20.17,8.606c5.527,2.359,10.977,4.887,16.445,7.383,5.61,2.558,11.227,5.074,16.754,7.808q6.51,3.217,13.02,6.438c1.871.926,3.754,1.828,5.594,2.816q6.022,3.241,12.043,6.477c2.175,1.168,4.378,2.3,6.519,3.531,5.949,3.43,11.918,6.821,17.836,10.293,12.328,7.242,24.66,14.457,37.125,21.453q9.621,5.409,19.289,10.731c5.7,3.152,11.277,6.531,16.9,9.836,3.207,1.89,6.308,3.992,9.453,5.984,2.578,1.633,5.121,3.316,7.668,5q8.583,5.672,16.863,11.762,5.27,3.879,10.462,7.851c4.772,3.8,9.428,7.733,14.116,11.641q7.476,6.228,14.973,12.445,7.042,5.843,14.23,11.492c4.914,3.868,9.328,8.313,14.43,11.942a6.3,6.3,0,0,0,5.012.656,6.508,6.508,0,0,0,4.539-8,6.923,6.923,0,0,0-2.989-3.883c-.387-.278-.772-.559-1.157-.839-2.1-1.718-4.093-3.552-6.132-5.34-2.257-1.981-4.632-3.825-6.988-5.688-5.086-4.031-10.09-8.16-15.086-12.3-10.6-8.789-20.992-17.843-32.012-26.113q-4.587-3.445-9.218-6.844c-2.825-2.082-5.719-4.058-8.59-6.07-5.215-3.652-10.606-7.066-15.985-10.473-2.621-1.66-5.21-3.383-7.886-4.957q-5.742-3.381-11.489-6.761c-5.328-3.141-10.828-5.993-16.218-9.02-11.758-6.605-23.485-13.246-35.114-20.078q-9.182-5.391-18.39-10.719-4.905-2.824-9.813-5.652c-2.761-1.59-5.629-3.024-8.433-4.535l-10.418-5.6c-2.3-1.234-4.68-2.32-7.012-3.473-5.805-2.871-11.57-5.851-17.461-8.539q-11.044-5.033-22.086-10.074c-2.168-.984-4.383-1.871-6.57-2.808q-6.78-2.889-13.555-5.782c-5.812-2.48-11.656-4.859-17.515-7.222-5.8-2.34-11.59-4.731-17.434-6.969q-21.439-8.209-42.816-16.57c-12.278-4.813-24.692-9.274-37.067-13.832-2.387-.883-4.851-1.594-7.269-2.391L1079.07,319.7c-4.843-1.589-9.672-3.2-14.562-4.636q-13.418-3.927-26.832-7.848c-1.813-.531-3.617-1.129-5.453-1.59l-8.473-2.121q-12.785-3.205-25.57-6.4c-6.02-1.508-12.082-2.856-18.125-4.27-5.676-1.332-11.344-2.7-17.039-3.937q-7.008-1.518-14.012-3.039-2.883-.621-5.766-1.25c-.793-.172-1.593-.383-2.394-.516q-10.635-1.77-21.262-3.531c-1.328-.219-2.68-.34-4.02-.489q-3.573-.4-7.152-.8-3.445-.381-6.887-.766c-1.058-.121-2.125-.281-3.187-.355q-7.793-.557-15.586-1.1c-2.191-.152-4.4-.164-6.59-.246q-5.272-.187-10.543-.34c-.056,0-.112,0-.167,0a6.555,6.555,0,0,0-6.333,6.5Z" transform="translate(-679.117 -65.468)" fill="#888"/>
  </g>
</svg>