<svg xmlns="http://www.w3.org/2000/svg" xmlns:xlink="http://www.w3.org/1999/xlink" width="1000" height="700" viewBox="0 0 1000 700">
  <defs>
    <clipPath>
      <rect width="1000" height="700"/>
    </clipPath>
  </defs>
  <g clip-path="url(#clip-Heading_Highlight_-_Style_2)">
    <rect width="1000" height="700" fill="#fcfcff"/>
    <text transform="translate(201 395)" fill="#888" font-size="115" font-family="Roboto-Bold, Roboto" font-weight="700"><tspan x="0" y="0">Hello World</tspan></text>
    <path d="M1189.536,853.465c-8.533.208-17.047.383-25.57.852-8.935.487-17.843,1.093-26.768,1.76-15.561,1.164-31.118,2.684-46.589,4.714q-13.935,1.83-27.848,3.776c-3.573.5-7.123,1.117-10.681,1.694-3.446.558-6.886,1.094-10.308,1.78q-6.722,1.341-13.436,2.688c-1.6.316-3.185.762-4.77,1.14q-4.38,1.05-8.761,2.1c-7.354,1.765-14.671,3.692-21.96,5.7-7.922,2.177-15.8,4.491-23.592,7.113a86.276,86.276,0,0,0-12.386,5.263,82.617,82.617,0,0,0-9.11,5.788q-10.174,7.135-20.266,14.383c-6.6,4.747-13.129,9.593-19.437,14.723-2.882,2.348-5.631,4.841-8.334,7.388a83.886,83.886,0,0,0-7.344,8.216,114.211,114.211,0,0,0-7.738,10.355c-2.1,3.262-4.136,6.584-6.016,9.981q-2.868,5.183-5.524,10.469a61.363,61.363,0,0,0-3.965,10.725c-.539,1.892-1.013,3.809-1.363,5.745-.43,2.347-.824,4.737-1.022,7.118-.109,1.264-.213,2.522-.274,3.786a45.528,45.528,0,0,0,.994,9.465,36.561,36.561,0,0,0,2.058,7.194c1.037,2.674,2.206,5.319,3.469,7.89,2,4.06,4.866,7.628,7.644,11.173a76.482,76.482,0,0,0,6.882,7.833,98.4,98.4,0,0,0,14.018,10.989c5.683,3.791,11.818,6.758,17.9,9.816,3.659,1.84,7.435,3.384,11.2,4.993,1.77.757,3.535,1.59,5.333,2.262q3.486,1.3,6.967,2.6c15.234,5.674,30.91,10,46.618,14.155,3.26.861,6.512,1.8,9.805,2.547l15.628,3.536c7.945,1.8,15.991,3.133,24,4.605,3.592.661,7.251,1.013,10.871,1.462l13.133,1.647c1.2.151,2.428.208,3.635.313q4.365.369,8.732.743c3.662.318,7.344.777,11.018.942q13.019.591,26.039,1.2c3.478.161,6.967.161,10.445.236q7.382.164,14.765.331c8.23.19,16.47.176,24.7.261,8.188.081,16.376.076,24.559.114,8.111.037,16.223-.08,24.331-.127,8.164-.052,16.332-.5,24.491-.767,8-.265,16-.839,24-1.278,7.346-.4,14.681-.961,22.026-1.344,16.153-.843,32.305-1.671,48.429-2.873q13.234-.98,26.428-2.206c7.483-.681,14.927-1.642,22.395-2.441,17.3-1.853,34.587-3.847,51.83-6.15l-.413.053c8.817-1.178,17.635-2.352,26.427-3.7,3.569-.544,7.137-1.094,10.7-1.685,3.91-.653,7.843-1.216,11.733-2.011,4.084-.837,8.23-1.524,12.272-2.555,4.1-1.047,8.221-2.06,12.3-3.18q6.255-1.719,12.485-3.522a98.215,98.215,0,0,0,10.369-3.488c2.276-.946,4.563-1.855,6.787-2.915q2.982-1.419,5.934-2.892c3.465-1.736,6.862-3.578,10.233-5.49,6.985-3.97,13.814-8.235,20.54-12.632a244.827,244.827,0,0,0,20.019-15.092,119.3,119.3,0,0,0,15.693-15.962c2.5-2.959,5.027-5.9,7.473-8.9a63.91,63.91,0,0,0,5.509-7.582,28.084,28.084,0,0,0,1.946-4.288c.331-.857.681-1.723.951-2.6q.589-1.91,1.179-3.81a51.256,51.256,0,0,0,1.651-7.028,42.87,42.87,0,0,0-8.339-31.709,114.793,114.793,0,0,0-12.106-13.985,151.122,151.122,0,0,0-27.687-21.58c-10.014-6.186-20.861-10.867-31.7-15.381-21.869-9.1-44.818-15.561-67.965-20.46-5.675-1.2-11.383-2.276-17.09-3.3-5.925-1.065-11.875-2.148-17.842-2.925q-4.005-.525-8-1.041l-33.825-4.4-8.519-1.107c-4.87-.634-9.811-.941-14.71-1.358q-9.534-.823-19.087-1.415a594.126,594.126,0,0,0-72.807-.454q-4.265.255-8.519.629c-4.5-1.069-9.041-1.952-13.589-2.782-4.695-.853-9.45-1.439-14.174-2.14-3.8-.563-7.572-1.041-11.391-1.41-3.947-.384-7.9-.909-11.86-1.122q-7.455-.405-14.908-.8c-3.62-.194-7.26-.166-10.89-.227-2.608-.048-5.222-.139-7.833-.139-.744,0-1.487.007-2.229.025Zm-85.9,21.505q13.538-1.414,27.089-2.612c3.247-.29,6.5-.531,9.75-.777,3.975-.293,7.955-.668,11.941-.886,7.983-.435,15.962-.964,23.961-1.159,5.32-.132,10.663-.435,15.987-.336q5.061.085,10.124.179c2.356.039,4.728,0,7.079.128l8.353.449q-8.225,1.339-16.45,2.679c-15.338,2.5-30.668,5.06-45.955,7.865a44.458,44.458,0,0,0-5.385,1.221,7.988,7.988,0,0,0-5.5,9.688c1.1,4.014,5.594,6.805,9.688,5.5a61.507,61.507,0,0,1,7.624-1.638c1.666-.3,3.322-.624,4.988-.912l12.9-2.229c7.549-1.306,15.117-2.532,22.675-3.791,15.571-2.6,31.14-5.263,46.779-7.406,8.612-1.149,17.231-2.206,25.878-2.993a134.231,134.231,0,0,1,14.407,4.426c4.514,1.69,9.039,3.351,13.506,5.164a7.565,7.565,0,0,0,6.068-.795,7.871,7.871,0,0,0,3.024-10.413q4.513-.02,9.02.019,18.3.151,36.551,1.293c5.878.36,11.752.8,17.62,1.287q4.4.371,8.8.777c2.456.228,4.936.388,7.378.71q24.352,3.166,48.7,6.336c17.425,2.8,34.756,6.057,51.869,10.417a362.653,362.653,0,0,1,49.494,16.34c7.1,3.028,14.134,6.206,20.929,9.889A149.152,149.152,0,0,1,1581.6,935.84a127.646,127.646,0,0,1,20.6,20.322,50.742,50.742,0,0,1,5.057,8.168,44.534,44.534,0,0,1,1.831,7.16,38.218,38.218,0,0,1,.11,6.155,68.015,68.015,0,0,1-3.21,11.236,36.062,36.062,0,0,1-3.343,5.338c-4.375,5.348-8.811,10.69-13.5,15.765a89.35,89.35,0,0,1-8.107,7.965c-2.623,2.194-5.295,4.323-7.976,6.443-3.391,2.576-6.785,5.18-10.349,7.509-4.322,2.83-8.714,5.533-13.1,8.273a248.924,248.924,0,0,1-25.327,13.642c-2.336.967-4.682,1.907-7.1,2.657q-5.459,1.7-10.943,3.271c-2.99.865-6,1.713-9.02,2.479l-6.332,1.619c-1.492.379-2.977.829-4.483,1.136q-6.1,1.256-12.21,2.5c-3.374.692-6.8,1.16-10.2,1.723-6.156,1.022-12.32,2.054-18.5,2.913q-7.742,1.036-15.486,2.077-11.62,1.468-23.239,2.91c-8.836,1.088-17.672,2.054-26.522,2.995-6.942.744-13.866,1.685-20.823,2.319-8.552.786-17.1,1.563-25.666,2.2-16.881,1.254-33.782,2.177-50.682,3.066-7.558.4-15.115.9-22.665,1.378-4.136.266-8.277.45-12.414.676-3.687.2-7.378.479-11.07.6l-13.8.454c-3.493.113-7,.316-10.489.341-8.116.052-16.233.184-24.349.146q-25.01-.127-50.015-.369c-8.443-.09-16.892-.383-25.33-.568-2.853-.066-5.7-.256-8.551-.383q-8.085-.376-16.172-.743c-2.456-.114-4.9-.342-7.344-.554q-8.08-.689-16.157-1.383c-3.034-.26-6.053-.691-9.073-1.07q-5.668-.711-11.338-1.418-6.163-1.13-12.33-2.269c-3.143-.577-6.309-1.073-9.432-1.779-8.051-1.822-16.143-3.5-24.127-5.613q-7.518-1.981-15.036-3.971c-3.7-.974-7.351-2.106-11.023-3.166-3.322-.961-6.621-1.926-9.906-3-3.772-1.236-7.6-2.367-11.316-3.753s-7.447-2.778-11.167-4.164c-3.867-1.621-7.778-3.183-11.516-5.059q-4.495-2.259-8.992-4.52a102.4,102.4,0,0,1-15.047-9.4,75.019,75.019,0,0,1-9.478-8.852c-1.069-1.2-2.049-2.473-3.028-3.744a71.421,71.421,0,0,1-4.237-6.2,48.894,48.894,0,0,1-2.747-5.588,43.765,43.765,0,0,1-2.489-9.09,35.618,35.618,0,0,1-.042-6.52c.067-.809.155-1.613.253-2.416a74.155,74.155,0,0,1,3.617-13.441c2.318-5.09,5.113-9.977,7.92-14.807,1.49-2.565,3.071-5.068,4.68-7.563,1.42-2.2,3.1-4.273,4.695-6.346-.407.53-.819,1.06-1.231,1.59a105.726,105.726,0,0,1,9.831-10.885c3.6-3.328,7.365-6.444,11.188-9.516,7.272-5.533,14.746-10.813,22.173-16.141,3.933-2.816,7.885-5.683,11.917-8.357,2.22-1.467,4.41-2.892,6.724-4.208,1.708-.972,3.471-1.812,5.257-2.622,15.324-5.465,31.083-9.524,46.832-13.563,7.374-1.894,14.8-3.612,22.267-5.107,3.729-.748,7.453-1.6,11.211-2.206q7.426-1.207,14.851-2.409c5.888-.955,11.821-1.657,17.729-2.472,7.1-.939,14.2-1.911,21.321-2.658Zm327.182,214.862c.558-.074,1.121-.149,1.678-.225l-1.678.225Z" transform="translate(-745.452 -630.44)" fill="#888"/>
  </g>
</svg>