<svg xmlns="http://www.w3.org/2000/svg" xmlns:xlink="http://www.w3.org/1999/xlink" width="1000" height="700" viewBox="0 0 1000 700">
  <defs>
    <clipPath>
      <rect width="1000" height="700"/>
    </clipPath>
  </defs>
  <g clip-path="url(#clip-Heading_Highlight_-_Style_8)">
    <rect width="1000" height="700" fill="#fcfcff"/>
    <text transform="translate(200 394)" fill="#888" font-size="115" font-family="Roboto-Bold, Roboto" font-weight="700"><tspan x="0" y="0">Hello World</tspan></text>
    <g transform="translate(-691.855 -375.372)">
      <path d="M1090.132,622.376q-42.673.006-85.344.074c-14.129.031-28.257.18-42.382.363-6.911.094-13.821.375-20.731.582-6.594.2-13.187.727-19.777,1.106-1.371.082-2.742.281-4.11.422l-8.293.855c-3.468.36-6.925.832-10.386,1.274-3.856.5-7.715.953-11.551,1.582-5.316.867-10.633,1.722-15.934,2.679a6.261,6.261,0,0,0-3.882,2.989,6.492,6.492,0,0,0,2.332,8.89,6.908,6.908,0,0,0,5.007.656c6.049-1.092,12.12-2.058,18.188-3.046,6.127-.793,12.247-1.611,18.39-2.247q3.61-.369,7.215-.746c1.051-.109,2.1-.254,3.157-.316l12.461-.715c14.277-.824,28.582-.973,42.882-1.16,13.547-.18,27.1-.164,40.645-.191q19.635-.042,39.269-.043,44.333-.012,88.664-.012c12.625,0,25.254-.059,37.879.039,7.59.059,15.192.016,22.785.18q12.335.269,24.672.531c12.672.273,25.34.5,38,.973,13.617.515,27.235,1.1,40.84,1.918,29.219,1.746,58.441,3.484,87.641,5.542,13.918.985,27.8,2.368,41.7,3.68q20.438,1.928,40.871,3.86c4.711.453,9.426.867,14.133,1.375,2.445.265,4.891.523,7.34.75,2.7.25,5.418.359,8.117.644a6.252,6.252,0,0,0,4.6-1.9,6.5,6.5,0,0,0,0-9.192c-.438-.34-.875-.679-1.317-1.019a6.481,6.481,0,0,0-3.281-.887c-3.461-.367-6.945-.535-10.414-.859-3.293-.3-6.578-.711-9.871-1.035-7.16-.711-14.324-1.36-21.481-2.075-7.039-.7-14.09-1.281-21.132-1.945q-10.453-.99-20.911-1.977c-7.074-.668-14.156-1.273-21.238-1.906-7.273-.652-14.578-1.039-21.867-1.551-13.328-.941-26.68-1.687-40.016-2.515-13.215-.817-26.426-1.668-39.648-2.356-6.82-.355-13.641-.777-20.469-1.035-7.4-.281-14.8-.676-22.207-.84-27.7-.613-55.4-1.4-83.109-1.4q-43.724,0-87.434,0Z" fill="#888"/>
      <path d="M1193.747,787.747l-21.019.222c-5.434.055-10.875.3-16.309.454-13.168.371-26.336.675-39.5,1.222-13.773.571-27.562,1.008-41.328,1.774-13.863.769-27.738,1.394-41.582,2.445-14.152,1.078-28.3,2.145-42.441,3.34q-22.032,1.863-44.039,3.937l-10.77,1.02c-2.184.207-4.367.562-6.543.859L905.572,806.4c-1,.137-1.985.336-2.973.512q-4.857.873-9.707,1.738c-6.359,1.137-12.707,2.285-19.039,3.547a6.331,6.331,0,0,0-3.887,2.985,6.5,6.5,0,0,0,2.332,8.894,6.817,6.817,0,0,0,5.008.656c5.934-1.183,11.871-2.265,17.828-3.328l9.633-1.722c1.332-.239,2.664-.528,4-.711l27.337-3.743c12.437-1.179,24.87-2.431,37.323-3.484,14.012-1.184,28.02-2.4,42.043-3.461q12.281-.937,24.562-1.871c5.915-.449,11.848-.668,17.766-1l22.172-1.23c6.1-.34,12.227-.508,18.336-.762,12.98-.535,25.953-1.086,38.941-1.453,13.285-.371,26.578-.9,39.871-1.039q22.929-.241,45.86-.481c6.222-.055,12.453.117,18.672.176q13.476.129,26.953.254c4.066.035,8.113.269,12.176.472q14.349.715,28.7,1.434l7.265.363c1.832.094,3.664.317,5.493.477l27.781,2.426c4.633.406,9.23.949,13.847,1.5q10.568,1.266,21.131,2.534,20.75,2.993,41.455,6.192c12.789,1.992,25.536,4.4,38.211,7.008,4.16.859,8.3,1.8,12.492,2.484,4.079.669,8.208,1.013,12.315,1.475,1.037.172,2.066.355,3.1.568a6.794,6.794,0,0,0,5.007-.652,6.5,6.5,0,0,0,2.332-8.895,6.348,6.348,0,0,0-3.886-2.988c-5.055-1.045-10.232-1.423-15.358-2.036-6.287-1.048-12.493-2.52-18.748-3.733-6.34-1.231-12.679-2.469-19.047-3.567q-20.419-3.516-40.929-6.445c-6.43-.93-12.856-1.922-19.305-2.7q-12.955-1.554-25.91-3.11c-5.4-.648-10.828-1-16.242-1.476q-11.713-1.026-23.43-2.047c-1.516-.133-3.043-.16-4.562-.235l-12.883-.644q-12.949-.651-25.9-1.3c-4.336-.215-8.683-.152-13.023-.191q-14.5-.135-28.992-.274-3.887-.036-7.773-.034c-10.06,0-20.119.154-30.181.257Z" fill="#888"/>
    </g>
  </g>
</svg>