<svg xmlns="http://www.w3.org/2000/svg" xmlns:xlink="http://www.w3.org/1999/xlink" width="1000" height="700" viewBox="0 0 1000 700">
  <defs>
    <clipPath>
      <rect width="1000" height="700"/>
    </clipPath>
  </defs>
  <g clip-path="url(#clip-Heading_Highlight_-_Style_4)">
    <rect width="1000" height="700" fill="#fcfcff"/>
    <text transform="translate(201 345)" fill="#888" font-size="115" font-family="Roboto-Bold, Roboto" font-weight="700"><tspan x="0" y="0">Hello World</tspan></text>
    <path d="M501.174,579.63q-20.708,0-41.41,0c-27.953.008-55.9.008-83.855.219-13.633.1-27.258.472-40.887.847-6.594.184-13.188.52-19.778.8-6.457.273-12.914.5-19.375.723-2.914.1-5.839.277-8.757.3q-5.7.054-11.387.1-10.359.089-20.715.078-20.022.018-40.051.094c-12.574.055-25.148.094-37.718.344l-22.8.457c-7.6.152-15.192.5-22.785.746-8.91.293-17.825.473-26.739.683-3.2.079-6.386.118-9.586.106H91.205c-4.328,0-8.656,0-12.976-.137a6.5,6.5,0,0,0,0,13c3.957.129,7.91.11,11.867.121,3.285.008,6.578.106,9.863.032q11.667-.282,23.336-.559c11.871-.285,23.735-.844,35.61-1.082,7.324-.148,14.656-.367,21.984-.438l22.812-.222c13.583-.129,27.172-.11,40.754-.133,13.528-.023,27.055-.055,40.586-.168,6.828-.059,13.657-.418,20.485-.656,6.586-.231,13.175-.535,19.761-.813,27-1.148,54.028-1.3,81.047-1.386q12.375-.042,24.753-.052-11.576.285-23.151.5c-3.106.062-6.219.07-9.324.215q-6.094.286-12.188.57c-3.469.164-6.933.484-10.4.73q-4.044.282-8.082.621-11.309.956-22.614,1.954c-5.957.523-11.929.906-17.886,1.4q-20.455,1.693-40.879,3.684c-12.438,1.226-24.864,2.5-37.278,3.953q-9.075,1.066-18.148,2.109c-3.188.371-6.375.723-9.559,1.125-1.515.2-3.035.379-4.554.563-.805.1-1.61.195-2.414.289a20.347,20.347,0,0,0-4.7.781,6.5,6.5,0,0,0-3.886,9.547,6.247,6.247,0,0,0,3.886,2.988,45.6,45.6,0,0,0,6.75.586c.981.008,1.957-.008,2.934-.051q3.393-.141,6.781-.289c3.324-.141,6.645-.391,9.965-.6,5.992-.387,11.988-.707,17.98-1.063q11.228-.668,22.442-1.16c6.406-.273,12.816-.4,19.223-.563,13.585-.339,27.187-.3,40.777-.347,13.133-.043,26.281-.235,39.41.133,13.7.386,27.391.816,41.094,1.047,6.969.119,13.942.136,20.915.181q-3.024.427-6.048.861c-6.938.993-13.855,2.133-20.77,3.27-3.39.559-6.769,1.2-10.156,1.8-3.293.586-6.621,1-9.929,1.492-4.954.726-9.918,1.383-14.879,2.062-4.465.61-8.9,1.391-13.36,2.059-9.98,1.5-19.979,2.887-29.982,4.235-7.412.963-14.8,1.971-22.151,3.339a6.29,6.29,0,0,0-3.886,2.985,6.5,6.5,0,0,0,2.332,8.894,6.9,6.9,0,0,0,5.008.656c5.122-.955,10.256-1.733,15.414-2.449,13.1-1.7,26.2-3.491,39.257-5.512q11.087-1.716,22.192-3.226,9.768-1.342,19.465-3.078c12.191-2.178,24.453-3.933,36.713-5.688Q459.26,631.75,471.1,630.2c4.227-.562,8.441-1.218,12.656-1.871,1.668-.258,3.328-.562,4.989-.863a52.1,52.1,0,0,0,9.082-2.078,6.5,6.5,0,0,0,4.539-8c-.887-4.938-6.582-5.649-10.6-6.18-1.586-.207-3.168-.418-4.758-.563q-4.8-.434-9.594-.89c-6.586-.625-13.207-.867-19.82-1.09-4.2-.137-8.414-.129-12.621-.121-1.977,0-3.949.008-5.918,0q-10.811-.07-21.617-.184c-12.625-.132-25.239-.589-37.86-.952,4.382-.3,8.764-.572,13.153-.778,3.015-.141,6.031-.313,9.051-.371q5.4-.1,10.8-.211,21.113-.4,42.215-1.1c12.9-.4,25.809-.347,38.711-.742,13.969-.426,27.942-.961,41.918-1.289q20.883-.492,41.75-1.344c13.473-.547,26.953-.949,40.43-1.422,11.848-.418,23.707-.507,35.555-1.007,6.586-.278,13.164-.563,19.75-.77,2.984-.094,5.968-.168,8.953-.3q3.24-.139,6.484-.289l1.473-.066c.98-.043,1.953-.113,2.929-.211a11.166,11.166,0,0,0,2.954-.531,6.512,6.512,0,0,0,4.773-6.266,6.561,6.561,0,0,0-6.5-6.5h-6.355c-10.161,0-20.325.008-30.485-.121-6.285-.078-12.574-.156-18.844-.641-3.058-.234-6.1-.593-9.16-.9-3.148-.313-6.312-.465-9.472-.625s-6.3-.387-9.446-.543c-3.539-.176-7.07-.238-10.609-.27-6.645-.062-13.293-.1-19.938-.171-6.757-.079-13.507-.235-20.261-.415-6.145-.167-12.282-.57-18.43-.7-8.12-.172-16.244-.206-24.367-.206q-7.715,0-15.43.015Z" transform="translate(114.271 -177.615)" fill="#888"/>
  </g>
</svg>