<svg width="1000" height="700" viewBox="0 0 1000 700" fill="none" xmlns="http://www.w3.org/2000/svg">
<rect width="1000" height="700" fill="#FCFCFF"/>
<path fill-rule="evenodd" clip-rule="evenodd" d="M454.807 177.656C566.219 96.0632 692.608 71.906 775.017 74.7154L775.535 74.7331L775.499 75.2504C759.774 297.639 664.761 435.743 552.349 518.004C439.956 600.25 310.203 626.651 224.994 625.715L224.449 625.709L224.502 625.166C246.965 398.297 343.376 259.262 454.807 177.656ZM225.552 624.721C310.589 625.537 439.807 599.12 551.758 517.197C663.842 435.176 758.65 297.495 774.464 75.6975C692.236 73.0135 566.371 97.191 455.397 178.463C344.298 259.827 248.087 398.441 225.552 624.721Z" fill="black" stroke="black" stroke-width="3"/>
</svg>
