<svg width="1000" height="700" viewBox="0 0 1000 700" fill="none" xmlns="http://www.w3.org/2000/svg">
<rect width="1000" height="700" fill="#FCFCFF"/>
<path fill-rule="evenodd" clip-rule="evenodd" d="M225.5 243.504V624.5H528.061C689.414 624.5 759.546 561.09 774.5 529.502V204.245C752.07 120.226 701.702 75.6277 651.531 75.6278H651.523C494.438 73.3843 390.702 100.962 324.854 136.307C259.031 171.638 231.096 214.708 225.5 243.504ZM651.534 74.6278C494.336 72.3831 390.42 99.979 324.381 135.426C258.352 170.867 230.159 214.178 224.509 243.361L224.5 243.408V625.5H528.061C689.802 625.5 760.373 561.864 775.452 529.827L775.5 529.726V204.114L775.483 204.051C753.007 119.784 702.37 74.6299 651.534 74.6278Z" fill="black" stroke="black" stroke-width="3"/>
</svg>
