<svg width="1000" height="700" viewBox="0 0 1000 700" fill="none" xmlns="http://www.w3.org/2000/svg">
<rect width="1000" height="700" fill="#FCFCFF"/>
<path fill-rule="evenodd" clip-rule="evenodd" d="M561.683 74.5H651.595L651.658 74.5165C687.486 83.9449 762.019 144.434 775.498 310.674L775.5 310.694V434.325L775.426 434.445C739.784 492.599 604.554 612.023 348.496 625.499L348.483 625.5H224.5V422.925L224.505 422.891C237.617 327.357 323.394 123.956 561.633 74.5104L561.683 74.5ZM561.786 75.5C324.173 124.842 238.593 327.703 225.5 422.993V624.5H348.457C604.05 611.044 738.942 491.919 774.5 434.043V310.734C761.044 144.842 686.75 84.833 651.466 75.5H561.786Z" fill="black" stroke="black" stroke-width="3"/>
</svg>
