<svg width="1000" height="700" viewBox="0 0 1000 700" fill="none" xmlns="http://www.w3.org/2000/svg">
<rect width="1000" height="700" fill="#FCFCFF"/>
<path fill-rule="evenodd" clip-rule="evenodd" d="M224.5 74.5H303.614L303.656 74.5072C374.818 86.6796 483.776 125.435 579.445 202.148C675.125 278.87 757.521 393.567 775.497 557.599L775.5 557.626V625.5H483.138L483.112 625.497C446.56 621.748 389.795 606.01 338.227 570.975C286.648 535.933 240.253 481.576 224.509 400.606L224.5 400.558V74.5ZM225.5 75.5V400.462C241.193 481.098 287.393 535.23 338.789 570.148C390.193 605.071 446.781 620.761 483.189 624.5H774.5V557.68C756.552 393.972 674.325 279.51 578.82 202.928C483.317 126.349 374.545 87.6553 303.529 75.5H225.5Z" fill="black" stroke="black" stroke-width="3"/>
</svg>
