<svg width="1000" height="700" viewBox="0 0 1000 700" fill="none" xmlns="http://www.w3.org/2000/svg">
<rect width="1000" height="700" fill="#FCFCFF"/>
<path fill-rule="evenodd" clip-rule="evenodd" d="M438.214 77.2924C653.954 54.9335 752.943 172.329 775.47 233.964L775.5 234.047V312.331L775.498 312.353C757.517 513.611 618.157 604.958 550.656 625.478L550.585 625.5H449.49C395.421 625.5 346.661 594.684 307.71 556.257C268.751 517.822 239.537 471.707 224.551 440.954L224.5 440.851V340.214C228.998 165.678 368.822 92.217 438.16 77.3009L438.187 77.2952L438.214 77.2924ZM438.344 78.2843C369.239 93.1612 229.984 166.37 225.5 340.234V440.62C240.461 471.289 269.592 517.246 308.412 555.545C347.284 593.894 395.804 624.5 449.49 624.5H550.436C617.653 604.031 756.56 512.974 774.5 312.286V234.224C752.071 172.995 653.508 55.9957 438.344 78.2843Z" fill="black" stroke="black" stroke-width="3"/>
</svg>
