<svg width="1000" height="700" viewBox="0 0 1000 700" fill="none" xmlns="http://www.w3.org/2000/svg">
<rect width="1000" height="700" fill="#FCFCFF"/>
<path fill-rule="evenodd" clip-rule="evenodd" d="M225.5 238.156V333.408C232.225 411.706 282.149 476.536 341.912 525.789C401.641 575.012 471.132 608.618 516.921 624.5H601.02C625.509 624.5 647.551 610.601 667.129 587.877C686.705 565.155 703.763 533.67 718.275 498.648C747.292 428.624 766.083 344.582 774.5 288.535V176.43C774.5 147.53 754.102 124.766 728.426 108.021C702.785 91.3 672.005 80.6688 651.468 75.9998C494.41 71.5226 390.689 97.6798 324.849 132.156C259.029 166.622 231.096 209.381 225.5 238.156ZM324.385 131.27C390.427 96.6884 494.344 70.5143 651.545 75.0016L651.594 75.003L651.641 75.0138C672.261 79.6958 703.187 90.3683 728.972 107.184C754.741 123.989 775.5 147.015 775.5 176.43V288.61L775.495 288.647C767.072 344.743 748.263 428.892 719.199 499.031C704.668 534.098 687.561 565.693 667.887 588.53C648.214 611.364 625.92 625.5 601.02 625.5H516.753L516.673 625.472C470.794 609.57 401.147 575.9 341.276 526.56C281.411 477.225 231.253 412.164 224.502 333.472L224.5 333.451V238.06L224.509 238.013C230.159 208.848 258.354 165.846 324.385 131.27Z" fill="black" stroke="black" stroke-width="3"/>
</svg>
