<svg width="1000" height="700" viewBox="0 0 1000 700" fill="none" xmlns="http://www.w3.org/2000/svg">
<rect width="1000" height="700" fill="#FCFCFF"/>
<path fill-rule="evenodd" clip-rule="evenodd" d="M353.997 74.5H449.5L449.511 74.5005C660.667 83.4858 754.783 179.341 775.458 226.329L775.5 226.425V333.175L775.499 333.188C766.514 517.385 689.384 604.752 651.772 625.438L651.659 625.5H533.673L533.661 625.5C349.487 621.008 250.925 556.247 224.614 524.297L224.5 524.159V422.946L224.501 422.932C231.238 299.416 254.165 215.633 280.11 161.074C306.044 106.537 335.025 81.14 353.916 74.5281L353.997 74.5ZM354.167 75.5C335.64 82.0274 306.861 107.146 281.013 161.503C255.139 215.913 232.233 299.557 225.5 422.973V523.8C251.741 555.505 349.961 620.017 533.678 624.5H651.402C688.661 603.918 765.532 516.924 774.5 333.151V226.636C753.932 180.052 660.212 84.4704 449.479 75.5H354.167Z" fill="black" stroke="black" stroke-width="3"/>
</svg>
