<svg width="1000" height="700" viewBox="0 0 1000 700" fill="none" xmlns="http://www.w3.org/2000/svg">
<rect width="1000" height="700" fill="#FCFCFF"/>
<path fill-rule="evenodd" clip-rule="evenodd" d="M446.041 74.5H775.512L775.5 75.0122C766.424 447.731 586.399 597.206 497.316 625.34L497.242 625.364H400.786C355.214 627.613 316.339 601.774 286.292 568.67C256.238 535.558 234.945 495.102 224.533 467.939L224.5 467.852V344.299L224.502 344.276C231.319 267.82 269.667 206.932 314.801 161.895C359.932 116.861 411.874 87.6482 445.954 74.5334L446.041 74.5ZM446.227 75.5C412.264 88.5853 360.493 117.714 315.508 162.603C270.492 207.522 232.296 268.195 225.5 344.343V467.667C235.89 494.741 257.11 535.031 287.033 567.998C316.992 601.006 355.604 626.598 400.748 624.364L400.761 624.364H497.088C585.653 596.343 765.269 447.424 774.488 75.5H446.227Z" fill="black" stroke="black" stroke-width="3"/>
</svg>
