<svg xmlns="http://www.w3.org/2000/svg" xmlns:xlink="http://www.w3.org/1999/xlink" width="1000" height="700" viewBox="0 0 1000 700"><defs><clipPath id="b"><rect width="1000" height="700"/></clipPath></defs><g id="a" clip-path="url(#b)"><rect width="1000" height="700" fill="#fcfcff"/><rect width="492" height="165" rx="10" transform="translate(254 375)" fill="#888"/><rect width="492" height="165" rx="10" transform="translate(254 160)" fill="#888"/><path d="M82.5,0H307a0,0,0,0,1,0,0V165a0,0,0,0,1,0,0H82.5A82.5,82.5,0,0,1,0,82.5v0A82.5,82.5,0,0,1,82.5,0Z" transform="translate(439 375)" fill="#d5d5d5"/><rect width="317" height="25" rx="5" transform="translate(342 445)" fill="#fff"/><rect width="317" height="25" rx="5" transform="translate(342 230)" fill="#fff"/></g></svg>