<svg xmlns="http://www.w3.org/2000/svg" xmlns:xlink="http://www.w3.org/1999/xlink" width="1000" height="700" viewBox="0 0 1000 700"><defs><clipPath id="b"><rect width="1000" height="700"/></clipPath></defs><g id="a" clip-path="url(#b)"><rect width="1000" height="700" fill="#fcfcff"/><rect width="580" height="165" rx="10" transform="translate(210 160)" fill="#888"/><g transform="translate(210 375)" fill="none" stroke="#888" stroke-width="5"><rect width="580" height="165" rx="10" stroke="none"/><rect x="2.5" y="2.5" width="575" height="160" rx="7.5" fill="none"/></g><rect width="317" height="25" rx="5" transform="translate(287 232)" fill="#fff"/><rect width="317" height="25" rx="5" transform="translate(287 447)" fill="#888"/><g transform="translate(654 216)"><line stroke="#449fdb" stroke-width="1"/><path d="M60,13.25A6.248,6.248,0,0,0,53.75,7H6.25A6.248,6.248,0,0,0,0,13.25v33.5A6.248,6.248,0,0,0,6.25,53h47.5A6.247,6.247,0,0,0,60,46.75ZM52.7,44.14a1.255,1.255,0,0,1-1.766.082L38.146,32.542,37.182,33.6a8.958,8.958,0,0,1-13.352,0l-.964-1.056L10.078,44.222a1.257,1.257,0,0,1-.842.324,1.236,1.236,0,0,1-.922-.406,1.253,1.253,0,0,1,.08-1.766L21.182,30.7,8.312,16.632a1.251,1.251,0,0,1,1.848-1.686L25.676,31.91a6.61,6.61,0,0,0,9.666,0L50.828,14.966a1.251,1.251,0,0,1,1.848,1.688L39.836,30.7,52.628,42.372A1.265,1.265,0,0,1,52.7,44.14Z" fill="#fff"/></g><g transform="translate(654 431)"><line stroke="#449fdb" stroke-width="1"/><path d="M60,13.25A6.248,6.248,0,0,0,53.75,7H6.25A6.248,6.248,0,0,0,0,13.25v33.5A6.248,6.248,0,0,0,6.25,53h47.5A6.247,6.247,0,0,0,60,46.75ZM52.7,44.14a1.255,1.255,0,0,1-1.766.082L38.146,32.542,37.182,33.6a8.958,8.958,0,0,1-13.352,0l-.964-1.056L10.078,44.222a1.257,1.257,0,0,1-.842.324,1.236,1.236,0,0,1-.922-.406,1.253,1.253,0,0,1,.08-1.766L21.182,30.7,8.312,16.632a1.251,1.251,0,0,1,1.848-1.686L25.676,31.91a6.61,6.61,0,0,0,9.666,0L50.828,14.966a1.251,1.251,0,0,1,1.848,1.688L39.836,30.7,52.628,42.372A1.265,1.265,0,0,1,52.7,44.14Z" fill="#888"/></g></g></svg>