<svg xmlns="http://www.w3.org/2000/svg" xmlns:xlink="http://www.w3.org/1999/xlink" width="1000" height="700" viewBox="0 0 1000 700"><defs><clipPath id="b"><rect width="1000" height="700"/></clipPath></defs><g id="a" clip-path="url(#b)"><rect width="1000" height="700" fill="#fcfcff"/><rect width="492" height="165" rx="10" transform="translate(254 185)" fill="#888"/><rect width="492" height="165" rx="10" transform="translate(254 392)" fill="#888"/><path d="M10,0H482a10,10,0,0,1,10,10V131a0,0,0,0,1,0,0H0a0,0,0,0,1,0,0V10A10,10,0,0,1,10,0Z" transform="translate(254 392)" fill="#d5d5d5"/><rect width="317" height="25" rx="5" transform="translate(342 255)" fill="#fff"/><rect width="317" height="25" rx="5" transform="translate(342 462)" fill="#fff"/></g></svg>