<svg xmlns="http://www.w3.org/2000/svg" xmlns:xlink="http://www.w3.org/1999/xlink" width="1000" height="700" viewBox="0 0 1000 700"><defs><clipPath id="b"><rect width="1000" height="700"/></clipPath></defs><g id="a" clip-path="url(#b)"><rect width="1000" height="700" fill="#fcfcff"/><rect width="271" height="25" rx="5" transform="translate(439 338)" fill="#888"/><circle cx="51.5" cy="51.5" r="51.5" transform="translate(290 299)" fill="#d5d5d5"/><g transform="translate(315 322.627)"><line transform="translate(0 0.373)" stroke="#449fdb" stroke-width="1"/><path d="M49.295,47.6c-4.229-2.632-6.034-5.327-6.034-9.01,0-2.972,1.605-5.65,4.776-7.961a.857.857,0,0,0,.343-.6.839.839,0,0,0-.216-.658c-2.9-3.2-5.946-4.757-9.307-4.757a17.044,17.044,0,0,0-5.99,1.352,9.126,9.126,0,0,1-2.586.724,10.4,10.4,0,0,1-2.5-.668,19.625,19.625,0,0,0-6.32-1.345c-4.513,0-7.9,2.69-10.372,8.224-4.465,10.02,4.747,23.531,4.844,23.661,2.232,3.1,4.586,4.6,7.2,4.6a12.735,12.735,0,0,0,4.392-1.037,9.6,9.6,0,0,1,3.12-.811,9.8,9.8,0,0,1,3.321.857,11.772,11.772,0,0,0,4.212,1.024c4.043,0,7.571-3.863,11.441-12.53a.848.848,0,0,0-.323-1.068Z" transform="translate(-4.276 -10.661)" fill="#888"/><path d="M44.169,13.312a5.956,5.956,0,0,0,.74.044,9.528,9.528,0,0,0,6.958-3.729,10,10,0,0,0,2.477-8.082.847.847,0,0,0-.913-.7A11.465,11.465,0,0,0,43.421,12.5a.854.854,0,0,0,.748.809Z" transform="translate(-18.807 -0.368)" fill="#888"/></g></g></svg>