<svg xmlns="http://www.w3.org/2000/svg" xmlns:xlink="http://www.w3.org/1999/xlink" width="1000" height="700" viewBox="0 0 1000 700"><defs><clipPath id="b"><rect width="1000" height="700"/></clipPath></defs><g id="a" clip-path="url(#b)"><rect width="1000" height="700" fill="#fcfcff"/><rect width="492" height="165" rx="10" transform="translate(254 155)" fill="#888"/><rect width="492" height="165" rx="10" transform="translate(254 380)" fill="#888"/><rect width="317" height="25" rx="5" transform="translate(342 225)" fill="#fff"/><g transform="translate(-10861 -10510)" fill="#f2f2f2" stroke-linecap="round" stroke-linejoin="round"><path d="M 11190.9287109375 11051.8759765625 L 11116.50390625 10973.3046875 L 11118.0537109375 10893.8154296875 L 11541.2607421875 10893.3486328125 L 11604.609375 10973.669921875 L 11603.30859375 11051.5263671875 L 11190.9287109375 11051.8759765625 Z" stroke="none"/><path d="M 11191.1435546875 11051.3759765625 L 11602.8173828125 11051.02734375 L 11604.1064453125 10973.83984375 L 11541.0185546875 10893.849609375 L 11118.5439453125 10894.3154296875 L 11117.0078125 10973.109375 L 11191.1435546875 11051.3759765625 M 11190.7138671875 11052.3759765625 L 11116 10973.5 L 11117.5634765625 10893.31640625 L 11541.5029296875 10892.8486328125 L 11605.1123046875 10973.5 L 11603.80078125 11052.0263671875 L 11190.7138671875 11052.3759765625 Z" stroke="none" fill="#888"/></g><rect width="317" height="25" rx="5" transform="translate(342 450)" fill="#888"/></g></svg>