<svg xmlns="http://www.w3.org/2000/svg" xmlns:xlink="http://www.w3.org/1999/xlink" width="1000" height="700" viewBox="0 0 1000 700"><defs><clipPath id="b"><rect width="1000" height="700"/></clipPath></defs><g id="a" clip-path="url(#b)"><rect width="1000" height="700" fill="#fcfcff"/><rect width="492" height="165" rx="10" transform="translate(254 155)" fill="#888"/><g transform="translate(254 370)" fill="none" stroke="#888" stroke-width="5"><rect width="492" height="165" rx="10" stroke="none"/><rect x="2.5" y="2.5" width="487" height="160" rx="7.5" fill="none"/></g><rect width="300" height="25" rx="5" transform="translate(402 243)" fill="#fff"/><rect width="287" height="25" rx="5" transform="translate(402 458)" fill="#888"/><rect width="220" height="11" rx="3" transform="translate(402 208)" fill="#fff"/><rect width="210" height="11" rx="3" transform="translate(402 423)" fill="#888"/><g transform="translate(289 193)"><line stroke="#449fdb" stroke-width="1"/><path d="M79.431,65.169c-7.461-4.644-10.647-9.4-10.647-15.9,0-5.244,2.832-9.969,8.427-14.046a1.512,1.512,0,0,0,.606-1.062A1.48,1.48,0,0,0,77.436,33c-5.121-5.649-10.491-8.394-16.422-8.394a30.072,30.072,0,0,0-10.569,2.385,16.1,16.1,0,0,1-4.563,1.278,18.357,18.357,0,0,1-4.407-1.179c-3.111-1.059-6.981-2.373-11.151-2.373-7.962,0-13.947,4.746-18.3,14.511C4.146,56.91,20.4,80.748,20.571,80.979c3.939,5.466,8.091,8.124,12.7,8.124a22.47,22.47,0,0,0,7.749-1.83,16.937,16.937,0,0,1,5.505-1.431,17.3,17.3,0,0,1,5.859,1.512,20.77,20.77,0,0,0,7.431,1.806c7.134,0,13.359-6.816,20.187-22.107a1.5,1.5,0,0,0-.57-1.884Z" fill="#fff"/><path d="M44.748,22.839a10.509,10.509,0,0,0,1.305.078c4.245,0,8.835-2.46,12.276-6.579C61.962,11.994,63.555,6.8,62.7,2.079A1.494,1.494,0,0,0,61.089.852c-7.713.7-18.144,8.244-17.661,20.559a1.506,1.506,0,0,0,1.32,1.428Z" fill="#fff"/></g><g transform="translate(305 418.845)"><g transform="translate(0 0.155)"><line transform="translate(0 0)" stroke="#449fdb" stroke-width="1"/></g><path d="M46.442,20.459,15.068,2.346,38.113,30.694Z" transform="translate(2.048 0.319)" fill="#888"/><path d="M9.933.034c-.016,0-.011,0,0,0A.156.156,0,0,0,9.906,0C5.821.129,3.54,3.54,3.54,8.563V59.588c0,5.089,2.26,8.513,6.445,8.567L37.6,33.9,9.933.034Z" transform="translate(0.481)" fill="#888"/><path d="M14.53,61.438,46.692,42.859,38.182,32.39Z" transform="translate(1.975 4.402)" fill="#888"/><path d="M54.23,24.319l-7.627-4.4L37.418,31.193,46.78,42.712l7.449-4.3c3.1-1.795,4.819-4.305,4.819-7.049S57.337,26.116,54.23,24.319Z" transform="translate(5.086 2.707)" fill="#888"/></g></g></svg>