<svg xmlns="http://www.w3.org/2000/svg" xmlns:xlink="http://www.w3.org/1999/xlink" width="1000" height="700" viewBox="0 0 1000 700"><defs><clipPath id="b"><rect width="1000" height="700"/></clipPath></defs><g id="a" clip-path="url(#b)"><rect width="1000" height="700" fill="#fcfcff"/><rect width="580" height="165" rx="10" transform="translate(210 268)" fill="#888"/><rect width="271" height="25" rx="5" transform="translate(308 338)" fill="#fff"/><g transform="translate(627 315)"><line stroke="#449fdb" stroke-width="1"/><path d="M57.412,28.578H22.175A1.175,1.175,0,0,0,21,29.753V53.7c0,3.881,3.129,7.694,7.048,9.305v7.975a4.977,4.977,0,0,0,4.7,4.482,4.977,4.977,0,0,0,4.7-4.482V63.816h4.7v7.167a4.977,4.977,0,0,0,4.7,4.482,4.977,4.977,0,0,0,4.7-4.482V63.12c3.93-1.513,7.048-5.356,7.048-9.418V29.753a1.177,1.177,0,0,0-1.175-1.175Z" transform="translate(-4.556 -6.2)" fill="#fff"/><path d="M21.3,19.075a1.129,1.129,0,0,0,.319.9,1.272,1.272,0,0,0,.919.385H57.23a1.286,1.286,0,0,0,.921-.385,1.132,1.132,0,0,0,.317-.9c-.679-6.5-3.221-10.181-6.653-12.242l2.763-3.4a1.133,1.133,0,0,0-.23-1.647A1.289,1.289,0,0,0,52.609,2L49.557,5.762a27.417,27.417,0,0,0-9.672-1.419A26.265,26.265,0,0,0,29.657,5.985L26.427,2a1.29,1.29,0,0,0-1.738-.216,1.142,1.142,0,0,0-.233,1.649L27.48,7.162c-3.185,2.107-5.535,5.725-6.178,11.913Z" transform="translate(-4.62 -0.335)" fill="#fff"/><path d="M77.286,28.578H76.111A4.116,4.116,0,0,0,72,32.689v15.27a4.116,4.116,0,0,0,4.111,4.111h1.175A4.116,4.116,0,0,0,81.4,47.959V32.689A4.116,4.116,0,0,0,77.286,28.578Z" transform="translate(-15.62 -6.2)" fill="#fff"/><path d="M11.286,28.578H10.111A4.116,4.116,0,0,0,6,32.689v15.27a4.116,4.116,0,0,0,4.111,4.111h1.175A4.116,4.116,0,0,0,15.4,47.959V32.689A4.116,4.116,0,0,0,11.286,28.578Z" transform="translate(-1.302 -6.2)" fill="#fff"/></g></g></svg>