<svg xmlns="http://www.w3.org/2000/svg" xmlns:xlink="http://www.w3.org/1999/xlink" width="1000" height="700" viewBox="0 0 1000 700"><defs><clipPath id="b"><rect width="1000" height="700"/></clipPath></defs><g id="a" clip-path="url(#b)"><rect width="1000" height="700" fill="#fcfcff"/><rect width="317" height="25" rx="5" transform="translate(389 279)" fill="#888"/><rect width="317" height="25" rx="5" transform="translate(315 397)" fill="#888"/><g transform="translate(295 261)"><line stroke="#449fdb" stroke-width="1"/><path d="M22.5,59.5a1.968,1.968,0,0,1-.956-.246,2,2,0,0,1-.8-2.71L35.222,30,20.746,3.458a2,2,0,0,1,3.512-1.914l15,27.5a2.006,2.006,0,0,1,0,1.914l-15,27.5A2,2,0,0,1,22.5,59.5Z" fill="#888"/></g><g transform="translate(666 380)"><line stroke="#449fdb" stroke-width="1"/><path d="M22.5,59.5a1.968,1.968,0,0,1-.956-.246,2,2,0,0,1-.8-2.71L35.222,30,20.746,3.458a2,2,0,0,1,3.512-1.914l15,27.5a2.006,2.006,0,0,1,0,1.914l-15,27.5A2,2,0,0,1,22.5,59.5Z" fill="#888"/></g></g></svg>