<svg xmlns="http://www.w3.org/2000/svg" xmlns:xlink="http://www.w3.org/1999/xlink" width="1000" height="700" viewBox="0 0 1000 700"><defs><clipPath id="b"><rect width="1000" height="700"/></clipPath></defs><g id="a" clip-path="url(#b)"><rect width="1000" height="700" fill="#fcfcff"/><rect width="317" height="25" rx="5" transform="translate(286 284)" fill="#888"/><rect width="317" height="25" rx="5" transform="translate(286 401)" fill="#888"/><g transform="translate(652 267)"><line stroke="#449fdb" stroke-width="1"/><path d="M27.988,11.508a2,2,0,1,0-3.472,1.984L33.95,30,24.518,46.508A2,2,0,1,0,27.99,48.49l10-17.5a2,2,0,0,0,0-1.984l-10-17.5Z" fill="#888"/><path d="M30,0A30,30,0,1,0,60,30,30,30,0,0,0,30,0Zm0,56A26,26,0,1,1,56,30,26.03,26.03,0,0,1,30,56Z" fill="#888"/></g><g transform="translate(676 384)"><line stroke="#449fdb" stroke-width="1"/><path d="M27.988,11.508a2,2,0,1,0-3.472,1.984L33.95,30,24.518,46.508A2,2,0,1,0,27.99,48.49l10-17.5a2,2,0,0,0,0-1.984l-10-17.5Z" fill="#888"/></g><path d="M0,0H56.971" transform="translate(651.529 413.5)" fill="none" stroke="#888" stroke-linecap="round" stroke-width="3"/></g></svg>