<svg xmlns="http://www.w3.org/2000/svg" xmlns:xlink="http://www.w3.org/1999/xlink" width="1000" height="700" viewBox="0 0 1000 700"><defs><clipPath id="b"><rect width="1000" height="700"/></clipPath></defs><g id="a" clip-path="url(#b)"><rect width="1000" height="700" fill="#fcfcff"/><rect width="580" height="165" rx="10" transform="translate(210 160)" fill="#888"/><g transform="translate(210 375)" fill="none" stroke="#888" stroke-width="5"><rect width="580" height="165" rx="10" stroke="none"/><rect x="2.5" y="2.5" width="575" height="160" rx="7.5" fill="none"/></g><rect width="317" height="25" rx="5" transform="translate(308 234)" fill="#fff"/><rect width="317" height="25" rx="5" transform="translate(308 449)" fill="#888"/><g transform="translate(654 217)"><line stroke="#449fdb" stroke-width="1"/><path d="M27.988,11.508a2,2,0,1,0-3.472,1.984L33.95,30,24.518,46.508A2,2,0,1,0,27.99,48.49l10-17.5a2,2,0,0,0,0-1.984l-10-17.5Z" fill="#fff"/></g><g transform="translate(654 432)"><line stroke="#449fdb" stroke-width="1"/><path d="M27.988,11.508a2,2,0,1,0-3.472,1.984L33.95,30,24.518,46.508A2,2,0,1,0,27.99,48.49l10-17.5a2,2,0,0,0,0-1.984l-10-17.5Z" fill="#888"/></g></g></svg>